<?xml version="1.0" encoding="iso-8859-1"?>
<!-- Generator: Adobe Illustrator 19.0.0, SVG Export Plug-In . SVG Version: 6.00 Build 0)  -->
<svg version="1.1" id="Capa_1" xmlns="http://www.w3.org/2000/svg" xmlns:xlink="http://www.w3.org/1999/xlink" x="0px" y="0px"
	 viewBox="0 0 512 512" style="enable-background:new 0 0 512 512;" xml:space="preserve">
<path style="fill:#FFB655;" d="M382.165,323.369V220.83c0-69.322-56.196-125.518-125.518-125.518l0,0
	c-69.322,0-125.518,56.196-125.518,125.518v102.539l-61.008,67.074v49.827h373.053v-49.827L382.165,323.369z"/>
<g>
	<path style="fill:#FFE477;" d="M256.648,504.5L256.648,504.5c-17.65,0-31.957-14.308-31.957-31.957V440.27h63.915v32.273
		C288.605,490.192,274.298,504.5,256.648,504.5z"/>
	<path style="fill:#FFE477;" d="M256,7.5c-24.25,0-43.908,19.658-43.908,43.908S231.75,95.316,256,95.316
		s43.908-19.658,43.908-43.908S280.25,7.5,256,7.5z M256,70.828c-10.726,0-19.42-8.695-19.42-19.42
		c0-10.726,8.695-19.42,19.42-19.42c10.726,0,19.42,8.695,19.42,19.42S266.726,70.828,256,70.828z"/>
</g>
<path style="fill:#FF7956;" d="M161.131,323.369V220.83c0-64.246,48.268-117.217,110.518-124.63c-4.918-0.586-9.924-0.888-15-0.888
	l0,0c-69.322,0-125.518,56.196-125.518,125.518v102.539l-61.008,67.074v49.827h30v-49.827L161.131,323.369z"/>
<g>
	<path style="fill:#FFB655;" d="M254.691,472.543V440.27h-30v32.273c0,17.649,14.308,31.957,31.957,31.957
		c5.421,0,10.527-1.35,15-3.732C261.559,495.395,254.691,484.771,254.691,472.543z"/>
	<path style="fill:#FFB655;" d="M286,70.828c4.023,0,7.761-1.224,10.862-3.319c1.966-4.985,3.046-10.417,3.046-16.101
		s-1.08-11.116-3.046-16.101c-3.1-2.095-6.838-3.319-10.862-3.319c-6.041,0-11.438,2.759-15,7.085
		c2.762,3.354,4.42,7.651,4.42,12.336c0,4.684-1.659,8.981-4.42,12.336C274.562,68.07,279.959,70.828,286,70.828z"/>
	<path style="fill:#FFB655;" d="M245.138,67.509c-5.164-3.49-8.559-9.399-8.559-16.101s3.395-12.611,8.559-16.101
		c4.6-11.664,14.049-20.884,25.862-25.177c-4.68-1.701-9.732-2.63-15-2.63c-24.25,0-43.908,19.658-43.908,43.908
		S231.75,95.316,256,95.316c5.268,0,10.32-0.928,15-2.63C259.187,88.392,249.738,79.172,245.138,67.509z"/>
</g>
<path d="M389.665,220.83c0-73.346-59.672-133.018-133.018-133.018S123.631,147.484,123.631,220.83v99.638l-61.009,67.074v60.228
	h388.053v-60.228l-61.009-67.074L389.665,220.83L389.665,220.83z M435.674,393.344v39.426H77.622v-39.426l61.009-67.074V220.83
	c0-65.075,52.942-118.018,118.018-118.018s118.018,52.943,118.018,118.018v105.44L435.674,393.344z"/>
<rect x="148.63" y="275" width="15" height="15"/>
<rect x="148.63" y="250" width="15" height="15"/>
<rect x="148.63" y="225" width="15" height="15"/>
<rect x="95.12" y="407.77" width="61.01" height="15"/>
<g>
	<path style="fill:#FFFFFF;" d="M326.082,159c15.209,17.059,23.585,39.017,23.584,61.83V260h15v-39.169
		c0.001-26.499-9.726-52.002-27.387-71.813L326.082,159z"/>
	<path style="fill:#FFFFFF;" d="M329.747,141.368c-3.942-3.629-8.187-6.992-12.614-9.995l-8.42,12.414
		c3.817,2.589,7.477,5.488,10.876,8.617L329.747,141.368z"/>
	<path style="fill:#FFFFFF;" d="M307.956,125.792c-4.719-2.557-9.664-4.775-14.697-6.593l-5.096,14.108
		c4.33,1.564,8.586,3.473,12.648,5.673L307.956,125.792z"/>
	<rect x="239.66" y="382.94" style="fill:#FFFFFF;" width="95.94" height="15"/>
	<rect x="345.59" y="382.94" style="fill:#FFFFFF;" width="15" height="15"/>
	<rect x="370.59" y="382.94" style="fill:#FFFFFF;" width="15" height="15"/>
</g>
<rect x="161.83" y="315.87" width="94.17" height="15"/>
<path d="M227.978,74.649c-5.407-6.512-8.386-14.766-8.386-23.241C219.592,31.333,235.925,15,256,15s36.408,16.333,36.408,36.408
	c0,8.493-2.838,16.454-8.207,23.022l11.613,9.493c7.477-9.146,11.594-20.693,11.594-32.515C307.408,23.062,284.346,0,256,0
	s-51.408,23.062-51.408,51.408c0,11.968,4.207,23.625,11.847,32.824L227.978,74.649z"/>
<path d="M256,24.487c-14.844,0-26.92,12.077-26.92,26.92s12.076,26.92,26.92,26.92s26.92-12.077,26.92-26.92
	S270.844,24.487,256,24.487z M256,63.328c-6.572,0-11.92-5.348-11.92-11.92s5.348-11.92,11.92-11.92s11.92,5.348,11.92,11.92
	S262.572,63.328,256,63.328z"/>
<path d="M348.225,80.036c3.992,2.605,7.921,5.416,11.677,8.352l9.238-11.817c-4.091-3.198-8.369-6.258-12.717-9.096L348.225,80.036z
	"/>
<path d="M347.534,62.027c-4.509-2.59-9.18-5.013-13.883-7.204l-6.332,13.599c4.317,2.01,8.604,4.234,12.744,6.612L347.534,62.027z"
	/>
<path d="M419.911,181.114l14.574-3.546c-8.921-36.668-28.742-69.295-57.32-94.353l-9.889,11.278
	C393.523,117.506,411.724,147.459,419.911,181.114z"/>
<path d="M482.345,162.831l-14.527,3.734c1.198,4.664,2.254,9.425,3.136,14.151l14.746-2.752
	C484.755,172.91,483.627,167.818,482.345,162.831z"/>
<path d="M474.522,138.209l-14.02,5.332c1.712,4.503,3.292,9.117,4.696,13.713l14.346-4.382
	C478.044,147.957,476.354,143.023,474.522,138.209z"/>
<path d="M420.813,55.627C399.573,34.52,374.901,17.911,347.48,6.261l-5.865,13.806c51.17,21.741,93.176,63.479,115.247,114.515
	l13.768-5.954C458.808,101.289,442.047,76.729,420.813,55.627z"/>
<path d="M171.937,75.034c4.14-2.377,8.427-4.602,12.744-6.612l-6.332-13.599c-4.703,2.19-9.374,4.614-13.883,7.204L171.937,75.034z"
	/>
<path d="M77.514,177.568l14.574,3.546c8.188-33.655,26.389-63.607,52.635-86.62l-9.889-11.278
	C106.256,108.272,86.435,140.899,77.514,177.568z"/>
<path d="M163.775,80.036l-8.198-12.562c-4.348,2.838-8.626,5.898-12.717,9.096l9.238,11.817
	C155.854,85.451,159.783,82.641,163.775,80.036z"/>
<path d="M170.383,20.067l-5.865-13.806c-27.42,11.65-52.092,28.259-73.331,49.366c-21.233,21.101-37.994,45.662-49.817,73
	l13.768,5.954C77.208,83.547,119.214,41.808,170.383,20.067z"/>
<path d="M32.455,152.873l14.346,4.382c1.404-4.597,2.984-9.21,4.696-13.713l-14.02-5.332
	C35.646,143.023,33.956,147.957,32.455,152.873z"/>
<path d="M26.301,177.965l14.746,2.752c0.882-4.727,1.938-9.488,3.136-14.151l-14.527-3.734
	C28.373,167.818,27.245,172.91,26.301,177.965z"/>
<path d="M281.105,472.543c0,13.486-10.972,24.457-24.457,24.457s-24.457-10.971-24.457-24.457V460.27h-15v12.273
	c0,21.757,17.7,39.457,39.457,39.457s39.457-17.7,39.457-39.457V460.27h-15V472.543z"/>
<g>
</g>
<g>
</g>
<g>
</g>
<g>
</g>
<g>
</g>
<g>
</g>
<g>
</g>
<g>
</g>
<g>
</g>
<g>
</g>
<g>
</g>
<g>
</g>
<g>
</g>
<g>
</g>
<g>
</g>
</svg>
