<svg height="512pt" viewBox="-117 0 512 512" width="512pt" xmlns="http://www.w3.org/2000/svg"><path d="m101.480469 117.300781h74.242187v116.378907h-74.242187zm0 0" fill="#efe2dd"/><path d="m152.558594 117.300781h23.164062v116.378907h-23.164062zm0 0" fill="#e1d3ce"/><path d="m177.859375 436.96875h-77.984375c-5.539062 7.769531-8.800781 17.273438-8.800781 27.542969 0 26.226562 21.261719 47.488281 47.488281 47.488281h.609375c26.226563 0 47.484375-21.261719 47.484375-47.488281 0-10.269531-3.257812-19.773438-8.796875-27.542969zm0 0" fill="#ffe1a8"/><path d="m186.652344 464.507812c0 26.226563-21.25 47.492188-47.480469 47.492188h-.609375c-3.78125 0-7.457031-.445312-10.980469-1.277344 20.921875-4.953125 36.496094-23.769531 36.496094-46.214844 0-10.269531-3.253906-19.765624-8.792969-27.539062h22.574219c5.539063 7.773438 8.792969 17.269531 8.792969 27.539062zm0 0" fill="#ffd98f"/><path d="m248.511719 360.011719c-14.28125-23.070313-21.847657-49.660157-21.847657-76.789063v-20.230468c0-28.167969-22.832031-51-51-51h-74.128906c-28.167968 0-51 22.832031-51 51v20.230468c0 27.128906-7.566406 53.71875-21.84375 76.789063l-16.464844 26.597656c-7.992187 12.90625-12.226562 27.789063-12.226562 42.972656 0 9.355469 7.585938 16.941407 16.941406 16.941407h243.316406c9.355469 0 16.941407-7.585938 16.941407-16.941407 0-15.183593-4.234375-30.066406-12.226563-42.972656zm0 0" fill="#ffc143"/><path d="m277.199219 429.585938c0 9.355468-7.582031 16.9375-16.945313 16.9375h-26.074218c9.367187 0 16.949218-7.582032 16.949218-16.9375 0-7.59375-1.0625-15.113282-3.121094-22.34375-2.050781-7.234376-5.113281-14.1875-9.109374-20.636719l-16.460938-26.597657c-14.277344-23.066406-21.839844-49.65625-21.839844-76.789062v-20.222656c0-28.167969-22.839844-51.003906-51.003906-51.003906h26.074219c28.164062 0 50.992187 22.835937 50.992187 51.003906v20.222656c0 27.132812 7.574219 53.722656 21.851563 76.789062l16.460937 26.597657c3.996094 6.449219 7.058594 13.402343 9.117188 20.636719 2.050781 7.230468 3.109375 14.75 3.109375 22.34375zm0 0" fill="#ffb509"/><path d="m87.808594 57.871094 13.867187 80.058594h73.851563l13.867187-80.058594c5.234375-30.222656-18.035156-57.871094-48.710937-57.871094h-4.167969c-30.675781 0-53.945313 27.648438-48.707031 57.871094zm0 0" fill="#8c6239"/><path d="m189.398438 57.875-13.875 80.054688h-22.972657l13.863281-80.054688c4.6875-27.039062-13.453124-52.023438-39.300781-56.976562 3.039063-.589844 6.183594-.898438 9.40625-.898438h4.164063c30.675781 0 53.949218 27.648438 48.714844 57.875zm0 0" fill="#7f522d"/></svg>