<?xml version="1.0" encoding="iso-8859-1"?>
<!-- Generator: Adobe Illustrator 19.0.0, SVG Export Plug-In . SVG Version: 6.00 Build 0)  -->
<svg version="1.1" id="Capa_1" xmlns="http://www.w3.org/2000/svg" xmlns:xlink="http://www.w3.org/1999/xlink" x="0px" y="0px"
	 viewBox="0 0 488.08 488.08" style="enable-background:new 0 0 488.08 488.08;" xml:space="preserve">
<path style="fill:#2D1D16;" d="M411.09,94.71L77.01,94.45c-9.68,0-17.57,7.88-17.58,17.57l-0.01,9.48c0,9.69,7.88,17.58,17.57,17.59
	h1.23l132.35,199.88l-0.05,64.11c0,1.33,0.52,2.6,1.46,3.54s2.21,1.47,3.53,1.47l56.61,0.04c1.38,0,2.63-0.56,3.54-1.46
	c0.9-0.9,1.46-2.15,1.46-3.53l0.05-64.13l12.79-19.23c0.49,0.25,1,0.49,1.53,0.69l16.32,5.95c1.45,0.53,2.94,0.78,4.4,0.78
	c5.26,0,10.22-3.25,12.13-8.47l1.87-5.15c1.07,0.05,2.13,0.08,3.17,0.08h0.07c1.03,0,2.07-0.03,3.11-0.07l1.87,5.14
	c1.89,5.24,6.86,8.5,12.14,8.5c1.45,0,2.93-0.25,4.38-0.77l16.31-5.93c6.69-2.42,10.15-9.84,7.72-16.52l-1.86-5.15
	c1.67-1.28,3.29-2.64,4.85-4.07l4.74,2.74c1.98,1.15,4.19,1.73,6.42,1.73c1.12,0,2.25-0.14,3.37-0.44c3.33-0.9,6.12-3.03,7.83-6
	l8.69-15.02c3.56-6.16,1.45-14.06-4.7-17.63l-4.73-2.73c0.46-2.06,0.83-4.15,1.1-6.25l5.39-0.94c6.99-1.23,11.69-7.93,10.47-14.93
	l-3.01-17.1c-1.22-6.99-7.92-11.69-14.93-10.47l-5.37,0.94c-0.98-1.87-2.04-3.71-3.17-5.49l3.51-4.19
	c4.57-5.44,3.86-13.59-1.58-18.16l-6.26-5.26l24.08-36.24h1.25c9.69,0,17.57-7.88,17.58-17.57l0.01-9.48
	C428.66,102.61,420.78,94.72,411.09,94.71z M385.92,192.58l-5.93,7.07c-0.08,0.09-0.13,0.19-0.2,0.28c-0.1,0.15-0.21,0.29-0.3,0.45
	c-0.08,0.14-0.14,0.28-0.21,0.43c-0.07,0.15-0.13,0.29-0.19,0.44c-0.05,0.16-0.09,0.32-0.12,0.48c-0.04,0.15-0.08,0.31-0.1,0.46
	c-0.02,0.16-0.02,0.32-0.03,0.48c-0.01,0.16-0.01,0.32,0,0.49c0.01,0.15,0.03,0.3,0.05,0.45c0.03,0.17,0.05,0.33,0.09,0.5
	c0.04,0.15,0.1,0.3,0.15,0.45c0.06,0.15,0.11,0.3,0.18,0.45c0.08,0.16,0.17,0.31,0.27,0.46c0.06,0.1,0.1,0.21,0.17,0.3
	c2.37,3.32,4.42,6.87,6.09,10.56c0.1,0.21,0.21,0.41,0.33,0.6c0.01,0.02,0.02,0.04,0.03,0.05c0.16,0.25,0.35,0.47,0.54,0.68
	l0.18,0.18c0.15,0.15,0.32,0.29,0.49,0.42c0.06,0.05,0.13,0.1,0.2,0.14c0.23,0.16,0.48,0.31,0.73,0.42
	c0.04,0.02,0.08,0.03,0.11,0.04c0.23,0.1,0.47,0.18,0.71,0.24c0.09,0.02,0.18,0.04,0.28,0.06c0.21,0.04,0.43,0.07,0.66,0.08
	c0.07,0.01,0.14,0.02,0.21,0.02c0.03,0,0.06,0.01,0.09,0.01c0.27,0,0.54-0.03,0.8-0.08h0.06l9.07-1.59
	c1.58-0.28,3.09,0.78,3.36,2.35l3.01,17.09c0.27,1.55-0.81,3.09-2.35,3.36l-9.1,1.59c-0.1,0.02-0.19,0.06-0.29,0.09
	c-0.19,0.04-0.39,0.09-0.58,0.16c-0.13,0.05-0.25,0.11-0.37,0.17c-0.17,0.08-0.34,0.15-0.5,0.25c-0.12,0.08-0.23,0.16-0.35,0.25
	c-0.14,0.1-0.28,0.21-0.41,0.33c-0.11,0.09-0.2,0.2-0.3,0.31c-0.12,0.13-0.24,0.26-0.35,0.4c-0.08,0.12-0.15,0.23-0.22,0.35
	c-0.1,0.16-0.19,0.31-0.27,0.48c-0.06,0.13-0.11,0.27-0.16,0.41c-0.06,0.16-0.12,0.32-0.17,0.49c-0.04,0.16-0.06,0.33-0.09,0.49
	c-0.01,0.13-0.05,0.25-0.06,0.37c-0.31,4.07-1.02,8.1-2.11,12c-0.04,0.12-0.04,0.24-0.06,0.36c-0.04,0.17-0.07,0.33-0.09,0.5
	s-0.02,0.34-0.02,0.51c0.01,0.15,0,0.3,0.02,0.45c0.01,0.18,0.05,0.35,0.09,0.53c0.02,0.14,0.05,0.27,0.09,0.41
	c0.05,0.17,0.12,0.33,0.18,0.49c0.06,0.14,0.11,0.27,0.18,0.41c0.08,0.15,0.17,0.29,0.26,0.43c0.09,0.12,0.17,0.25,0.27,0.37
	c0.11,0.14,0.23,0.26,0.35,0.39c0.1,0.1,0.2,0.21,0.32,0.31c0.14,0.12,0.3,0.22,0.46,0.33c0.09,0.06,0.17,0.13,0.26,0.19l7.98,4.61
	c1.38,0.8,1.85,2.58,1.05,3.96l-8.69,15.03c-0.38,0.66-1.01,1.14-1.76,1.34s-1.53,0.1-2.2-0.29l-7.99-4.62
	c-0.09-0.05-0.18-0.08-0.28-0.12c-0.17-0.09-0.35-0.18-0.53-0.24c-0.14-0.05-0.28-0.09-0.42-0.12c-0.17-0.05-0.34-0.09-0.52-0.12
	c-0.15-0.02-0.29-0.03-0.44-0.04c-0.18-0.01-0.35-0.02-0.52-0.01c-0.14,0-0.28,0.02-0.42,0.04c-0.18,0.02-0.36,0.05-0.54,0.09
	c-0.13,0.03-0.25,0.08-0.38,0.12c-0.18,0.06-0.36,0.12-0.53,0.2c-0.12,0.05-0.24,0.12-0.36,0.19c-0.16,0.09-0.32,0.18-0.47,0.29
	c-0.13,0.09-0.24,0.2-0.36,0.3c-0.1,0.09-0.21,0.15-0.3,0.25c-2.86,2.92-6,5.55-9.33,7.82c-0.1,0.07-0.18,0.15-0.27,0.22
	c-0.14,0.11-0.28,0.22-0.41,0.35c-0.12,0.11-0.22,0.24-0.32,0.36s-0.21,0.24-0.3,0.38c-0.09,0.13-0.17,0.28-0.25,0.43
	c-0.08,0.13-0.15,0.27-0.21,0.41c-0.07,0.15-0.12,0.3-0.17,0.45c-0.05,0.16-0.1,0.31-0.13,0.47c-0.03,0.15-0.05,0.3-0.07,0.45
	c-0.02,0.17-0.04,0.33-0.05,0.5c0,0.16,0.02,0.32,0.03,0.48s0.02,0.32,0.05,0.48c0.03,0.18,0.08,0.35,0.13,0.52
	c0.03,0.11,0.04,0.23,0.08,0.34l3.15,8.68c0.54,1.47-0.25,3.17-1.73,3.71l-16.31,5.92c-1.48,0.54-3.18-0.25-3.71-1.73l-3.16-8.68
	c-0.05-0.14-0.13-0.27-0.19-0.41c-0.06-0.11-0.11-0.23-0.17-0.34c-0.11-0.2-0.24-0.37-0.37-0.54c-0.06-0.08-0.11-0.16-0.17-0.24
	c-0.16-0.18-0.33-0.34-0.51-0.5c-0.06-0.05-0.11-0.11-0.18-0.16c-0.18-0.15-0.38-0.28-0.59-0.4c-0.07-0.04-0.14-0.08-0.21-0.12
	c-0.21-0.11-0.42-0.19-0.64-0.27c-0.09-0.03-0.18-0.07-0.27-0.1c-0.21-0.06-0.42-0.1-0.64-0.13c-0.11-0.02-0.22-0.04-0.33-0.05
	c-0.2-0.02-0.41-0.01-0.61,0c-0.1,0-0.2-0.02-0.3-0.01c-2.01,0.2-4.07,0.25-6.1,0.29c-2,0-4.05-0.1-6.1-0.3
	c-0.11-0.01-0.21,0.01-0.32,0c-0.19,0-0.38-0.01-0.57,0.01c-0.14,0.01-0.28,0.04-0.43,0.06c-0.17,0.03-0.35,0.06-0.52,0.11
	c-0.15,0.04-0.29,0.1-0.43,0.15c-0.15,0.06-0.31,0.12-0.46,0.2c-0.14,0.06-0.27,0.15-0.4,0.23c-0.14,0.09-0.28,0.17-0.41,0.28
	c-0.12,0.09-0.23,0.2-0.35,0.3c-0.12,0.12-0.24,0.23-0.35,0.35c-0.11,0.13-0.2,0.26-0.29,0.39c-0.1,0.13-0.19,0.26-0.27,0.39
	c-0.09,0.16-0.16,0.32-0.23,0.49c-0.05,0.1-0.11,0.2-0.15,0.3l-3.17,8.68c-0.53,1.47-2.24,2.26-3.71,1.73l-16.31-5.96
	c-0.72-0.26-1.29-0.79-1.62-1.49c-0.33-0.71-0.36-1.5-0.1-2.22l3.16-8.67c0.04-0.11,0.06-0.22,0.09-0.33
	c0.05-0.18,0.1-0.35,0.13-0.53c0.03-0.16,0.04-0.31,0.05-0.47c0.01-0.17,0.03-0.33,0.02-0.49c0-0.17-0.02-0.33-0.04-0.5
	c-0.02-0.15-0.04-0.3-0.07-0.45c-0.03-0.16-0.08-0.32-0.13-0.47c-0.05-0.15-0.1-0.3-0.16-0.45c-0.07-0.14-0.14-0.28-0.22-0.42
	s-0.15-0.29-0.25-0.42c-0.09-0.14-0.2-0.26-0.31-0.39c-0.1-0.12-0.19-0.24-0.3-0.35c-0.14-0.13-0.28-0.24-0.43-0.36
	c-0.09-0.07-0.16-0.15-0.25-0.21c-3.33-2.27-6.46-4.91-9.33-7.84c-0.08-0.08-0.17-0.14-0.26-0.22c-0.13-0.12-0.26-0.24-0.41-0.34
	c-0.13-0.09-0.27-0.17-0.41-0.25s-0.28-0.16-0.42-0.23c-0.16-0.07-0.31-0.12-0.47-0.18c-0.15-0.05-0.29-0.1-0.44-0.13
	c-0.16-0.04-0.32-0.06-0.48-0.08s-0.32-0.05-0.48-0.05c-0.16-0.01-0.31,0-0.46,0.01c-0.17,0.01-0.34,0.01-0.5,0.04
	c-0.16,0.02-0.31,0.07-0.46,0.1c-0.16,0.04-0.32,0.08-0.48,0.14c-0.16,0.06-0.32,0.14-0.48,0.21c-0.1,0.06-0.21,0.09-0.32,0.15
	l-8,4.61c-0.66,0.38-1.44,0.48-2.2,0.28c-0.75-0.21-1.37-0.68-1.75-1.35l-8.67-15.04c-0.8-1.38-0.32-3.16,1.06-3.96l7.99-4.6
	c0.1-0.06,0.18-0.13,0.27-0.2c0.15-0.1,0.31-0.2,0.44-0.31s0.23-0.22,0.35-0.33c0.11-0.12,0.22-0.24,0.33-0.36
	c0.1-0.13,0.19-0.27,0.28-0.41c0.09-0.13,0.17-0.26,0.24-0.4c0.08-0.14,0.14-0.29,0.2-0.44s0.12-0.29,0.17-0.45
	c0.04-0.15,0.07-0.3,0.1-0.46c0.04-0.16,0.07-0.32,0.08-0.48c0.02-0.16,0.02-0.33,0.02-0.5c0-0.15,0-0.31-0.01-0.46
	c-0.02-0.19-0.06-0.37-0.1-0.55c-0.02-0.11-0.03-0.22-0.06-0.32c-1.08-3.88-1.78-7.92-2.09-12.01c-0.01-0.12-0.04-0.24-0.06-0.37
	c-0.03-0.16-0.05-0.33-0.09-0.48c-0.04-0.18-0.11-0.35-0.17-0.52c-0.05-0.13-0.09-0.26-0.15-0.38c-0.08-0.18-0.19-0.35-0.29-0.52
	c-0.06-0.1-0.12-0.2-0.19-0.3c-0.12-0.16-0.25-0.31-0.39-0.45c-0.08-0.09-0.16-0.18-0.25-0.27c-0.15-0.13-0.3-0.24-0.45-0.36
	c-0.11-0.07-0.21-0.15-0.33-0.22c-0.16-0.1-0.33-0.18-0.5-0.26c-0.12-0.06-0.24-0.12-0.37-0.17c-0.18-0.07-0.37-0.11-0.56-0.16
	c-0.1-0.02-0.2-0.07-0.31-0.09l-9.09-1.61c-0.76-0.13-1.42-0.56-1.86-1.19c-0.45-0.64-0.62-1.41-0.49-2.16l3.03-17.1
	c0.28-1.57,1.79-2.62,3.36-2.34l9.07,1.6c0.02,0.01,0.04,0,0.06,0.01c0.27,0.04,0.54,0.07,0.81,0.07c0.03,0,0.05-0.01,0.08-0.01
	c0.08,0,0.15-0.01,0.22-0.01c0.22-0.01,0.44-0.04,0.65-0.08c0.1-0.02,0.2-0.04,0.29-0.07c0.23-0.06,0.46-0.13,0.68-0.22
	c0.04-0.02,0.09-0.03,0.13-0.05c0.26-0.12,0.5-0.26,0.73-0.41c0.07-0.05,0.14-0.11,0.21-0.16c0.17-0.12,0.33-0.26,0.48-0.41
	c0.06-0.06,0.13-0.12,0.19-0.18c0.18-0.2,0.35-0.41,0.51-0.64c0.02-0.04,0.05-0.09,0.08-0.13c0.11-0.18,0.21-0.36,0.3-0.56
	c1.68-3.69,3.74-7.23,6.11-10.54c0.07-0.1,0.11-0.2,0.17-0.3c0.1-0.15,0.2-0.3,0.28-0.47c0.06-0.14,0.12-0.29,0.17-0.44
	c0.06-0.15,0.11-0.3,0.15-0.46c0.05-0.16,0.07-0.33,0.09-0.49c0.03-0.15,0.05-0.31,0.06-0.46c0.01-0.16,0.01-0.32,0-0.49
	c-0.01-0.16-0.01-0.32-0.03-0.47c-0.02-0.16-0.06-0.31-0.1-0.46c-0.03-0.16-0.07-0.32-0.12-0.48c-0.05-0.16-0.12-0.31-0.19-0.46
	c-0.07-0.14-0.13-0.28-0.2-0.42c-0.1-0.16-0.21-0.31-0.32-0.46c-0.06-0.09-0.11-0.18-0.18-0.27l-5.93-7.08
	c-1-1.2-0.84-3.07,0.36-4.07l13.31-11.15c0.59-0.5,1.34-0.73,2.12-0.66c0.77,0.07,1.47,0.43,1.96,1.01l5.92,7.07
	c0.01,0.03,0.04,0.04,0.06,0.07c0.19,0.22,0.4,0.42,0.62,0.6c0.06,0.05,0.12,0.09,0.19,0.14c0.17,0.12,0.35,0.24,0.53,0.34
	c0.09,0.05,0.19,0.1,0.28,0.15c0.2,0.09,0.41,0.18,0.62,0.24c0.08,0.03,0.15,0.05,0.22,0.07c0.25,0.07,0.5,0.12,0.75,0.14
	c0.1,0.02,0.2,0.02,0.29,0.02c0.09,0.01,0.18,0.02,0.27,0.02c0.15,0,0.29-0.01,0.44-0.02c0.03,0,0.07,0,0.1-0.01
	c0.27-0.03,0.53-0.08,0.8-0.16c0.07-0.02,0.14-0.03,0.2-0.06c0.21-0.06,0.42-0.14,0.63-0.24c3.65-1.76,7.5-3.16,11.44-4.16
	c0.11-0.02,0.21-0.07,0.32-0.11c0.17-0.06,0.35-0.11,0.52-0.19c0.15-0.07,0.28-0.15,0.41-0.22c0.15-0.09,0.29-0.16,0.42-0.26
	c0.14-0.1,0.26-0.21,0.39-0.32c0.11-0.1,0.23-0.2,0.34-0.31c0.11-0.12,0.21-0.25,0.31-0.38c0.1-0.12,0.19-0.25,0.28-0.38
	c0.08-0.13,0.15-0.27,0.23-0.42c0.07-0.14,0.14-0.28,0.2-0.44c0.06-0.15,0.11-0.31,0.15-0.47c0.04-0.15,0.09-0.3,0.12-0.45
	c0.03-0.19,0.04-0.37,0.05-0.56c0.01-0.11,0.04-0.22,0.04-0.33v-9.22c0-1.57,1.33-2.89,2.89-2.89c0,0,0,0,0.01,0l17.36,0.01
	c1.57,0,2.89,1.33,2.89,2.89l-0.01,9.23c0,0.14,0.03,0.28,0.05,0.42c0.01,0.15,0.01,0.29,0.04,0.44c0.03,0.19,0.09,0.37,0.14,0.56
	c0.04,0.12,0.07,0.24,0.11,0.36c0.08,0.19,0.17,0.37,0.26,0.54c0.06,0.11,0.11,0.22,0.17,0.32c0.11,0.17,0.22,0.32,0.35,0.47
	c0.08,0.1,0.15,0.2,0.24,0.3c0.13,0.14,0.27,0.26,0.41,0.38c0.1,0.09,0.2,0.18,0.31,0.26c0.16,0.11,0.32,0.2,0.49,0.3
	c0.12,0.06,0.23,0.13,0.35,0.19c0.19,0.08,0.38,0.14,0.58,0.21c0.09,0.03,0.18,0.07,0.27,0.1c3.94,1,7.79,2.4,11.44,4.17
	c0.21,0.1,0.43,0.18,0.64,0.25c0.06,0.02,0.11,0.03,0.16,0.05c0.28,0.08,0.56,0.14,0.85,0.17c0,0,0.01,0,0.02,0
	c0.17,0.02,0.34,0.03,0.5,0.03c0.1,0,0.2-0.02,0.3-0.02c0.08-0.01,0.16-0.01,0.23-0.02c0.29-0.03,0.57-0.08,0.84-0.15
	c0.03-0.01,0.05-0.02,0.07-0.03c0.25-0.07,0.49-0.17,0.73-0.29c0.08-0.04,0.16-0.08,0.23-0.12c0.21-0.11,0.41-0.24,0.61-0.39
	c0.04-0.03,0.09-0.06,0.13-0.09c0.23-0.19,0.45-0.4,0.65-0.63c0.01-0.02,0.03-0.03,0.05-0.05l5.92-7.06
	c0.49-0.58,1.19-0.94,1.96-1.01c0.78-0.07,1.53,0.17,2.12,0.66l13.29,11.17C386.77,189.51,386.93,191.38,385.92,192.58z
	 M378.01,169.15c-2.51-1.84-5.57-2.71-8.71-2.44c-3.43,0.29-6.55,1.91-8.76,4.54l-3.5,4.17c-1.96-0.81-3.95-1.54-5.97-2.17v-5.46
	c0.01-7.11-5.77-12.89-12.88-12.9l-17.37-0.01c0,0,0,0-0.01,0c-7.1,0-12.88,5.77-12.89,12.88v5.45c-2.03,0.64-4.02,1.36-5.98,2.17
	l-3.5-4.18c-2.2-2.63-5.31-4.25-8.75-4.55c-3.44-0.31-6.77,0.74-9.41,2.95l-13.31,11.15c-5.45,4.56-6.17,12.71-1.6,18.16l3.5,4.19
	c-1.14,1.79-2.2,3.62-3.18,5.49l-5.38-0.95c-7-1.23-13.7,3.46-14.94,10.45l-3.02,17.1c-0.6,3.38,0.16,6.8,2.13,9.62
	c1.98,2.83,4.93,4.72,8.31,5.32l5.39,0.95c0.27,2.11,0.63,4.2,1.09,6.26l-4.73,2.72c-6.16,3.55-8.29,11.45-4.74,17.61l8.67,15.04
	c1.71,2.98,4.49,5.11,7.82,6.01c1.13,0.3,2.26,0.45,3.39,0.45c2.23,0,4.42-0.58,6.4-1.72l4.75-2.73c1.56,1.43,3.18,2.79,4.85,4.08
	l-1.88,5.13c-0.9,2.47-1.01,5.1-0.37,7.6l-15.4,23.17v0.01l-0.02,0.02c-0.16,0.24-0.29,0.49-0.4,0.74c-0.04,0.09-0.07,0.17-0.1,0.26
	c-0.07,0.2-0.14,0.39-0.18,0.6c-0.03,0.09-0.05,0.18-0.07,0.28c-0.05,0.29-0.09,0.58-0.09,0.88c0,0,0,0,0,0.01l-0.05,60.63
	l-46.6-0.04l0.05-60.58v-0.05c0-0.1-0.03-0.19-0.03-0.29c-0.01-0.22-0.03-0.44-0.07-0.67c-0.04-0.19-0.1-0.38-0.16-0.56
	c-0.04-0.13-0.07-0.25-0.12-0.37c-0.12-0.29-0.27-0.57-0.44-0.84c-0.01-0.01-0.01-0.02-0.01-0.03h-0.01
	c-0.01-0.02-0.02-0.04-0.04-0.06L90.22,139.1l307.6,0.24L378.01,169.15z M418.65,121.78c0,4.17-3.4,7.57-7.58,7.57v1.93l-0.01-1.93
	h-3.99L77,129.09c-4.18,0-7.58-3.41-7.58-7.58l0.01-9.48c0-4.18,3.4-7.58,7.59-7.58l334.06,0.26c4.18,0,7.58,3.41,7.58,7.59
	L418.65,121.78z"/>
<path style="fill:#828282;" d="M418.66,112.3l-0.01,9.48c0,4.17-3.4,7.57-7.58,7.57v1.93l-0.01-1.93h-3.99L77,129.09
	c-4.18,0-7.58-3.41-7.58-7.58l0.01-9.48c0-4.18,3.4-7.58,7.59-7.58l334.06,0.26C415.26,104.71,418.66,108.12,418.66,112.3z"/>
<path style="opacity:0.4;fill:#FFFFFF;enable-background:new    ;" d="M418.66,112.3l-0.01,9.48c0,0.1,0,0.2-0.02,0.29
	c-0.24-3.96-3.54-7.1-7.55-7.1l-334.06-0.26c-4.09,0-7.43,3.24-7.57,7.29c-0.02-0.16-0.03-0.32-0.03-0.49l0.01-9.48
	c0-4.18,3.4-7.58,7.59-7.58l334.06,0.26C415.26,104.71,418.66,108.12,418.66,112.3z"/>
<path style="fill:#F9C139;" d="M406.7,237.04l-3.01-17.09c-0.27-1.57-1.78-2.63-3.36-2.35l-9.07,1.59h-0.06
	c-0.26,0.05-0.53,0.08-0.8,0.08c-0.03,0-0.06-0.01-0.09-0.01c-0.07,0-0.14-0.01-0.21-0.02c-0.23-0.01-0.45-0.04-0.66-0.08
	c-0.1-0.02-0.19-0.04-0.28-0.06c-0.24-0.06-0.48-0.14-0.71-0.24c-0.03-0.01-0.07-0.02-0.11-0.04c-0.25-0.11-0.5-0.26-0.73-0.42
	c-0.07-0.04-0.14-0.09-0.2-0.14c-0.17-0.13-0.34-0.27-0.49-0.42l-0.18-0.18c-0.19-0.21-0.38-0.43-0.54-0.68
	c-0.01-0.01-0.02-0.03-0.03-0.05c-0.12-0.19-0.23-0.39-0.33-0.6c-1.67-3.69-3.72-7.24-6.09-10.56c-0.07-0.09-0.11-0.2-0.17-0.3
	c-0.1-0.15-0.19-0.3-0.27-0.46c-0.07-0.15-0.12-0.3-0.18-0.45c-0.05-0.15-0.11-0.3-0.15-0.45c-0.04-0.17-0.06-0.33-0.09-0.5
	c-0.02-0.15-0.04-0.3-0.05-0.45c-0.01-0.17-0.01-0.33,0-0.49s0.01-0.32,0.03-0.48c0.02-0.15,0.06-0.31,0.1-0.46
	c0.03-0.16,0.07-0.32,0.12-0.48c0.06-0.15,0.12-0.29,0.19-0.44c0.07-0.15,0.13-0.29,0.21-0.43c0.09-0.16,0.2-0.3,0.3-0.45
	c0.07-0.09,0.12-0.19,0.2-0.28l5.93-7.07c1.01-1.2,0.85-3.07-0.35-4.08l-13.29-11.17c-0.59-0.49-1.34-0.73-2.12-0.66
	c-0.77,0.07-1.47,0.43-1.96,1.01l-5.92,7.06c-0.02,0.02-0.04,0.03-0.05,0.05c-0.2,0.23-0.42,0.44-0.65,0.63
	c-0.04,0.03-0.09,0.06-0.13,0.09c-0.2,0.15-0.4,0.28-0.61,0.39c-0.07,0.04-0.15,0.08-0.23,0.12c-0.24,0.12-0.48,0.22-0.73,0.29
	c-0.02,0.01-0.04,0.02-0.07,0.03c-0.27,0.07-0.55,0.12-0.84,0.15c-0.07,0.01-0.15,0.01-0.23,0.02c-0.1,0-0.2,0.02-0.3,0.02
	c-0.16,0-0.33-0.01-0.5-0.03c-0.01,0-0.02,0-0.02,0c-0.29-0.03-0.57-0.09-0.85-0.17c-0.05-0.02-0.1-0.03-0.16-0.05
	c-0.21-0.07-0.43-0.15-0.64-0.25c-3.65-1.77-7.5-3.17-11.44-4.17c-0.09-0.03-0.18-0.07-0.27-0.1c-0.2-0.07-0.39-0.13-0.58-0.21
	c-0.12-0.06-0.23-0.13-0.35-0.19c-0.17-0.1-0.33-0.19-0.49-0.3c-0.11-0.08-0.21-0.17-0.31-0.26c-0.14-0.12-0.28-0.24-0.41-0.38
	c-0.09-0.1-0.16-0.2-0.24-0.3c-0.13-0.15-0.24-0.3-0.35-0.47c-0.06-0.1-0.11-0.21-0.17-0.32c-0.09-0.17-0.18-0.35-0.26-0.54
	c-0.04-0.12-0.07-0.24-0.11-0.36c-0.05-0.19-0.11-0.37-0.14-0.56c-0.03-0.15-0.03-0.29-0.04-0.44c-0.02-0.14-0.05-0.28-0.05-0.42
	l0.01-9.23c0-1.56-1.32-2.89-2.89-2.89l-17.36-0.01c-0.01,0-0.01,0-0.01,0c-1.56,0-2.89,1.32-2.89,2.89v9.22
	c0,0.11-0.03,0.22-0.04,0.33c-0.01,0.19-0.02,0.37-0.05,0.56c-0.03,0.15-0.08,0.3-0.12,0.45c-0.04,0.16-0.09,0.32-0.15,0.47
	c-0.06,0.16-0.13,0.3-0.2,0.44c-0.08,0.15-0.15,0.29-0.23,0.42c-0.09,0.13-0.18,0.26-0.28,0.38c-0.1,0.13-0.2,0.26-0.31,0.38
	c-0.11,0.11-0.23,0.21-0.34,0.31c-0.13,0.11-0.25,0.22-0.39,0.32c-0.13,0.1-0.27,0.17-0.42,0.26c-0.13,0.07-0.26,0.15-0.41,0.22
	c-0.17,0.08-0.35,0.13-0.52,0.19c-0.11,0.04-0.21,0.09-0.32,0.11c-3.94,1-7.79,2.4-11.44,4.16c-0.21,0.1-0.42,0.18-0.63,0.24
	c-0.06,0.03-0.13,0.04-0.2,0.06c-0.27,0.08-0.53,0.13-0.8,0.16c-0.03,0.01-0.07,0.01-0.1,0.01c-0.15,0.01-0.29,0.02-0.44,0.02
	c-0.09,0-0.18-0.01-0.27-0.02c-0.09,0-0.19,0-0.29-0.02c-0.25-0.02-0.5-0.07-0.75-0.14c-0.07-0.02-0.14-0.04-0.22-0.07
	c-0.21-0.06-0.42-0.15-0.62-0.24c-0.09-0.05-0.19-0.1-0.28-0.15c-0.18-0.1-0.36-0.22-0.53-0.34c-0.07-0.05-0.13-0.09-0.19-0.14
	c-0.22-0.18-0.43-0.38-0.62-0.6c-0.02-0.03-0.05-0.04-0.06-0.07l-5.92-7.07c-0.49-0.58-1.19-0.94-1.96-1.01
	c-0.78-0.07-1.53,0.16-2.12,0.66l-13.31,11.15c-1.2,1-1.36,2.87-0.36,4.07l5.93,7.08c0.07,0.09,0.12,0.18,0.18,0.27
	c0.11,0.15,0.22,0.3,0.32,0.46c0.07,0.14,0.13,0.28,0.2,0.42c0.07,0.15,0.14,0.3,0.19,0.46s0.09,0.32,0.12,0.48
	c0.04,0.15,0.08,0.3,0.1,0.46c0.02,0.15,0.02,0.31,0.03,0.47c0.01,0.17,0.01,0.33,0,0.49c-0.01,0.15-0.03,0.31-0.06,0.46
	c-0.02,0.16-0.04,0.33-0.09,0.49c-0.04,0.16-0.09,0.31-0.15,0.46c-0.05,0.15-0.11,0.3-0.17,0.44c-0.08,0.17-0.18,0.32-0.28,0.47
	c-0.06,0.1-0.1,0.2-0.17,0.3c-2.37,3.31-4.43,6.85-6.11,10.54c-0.09,0.2-0.19,0.38-0.3,0.56c-0.03,0.04-0.06,0.09-0.08,0.13
	c-0.16,0.23-0.33,0.44-0.51,0.64c-0.06,0.06-0.13,0.12-0.19,0.18c-0.15,0.15-0.31,0.29-0.48,0.41c-0.07,0.05-0.14,0.11-0.21,0.16
	c-0.23,0.15-0.47,0.29-0.73,0.41c-0.04,0.02-0.09,0.03-0.13,0.05c-0.22,0.09-0.45,0.16-0.68,0.22c-0.09,0.03-0.19,0.05-0.29,0.07
	c-0.21,0.04-0.43,0.07-0.65,0.08c-0.07,0-0.14,0.01-0.22,0.01c-0.03,0-0.05,0.01-0.08,0.01c-0.27,0-0.54-0.03-0.81-0.07
	c-0.02-0.01-0.04,0-0.06-0.01l-9.07-1.6c-1.57-0.28-3.08,0.77-3.36,2.34l-3.03,17.1c-0.13,0.75,0.04,1.52,0.49,2.16
	c0.44,0.63,1.1,1.06,1.86,1.19l9.09,1.61c0.11,0.02,0.21,0.07,0.31,0.09c0.19,0.05,0.38,0.09,0.56,0.16
	c0.13,0.05,0.25,0.11,0.37,0.17c0.17,0.08,0.34,0.16,0.5,0.26c0.12,0.07,0.22,0.15,0.33,0.22c0.15,0.12,0.3,0.23,0.45,0.36
	c0.09,0.09,0.17,0.18,0.25,0.27c0.14,0.14,0.27,0.29,0.39,0.45c0.07,0.1,0.13,0.2,0.19,0.3c0.1,0.17,0.21,0.34,0.29,0.52
	c0.06,0.12,0.1,0.25,0.15,0.38c0.06,0.17,0.13,0.34,0.17,0.52c0.04,0.15,0.06,0.32,0.09,0.48c0.02,0.13,0.05,0.25,0.06,0.37
	c0.31,4.09,1.01,8.13,2.09,12.01c0.03,0.1,0.04,0.21,0.06,0.32c0.04,0.18,0.08,0.36,0.1,0.55c0.01,0.15,0.01,0.31,0.01,0.46
	c0,0.17,0,0.34-0.02,0.5c-0.01,0.16-0.04,0.32-0.08,0.48c-0.03,0.16-0.06,0.31-0.1,0.46c-0.05,0.16-0.11,0.3-0.17,0.45
	s-0.12,0.3-0.2,0.44c-0.07,0.14-0.15,0.27-0.24,0.4c-0.09,0.14-0.18,0.28-0.28,0.41c-0.11,0.12-0.22,0.24-0.33,0.36
	c-0.12,0.11-0.22,0.22-0.35,0.33s-0.29,0.21-0.44,0.31c-0.09,0.07-0.17,0.14-0.27,0.2l-7.99,4.6c-1.38,0.8-1.86,2.58-1.06,3.96
	l8.67,15.04c0.38,0.67,1,1.14,1.75,1.35c0.76,0.2,1.54,0.1,2.2-0.28l8-4.61c0.11-0.06,0.22-0.09,0.32-0.15
	c0.16-0.07,0.32-0.15,0.48-0.21s0.32-0.1,0.48-0.14c0.15-0.03,0.3-0.08,0.46-0.1c0.16-0.03,0.33-0.03,0.5-0.04
	c0.15-0.01,0.3-0.02,0.46-0.01c0.16,0,0.32,0.03,0.48,0.05s0.32,0.04,0.48,0.08c0.15,0.03,0.29,0.08,0.44,0.13
	c0.16,0.06,0.31,0.11,0.47,0.18c0.14,0.07,0.28,0.15,0.42,0.23c0.14,0.08,0.28,0.16,0.41,0.25c0.15,0.1,0.28,0.22,0.41,0.34
	c0.09,0.08,0.18,0.14,0.26,0.22c2.87,2.93,6,5.57,9.33,7.84c0.09,0.06,0.16,0.14,0.25,0.21c0.15,0.12,0.29,0.23,0.43,0.36
	c0.11,0.11,0.2,0.23,0.3,0.35c0.11,0.13,0.22,0.25,0.31,0.39c0.1,0.13,0.17,0.28,0.25,0.42s0.15,0.28,0.22,0.42
	c0.06,0.15,0.11,0.3,0.16,0.45c0.05,0.15,0.1,0.31,0.13,0.47c0.03,0.15,0.05,0.3,0.07,0.45c0.02,0.17,0.04,0.33,0.04,0.5
	c0.01,0.16-0.01,0.32-0.02,0.49c-0.01,0.16-0.02,0.31-0.05,0.47c-0.03,0.18-0.08,0.35-0.13,0.53c-0.03,0.11-0.05,0.22-0.09,0.33
	l-3.16,8.67c-0.26,0.72-0.23,1.51,0.1,2.22c0.33,0.7,0.9,1.23,1.62,1.49l16.31,5.96c1.47,0.53,3.18-0.26,3.71-1.73l3.17-8.68
	c0.04-0.1,0.1-0.2,0.15-0.3c0.07-0.17,0.14-0.33,0.23-0.49c0.08-0.13,0.17-0.26,0.27-0.39c0.09-0.13,0.18-0.26,0.29-0.39
	c0.11-0.12,0.23-0.23,0.35-0.35c0.12-0.1,0.23-0.21,0.35-0.3c0.13-0.11,0.27-0.19,0.41-0.28c0.13-0.08,0.26-0.17,0.4-0.23
	c0.15-0.08,0.31-0.14,0.46-0.2c0.14-0.05,0.28-0.11,0.43-0.15c0.17-0.05,0.35-0.08,0.52-0.11c0.15-0.02,0.29-0.05,0.43-0.06
	c0.19-0.02,0.38-0.01,0.57-0.01c0.11,0.01,0.21-0.01,0.32,0c2.05,0.2,4.1,0.3,6.1,0.3c2.03-0.04,4.09-0.09,6.1-0.29
	c0.1-0.01,0.2,0.01,0.3,0.01c0.2-0.01,0.41-0.02,0.61,0c0.11,0.01,0.22,0.03,0.33,0.05c0.22,0.03,0.43,0.07,0.64,0.13
	c0.09,0.03,0.18,0.07,0.27,0.1c0.22,0.08,0.43,0.16,0.64,0.27c0.07,0.04,0.14,0.08,0.21,0.12c0.21,0.12,0.41,0.25,0.59,0.4
	c0.07,0.05,0.12,0.11,0.18,0.16c0.18,0.16,0.35,0.32,0.51,0.5c0.06,0.08,0.11,0.16,0.17,0.24c0.13,0.17,0.26,0.34,0.37,0.54
	c0.06,0.11,0.11,0.23,0.17,0.34c0.06,0.14,0.14,0.27,0.19,0.41l3.16,8.68c0.53,1.48,2.23,2.27,3.71,1.73l16.31-5.92
	c1.48-0.54,2.27-2.24,1.73-3.71l-3.15-8.68c-0.04-0.11-0.05-0.23-0.08-0.34c-0.05-0.17-0.1-0.34-0.13-0.52
	c-0.03-0.16-0.04-0.32-0.05-0.48c-0.01-0.16-0.03-0.32-0.03-0.48c0.01-0.17,0.03-0.33,0.05-0.5c0.02-0.15,0.04-0.3,0.07-0.45
	c0.03-0.16,0.08-0.31,0.13-0.47c0.05-0.15,0.1-0.3,0.17-0.45c0.06-0.14,0.13-0.28,0.21-0.41c0.08-0.15,0.16-0.3,0.25-0.43
	c0.09-0.14,0.2-0.26,0.3-0.38c0.1-0.12,0.2-0.25,0.32-0.36c0.13-0.13,0.27-0.24,0.41-0.35c0.09-0.07,0.17-0.15,0.27-0.22
	c3.33-2.27,6.47-4.9,9.33-7.82c0.09-0.1,0.2-0.16,0.3-0.25c0.12-0.1,0.23-0.21,0.36-0.3c0.15-0.11,0.31-0.2,0.47-0.29
	c0.12-0.07,0.24-0.14,0.36-0.19c0.17-0.08,0.35-0.14,0.53-0.2c0.13-0.04,0.25-0.09,0.38-0.12c0.18-0.04,0.36-0.07,0.54-0.09
	c0.14-0.02,0.28-0.04,0.42-0.04c0.17-0.01,0.34,0,0.52,0.01c0.15,0.01,0.29,0.02,0.44,0.04c0.18,0.03,0.35,0.07,0.52,0.12
	c0.14,0.03,0.28,0.07,0.42,0.12c0.18,0.06,0.36,0.15,0.53,0.24c0.1,0.04,0.19,0.07,0.28,0.12l7.99,4.62
	c0.67,0.39,1.45,0.49,2.2,0.29s1.38-0.68,1.76-1.34l8.69-15.03c0.8-1.38,0.33-3.16-1.05-3.96l-7.98-4.61
	c-0.09-0.06-0.17-0.13-0.26-0.19c-0.16-0.11-0.32-0.21-0.46-0.33c-0.12-0.1-0.22-0.21-0.32-0.31c-0.12-0.13-0.24-0.25-0.35-0.39
	c-0.1-0.12-0.18-0.25-0.27-0.37c-0.09-0.14-0.18-0.28-0.26-0.43c-0.07-0.14-0.12-0.27-0.18-0.41c-0.06-0.16-0.13-0.32-0.18-0.49
	c-0.04-0.14-0.07-0.27-0.09-0.41c-0.04-0.18-0.08-0.35-0.09-0.53c-0.02-0.15-0.01-0.3-0.02-0.45c0-0.17,0-0.34,0.02-0.51
	s0.05-0.33,0.09-0.5c0.02-0.12,0.02-0.24,0.06-0.36c1.09-3.9,1.8-7.93,2.11-12c0.01-0.12,0.05-0.24,0.06-0.37
	c0.03-0.16,0.05-0.33,0.09-0.49c0.05-0.17,0.11-0.33,0.17-0.49c0.05-0.14,0.1-0.28,0.16-0.41c0.08-0.17,0.17-0.32,0.27-0.48
	c0.07-0.12,0.14-0.23,0.22-0.35c0.11-0.14,0.23-0.27,0.35-0.4c0.1-0.11,0.19-0.22,0.3-0.31c0.13-0.12,0.27-0.23,0.41-0.33
	c0.12-0.09,0.23-0.17,0.35-0.25c0.16-0.1,0.33-0.17,0.5-0.25c0.12-0.06,0.24-0.12,0.37-0.17c0.19-0.07,0.39-0.12,0.58-0.16
	c0.1-0.03,0.19-0.07,0.29-0.09l9.1-1.59C405.89,240.13,406.97,238.59,406.7,237.04z M329.44,283.78
	c-23.56,0-42.73-19.17-42.73-42.73c0-23.57,19.17-42.74,42.73-42.74c23.57,0,42.74,19.17,42.74,42.74
	C372.18,264.61,353.01,283.78,329.44,283.78z"/>
<path style="opacity:0.4;fill:#FFFFFF;enable-background:new    ;" d="M281.91,259.32c-0.02-0.19-0.06-0.37-0.1-0.55
	c-0.02-0.11-0.03-0.22-0.06-0.32c-1.08-3.88-1.78-7.92-2.09-12.01c-0.01-0.12-0.04-0.24-0.06-0.37c-0.03-0.16-0.05-0.33-0.09-0.48
	c-0.04-0.18-0.11-0.35-0.17-0.52c-0.05-0.13-0.09-0.26-0.15-0.38c-0.08-0.18-0.19-0.35-0.29-0.52c-0.06-0.1-0.12-0.2-0.19-0.3
	c-0.12-0.16-0.25-0.31-0.39-0.45c-0.08-0.09-0.16-0.18-0.25-0.27c-0.15-0.13-0.3-0.24-0.45-0.36c-0.11-0.07-0.21-0.15-0.33-0.22
	c-0.16-0.1-0.33-0.18-0.5-0.26c-0.12-0.06-0.24-0.12-0.37-0.17c-0.18-0.07-0.37-0.11-0.56-0.16c-0.1-0.02-0.2-0.07-0.31-0.09
	l-9.09-1.61c-0.76-0.13-1.42-0.56-1.86-1.19c-0.45-0.64-0.62-1.41-0.49-2.16l3.03-17.1c0.05-0.28,0.14-0.54,0.26-0.78l-8.82-1.56
	c-1.57-0.28-3.08,0.77-3.36,2.34l-3.03,17.1c-0.13,0.75,0.04,1.52,0.49,2.16c0.44,0.63,1.1,1.06,1.86,1.19l9.09,1.61
	c0.11,0.02,0.21,0.07,0.31,0.09c0.19,0.05,0.38,0.09,0.56,0.16c0.13,0.05,0.25,0.11,0.37,0.17c0.17,0.08,0.34,0.16,0.5,0.26
	c0.12,0.07,0.22,0.15,0.33,0.22c0.15,0.12,0.3,0.23,0.45,0.36c0.09,0.09,0.17,0.18,0.25,0.27c0.14,0.14,0.27,0.29,0.39,0.45
	c0.07,0.1,0.13,0.2,0.19,0.3c0.1,0.17,0.21,0.34,0.29,0.52c0.06,0.12,0.1,0.25,0.15,0.38c0.06,0.17,0.13,0.34,0.17,0.52
	c0.04,0.15,0.06,0.32,0.09,0.48c0.02,0.13,0.05,0.25,0.06,0.37c0.31,4.09,1.01,8.13,2.09,12.01c0.03,0.1,0.04,0.21,0.06,0.32
	c0.04,0.18,0.08,0.36,0.1,0.55c0.01,0.15,0.01,0.31,0.01,0.46c0,0.17,0,0.34-0.02,0.5c-0.01,0.16-0.04,0.32-0.08,0.48
	c-0.03,0.16-0.06,0.31-0.1,0.46c-0.05,0.16-0.11,0.3-0.17,0.45s-0.12,0.3-0.2,0.44c-0.07,0.14-0.15,0.27-0.24,0.4
	c-0.09,0.14-0.18,0.28-0.28,0.41c-0.11,0.12-0.22,0.24-0.33,0.36c-0.12,0.11-0.22,0.22-0.35,0.33s-0.29,0.21-0.44,0.31
	c-0.09,0.07-0.17,0.14-0.27,0.2l-7.99,4.6c-1.38,0.8-1.86,2.58-1.06,3.96l8.67,15.04c0.38,0.67,1,1.14,1.75,1.35
	c0.76,0.2,1.54,0.1,2.2-0.28l6.45-3.71l-7.15-12.4c-0.8-1.38-0.32-3.16,1.06-3.96l7.99-4.6c0.1-0.06,0.18-0.13,0.27-0.2
	c0.15-0.1,0.31-0.2,0.44-0.31s0.23-0.22,0.35-0.33l0.33-0.36c0.1-0.13,0.19-0.27,0.28-0.41c0.09-0.13,0.17-0.26,0.24-0.4
	c0.08-0.14,0.14-0.29,0.2-0.44s0.12-0.29,0.17-0.45c0.04-0.15,0.07-0.3,0.1-0.46c0.04-0.16,0.07-0.32,0.08-0.48
	c0.02-0.16,0.02-0.33,0.02-0.5C281.92,259.63,281.92,259.47,281.91,259.32z M291.89,201.66c-0.03-0.16-0.07-0.32-0.12-0.48
	c-0.05-0.16-0.12-0.31-0.19-0.46c-0.07-0.14-0.13-0.28-0.2-0.42c-0.1-0.16-0.21-0.31-0.32-0.46c-0.06-0.09-0.11-0.18-0.18-0.27
	l-5.93-7.08c-1-1.2-0.84-3.07,0.36-4.07l8.53-7.15l-3.06-3.65c-0.49-0.58-1.19-0.94-1.96-1.01c-0.78-0.07-1.53,0.16-2.12,0.66
	l-13.31,11.15c-1.2,1-1.36,2.87-0.36,4.07l5.93,7.08c0.07,0.09,0.12,0.18,0.18,0.27c0.11,0.15,0.22,0.3,0.32,0.46
	c0.07,0.14,0.13,0.28,0.2,0.42c0.07,0.15,0.14,0.3,0.19,0.46s0.09,0.32,0.12,0.48c0.04,0.15,0.08,0.3,0.1,0.46
	c0.02,0.15,0.02,0.31,0.03,0.47c0.01,0.17,0.01,0.33,0,0.49c-0.01,0.15-0.03,0.31-0.06,0.46c-0.02,0.16-0.04,0.33-0.09,0.49
	c-0.04,0.16-0.09,0.31-0.15,0.46c-0.05,0.15-0.11,0.3-0.17,0.44c-0.08,0.17-0.18,0.32-0.28,0.47c-0.06,0.1-0.1,0.2-0.17,0.3
	c-2.37,3.31-4.43,6.85-6.11,10.54c-0.09,0.2-0.19,0.38-0.3,0.56c-0.03,0.04-0.06,0.09-0.08,0.13c-0.16,0.23-0.33,0.44-0.51,0.64
	c-0.06,0.06-0.13,0.12-0.19,0.18l7.58,1.34c0.02,0.01,0.04,0,0.06,0.01c0.27,0.04,0.54,0.07,0.81,0.07c0.03,0,0.05-0.01,0.08-0.01
	c0.08,0,0.15-0.01,0.22-0.01c0.22-0.01,0.44-0.04,0.65-0.08c0.1-0.02,0.2-0.04,0.29-0.07c0.23-0.06,0.46-0.13,0.68-0.22
	c0.04-0.02,0.09-0.03,0.13-0.05c0.26-0.12,0.5-0.26,0.73-0.41c0.07-0.05,0.14-0.11,0.21-0.16c0.17-0.12,0.33-0.26,0.48-0.41
	c0.06-0.06,0.13-0.12,0.19-0.18c0.18-0.2,0.35-0.41,0.51-0.64c0.02-0.04,0.05-0.09,0.08-0.13c0.11-0.18,0.21-0.36,0.3-0.56
	c1.68-3.69,3.74-7.23,6.11-10.54c0.07-0.1,0.11-0.2,0.17-0.3c0.1-0.15,0.2-0.3,0.28-0.47c0.06-0.14,0.12-0.29,0.17-0.44
	c0.06-0.15,0.11-0.3,0.15-0.46c0.05-0.16,0.07-0.33,0.09-0.49c0.03-0.15,0.05-0.31,0.06-0.46c0.01-0.16,0.01-0.32,0-0.49
	c-0.01-0.16-0.01-0.32-0.03-0.47C291.97,201.96,291.93,201.81,291.89,201.66z M306.84,311.07c-0.72-0.26-1.29-0.79-1.62-1.49
	c-0.33-0.71-0.36-1.5-0.1-2.22l3.16-8.67c0.04-0.11,0.06-0.22,0.09-0.33c0.05-0.18,0.1-0.35,0.13-0.53
	c0.03-0.16,0.04-0.31,0.05-0.47c0.01-0.17,0.03-0.33,0.02-0.49c0-0.17-0.02-0.33-0.04-0.5c-0.02-0.15-0.04-0.3-0.07-0.45
	c-0.03-0.16-0.08-0.32-0.13-0.47c-0.05-0.15-0.1-0.3-0.16-0.45c-0.07-0.14-0.14-0.28-0.22-0.42s-0.15-0.29-0.25-0.42
	c-0.09-0.14-0.2-0.26-0.31-0.39c-0.1-0.12-0.19-0.24-0.3-0.35c-0.14-0.13-0.28-0.24-0.43-0.36c-0.09-0.07-0.16-0.15-0.25-0.21
	c-3.33-2.27-6.46-4.91-9.33-7.84c-0.08-0.08-0.17-0.14-0.26-0.22c-0.13-0.12-0.26-0.24-0.41-0.34c-0.13-0.09-0.27-0.17-0.41-0.25
	s-0.28-0.16-0.42-0.23c-0.16-0.07-0.31-0.12-0.47-0.18c-0.15-0.05-0.29-0.1-0.44-0.13c-0.16-0.04-0.32-0.06-0.48-0.08
	s-0.32-0.05-0.48-0.05c-0.16-0.01-0.31,0-0.46,0.01c-0.17,0.01-0.34,0.01-0.5,0.04c-0.16,0.02-0.31,0.07-0.46,0.1
	c-0.16,0.04-0.32,0.08-0.48,0.14c-0.16,0.06-0.32,0.14-0.48,0.21c-0.1,0.06-0.21,0.09-0.32,0.15l-4.22,2.43
	c2.41,2.3,4.99,4.39,7.7,6.24c0.09,0.06,0.16,0.14,0.25,0.21c0.15,0.12,0.29,0.23,0.43,0.36c0.11,0.11,0.2,0.23,0.3,0.35
	c0.11,0.13,0.22,0.25,0.31,0.39c0.1,0.13,0.17,0.28,0.25,0.42s0.15,0.28,0.22,0.42c0.06,0.15,0.11,0.3,0.16,0.45
	c0.05,0.15,0.1,0.31,0.13,0.47c0.03,0.15,0.05,0.3,0.07,0.45c0.02,0.17,0.04,0.33,0.04,0.5c0.01,0.16-0.01,0.32-0.02,0.49
	c-0.01,0.16-0.02,0.31-0.05,0.47c-0.03,0.18-0.08,0.35-0.13,0.53c-0.03,0.11-0.05,0.22-0.09,0.33l-3.16,8.67
	c-0.26,0.72-0.23,1.51,0.1,2.22c0.33,0.7,0.9,1.23,1.62,1.49l16.31,5.96c1.47,0.53,3.18-0.26,3.71-1.73l0.41-1.12L306.84,311.07z
	 M320.82,164.88c-0.01,0-0.01,0-0.01,0c-1.56,0-2.89,1.32-2.89,2.89v9.22c0,0.11-0.03,0.22-0.04,0.33
	c-0.01,0.19-0.02,0.37-0.05,0.56c-0.03,0.15-0.08,0.3-0.12,0.45c-0.04,0.16-0.09,0.32-0.15,0.47c-0.06,0.16-0.13,0.3-0.2,0.44
	c-0.08,0.15-0.15,0.29-0.23,0.42c-0.09,0.13-0.18,0.26-0.28,0.38c-0.1,0.13-0.2,0.26-0.31,0.38c-0.11,0.11-0.23,0.21-0.34,0.31
	c-0.13,0.11-0.25,0.22-0.39,0.32c-0.13,0.1-0.27,0.17-0.42,0.26c-0.13,0.07-0.26,0.15-0.41,0.22c-0.17,0.08-0.35,0.13-0.52,0.19
	c-0.11,0.04-0.21,0.09-0.32,0.11c-2.12,0.54-4.22,1.2-6.28,1.96l0.76,0.9c0.01,0.03,0.04,0.04,0.06,0.07
	c0.19,0.22,0.4,0.42,0.62,0.6c0.06,0.05,0.12,0.09,0.19,0.14c0.17,0.12,0.35,0.24,0.53,0.34c0.09,0.05,0.19,0.1,0.28,0.15
	c0.2,0.09,0.41,0.18,0.62,0.24c0.08,0.03,0.15,0.05,0.22,0.07c0.25,0.07,0.5,0.12,0.75,0.14c0.1,0.02,0.2,0.02,0.29,0.02
	c0.09,0.01,0.18,0.02,0.27,0.02c0.15,0,0.29-0.01,0.44-0.02c0.03,0,0.07,0,0.1-0.01c0.27-0.03,0.53-0.08,0.8-0.16
	c0.07-0.02,0.14-0.03,0.2-0.06c0.21-0.06,0.42-0.14,0.63-0.24c3.65-1.76,7.5-3.16,11.44-4.16c0.11-0.02,0.21-0.07,0.32-0.11
	c0.17-0.06,0.35-0.11,0.52-0.19c0.15-0.07,0.28-0.15,0.41-0.22c0.15-0.09,0.29-0.16,0.42-0.26c0.14-0.1,0.26-0.21,0.39-0.32
	c0.11-0.1,0.23-0.2,0.34-0.31c0.11-0.12,0.21-0.25,0.31-0.38c0.1-0.12,0.19-0.25,0.28-0.38c0.08-0.13,0.15-0.27,0.23-0.42
	c0.07-0.14,0.14-0.28,0.2-0.44c0.06-0.15,0.11-0.31,0.15-0.47c0.04-0.15,0.09-0.3,0.12-0.45c0.03-0.19,0.04-0.37,0.05-0.56
	c0.01-0.11,0.04-0.22,0.04-0.33v-9.22c0-1.54,1.27-2.83,2.79-2.88L320.82,164.88z"/>
<path style="fill:#E1E1E5;" d="M397.82,139.34l-19.81,29.81c-2.51-1.84-5.57-2.71-8.71-2.44c-3.43,0.29-6.55,1.91-8.76,4.54
	l-3.5,4.17c-1.96-0.81-3.95-1.54-5.97-2.17v-5.46c0.01-7.11-5.77-12.89-12.88-12.9l-17.37-0.01c0,0,0,0-0.01,0
	c-7.1,0-12.88,5.77-12.89,12.88v5.45c-2.03,0.64-4.02,1.36-5.98,2.17l-3.5-4.18c-2.2-2.63-5.31-4.25-8.75-4.55
	c-3.44-0.31-6.77,0.74-9.41,2.95l-13.31,11.15c-5.45,4.56-6.17,12.71-1.6,18.16l3.5,4.19c-1.14,1.79-2.2,3.62-3.18,5.49l-5.38-0.95
	c-7-1.23-13.7,3.46-14.94,10.45l-3.02,17.1c-0.6,3.38,0.16,6.8,2.13,9.62c1.98,2.83,4.93,4.72,8.31,5.32l5.39,0.95
	c0.27,2.11,0.63,4.2,1.09,6.26l-4.73,2.72c-6.16,3.55-8.29,11.45-4.74,17.61l8.67,15.04c1.71,2.98,4.49,5.11,7.82,6.01
	c1.13,0.3,2.26,0.45,3.39,0.45c2.23,0,4.42-0.58,6.4-1.72l4.75-2.73c1.56,1.43,3.18,2.79,4.85,4.08l-1.88,5.13
	c-0.9,2.47-1.01,5.1-0.37,7.6l-15.4,23.17v0.01l-0.02,0.02c-0.16,0.24-0.29,0.49-0.4,0.74c-0.04,0.09-0.07,0.17-0.1,0.26
	c-0.07,0.2-0.14,0.39-0.18,0.6c-0.03,0.09-0.05,0.18-0.07,0.28c-0.05,0.29-0.09,0.58-0.09,0.88c0,0,0,0,0,0.01l-0.05,60.63
	l-46.6-0.04l0.05-60.58v-0.05c0-0.1-0.03-0.19-0.03-0.29c-0.01-0.22-0.03-0.44-0.07-0.67c-0.04-0.19-0.1-0.38-0.16-0.56
	c-0.04-0.13-0.07-0.25-0.12-0.37c-0.12-0.29-0.27-0.57-0.44-0.84c-0.01-0.01-0.01-0.02-0.01-0.03h-0.01
	c-0.01-0.02-0.02-0.04-0.04-0.06L90.22,139.1L397.82,139.34z"/>
<path style="opacity:0.7;fill:#FFFFFF;enable-background:new    ;" d="M236.52,398.09l30.6,0.03v0.01l-46.6-0.04l0.05-60.58v-0.05
	c0-0.1-0.03-0.19-0.03-0.29c-0.01-0.22-0.03-0.44-0.07-0.67c-0.04-0.19-0.1-0.38-0.16-0.56c-0.04-0.13-0.07-0.25-0.12-0.37
	c-0.12-0.29-0.27-0.57-0.44-0.84c-0.01-0.01-0.01-0.02-0.01-0.03h-0.01c-0.01-0.02-0.02-0.04-0.04-0.06L90.22,139.1l16.01,0.01
	l129.46,195.53c0.02,0.02,0.03,0.04,0.04,0.06h0.01c0,0.01,0,0.02,0.01,0.03c0.17,0.27,0.32,0.55,0.44,0.84
	c0.05,0.12,0.08,0.24,0.12,0.37c0.06,0.18,0.12,0.37,0.16,0.56c0.04,0.23,0.06,0.45,0.07,0.67c0,0.1,0.03,0.19,0.03,0.29v0.05
	L236.52,398.09z"/>
<path style="opacity:0.2;enable-background:new    ;" d="M347.77,156.19v2.99c-2.36-2.63-5.78-4.28-9.58-4.29l-17.37-0.01
	c0,0,0,0-0.01,0c-7.1,0-12.88,5.77-12.89,12.88v5.45c-2.03,0.64-4.02,1.36-5.98,2.17l-3.5-4.18c-2.2-2.63-5.31-4.25-8.75-4.55
	c-3.44-0.31-6.77,0.74-9.41,2.95l-13.31,11.15c-5.45,4.56-6.17,12.71-1.6,18.16l3.5,4.19c-1.14,1.79-2.2,3.62-3.18,5.49l-5.38-0.95
	c-7-1.23-13.7,3.46-14.94,10.45l-3.02,17.1c-0.6,3.38,0.16,6.8,2.13,9.62c1.98,2.83,4.93,4.72,8.31,5.32l5.39,0.95
	c0.27,2.11,0.63,4.2,1.09,6.26l-4.73,2.72c-6.16,3.55-8.29,11.45-4.74,17.61l8.67,15.04c1.71,2.98,4.49,5.11,7.82,6.01
	c1.13,0.3,2.26,0.45,3.39,0.45c2.23,0,4.42-0.58,6.4-1.72l4.75-2.73c1.56,1.43,3.18,2.79,4.85,4.08l-1.88,5.13
	c-0.9,2.47-1.01,5.1-0.37,7.6l-15.4,23.17v0.01l-0.02,0.02c-0.16,0.24-0.29,0.49-0.4,0.74c-0.04,0.09-0.07,0.17-0.1,0.26
	c-0.07,0.2-0.14,0.39-0.18,0.6c-0.03,0.09-0.05,0.18-0.07,0.28c-0.05,0.29-0.09,0.58-0.09,0.88c0,0,0,0,0,0.01l-0.05,60.63
	l-14.61-0.01l0.04-49.33c0-0.01,0-0.01,0-0.01c0-0.34,0.05-0.67,0.1-1c0.03-0.11,0.05-0.22,0.08-0.32c0.05-0.24,0.13-0.45,0.21-0.68
	c0.03-0.1,0.06-0.19,0.11-0.29c0.12-0.29,0.27-0.57,0.45-0.84l0.03-0.03v-0.01L271,319.32c-0.72-2.84-0.6-5.82,0.42-8.63l2.14-5.82
	c-1.9-1.46-3.74-3.01-5.51-4.63l-5.39,3.1c-2.25,1.29-4.73,1.95-7.26,1.95c-1.28,0-2.57-0.17-3.85-0.51
	c-3.78-1.02-6.93-3.44-8.87-6.82l-9.84-17.07c-4.03-6.99-1.61-15.95,5.38-19.98l5.36-3.09c-0.52-2.34-0.93-4.71-1.23-7.1l-6.12-1.08
	c-3.83-0.68-7.18-2.83-9.43-6.04c-2.24-3.2-3.1-7.08-2.42-10.92l3.43-19.4c1.41-7.94,9.01-13.26,16.96-11.86l6.1,1.07
	c1.11-2.12,2.32-4.19,3.61-6.23l-3.97-4.75c-5.19-6.19-4.37-15.43,1.81-20.61l15.11-12.65c2.99-2.51,6.77-3.7,10.68-3.35
	c3.9,0.34,7.43,2.18,9.93,5.16l3.97,4.75c2.22-0.92,4.48-1.74,6.79-2.47v-6.18c0.01-8.07,6.57-14.62,14.62-14.62
	c0.02,0,0.02,0,0.02,0l19.71,0.01C341.22,141.56,347.78,148.12,347.77,156.19z"/>
<path style="opacity:0.2;enable-background:new    ;" d="M397.82,139.34l-19.81,29.81c-2.51-1.84-5.57-2.71-8.71-2.44
	c-3.43,0.29-6.55,1.91-8.76,4.54l-3.5,4.17c-1.96-0.81-3.95-1.54-5.97-2.17v-5.46c0-1.61-0.29-3.16-0.84-4.58
	c1.45,0.5,2.89,1.05,4.31,1.64l3.97-4.73c2.51-2.99,6.05-4.82,9.94-5.15c3.57-0.31,7.04,0.68,9.89,2.77l12.23-18.41L397.82,139.34z"
	/>
<path style="opacity:0.2;enable-background:new    ;" d="M350.23,163.21c-0.81-0.29-1.63-0.56-2.46-0.82v-3.21
	C348.82,160.35,349.67,161.71,350.23,163.21z"/>
<path style="fill:#2D1D16;" d="M329.44,198.31c-23.56,0-42.73,19.17-42.73,42.74c0,23.56,19.17,42.73,42.73,42.73
	c23.57,0,42.74-19.17,42.74-42.73C372.18,217.48,353.01,198.31,329.44,198.31z M329.44,273.78c-18.05,0-32.73-14.68-32.73-32.73
	s14.68-32.74,32.73-32.74c18.05,0,32.74,14.69,32.74,32.74S347.49,273.78,329.44,273.78z"/>
<path style="fill:#E1E1E5;" d="M362.18,241.05c0,18.05-14.69,32.73-32.74,32.73s-32.73-14.68-32.73-32.73s14.68-32.74,32.73-32.74
	C347.49,208.31,362.18,223,362.18,241.05z"/>
<path style="opacity:0.2;enable-background:new    ;" d="M362.18,241.05c0,18.05-14.69,32.73-32.74,32.73
	c-11.19,0-21.09-5.65-26.99-14.24c5.26,3.62,11.64,5.74,18.49,5.74c18.05,0,32.74-14.68,32.74-32.73c0-6.86-2.12-13.24-5.74-18.5
	C356.53,219.96,362.18,229.86,362.18,241.05z"/>
<path style="fill:#2D1D16;" d="M244.04,422.13c-18.18,0-32.98,14.79-32.98,32.97c0,18.19,14.8,32.98,32.98,32.98
	s32.98-14.79,32.98-32.98C277.02,436.92,262.22,422.13,244.04,422.13z M244.04,478.08c-12.67,0-22.98-10.31-22.98-22.98
	s10.31-22.97,22.98-22.97c12.67,0,22.98,10.3,22.98,22.97S256.71,478.08,244.04,478.08z"/>
<path style="fill:#F9C139;" d="M267.02,455.1c0,12.67-10.31,22.98-22.98,22.98c-12.67,0-22.98-10.31-22.98-22.98
	s10.31-22.97,22.98-22.97C256.71,432.13,267.02,442.43,267.02,455.1z"/>
<path style="opacity:0.2;enable-background:new    ;" d="M252.54,476.44c-2.63,1.06-5.5,1.64-8.5,1.64
	c-12.67,0-22.98-10.31-22.98-22.98s10.31-22.97,22.98-22.97c3,0,5.87,0.58,8.5,1.63c-8.48,3.38-14.48,11.67-14.48,21.34
	S244.06,473.06,252.54,476.44z"/>
<path style="fill:#2D1D16;" d="M150.17,24.51H109.3c-2.77,0-5,2.24-5,5v40.88c0,2.76,2.23,5,5,5h40.87c2.77,0,5-2.24,5-5V29.51
	C155.17,26.75,152.94,24.51,150.17,24.51z M145.17,65.39H114.3V34.51h30.87V65.39z"/>
<rect x="114.3" y="34.51" style="fill:#72AF5F;" width="30.87" height="30.88"/>
<rect x="114.3" y="34.51" style="opacity:0.2;enable-background:new    ;" width="10" height="30.88"/>
<path style="fill:#2D1D16;" d="M303.09,46.41l-28.9-28.9c-1.95-1.96-5.12-1.96-7.07,0l-28.91,28.9c-0.94,0.94-1.46,2.21-1.46,3.54
	c0,1.32,0.52,2.6,1.46,3.53l28.91,28.91c0.97,0.98,2.25,1.46,3.53,1.46s2.56-0.48,3.54-1.46l28.9-28.91
	C305.05,51.53,305.05,48.36,303.09,46.41z M270.65,71.78l-21.83-21.83l21.83-21.84l21.84,21.84L270.65,71.78z"/>
<polygon style="fill:#EC7063;" points="292.49,49.95 270.65,71.78 248.82,49.95 270.65,28.11 "/>
<path style="fill:#2D1D16;" d="M382.91,69.57l-25.75-44.59c-0.89-1.55-2.54-2.5-4.33-2.5c-1.78,0-3.43,0.95-4.33,2.5l-25.95,44.94
	c-0.89,1.55-0.89,3.46,0,5c0.89,1.55,2.54,2.5,4.33,2.5h51.9c0.01,0.01,0.02,0.01,0.02,0c2.76,0,5-2.23,5-5
	C383.8,71.36,383.47,70.38,382.91,69.57z M335.54,67.42l17.29-29.94l17.29,29.94H335.54z"/>
<polygon style="fill:#F8D3C9;" points="370.12,67.42 335.54,67.42 352.83,37.48 "/>
<polygon style="opacity:0.2;enable-background:new    ;" points="259.07,49.95 275.78,66.66 270.65,71.78 248.82,49.95 
	270.65,28.11 275.78,33.24 "/>
<polygon style="opacity:0.2;enable-background:new    ;" points="357.96,46.35 345.79,67.42 335.54,67.42 352.83,37.48 "/>
<path style="fill:#2D1D16;" d="M227.16,2.5c-0.89-1.54-2.54-2.5-4.33-2.5h-51.9c-1.79,0-3.44,0.96-4.33,2.5
	c-0.89,1.55-0.89,3.46,0,5l25.95,44.95c0.89,1.55,2.54,2.5,4.33,2.5c1.79,0,3.44-0.95,4.33-2.5L227.16,7.5
	C228.05,5.96,228.05,4.05,227.16,2.5z M196.88,39.95L179.59,10h34.58L196.88,39.95z"/>
<polygon style="fill:#F8D3C9;" points="214.17,10 196.88,39.95 179.59,10 "/>
<polygon style="opacity:0.2;enable-background:new    ;" points="201.13,32.59 196.88,39.95 179.59,10 188.09,10 "/>
<g>
</g>
<g>
</g>
<g>
</g>
<g>
</g>
<g>
</g>
<g>
</g>
<g>
</g>
<g>
</g>
<g>
</g>
<g>
</g>
<g>
</g>
<g>
</g>
<g>
</g>
<g>
</g>
<g>
</g>
</svg>
