<svg width="640.0000000000001" height="480" xmlns="http://www.w3.org/2000/svg" xmlns:svg="http://www.w3.org/2000/svg" xmlns:xlink="http://www.w3.org/1999/xlink">
 <defs>
  <pattern height="100" width="100" y="0" x="0" patternUnits="userSpaceOnUse" id="gridpattern">
   <image height="100" width="100" y="0" x="0" id="svg_46"/>
  </pattern>
  <symbol stroke="null" viewBox="0 0 512 512" id="svg_33" xmlns:xlink="http://www.w3.org/1999/xlink" xmlns="http://www.w3.org/2000/svg">
   <g stroke="null" id="svg_1">
    <g stroke="null" id="svg_2">
     <g stroke="null" id="svg_3">
      <path stroke="null" d="m181.289,336.597l0,-283.264c0,-29.418 -23.936,-53.333 -53.333,-53.333c-29.398,0 -53.334,23.915 -53.334,53.333l0,283.243c-33.643,22.549 -49.536,63.296 -39.744,103.381c8.363,34.176 35.904,61.419 70.187,69.397c7.595,1.749 15.296,2.645 22.891,2.645c25.643,0 49.749,-9.984 67.883,-28.117c18.133,-18.133 28.117,-42.24 28.117,-67.883c0,-31.722 -16.192,-61.61 -42.667,-79.402zm-0.533,132.203c-14.123,14.101 -32.853,21.867 -52.8,21.867c-5.973,0 -12.053,-0.704 -18.048,-2.112c-26.517,-6.165 -47.829,-27.221 -54.293,-53.696c-8.171,-33.365 5.589,-66.027 35.051,-83.136c3.264,-1.92 5.291,-5.44 5.291,-9.216l0,-289.174c0,-17.643 14.357,-32 32,-32c17.643,0 32,14.357 32,32l0,289.173c0,3.797 2.027,7.317 5.312,9.216c23.381,13.632 37.355,37.653 37.355,64.277c-0.002,19.948 -7.767,38.678 -21.868,52.801z" fill="#000" id="svg_6"/>
      <path stroke="null" d="m127.956,384c-17.643,0 -32,14.357 -32,32c0,17.643 14.357,32 32,32c17.643,0 32,-14.357 32,-32c0,-17.643 -14.358,-32 -32,-32zm0,42.667c-5.888,0 -10.667,-4.8 -10.667,-10.667c0,-5.867 4.779,-10.667 10.667,-10.667c5.888,0 10.667,4.8 10.667,10.667c-0.001,5.867 -4.779,10.667 -10.667,10.667z" fill="#000" id="svg_7"/>
      <path stroke="null" d="m468.585,186.261c0.235,0.021 0.469,0.021 0.725,0.021c5.568,0 10.261,-4.309 10.645,-9.963c0.384,-5.867 -4.053,-10.965 -9.941,-11.349l-40.192,-2.667l42.155,-25.131c5.056,-3.029 6.72,-9.557 3.712,-14.635c-3.029,-5.056 -9.557,-6.72 -14.635,-3.712l-41.237,24.576l17.771,-37.099c2.539,-5.312 0.299,-11.691 -5.013,-14.229c-5.312,-2.517 -11.691,-0.299 -14.229,5.013l-31.616,66.069l-34.773,20.736l0,-42.091l39.595,-61.355c3.2,-4.949 1.771,-11.563 -3.179,-14.741c-4.907,-3.243 -11.563,-1.749 -14.741,3.157l-21.675,33.6l0,-49.128c0,-5.888 -4.779,-10.667 -10.667,-10.667s-10.667,4.779 -10.667,10.667l0,49.131l-21.696,-33.6c-3.2,-4.928 -9.835,-6.421 -14.741,-3.157c-4.949,3.179 -6.379,9.792 -3.179,14.741l39.616,61.355l0,42.091l-34.773,-20.736l-31.637,-66.048c-2.539,-5.312 -8.939,-7.552 -14.229,-5.013c-5.312,2.539 -7.552,8.917 -5.013,14.229l17.771,37.099l-41.216,-24.597c-5.056,-3.008 -11.627,-1.344 -14.635,3.712c-3.008,5.056 -1.344,11.605 3.712,14.635l42.155,25.131l-40.171,2.667c-5.888,0.405 -10.325,5.483 -9.941,11.371c0.384,5.632 5.056,9.941 10.645,9.941c0.235,0 0.469,0 0.725,-0.021l71.019,-4.736l35.413,21.141l-35.435,21.141l-71.019,-4.736c-5.824,-0.533 -10.965,4.032 -11.349,9.941c-0.384,5.867 4.053,10.965 9.941,11.349l40.171,2.688l-42.155,25.109c-5.056,3.029 -6.72,9.557 -3.712,14.635c2.005,3.349 5.547,5.205 9.173,5.205c1.856,0 3.733,-0.469 5.44,-1.493l41.237,-24.576l-17.771,37.099c-2.539,5.312 -0.299,11.691 5.013,14.229c1.472,0.704 3.051,1.045 4.587,1.045c3.989,0 7.808,-2.219 9.643,-6.059l31.637,-66.048l34.773,-20.757l0,42.069l-39.595,61.355c-3.2,4.949 -1.771,11.563 3.179,14.741c4.907,3.221 11.541,1.749 14.741,-3.157l21.675,-33.579l0,49.13c0,5.888 4.779,10.667 10.667,10.667s10.667,-4.779 10.667,-10.667l0,-49.131l21.696,33.6c2.027,3.136 5.461,4.864 8.96,4.864c1.984,0 3.989,-0.533 5.781,-1.707c4.949,-3.179 6.379,-9.792 3.179,-14.741l-39.616,-61.355l0,-42.09l34.773,20.736l31.637,66.048c1.835,3.84 5.653,6.059 9.643,6.059c1.536,0 3.115,-0.341 4.587,-1.045c5.312,-2.539 7.552,-8.917 5.013,-14.229l-17.771,-37.099l41.237,24.576c1.707,1.024 3.584,1.493 5.44,1.493c3.627,0 7.168,-1.856 9.173,-5.205c3.008,-5.056 1.344,-11.605 -3.712,-14.635l-42.155,-25.131l40.171,-2.688c5.867,-0.405 10.325,-5.483 9.941,-11.349c-0.384,-5.888 -5.44,-10.56 -11.349,-9.941l-71.019,4.736l-35.435,-21.099l35.435,-21.141l71.02,4.735z" fill="#000" id="svg_8"/>
     </g>
    </g>
   </g>
   <g stroke="null" id="svg_9"/>
   <g stroke="null" id="svg_10"/>
   <g stroke="null" id="svg_11"/>
   <g stroke="null" id="svg_12"/>
   <g stroke="null" id="svg_13"/>
   <g stroke="null" id="svg_14"/>
   <g stroke="null" id="svg_15"/>
   <g stroke="null" id="svg_16"/>
   <g stroke="null" id="svg_18"/>
   <g stroke="null" id="svg_19"/>
   <g stroke="null" id="svg_20"/>
   <g stroke="null" id="svg_21"/>
   <g stroke="null" id="svg_22"/>
   <g stroke="null" id="svg_23"/>
   <g stroke="null" id="svg_24"/>
  </symbol>
 </defs>
 <g stroke="null">
  <title>Layer 1</title>
  <g stroke="null" id="svg_4"/>
  <g stroke="null" id="svg_50"/>
  <g stroke="null" id="svg_17"/>
  <g stroke="null" id="svg_5" transform="rotate(-75.66893005371094 0,0) "/>
  <g stroke="null" id="svg_31"/>
  <g stroke="null" id="svg_39"/>
  <ellipse stroke="#000000" ry="237.5" rx="237.5" id="svg_28" cy="240.0625" cx="315.12504" stroke-linecap="null" stroke-linejoin="null" stroke-dasharray="null" stroke-width="0" fill="#e0e0e0"/>
  <use stroke="null" x="-902.54377" y="-639.33271" transform="matrix(0.7198612970354357,0,0,0.7176257726390876,766.4206026523464,508.86122914304923) " xlink:href="#svg_33" id="svg_34"/>
  <g stroke="null" id="svg_35"/>
 </g>
</svg>