<svg width="640" height="480" xmlns="http://www.w3.org/2000/svg" xmlns:svg="http://www.w3.org/2000/svg" xmlns:xlink="http://www.w3.org/1999/xlink">
 <defs>
  <pattern height="100" width="100" y="0" x="0" patternUnits="userSpaceOnUse" id="gridpattern">
   <image height="100" width="100" y="0" x="0" id="svg_46"/>
  </pattern>
  <symbol viewBox="0 0 512 512" y="0px" x="0px" id="svg_28" xmlns:xlink="http://www.w3.org/1999/xlink" xmlns="http://www.w3.org/2000/svg">
   <g>
    <g>
     <path d="m491.729,112.971l-232.468,-112.226c-2.061,-0.994 -4.461,-0.994 -6.521,0l-232.469,112.226c-2.592,1.251 -4.239,3.876 -4.239,6.754l0,272.549c0,2.878 1.647,5.503 4.239,6.754l232.468,112.226c1.03,0.497 2.146,0.746 3.261,0.746s2.23,-0.249 3.261,-0.746l232.468,-112.226c2.592,-1.251 4.239,-3.876 4.239,-6.754l0,-272.548c0,-2.88 -1.648,-5.503 -4.239,-6.755zm-235.729,-97.143l215.217,103.897l-62.387,30.118c-0.395,-0.301 -0.812,-0.579 -1.27,-0.8l-213.755,-103.19l62.195,-30.025zm-79.133,38.505l214.904,103.746l-44.015,21.249l-214.815,-103.704l43.926,-21.291zm219.932,117.974l0,78.546l-41.113,19.848l0,-78.546l41.113,-19.848zm84.169,215.261l-217.468,104.982l0,-255.892l51.873,-25.042c3.73,-1.801 5.294,-6.284 3.493,-10.015c-1.801,-3.729 -6.284,-5.295 -10.015,-3.493l-52.851,25.515l-20.796,-10.04c-3.731,-1.803 -8.214,-0.237 -10.015,3.493c-1.801,3.73 -0.237,8.214 3.493,10.015l19.818,9.567l0,255.892l-217.468,-104.984l0,-255.892l165.6,79.945c1.051,0.508 2.162,0.748 3.255,0.748c2.788,0 5.466,-1.562 6.759,-4.241c1.801,-3.73 0.237,-8.214 -3.493,-10.015l-162.37,-78.386l74.505,-35.968l225.294,108.763c0.033,0.046 0.07,0.087 0.104,0.132l0,89.999c0,2.581 1.327,4.98 3.513,6.353c1.214,0.762 2.599,1.147 3.988,1.147c1.112,0 2.227,-0.247 3.26,-0.746l56.113,-27.089c2.592,-1.251 4.239,-3.875 4.239,-6.754l0,-90.495l69.169,-33.392l0,255.893z"/>
    </g>
   </g>
   <g>
    <g>
     <path d="m92.926,358.479l-34.115,-16.469c-3.732,-1.803 -8.214,-0.237 -10.015,3.493c-1.801,3.73 -0.237,8.214 3.493,10.015l34.115,16.469c1.051,0.508 2.162,0.748 3.255,0.748c2.788,0 5.466,-1.562 6.759,-4.241c1.802,-3.731 0.238,-8.213 -3.492,-10.015z"/>
    </g>
   </g>
   <g>
    <g>
     <path d="m124.323,338.042l-65.465,-31.604c-3.731,-1.801 -8.214,-0.237 -10.015,3.494c-1.8,3.73 -0.236,8.214 3.494,10.015l65.465,31.604c1.051,0.507 2.162,0.748 3.255,0.748c2.788,0 5.466,-1.562 6.759,-4.241c1.801,-3.732 0.237,-8.216 -3.493,-10.016z"/>
    </g>
   </g>
   <g/>
   <g/>
   <g/>
   <g/>
   <g/>
   <g/>
   <g/>
   <g/>
   <g/>
   <g/>
   <g/>
   <g/>
   <g/>
   <g/>
   <g/>
  </symbol>
  <symbol viewBox="0 0 511.993 511.993" y="0px" x="0px" id="svg_32" xmlns:xlink="http://www.w3.org/1999/xlink" xmlns="http://www.w3.org/2000/svg">
   <g>
    <g>
     <g>
      <path d="m221.38,396.11l-79.253,-91.2l79.253,-91.136c3.499,-4.011 3.499,-9.984 0,-13.995l-79.232,-91.072l79.232,-91.051c3.883,-4.437 3.413,-11.179 -1.045,-15.04c-4.416,-3.883 -11.157,-3.371 -15.04,1.045l-85.333,98.048c-3.499,4.011 -3.499,9.984 0,13.995l79.232,91.072l-79.253,91.136c-3.499,4.011 -3.499,9.984 0,13.995l79.253,91.2l-79.253,91.2c-3.861,4.48 -3.392,11.2 1.067,15.061c2.027,1.771 4.501,2.624 6.997,2.624c2.987,0 5.952,-1.259 8.043,-3.669l85.333,-98.219c3.497,-4.01 3.497,-9.983 -0.001,-13.994z"/>
      <path d="m306.713,396.11l-79.253,-91.2l79.253,-91.136c3.499,-4.011 3.499,-9.984 0,-13.995l-79.232,-91.072l79.232,-91.051c3.883,-4.437 3.413,-11.179 -1.045,-15.04c-4.437,-3.883 -11.179,-3.371 -15.04,1.045l-85.333,98.048c-3.499,4.011 -3.499,9.984 0,13.995l79.232,91.072l-79.253,91.136c-3.499,4.011 -3.499,9.984 0,13.995l79.253,91.2l-79.253,91.2c-3.861,4.459 -3.392,11.179 1.045,15.04c2.048,1.792 4.523,2.645 7.019,2.645c2.987,0 5.952,-1.259 8.043,-3.669l85.333,-98.219c3.497,-4.01 3.497,-9.983 -0.001,-13.994z"/>
      <path d="m392.046,199.779l-79.232,-91.072l79.232,-91.051c3.883,-4.437 3.413,-11.179 -1.045,-15.04c-4.416,-3.883 -11.157,-3.371 -15.04,1.045l-85.333,98.048c-3.499,4.011 -3.499,9.984 0,13.995l79.232,91.072l-79.253,91.136c-3.499,4.011 -3.499,9.984 0,13.995l79.253,91.2l-79.253,91.2c-3.861,4.459 -3.392,11.179 1.045,15.04c2.048,1.792 4.523,2.645 7.019,2.645c2.987,0 5.952,-1.259 8.043,-3.669l85.333,-98.219c3.499,-4.011 3.499,-9.984 0,-13.995l-79.253,-91.2l79.253,-91.136c3.498,-4.01 3.498,-9.983 -0.001,-13.994z"/>
     </g>
    </g>
   </g>
   <g/>
   <g/>
   <g/>
   <g/>
   <g/>
   <g/>
   <g/>
   <g/>
   <g/>
   <g/>
   <g/>
   <g/>
   <g/>
   <g/>
   <g/>
  </symbol>
 </defs>
 <g>
  <title>Layer 1</title>
  <ellipse fill="#e5e5e5" stroke-width="0" cx="299.999988" cy="240.833344" id="svg_4" rx="231.999988" ry="235.500011" stroke="#000000"/>
  <g id="svg_8"/>
  <use x="768.656517" y="811.012054" transform="matrix(0.47246843576431274,0,0,0.47246843576431274,-216.68844715764862,-250.31860828399658) " xlink:href="#svg_28" id="svg_29"/>
  <g id="svg_30"/>
  <use x="1163.71748" y="524.792863" transform="matrix(0.31250426173210144,0,0,0.31250426173210144,0,0) " xlink:href="#svg_32" id="svg_33"/>
  <g id="svg_34"/>
  <use id="svg_35" x="102.393769" y="519.457242" transform="matrix(0.31250426173210144,0,0,0.31250426173210144,0,0) " xlink:href="#svg_32"/>
 </g>
</svg>