<svg xmlns="http://www.w3.org/2000/svg" height="600pt" version="1.1" viewBox="0 -10 600 600" width="600pt">
<g id="surface1">
<path d="M 590 0 L 330 0 C 324.476562 0 320 4.476562 320 10 L 320 250 C 320 266.566406 333.433594 280 350 280 L 422.203125 280 L 430.296875 312.429688 C 431.414062 316.878906 435.414062 320 440 320 L 460 320 L 460 360 C 460 365.523438 455.523438 370 450 370 L 347.796875 370 L 349.703125 362.429688 C 350.449219 359.445312 349.78125 356.273438 347.886719 353.847656 C 345.984375 351.421875 343.082031 350 340 350 L 260 350 C 256.917969 350 254.015625 351.421875 252.113281 353.847656 C 250.21875 356.273438 249.550781 359.445312 250.296875 362.429688 L 252.203125 370 L 160 370 C 154.476562 370 150 365.523438 150 360 L 150 320 L 170 320 C 174.585938 320 178.585938 316.878906 179.703125 312.429688 L 187.796875 280 L 250 280 C 266.566406 280 280 266.566406 280 250 L 280 10 C 280 4.476562 275.523438 0 270 0 L 10 0 C 4.476562 0 0 4.476562 0 10 L 0 250 C 0 266.566406 13.433594 280 30 280 L 92.203125 280 L 100.296875 312.429688 C 101.414062 316.878906 105.414062 320 110 320 L 130 320 L 130 360 C 130 376.566406 143.433594 390 160 390 L 257.203125 390 L 260.296875 402.429688 C 261.414062 406.878906 265.414062 410 270 410 L 290 410 L 290 424.789062 L 234.28125 463.789062 C 221.140625 451.246094 202.222656 446.839844 184.898438 452.296875 C 167.574219 457.75 154.585938 472.191406 151 490 L 100 490 L 100 450 C 100 433.433594 86.566406 420 70 420 L 10 420 C 4.476562 420 0 424.476562 0 430 L 0 570 C 0 575.523438 4.476562 580 10 580 L 70 580 C 86.566406 580 100 566.566406 100 550 L 100 510 L 151 510 C 154.75 528.785156 168.910156 543.773438 187.453125 548.59375 C 205.992188 553.414062 225.65625 547.21875 238.082031 532.640625 C 250.507812 518.0625 253.515625 497.660156 245.820312 480.121094 L 305.71875 438.1875 C 308.398438 436.324219 309.996094 433.265625 310 430 L 310 410 L 330 410 C 334.585938 410 338.585938 406.878906 339.703125 402.429688 L 342.796875 390 L 450 390 C 466.566406 390 480 376.566406 480 360 L 480 320 L 500 320 C 504.585938 320 508.585938 316.878906 509.703125 312.429688 L 517.796875 280 L 570 280 C 586.566406 280 600 266.566406 600 250 L 600 10 C 600 4.476562 595.523438 0 590 0 Z M 20 250 L 20 20 L 260 20 L 260 250 C 260 255.523438 255.523438 260 250 260 L 30 260 C 24.476562 260 20 255.523438 20 250 Z M 112.808594 280 L 167.191406 280 L 162.191406 300 L 117.808594 300 Z M 80 550 C 80 555.523438 75.523438 560 70 560 L 20 560 L 20 440 L 70 440 C 75.523438 440 80 444.476562 80 450 Z M 200 530 C 183.433594 530 170 516.566406 170 500 C 170 483.433594 183.433594 470 200 470 C 216.566406 470 230 483.433594 230 500 C 230 516.566406 216.566406 530 200 530 Z M 322.191406 390 L 277.808594 390 L 272.808594 370 L 327.191406 370 Z M 492.191406 300 L 447.808594 300 L 442.808594 280 L 497.191406 280 Z M 580 250 C 580 255.523438 575.523438 260 570 260 L 350 260 C 344.476562 260 340 255.523438 340 250 L 340 20 L 580 20 Z M 580 250 " style=" stroke:none;fill-rule:nonzero;fill:rgb(0%,0%,0%);fill-opacity:1;" />
<path d="M 570 240 L 570 230 L 550 230 L 550 250 L 560 250 C 565.523438 250 570 245.523438 570 240 Z M 570 240 " style=" stroke:none;fill-rule:nonzero;fill:rgb(0%,0%,0%);fill-opacity:1;" />
<path d="M 390 230 L 410 230 L 410 250 L 390 250 Z M 390 230 " style=" stroke:none;fill-rule:nonzero;fill:rgb(0%,0%,0%);fill-opacity:1;" />
<path d="M 470 230 L 490 230 L 490 250 L 470 250 Z M 470 230 " style=" stroke:none;fill-rule:nonzero;fill:rgb(0%,0%,0%);fill-opacity:1;" />
<path d="M 430 230 L 450 230 L 450 250 L 430 250 Z M 430 230 " style=" stroke:none;fill-rule:nonzero;fill:rgb(0%,0%,0%);fill-opacity:1;" />
<path d="M 510 230 L 530 230 L 530 250 L 510 250 Z M 510 230 " style=" stroke:none;fill-rule:nonzero;fill:rgb(0%,0%,0%);fill-opacity:1;" />
<path d="M 360 250 L 370 250 L 370 230 L 350 230 L 350 240 C 350 245.523438 354.476562 250 360 250 Z M 360 250 " style=" stroke:none;fill-rule:nonzero;fill:rgb(0%,0%,0%);fill-opacity:1;" />
<path d="M 350 190 L 370 190 L 370 210 L 350 210 Z M 350 190 " style=" stroke:none;fill-rule:nonzero;fill:rgb(0%,0%,0%);fill-opacity:1;" />
<path d="M 350 110 L 370 110 L 370 130 L 350 130 Z M 350 110 " style=" stroke:none;fill-rule:nonzero;fill:rgb(0%,0%,0%);fill-opacity:1;" />
<path d="M 350 150 L 370 150 L 370 170 L 350 170 Z M 350 150 " style=" stroke:none;fill-rule:nonzero;fill:rgb(0%,0%,0%);fill-opacity:1;" />
<path d="M 350 70 L 370 70 L 370 90 L 350 90 Z M 350 70 " style=" stroke:none;fill-rule:nonzero;fill:rgb(0%,0%,0%);fill-opacity:1;" />
<path d="M 370 30 L 360 30 C 354.476562 30 350 34.476562 350 40 L 350 50 L 370 50 Z M 370 30 " style=" stroke:none;fill-rule:nonzero;fill:rgb(0%,0%,0%);fill-opacity:1;" />
<path d="M 510 30 L 530 30 L 530 50 L 510 50 Z M 510 30 " style=" stroke:none;fill-rule:nonzero;fill:rgb(0%,0%,0%);fill-opacity:1;" />
<path d="M 470 30 L 490 30 L 490 50 L 470 50 Z M 470 30 " style=" stroke:none;fill-rule:nonzero;fill:rgb(0%,0%,0%);fill-opacity:1;" />
<path d="M 390 30 L 410 30 L 410 50 L 390 50 Z M 390 30 " style=" stroke:none;fill-rule:nonzero;fill:rgb(0%,0%,0%);fill-opacity:1;" />
<path d="M 430 30 L 450 30 L 450 50 L 430 50 Z M 430 30 " style=" stroke:none;fill-rule:nonzero;fill:rgb(0%,0%,0%);fill-opacity:1;" />
<path d="M 570 40 C 570 34.476562 565.523438 30 560 30 L 550 30 L 550 50 L 570 50 Z M 570 40 " style=" stroke:none;fill-rule:nonzero;fill:rgb(0%,0%,0%);fill-opacity:1;" />
<path d="M 550 190 L 570 190 L 570 210 L 550 210 Z M 550 190 " style=" stroke:none;fill-rule:nonzero;fill:rgb(0%,0%,0%);fill-opacity:1;" />
<path d="M 550 70 L 570 70 L 570 90 L 550 90 Z M 550 70 " style=" stroke:none;fill-rule:nonzero;fill:rgb(0%,0%,0%);fill-opacity:1;" />
<path d="M 550 150 L 570 150 L 570 170 L 550 170 Z M 550 150 " style=" stroke:none;fill-rule:nonzero;fill:rgb(0%,0%,0%);fill-opacity:1;" />
<path d="M 550 110 L 570 110 L 570 130 L 550 130 Z M 550 110 " style=" stroke:none;fill-rule:nonzero;fill:rgb(0%,0%,0%);fill-opacity:1;" />
<path d="M 140 180 C 162.089844 180 180 162.089844 180 140 C 180 117.910156 162.089844 100 140 100 C 117.910156 100 100 117.910156 100 140 C 100 162.089844 117.910156 180 140 180 Z M 140 120 C 151.046875 120 160 128.953125 160 140 C 160 151.046875 151.046875 160 140 160 C 128.953125 160 120 151.046875 120 140 C 120 128.953125 128.953125 120 140 120 Z M 140 120 " style=" stroke:none;fill-rule:nonzero;fill:rgb(0%,0%,0%);fill-opacity:1;" />
<path d="M 140 220 C 184.183594 220 220 184.183594 220 140 C 220 95.816406 184.183594 60 140 60 C 95.816406 60 60 95.816406 60 140 C 60.046875 184.160156 95.839844 219.953125 140 220 Z M 140 80 C 173.132812 80 200 106.867188 200 140 C 200 173.132812 173.132812 200 140 200 C 106.867188 200 80 173.132812 80 140 C 80.035156 106.875 106.875 80.035156 140 80 Z M 140 80 " style=" stroke:none;fill-rule:nonzero;fill:rgb(0%,0%,0%);fill-opacity:1;" />
<path d="M 460 180 C 482.089844 180 500 162.089844 500 140 C 500 117.910156 482.089844 100 460 100 C 437.910156 100 420 117.910156 420 140 C 420 162.089844 437.910156 180 460 180 Z M 460 120 C 471.046875 120 480 128.953125 480 140 C 480 151.046875 471.046875 160 460 160 C 448.953125 160 440 151.046875 440 140 C 440 128.953125 448.953125 120 460 120 Z M 460 120 " style=" stroke:none;fill-rule:nonzero;fill:rgb(0%,0%,0%);fill-opacity:1;" />
<path d="M 460 220 C 504.183594 220 540 184.183594 540 140 C 540 95.816406 504.183594 60 460 60 C 415.816406 60 380 95.816406 380 140 C 380.046875 184.160156 415.839844 219.953125 460 220 Z M 460 80 C 493.132812 80 520 106.867188 520 140 C 520 173.132812 493.132812 200 460 200 C 426.867188 200 400 173.132812 400 140 C 400.035156 106.875 426.875 80.035156 460 80 Z M 460 80 " style=" stroke:none;fill-rule:nonzero;fill:rgb(0%,0%,0%);fill-opacity:1;" />
<path d="M 250 240 L 250 230 L 230 230 L 230 250 L 240 250 C 245.523438 250 250 245.523438 250 240 Z M 250 240 " style=" stroke:none;fill-rule:nonzero;fill:rgb(0%,0%,0%);fill-opacity:1;" />
<path d="M 190 230 L 210 230 L 210 250 L 190 250 Z M 190 230 " style=" stroke:none;fill-rule:nonzero;fill:rgb(0%,0%,0%);fill-opacity:1;" />
<path d="M 110 230 L 130 230 L 130 250 L 110 250 Z M 110 230 " style=" stroke:none;fill-rule:nonzero;fill:rgb(0%,0%,0%);fill-opacity:1;" />
<path d="M 150 230 L 170 230 L 170 250 L 150 250 Z M 150 230 " style=" stroke:none;fill-rule:nonzero;fill:rgb(0%,0%,0%);fill-opacity:1;" />
<path d="M 70 230 L 90 230 L 90 250 L 70 250 Z M 70 230 " style=" stroke:none;fill-rule:nonzero;fill:rgb(0%,0%,0%);fill-opacity:1;" />
<path d="M 30 240 C 30 245.523438 34.476562 250 40 250 L 50 250 L 50 230 L 30 230 Z M 30 240 " style=" stroke:none;fill-rule:nonzero;fill:rgb(0%,0%,0%);fill-opacity:1;" />
<path d="M 30 150 L 50 150 L 50 170 L 30 170 Z M 30 150 " style=" stroke:none;fill-rule:nonzero;fill:rgb(0%,0%,0%);fill-opacity:1;" />
<path d="M 30 70 L 50 70 L 50 90 L 30 90 Z M 30 70 " style=" stroke:none;fill-rule:nonzero;fill:rgb(0%,0%,0%);fill-opacity:1;" />
<path d="M 30 110 L 50 110 L 50 130 L 30 130 Z M 30 110 " style=" stroke:none;fill-rule:nonzero;fill:rgb(0%,0%,0%);fill-opacity:1;" />
<path d="M 30 190 L 50 190 L 50 210 L 30 210 Z M 30 190 " style=" stroke:none;fill-rule:nonzero;fill:rgb(0%,0%,0%);fill-opacity:1;" />
<path d="M 30 40 L 30 50 L 50 50 L 50 30 L 40 30 C 34.476562 30 30 34.476562 30 40 Z M 30 40 " style=" stroke:none;fill-rule:nonzero;fill:rgb(0%,0%,0%);fill-opacity:1;" />
<path d="M 70 30 L 90 30 L 90 50 L 70 50 Z M 70 30 " style=" stroke:none;fill-rule:nonzero;fill:rgb(0%,0%,0%);fill-opacity:1;" />
<path d="M 150 30 L 170 30 L 170 50 L 150 50 Z M 150 30 " style=" stroke:none;fill-rule:nonzero;fill:rgb(0%,0%,0%);fill-opacity:1;" />
<path d="M 190 30 L 210 30 L 210 50 L 190 50 Z M 190 30 " style=" stroke:none;fill-rule:nonzero;fill:rgb(0%,0%,0%);fill-opacity:1;" />
<path d="M 110 30 L 130 30 L 130 50 L 110 50 Z M 110 30 " style=" stroke:none;fill-rule:nonzero;fill:rgb(0%,0%,0%);fill-opacity:1;" />
<path d="M 250 40 C 250 34.476562 245.523438 30 240 30 L 230 30 L 230 50 L 250 50 Z M 250 40 " style=" stroke:none;fill-rule:nonzero;fill:rgb(0%,0%,0%);fill-opacity:1;" />
<path d="M 230 190 L 250 190 L 250 210 L 230 210 Z M 230 190 " style=" stroke:none;fill-rule:nonzero;fill:rgb(0%,0%,0%);fill-opacity:1;" />
<path d="M 230 70 L 250 70 L 250 90 L 230 90 Z M 230 70 " style=" stroke:none;fill-rule:nonzero;fill:rgb(0%,0%,0%);fill-opacity:1;" />
<path d="M 230 150 L 250 150 L 250 170 L 230 170 Z M 230 150 " style=" stroke:none;fill-rule:nonzero;fill:rgb(0%,0%,0%);fill-opacity:1;" />
<path d="M 230 110 L 250 110 L 250 130 L 230 130 Z M 230 110 " style=" stroke:none;fill-rule:nonzero;fill:rgb(0%,0%,0%);fill-opacity:1;" />
</g>
</svg>