<?xml version="1.0" encoding="iso-8859-1"?>
<!-- Generator: Adobe Illustrator 19.0.0, SVG Export Plug-In . SVG Version: 6.00 Build 0)  -->
<svg version="1.1" id="Capa_1" xmlns="http://www.w3.org/2000/svg" xmlns:xlink="http://www.w3.org/1999/xlink" x="0px" y="0px"
	 viewBox="0 0 512 512" style="enable-background:new 0 0 512 512;" xml:space="preserve">
<g>
	<g>
		<g>
			<path d="M256,328c34.832,0,72-1.848,72-24v-28.528l-43.04-25.824l-3.136-3.136C290.487,239.169,296,228.219,296,216v-8
				c0-22.056-17.944-40-40-40c-22.056,0-40,17.944-40,40v8c0,12.219,5.513,23.169,14.176,30.512l-3.136,3.136L184,275.472V304
				C184,326.152,221.168,328,256,328z M232,208c0-13.232,10.768-24,24-24s24,10.768,24,24v8c0,13.232-10.768,24-24,24
				s-24-10.768-24-24V208z M200,284.528l36.12-21.672l8.751-8.443C248.407,255.439,252.138,256,256,256
				c3.854,0,7.578-0.559,11.107-1.581l7.237,7.237L312,284.528V304c0,0.08-0.64,8-56,8s-56-7.92-56-8V284.528z"/>
			<rect x="248" y="32" width="16" height="16"/>
			<rect x="56" y="144" width="16" height="16"/>
			<rect x="440" y="144" width="16" height="16"/>
			<rect x="56" y="352" width="16" height="16"/>
			<path d="M468.859,325.885C476.246,303.522,480,280.049,480,256c0-24.051-3.755-47.526-11.142-69.884
				C480.33,179.076,488,166.418,488,152c0-22.056-17.944-40-40-40c-6.168,0-12.013,1.405-17.235,3.909
				c-34.088-42.537-81.59-70.823-135.024-80.408C293.496,15.556,276.534,0,256,0c-20.537,0-37.5,15.559-39.741,35.507
				c-53.45,9.583-100.947,37.868-135.03,80.399C76.009,113.404,70.166,112,64,112c-22.056,0-40,17.944-40,40
				c0,14.418,7.67,27.076,19.142,34.116C35.754,208.466,32,231.935,32,256c0,24.063,3.754,47.53,11.14,69.885
				C31.669,332.925,24,345.583,24,360c0,22.056,17.944,40,40,40c6.166,0,12.009-1.404,17.23-3.907
				c34.076,42.516,81.579,70.801,135.029,80.398C218.499,496.44,235.463,512,256,512c20.537,0,37.502-15.561,39.741-35.51
				c53.446-9.592,100.941-37.876,135.028-80.398C435.99,398.595,441.834,400,448,400c22.056,0,40-17.944,40-40
				C488,345.582,480.331,332.925,468.859,325.885z M464,256c0,22.183-3.429,43.818-10.187,64.427
				C451.914,320.15,449.974,320,448,320c-12.291,0-23.301,5.577-30.644,14.328l-45.131-24.74C379.776,293.277,384,275.123,384,256
				c0-19.127-4.225-37.284-11.78-53.598l45.136-24.729C424.7,186.423,435.709,192,448,192c1.974,0,3.914-0.15,5.813-0.427
				C460.571,212.182,464,233.817,464,256z M144,256c0-61.76,50.24-112,112-112s112,50.24,112,112s-50.24,112-112,112
				S144,317.76,144,256z M472,152c0,13.232-10.768,24-24,24s-24-10.768-24-24s10.768-24,24-24S472,138.768,472,152z M256,16
				c13.232,0,24,10.768,24,24s-10.768,24-24,24s-24-10.768-24-24S242.768,16,256,16z M217.698,51.52
				c4.207,13.96,15.846,24.729,30.302,27.675V112h16V79.195c14.458-2.947,26.098-13.719,30.303-27.681
				c48.904,9.106,92.359,35.119,123.704,74.063C411.786,132.629,408,141.878,408,152c0,4.037,0.607,7.933,1.724,11.61L364.6,188.333
				C341.963,152.134,301.748,128,256,128c-45.755,0-85.975,24.141-108.611,60.349l-45.115-24.731
				C103.393,159.939,104,156.04,104,152c0-10.124-3.788-19.375-10.011-26.428C125.33,86.642,168.792,60.624,217.698,51.52z M64,128
				c13.232,0,24,10.768,24,24s-10.768,24-24,24s-24-10.768-24-24S50.768,128,64,128z M48,256c0-22.197,3.435-43.826,10.188-64.427
				C60.087,191.85,62.026,192,64,192c12.288,0,23.295-5.574,30.638-14.321l45.133,24.741C132.222,218.729,128,236.88,128,256
				c0,19.128,4.226,37.286,11.78,53.6L94.63,334.312C87.286,325.57,76.283,320,64,320c-1.973,0-3.912,0.149-5.81,0.427
				C51.436,299.828,48,278.192,48,256z M40,360c0-13.232,10.768-24,24-24s24,10.768,24,24s-10.768,24-24,24S40,373.232,40,360z
				 M256,496c-13.232,0-24-10.768-24-24s10.768-24,24-24s24,10.768,24,24S269.232,496,256,496z M294.301,460.478
				c-4.207-13.959-15.846-24.727-30.301-27.673V400h-16v32.805c-14.457,2.946-26.097,13.718-30.303,27.68
				c-48.912-9.123-92.374-35.135-123.708-74.057C100.212,379.375,104,370.124,104,360c0-4.047-0.609-7.954-1.732-11.639
				l45.128-24.699C170.033,359.864,210.249,384,256,384c45.752,0,85.969-24.138,108.606-60.341l45.118,24.733
				C408.607,352.067,408,355.964,408,360c0,10.122,3.786,19.371,10.008,26.424C386.674,425.354,343.213,451.366,294.301,460.478z
				 M448,384c-13.232,0-24-10.768-24-24s10.768-24,24-24s24,10.768,24,24S461.232,384,448,384z"/>
			<rect x="440" y="352" width="16" height="16"/>
			<rect x="248" y="464" width="16" height="16"/>
		</g>
	</g>
</g>
<g>
</g>
<g>
</g>
<g>
</g>
<g>
</g>
<g>
</g>
<g>
</g>
<g>
</g>
<g>
</g>
<g>
</g>
<g>
</g>
<g>
</g>
<g>
</g>
<g>
</g>
<g>
</g>
<g>
</g>
</svg>
