<?xml version="1.0" encoding="iso-8859-1"?>
<!-- Generator: Adobe Illustrator 19.0.0, SVG Export Plug-In . SVG Version: 6.00 Build 0)  -->
<svg version="1.1" id="Capa_1" xmlns="http://www.w3.org/2000/svg" xmlns:xlink="http://www.w3.org/1999/xlink" x="0px" y="0px"
	 viewBox="0 0 512 512" style="enable-background:new 0 0 512 512;" xml:space="preserve">
<path style="fill:#A4B0C0;" d="M501.333,362.667L362.667,501.333v-96c0-23.573,19.093-42.667,42.667-42.667h32H501.333z"/>
<path style="fill:#D0D7DF;" d="M501.333,138.667v224h-96c-23.573,0-42.667,19.093-42.667,42.667v96H53.333
	c-23.573,0-42.667-19.093-42.667-42.667V277.333V138.667c0,0,0-42.667,42.667-42.667h277.333h128
	C482.24,96,501.333,115.093,501.333,138.667z"/>
<path style="fill:#A4B0C0;" d="M330.667,21.333v64C330.667,91.2,325.867,96,320,96H192c-5.867,0-10.667-4.8-10.667-10.667v-64
	c0-5.867,4.8-10.667,10.667-10.667h128C325.867,10.667,330.667,15.467,330.667,21.333z"/>
<path style="fill:#35DC86;" d="M330.667,277.333v64c0,5.867-4.8,10.667-10.667,10.667H192c-5.867,0-10.667-4.8-10.667-10.667v-64
	c0-5.867,4.8-10.667,10.667-10.667h128C325.867,266.667,330.667,271.467,330.667,277.333z"/>
<path style="fill:#FED049;" d="M330.667,149.333v64c0,5.867-4.8,10.667-10.667,10.667H192c-5.867,0-10.667-4.8-10.667-10.667v-64
	c0-5.867,4.8-10.667,10.667-10.667h128C325.867,138.667,330.667,143.467,330.667,149.333z"/>
<path style="fill:#F1F2F2;" d="M213.333,416v21.333c0,5.867-4.8,10.667-10.667,10.667h-128C68.8,448,64,443.2,64,437.333V416
	c0-5.867,4.8-10.667,10.667-10.667h128C208.533,405.333,213.333,410.133,213.333,416z"/>
<g>
	<path style="fill:#474C54;" d="M501.333,128c-5.899,0-10.667,4.779-10.667,10.667v219.584L373.333,475.584v-70.251
		c0-17.643,14.357-32,32-32h32c5.899,0,10.667-4.779,10.667-10.667c0-5.888-4.768-10.667-10.667-10.667h-32
		C375.925,352,352,375.925,352,405.333v85.333H53.333c-17.643,0-32-14.357-32-32V138.72c0.064-5.355,1.888-32.053,32-32.053h85.333
		c5.899,0,10.667-4.779,10.667-10.667s-4.768-10.667-10.667-10.667H53.333C11.147,85.333,0,120.224,0,138.667v320
		C0,488.075,23.925,512,53.333,512h309.333c1.429,0,2.816-0.288,4.107-0.832c1.301-0.544,2.464-1.323,3.445-2.304l138.656-138.656
		c2.005-1.995,3.125-4.715,3.125-7.541v-224C512,132.779,507.232,128,501.333,128z"/>
	<path style="fill:#474C54;" d="M412.875,141.792c-4.171-4.171-10.912-4.171-15.083,0l-31.989,31.989
		c-0.992,0.981-1.771,2.165-2.315,3.477c-1.077,2.603-1.077,5.547,0,8.149c0.544,1.312,1.323,2.485,2.315,3.477l31.989,31.989
		c2.08,2.08,4.811,3.125,7.541,3.125s5.461-1.045,7.541-3.125c4.171-4.171,4.171-10.912,0-15.083L399.083,192h38.251
		c23.477,0,32-19.136,32-32V74.667c0-23.477-19.136-32-32-32h-64c-5.899,0-10.667,4.779-10.667,10.667S367.435,64,373.333,64h63.872
		C442.133,64.128,448,66.08,448,74.667v85.205c-0.128,4.928-2.069,10.795-10.667,10.795h-38.251l13.792-13.792
		C417.045,152.704,417.045,145.963,412.875,141.792L412.875,141.792z"/>
	<path style="fill:#474C54;" d="M74.667,192h64c5.899,0,10.667-4.779,10.667-10.667s-4.768-10.667-10.667-10.667h-64
		c-12.864,0-32,8.523-32,32V288c0,12.864,8.523,32,32,32h38.251l-13.792,13.792c-4.171,4.171-4.171,10.912,0,15.083
		c2.08,2.08,4.811,3.125,7.541,3.125c2.731,0,5.461-1.045,7.541-3.125l31.989-31.989c0.992-0.981,1.771-2.165,2.315-3.477
		c1.077-2.603,1.077-5.547,0-8.149c-0.544-1.312-1.323-2.485-2.315-3.477l-31.989-31.989c-4.171-4.171-10.912-4.171-15.083,0
		c-4.171,4.171-4.171,10.912,0,15.083l13.792,13.792H74.667C66.069,298.667,64.128,292.8,64,288v-85.333
		C64,194.08,69.867,192.128,74.667,192L74.667,192z"/>
	<path style="fill:#474C54;" d="M256,437.333c-5.899,0-10.667,4.779-10.667,10.667c0,5.888,4.768,10.667,10.667,10.667h10.667
		c5.899,0,10.667-4.779,10.667-10.667c0-5.888-4.768-10.667-10.667-10.667H256z"/>
	<path style="fill:#474C54;" d="M309.333,437.333h-10.667c-5.899,0-10.667,4.779-10.667,10.667c0,5.888,4.768,10.667,10.667,10.667
		h10.667c5.899,0,10.667-4.779,10.667-10.667C320,442.112,315.232,437.333,309.333,437.333z"/>
	<path style="fill:#474C54;" d="M192,106.667h128c11.765,0,21.333-9.568,21.333-21.333v-64C341.333,9.568,331.765,0,320,0H192
		c-11.765,0-21.333,9.568-21.333,21.333v64C170.667,97.099,180.235,106.667,192,106.667z M192,21.333h128v64l-128-0.032V21.333z"/>
	<path style="fill:#474C54;" d="M192,234.667h128c11.765,0,21.333-9.568,21.333-21.333v-64c0-11.765-9.568-21.333-21.333-21.333H192
		c-11.765,0-21.333,9.568-21.333,21.333v64C170.667,225.099,180.235,234.667,192,234.667z M192,149.333h128v64l-128-0.032V149.333z"
		/>
	<path style="fill:#474C54;" d="M192,362.667h128c11.765,0,21.333-9.568,21.333-21.333v-64c0-11.765-9.568-21.333-21.333-21.333H192
		c-11.765,0-21.333,9.568-21.333,21.333v64C170.667,353.099,180.235,362.667,192,362.667z M192,277.333h128v64l-128-0.032V277.333z"
		/>
	<path style="fill:#474C54;" d="M74.667,458.667h128c11.765,0,21.333-9.568,21.333-21.333V416c0-11.765-9.568-21.333-21.333-21.333
		h-128c-11.765,0-21.333,9.568-21.333,21.333v21.333C53.333,449.099,62.901,458.667,74.667,458.667z M74.667,416h128v21.333
		l-128-0.032V416z"/>
	<path style="fill:#474C54;" d="M309.333,394.667H256c-5.899,0-10.667,4.779-10.667,10.667S250.101,416,256,416h53.333
		c5.899,0,10.667-4.779,10.667-10.667S315.232,394.667,309.333,394.667z"/>
</g>
<g>
</g>
<g>
</g>
<g>
</g>
<g>
</g>
<g>
</g>
<g>
</g>
<g>
</g>
<g>
</g>
<g>
</g>
<g>
</g>
<g>
</g>
<g>
</g>
<g>
</g>
<g>
</g>
<g>
</g>
</svg>
