<svg height="512pt" viewBox="0 0 512 512" width="512pt" xmlns="http://www.w3.org/2000/svg"><path d="m256 482h-120c-8.289062 0-15-6.710938-15-15s6.710938-15 15-15h120c8.289062 0 15 6.710938 15 15s-6.710938 15-15 15zm0 0" fill="#3aaaff"/><path d="m307.210938 460.789062c-3.839844 0-7.675782-1.464843-10.605469-4.394531-5.859375-5.859375-5.859375-15.351562 0-21.210937l77.578125-77.578125c5.859375-5.859375 15.351562-5.859375 21.210937 0s5.859375 15.351562 0 21.210937l-77.578125 77.578125c-2.929687 2.929688-6.765625 4.394531-10.605468 4.394531zm0 0" fill="#0095ff"/><path d="m106 512c-24.8125 0-45-20.1875-45-45s20.1875-45 45-45 45 20.1875 45 45-20.1875 45-45 45zm0 0" fill="#76e2f8"/><path d="m286 422c-24.902344 0-45 20.097656-45 45 0 24.898438 20.097656 45 45 45s45-20.101562 45-45c0-24.902344-20.097656-45-45-45zm0 0" fill="#76e2f8"/><path d="m406 392c-24.8125 0-45-20.1875-45-45s20.1875-45 45-45 45 20.1875 45 45-20.1875 45-45 45zm0 0" fill="#25d9f8"/><path d="m106 122c-57.898438 0-106 47.101562-106 105 0 20.398438 6 40.199219 16.800781 57.300781l76.601563 115.800781c2.699218 4.199219 7.5 6.898438 12.597656 6.898438s9.902344-2.703125 12.597656-6.898438l75.601563-115.800781c10.800781-17.101562 16.800781-36.902343 16.800781-57.300781 0-57.898438-47.101562-105-105-105zm0 150c-24.902344 0-45-20.097656-45-45s20.097656-45 45-45 45 20.097656 45 45-20.097656 45-45 45zm0 0" fill="#ff4b00"/><path d="m211 227c0 20.398438-6 40.199219-16.800781 57.300781l-75.601563 115.800781c-2.699218 4.199219-7.5 6.898438-12.597656 6.898438v-135c24.902344 0 45-20.097656 45-45s-20.097656-45-45-45v-60c57.898438 0 105 47.101562 105 105zm0 0" fill="#dd3400"/><path d="m406 0c-57.898438 0-105 49.101562-105 107 0 20.398438 6 40.199219 16.800781 57.300781l75.601563 115.800781c2.699218 4.199219 7.5 6.898438 12.597656 6.898438s9.902344-2.703125 12.597656-6.898438l76.601563-115.800781c10.800781-17.101562 16.800781-36.902343 16.800781-57.300781 0-57.898438-48.101562-107-106-107zm0 152c-24.902344 0-45-20.097656-45-45s20.097656-45 45-45 45 20.097656 45 45-20.097656 45-45 45zm0 0" fill="#ff4b00"/><path d="m512 107c0 20.398438-6 40.199219-16.800781 57.300781l-76.601563 115.800781c-2.699218 4.199219-7.5 6.898438-12.597656 6.898438v-135c24.902344 0 45-20.097656 45-45s-20.097656-45-45-45v-62c57.898438 0 106 49.101562 106 107zm0 0" fill="#dd3400"/><path d="m331 467c0 24.898438-20.097656 45-45 45v-90c24.902344 0 45 20.097656 45 45zm0 0" fill="#25d9f8"/></svg>