<?xml version="1.0" encoding="iso-8859-1"?>
<!-- Generator: Adobe Illustrator 19.0.0, SVG Export Plug-In . SVG Version: 6.00 Build 0)  -->
<svg version="1.1" id="Capa_1" xmlns="http://www.w3.org/2000/svg" xmlns:xlink="http://www.w3.org/1999/xlink" x="0px" y="0px"
	 viewBox="0 0 512 512" style="enable-background:new 0 0 512 512;" xml:space="preserve">
<g>
	<g transform="translate(1 1)">
		<path style="fill:#AD1457;" d="M288.536,341.016h-67.669v92.501H306.2V358.68C306.181,348.932,298.284,341.035,288.536,341.016z"
			/>
		<path style="fill:#E91E63;" d="M262.936,341.016h-42.069v92.501H280.6V358.68C280.581,348.932,272.684,341.035,262.936,341.016z"
			/>
		<path style="fill:#6A1B9A;" d="M408.6,493.933c0,4.713-3.821,8.533-8.533,8.533H109.933c-4.713,0-8.533-3.821-8.533-8.533
			c0-32.99,26.744-59.733,59.733-59.733h187.733C381.857,434.2,408.6,460.944,408.6,493.933z"/>
		<path style="fill:#9D27B0;" d="M374.467,493.933c0,4.713-3.82,8.533-8.533,8.533h-256c-4.713,0-8.533-3.821-8.533-8.533
			c0-32.99,26.744-59.733,59.733-59.733h153.6C347.723,434.2,374.467,460.944,374.467,493.933z"/>
		<path style="fill:#AD1457;" d="M175.811,7.533h192.512c8.106,0,14.677,6.571,14.677,14.677v226.645
			c0,8.106-6.571,14.677-14.677,14.677H175.811c-8.106,0-14.677-6.571-14.677-14.677V22.211
			C161.133,14.105,167.705,7.533,175.811,7.533z"/>
		<path style="fill:#E91E63;" d="M175.811,7.533h166.912c8.106,0,14.677,6.571,14.677,14.677v226.645
			c0,8.106-6.571,14.677-14.677,14.677H175.811c-8.106,0-14.677-6.571-14.677-14.677V22.211
			C161.133,14.105,167.705,7.533,175.811,7.533z"/>
		<circle style="fill:#9E9E9E;" cx="272.067" cy="135.533" r="55.467"/>
		<circle style="fill:#FFFFFF;" cx="272.067" cy="135.533" r="17.067"/>
		<rect x="118.467" y="101.4" style="fill:#9E9E9E;" width="42.667" height="85.333"/>
	</g>
	<g>
		<path d="M273.067,200.533c35.346,0,64-28.654,64-64s-28.654-64-64-64s-64,28.654-64,64
			C209.109,171.862,237.738,200.491,273.067,200.533z M273.067,89.6c25.921,0,46.933,21.013,46.933,46.933
			s-21.013,46.933-46.933,46.933s-46.933-21.013-46.933-46.933C226.162,110.624,247.158,89.628,273.067,89.6z"/>
		<path d="M273.067,162.133c14.138,0,25.6-11.462,25.6-25.6s-11.462-25.6-25.6-25.6s-25.6,11.462-25.6,25.6
			S258.928,162.133,273.067,162.133z M273.067,128c4.713,0,8.533,3.821,8.533,8.533s-3.82,8.533-8.533,8.533
			s-8.533-3.821-8.533-8.533S268.354,128,273.067,128z"/>
		<path d="M110.933,512h290.133c9.426,0,17.067-7.641,17.067-17.067c-0.042-37.685-30.582-68.224-68.267-68.267h-34.133v-72.713
			c-0.014-11.677-9.477-21.14-21.154-21.154h-71.006l-87.62-35.499l-1.22-0.384c-3.834-0.793-6.62-4.116-6.733-8.03v-92.621h25.6
			v53.589c0.014,12.813,10.398,23.197,23.211,23.211h192.512c12.813-0.014,23.197-10.398,23.211-23.211V23.211
			C392.519,10.398,382.136,0.014,369.323,0H176.811c-12.813,0.014-23.197,10.398-23.211,23.211v70.656H128V8.533
			C128,3.821,124.18,0,119.467,0s-8.533,3.821-8.533,8.533v280.354c0.084,11.552,7.946,21.594,19.14,24.448l83.26,33.741v79.59
			h-51.2c-37.685,0.042-68.224,30.582-68.267,68.267c0,4.526,1.798,8.867,4.999,12.068C102.066,510.202,106.407,512,110.933,512z
			 M170.667,23.211c0.005-3.391,2.753-6.139,6.144-6.144h164.523v17.067c0,4.713,3.821,8.533,8.533,8.533
			c4.713,0,8.533-3.821,8.533-8.533V17.067h10.923c3.391,0.005,6.139,2.753,6.144,6.144v226.645
			c-0.005,3.391-2.753,6.139-6.144,6.144H204.8v-17.067c0-4.713-3.821-8.533-8.533-8.533s-8.533,3.821-8.533,8.533V256h-10.923
			c-3.391-0.005-6.139-2.753-6.144-6.144V23.211z M153.6,110.933V179.2H128v-68.267H153.6z M230.4,349.867h64.179
			c2.255,0.005,4.083,1.832,4.087,4.087v72.713H230.4V349.867z M162.133,443.733h187.733c28.265,0.028,51.172,22.935,51.2,51.2
			H110.933C110.962,466.668,133.868,443.762,162.133,443.733z"/>
		<path d="M349.867,85.333c4.713,0,8.533-3.82,8.533-8.533v-8.533c0-4.713-3.821-8.533-8.533-8.533
			c-4.713,0-8.533,3.821-8.533,8.533V76.8C341.333,81.513,345.154,85.333,349.867,85.333z"/>
		<path d="M196.267,213.333c4.713,0,8.533-3.821,8.533-8.533v-8.533c0-4.713-3.821-8.533-8.533-8.533s-8.533,3.821-8.533,8.533
			v8.533C187.733,209.513,191.554,213.333,196.267,213.333z"/>
	</g>
</g>
<g>
</g>
<g>
</g>
<g>
</g>
<g>
</g>
<g>
</g>
<g>
</g>
<g>
</g>
<g>
</g>
<g>
</g>
<g>
</g>
<g>
</g>
<g>
</g>
<g>
</g>
<g>
</g>
<g>
</g>
</svg>
