<?xml version="1.0" encoding="iso-8859-1"?>
<!-- Generator: Adobe Illustrator 19.0.0, SVG Export Plug-In . SVG Version: 6.00 Build 0)  -->
<svg version="1.1" id="Capa_1" xmlns="http://www.w3.org/2000/svg" xmlns:xlink="http://www.w3.org/1999/xlink" x="0px" y="0px"
	 viewBox="0 0 512 512" style="enable-background:new 0 0 512 512;" xml:space="preserve">
<g>
	<g>
		<path d="M395,409c-4.143,0-7.5,3.357-7.5,7.5V451H189c-4.143,0-7.5,3.357-7.5,7.5s3.357,7.5,7.5,7.5h198.5v8.5
			c0,12.406-10.094,22.5-22.5,22.5H141c-12.406,0-22.5-10.094-22.5-22.5V466H157c4.143,0,7.5-3.357,7.5-7.5s-3.357-7.5-7.5-7.5
			h-38.5V95.75c0-4.143-3.357-7.5-7.5-7.5s-7.5,3.357-7.5,7.5V458.5v16c0,20.678,16.822,37.5,37.5,37.5h224
			c20.678,0,37.5-16.822,37.5-37.5v-16v-42C402.5,412.357,399.143,409,395,409z"/>
	</g>
</g>
<g>
	<g>
		<path d="M365,0h-40H181h-40c-20.678,0-37.5,16.822-37.5,37.5v26c0,4.143,3.357,7.5,7.5,7.5s7.5-3.357,7.5-7.5v-26
			c0-12.406,10.094-22.5,22.5-22.5h32.5v16.5c0,11.855,9.645,21.5,21.5,21.5h116c11.855,0,21.5-9.645,21.5-21.5V15H365
			c12.406,0,22.5,10.094,22.5,22.5v346.25c0,4.143,3.357,7.5,7.5,7.5s7.5-3.357,7.5-7.5V37.5C402.5,16.822,385.678,0,365,0z
			 M317.5,31.5c0,3.584-2.916,6.5-6.5,6.5H195c-3.584,0-6.5-2.916-6.5-6.5V15h129V31.5z"/>
	</g>
</g>
<g>
	<g>
		<path d="M273,474h-40c-4.143,0-7.5,3.357-7.5,7.5s3.357,7.5,7.5,7.5h40c4.143,0,7.5-3.357,7.5-7.5S277.143,474,273,474z"/>
	</g>
</g>
<g>
	<g>
		<path d="M303.403,202.616c-1.841-3.335-4.869-5.754-8.528-6.811l-48.495-14.014c-3.657-1.059-7.511-0.627-10.846,1.213
			c-3.336,1.841-5.756,4.869-6.813,8.528l-22.85,79.078c0,0.001-0.001,0.002-0.001,0.003l-4.486,15.526
			c-2.184,7.554,2.186,15.476,9.741,17.66l48.494,14.014c1.313,0.38,2.65,0.567,3.979,0.567c2.377,0,4.729-0.601,6.868-1.78
			c3.335-1.841,5.755-4.869,6.812-8.528l27.338-94.607C305.674,209.806,305.243,205.952,303.403,202.616z M263.074,303.199
			l-47.075-13.603l2.2-7.612l47.074,13.603L263.074,303.199z M269.437,281.176l-47.074-13.603l20.564-71.166l47.074,13.604
			L269.437,281.176z"/>
	</g>
</g>
<g>
	<g>
		<path d="M76.748,379.456l-15.962-19.041l15.962-19.04c2.336-2.787,2.336-6.85,0-9.637l-15.961-19.04l15.96-19.039
			c2.337-2.787,2.337-6.85,0-9.637l-15.96-19.037l15.96-19.036c2.337-2.787,2.337-6.85,0-9.638l-15.96-19.033l15.96-19.038
			c2.337-2.787,2.337-6.85,0-9.637l-15.96-19.037l15.96-19.037c2.337-2.787,2.337-6.85,0-9.637l-15.96-19.037l15.96-19.037
			c2.661-3.174,2.245-7.904-0.929-10.565c-3.176-2.661-7.904-2.246-10.565,0.929l-20,23.855c-2.337,2.787-2.337,6.85,0,9.637
			l15.96,19.037l-15.96,19.037c-2.337,2.787-2.337,6.85,0,9.637l15.96,19.037l-15.96,19.038c-2.337,2.787-2.337,6.85,0,9.638
			l15.96,19.033l-15.96,19.036c-2.337,2.787-2.337,6.85,0,9.637l15.96,19.037l-15.96,19.039c-2.337,2.787-2.337,6.85-0.001,9.637
			l15.962,19.04l-15.962,19.04c-2.336,2.787-2.336,6.85,0,9.637l15.962,19.041L45.252,403.32c-2.336,2.787-2.336,6.848,0,9.635
			l20,23.862c1.483,1.771,3.61,2.683,5.752,2.683c1.7,0,3.409-0.575,4.813-1.752c3.175-2.661,3.592-7.392,0.931-10.565
			l-15.962-19.045l15.962-19.046C79.084,386.305,79.084,382.243,76.748,379.456z"/>
	</g>
</g>
<g>
	<g>
		<path d="M466.748,212.483l-15.962-19.04l15.962-19.04c2.336-2.787,2.336-6.849,0-9.636l-15.962-19.041l15.962-19.046
			c2.336-2.787,2.336-6.848,0-9.635l-20-23.862c-2.662-3.177-7.394-3.591-10.565-0.931c-3.175,2.661-3.592,7.392-0.931,10.565
			l15.962,19.045l-15.962,19.046c-2.336,2.787-2.336,6.849,0,9.636l15.962,19.041l-15.962,19.04c-2.336,2.787-2.336,6.85,0,9.637
			l15.961,19.04l-15.96,19.039c-2.337,2.787-2.337,6.85,0,9.637l15.96,19.037l-15.96,19.036c-2.337,2.787-2.337,6.85,0,9.638
			l15.96,19.033l-15.96,19.038c-2.337,2.787-2.337,6.85,0,9.637l15.96,19.037l-15.96,19.037c-2.337,2.787-2.337,6.85,0,9.637
			l15.96,19.037l-15.96,19.037c-2.661,3.174-2.245,7.904,0.929,10.565c1.405,1.178,3.114,1.753,4.814,1.753
			c2.142,0,4.268-0.912,5.751-2.682l20-23.855c2.337-2.787,2.337-6.85,0-9.637l-15.96-19.037l15.96-19.037
			c2.337-2.787,2.337-6.85,0-9.637l-15.96-19.037l15.96-19.038c2.337-2.787,2.337-6.85,0-9.638l-15.96-19.033l15.96-19.036
			c2.337-2.787,2.337-6.85,0-9.637l-15.96-19.037l15.96-19.039C469.084,219.333,469.084,215.27,466.748,212.483z"/>
	</g>
</g>
<g>
	<g>
		<circle cx="208" cy="26.5" r="7.5"/>
	</g>
</g>
<g>
	<g>
		<circle cx="226" cy="26.5" r="7.5"/>
	</g>
</g>
<g>
</g>
<g>
</g>
<g>
</g>
<g>
</g>
<g>
</g>
<g>
</g>
<g>
</g>
<g>
</g>
<g>
</g>
<g>
</g>
<g>
</g>
<g>
</g>
<g>
</g>
<g>
</g>
<g>
</g>
</svg>
