<?xml version="1.0" encoding="iso-8859-1"?>
<!-- Generator: Adobe Illustrator 19.0.0, SVG Export Plug-In . SVG Version: 6.00 Build 0)  -->
<svg version="1.1" id="Layer_1" xmlns="http://www.w3.org/2000/svg" xmlns:xlink="http://www.w3.org/1999/xlink" x="0px" y="0px"
	 viewBox="0 0 511.995 511.995" style="enable-background:new 0 0 511.995 511.995;" xml:space="preserve">
<g>
	<g>
		<g>
			<rect y="247.347" width="27.881" height="17.326"/>
			<rect x="8.251" y="309.988" transform="matrix(0.9658 -0.2591 0.2591 0.9658 -81.8078 16.6322)" width="27.877" height="17.32"/>
			
				<rect x="37.699" y="363.09" transform="matrix(-0.5001 -0.866 0.866 -0.5001 -256.9542 605.7214)" width="17.321" height="27.877"/>
			
				<rect x="76.188" y="413.236" transform="matrix(-0.7073 -0.707 0.707 -0.7073 -157.1345 789.284)" width="17.325" height="27.88"/>
			
				<rect x="126.309" y="451.68" transform="matrix(-0.8663 -0.4995 0.4995 -0.8663 19.3166 936.4077)" width="17.323" height="27.878"/>
			
				<rect x="184.671" y="475.862" transform="matrix(-0.9659 -0.2588 0.2588 -0.9659 253.3143 1012.9452)" width="17.323" height="27.872"/>
			<rect x="247.347" y="484.122" width="17.323" height="27.873"/>
			
				<rect x="304.741" y="481.156" transform="matrix(-0.2592 -0.9658 0.9658 -0.2592 -71.7902 924.5689)" width="27.878" height="17.321"/>
			
				<rect x="363.147" y="456.978" transform="matrix(-0.5002 -0.8659 0.8659 -0.5002 162.4983 1025.0756)" width="27.87" height="17.326"/>
			
				<rect x="413.237" y="418.475" transform="matrix(-0.707 -0.7072 0.7072 -0.707 427.1057 1031.2214)" width="27.863" height="17.323"/>
			
				<rect x="451.692" y="368.368" transform="matrix(-0.8659 -0.5002 0.5002 -0.8659 680.226 936.4091)" width="27.87" height="17.321"/>
			
				<rect x="475.84" y="309.998" transform="matrix(-0.9659 -0.2588 0.2588 -0.9659 880.3962 753.2134)" width="27.872" height="17.318"/>
			<rect x="484.122" y="247.347" width="27.873" height="17.326"/>
			
				<rect x="475.897" y="184.681" transform="matrix(-0.9659 0.2588 -0.2588 -0.9659 1013.0146 253.3218)" width="27.872" height="17.32"/>
			<rect x="456.995" y="121.029" transform="matrix(0.5 0.866 -0.866 0.5 349.7085 -335.7843)" width="17.321" height="27.878"/>
			
				<rect x="418.494" y="70.902" transform="matrix(0.7071 0.7071 -0.7071 0.7071 185.1003 -277.1945)" width="17.321" height="27.876"/>
			
				<rect x="368.385" y="32.417" transform="matrix(0.8663 0.4995 -0.4995 0.8663 73.5606 -182.1395)" width="17.323" height="27.873"/>
			<rect x="309.978" y="8.23" transform="matrix(0.9658 0.2591 -0.2591 0.9658 16.6262 -81.806)" width="17.32" height="27.874"/>
			<rect x="247.347" width="17.323" height="27.878"/>
			
				<rect x="179.4" y="13.516" transform="matrix(0.2589 0.9659 -0.9659 0.2589 164.7031 -170.3112)" width="27.876" height="17.321"/>
			
				<rect x="121.052" y="37.699" transform="matrix(0.5002 0.8659 -0.8659 0.5002 107.6104 -93.7159)" width="27.87" height="17.323"/>
			<rect x="70.886" y="76.174" transform="matrix(0.7073 0.7069 -0.7069 0.7073 84.798 -35.1326)" width="27.878" height="17.321"/>
			<rect x="32.434" y="126.308" transform="matrix(0.866 0.5 -0.5 0.866 73.6988 -5.1035)" width="27.878" height="17.321"/>
			<rect x="8.257" y="184.687" transform="matrix(0.966 0.2587 -0.2587 0.966 50.7727 0.8401)" width="27.874" height="17.319"/>
			<path d="M256,158.802c-53.596,0-97.203,43.602-97.203,97.195c0,53.606,43.604,97.213,97.203,97.213s97.203-43.61,97.203-97.213
				C353.203,202.404,309.596,158.802,256,158.802z M256,335.887c-44.045,0-79.88-35.843-79.88-79.89
				c0-44.04,35.835-79.872,79.88-79.872s79.88,35.83,79.88,79.872C335.88,300.045,300.045,335.887,256,335.887z"/>
			<path d="M256.008,225.208c-16.986,0-30.805,13.811-30.805,30.789c0,16.98,13.819,30.799,30.805,30.799
				c16.978,0,30.789-13.819,30.789-30.799C286.797,239.02,272.986,225.208,256.008,225.208z M256.008,269.473
				c-7.437,0-13.481-6.047-13.481-13.476c0-7.424,6.044-13.466,13.481-13.466c7.424,0,13.468,6.042,13.468,13.466
				C269.476,263.429,263.432,269.473,256.008,269.473z"/>
			<path d="M256,132.352c-84.861,0-164.04,45.716-206.625,119.311L46.863,256l2.511,4.339
				C91.96,333.934,171.136,379.656,256,379.656c84.872,0,164.045-45.724,206.625-119.319l2.509-4.339l-2.509-4.337
				C420.042,178.068,340.869,132.352,256,132.352z M256,362.33c-77.018,0-148.992-40.614-189.053-106.332
				C107.011,190.287,178.985,149.673,256,149.673c77.028,0,148.997,40.614,189.053,106.324
				C404.997,321.715,333.028,362.33,256,362.33z"/>
			<path d="M187.392,255.997h17.321c0-13.699,5.333-26.578,15.025-36.265l-12.247-12.25
				C194.527,220.442,187.392,237.67,187.392,255.997z"/>
		</g>
	</g>
</g>
<g>
</g>
<g>
</g>
<g>
</g>
<g>
</g>
<g>
</g>
<g>
</g>
<g>
</g>
<g>
</g>
<g>
</g>
<g>
</g>
<g>
</g>
<g>
</g>
<g>
</g>
<g>
</g>
<g>
</g>
</svg>
