<?xml version="1.0" encoding="iso-8859-1"?>
<!-- Generator: Adobe Illustrator 19.0.0, SVG Export Plug-In . SVG Version: 6.00 Build 0)  -->
<svg version="1.1" id="Capa_1" xmlns="http://www.w3.org/2000/svg" xmlns:xlink="http://www.w3.org/1999/xlink" x="0px" y="0px"
	 viewBox="0 0 458.392 458.392" style="enable-background:new 0 0 458.392 458.392;" xml:space="preserve">
<g>
	<g id="XMLID_138_">
		<path id="XMLID_223_" d="M200.599,329.362l-0.556,19.309L134.02,419.94c-8.591,9.274-8.037,23.756,1.236,32.347
			c9.277,8.595,23.759,8.034,32.348-1.236l71.864-77.574c0.152-0.164,0.284-0.342,0.431-0.509L234.446,359L200.599,329.362z"/>
		<path id="XMLID_1228_" d="M408.421,88.877c-0.001-0.001-0.002-0.001-0.003-0.002c-8.441-6.313-20.408-4.562-26.698,3.842
			l-39.54,52.822l-72.432-4.064l29.256-5.904l-35.388-18.749c-10.2-5.405-22.318-3.535-30.414,3.781l-79.832,28.073
			c-6.453,2.27-11.198,7.821-12.434,14.55l-15.081,82.154c-1.902,10.362,4.955,20.303,15.316,22.206
			c7.781,1.43,15.448-2.09,19.55-8.56c-0.197,6.692,2.544,13.304,7.8,17.908c11.995,10.503,69.041,60.456,80.704,70.669
			c3.39,10.904,26.048,83.784,29.438,94.688c3.754,12.074,16.581,18.815,28.652,15.063c12.072-3.753,18.815-16.582,15.063-28.653
			c-2.655-8.538-31.89-102.385-31.89-102.385c-1.273-3.262-3.446-6.448-6.243-8.898l-85.563-74.925l0,0l0,0l63.891,35.065
			l45.5-85.88l-37.58-11.772l78.82,5.501c6.331,0.355,12.492-2.502,16.31-7.577c0.01-0.013,0.02-0.024,0.03-0.037l46.607-62.213
			C418.56,107.167,416.872,95.203,408.421,88.877z M176.462,180.995l28.182-9.91l-40.342,76.143
			C170.204,215.079,167.079,232.102,176.462,180.995z"/>
		<path id="XMLID_1229_" d="M223.695,83.576c1.839,5.945,8.149,9.274,14.095,7.436l53.058-16.41
			c-7.034,18.389,0.585,39.557,18.425,49.009c7.404,3.923,15.488,5.248,23.22,4.313l34.27-45.782
			c-1.973-11.711-9.17-22.407-20.474-28.396c-9.368-4.964-19.826-5.772-29.281-3.093l-9.224-29.822
			c-1.839-5.946-8.149-9.275-14.095-7.436l-72.931,22.557c-5.945,1.839-9.275,8.149-7.436,14.095L223.695,83.576z"/>
		<path id="XMLID_1230_" d="M86.349,20h115.979c5.522,0,10-4.477,10-10s-4.478-10-10-10H86.349c-5.522,0-10,4.477-10,10
			S80.827,20,86.349,20z"/>
		<path id="XMLID_1231_" d="M159.434,49.136c0-5.523-4.478-10-10-10H52.326c-5.522,0-10,4.477-10,10s4.478,10,10,10h97.108
			C154.957,59.136,159.434,54.659,159.434,49.136z"/>
	</g>
</g>
<g>
</g>
<g>
</g>
<g>
</g>
<g>
</g>
<g>
</g>
<g>
</g>
<g>
</g>
<g>
</g>
<g>
</g>
<g>
</g>
<g>
</g>
<g>
</g>
<g>
</g>
<g>
</g>
<g>
</g>
</svg>
