<?xml version="1.0" encoding="iso-8859-1"?>
<!-- Generator: Adobe Illustrator 19.0.0, SVG Export Plug-In . SVG Version: 6.00 Build 0)  -->
<svg version="1.1" id="Capa_1" xmlns="http://www.w3.org/2000/svg" xmlns:xlink="http://www.w3.org/1999/xlink" x="0px" y="0px"
	 viewBox="0 0 128 128" style="enable-background:new 0 0 128 128;" xml:space="preserve">
<path d="M83.239,88.382l-5.077-10.789C76.842,74.789,74.022,73,70.923,73H13.077c-3.099,0-5.919,1.789-7.239,4.593L0.761,88.382
	C0.26,89.447,0,90.61,0,91.788v18.43C0,113.411,2.589,116,5.782,116h72.436c3.193,0,5.782-2.589,5.782-5.782v-18.43
	C84,90.61,83.74,89.447,83.239,88.382z M2.571,89.233l5.077-10.788C8.633,76.352,10.764,75,13.077,75h57.846
	c2.313,0,4.444,1.352,5.429,3.445l5.077,10.788c0.311,0.661,0.492,1.385,0.546,2.115c-0.055,0.489-0.225,0.964-0.511,1.382
	C80.913,93.537,80.048,94,79.091,94H4.909c-0.957,0-1.822-0.463-2.373-1.27c-0.286-0.418-0.456-0.893-0.511-1.382
	C2.079,90.618,2.26,89.894,2.571,89.233z M82,110.218c0,2.085-1.696,3.782-3.782,3.782H5.782C3.696,114,2,112.303,2,110.218V93.664
	C3,94.472,3.724,95,4.909,95h74.182C80.276,95,81,94.472,82,93.664V110.218z"/>

</svg>
