<?xml version='1.0' encoding='iso-8859-1'?>
<!DOCTYPE svg PUBLIC '-//W3C//DTD SVG 1.1//EN' 'http://www.w3.org/Graphics/SVG/1.1/DTD/svg11.dtd'>
<svg version="1.1" xmlns="http://www.w3.org/2000/svg" viewBox="0 0 512 512" xmlns:xlink="http://www.w3.org/1999/xlink" enable-background="new 0 0 512 512">
  <path d="m440.025,223.698c-13.599-7.852-28.138-13.216-43.081-16.295-1.385-2.571-2.965-5.011-4.483-7.496 4.821-14.368 7.543-29.688 7.543-45.66 0-57.201-33.905-108.996-86.38-131.948-16.203-7.07-35.053,0.313-42.139,16.499-7.078,16.187 0.305,35.053 16.499,42.139 26.058,11.396 43.774,35.6 47.282,63.278-23.398-13.415-50.415-21.201-79.266-21.201s-55.868,7.786-79.265,21.201c3.508-27.678 21.224-51.882 47.282-63.278 16.195-7.086 23.577-25.952 16.499-42.139-7.078-16.187-25.952-23.569-42.139-16.499-52.475,22.952-86.38,74.747-86.38,131.948 0,15.971 2.722,31.292 7.543,45.66-1.518,2.483-3.097,4.923-4.482,7.493-14.947,3.08-29.484,8.445-43.082,16.298-49.554,28.601-77.451,83.857-71.076,140.777 1.969,17.562 17.71,30.218 35.366,28.241 17.562-1.969 30.202-17.804 28.241-35.366-3.187-28.435 9.092-56.015 31.574-72.864 0.538,58.514 32.659,109.515 80.091,136.973-26.011,11.447-56.408,8.44-79.69-8.713-14.249-10.492-34.272-7.445-44.748,6.781-10.476,14.234-7.445,34.264 6.781,44.748 25.327,18.656 55.381,28.108 85.536,28.108 24.757,0 49.592-6.375 71.927-19.273 14.036-8.104 26.263-18.408 36.602-30.281 1.148,0.024 2.265,0.173 3.42,0.173 1.154,0 2.271-0.148 3.42-0.173 10.34,11.873 22.567,22.177 36.602,30.281 22.335,12.898 47.162,19.273 71.927,19.273 30.155,0 60.209-9.453 85.536-28.108 14.226-10.484 17.257-30.514 6.781-44.748-10.468-14.21-30.507-17.234-44.748-6.781-23.288,17.152-53.693,20.159-79.691,8.714 47.434-27.458 79.555-78.459 80.093-136.974 22.482,16.849 34.762,44.428 31.574,72.864-1.961,17.562 10.679,33.397 28.241,35.366 17.679,1.992 33.389-10.679 35.366-28.241 6.374-56.92-21.523-112.176-71.076-140.777zm-184.025-36.686c22.338,0 42.866,7.731 59.193,20.573-14.654,16.247-35.642,26.667-59.193,26.667s-44.539-10.42-59.193-26.667c16.327-12.842 36.855-20.573 59.193-20.573zm-34.749,182.095c-0.27,1.009-0.564,1.893-1.086,2.892-35.221-14.235-60.162-48.727-60.162-88.99 0-4.248 0.373-8.402 0.91-12.506 1.263,0.027 2.522,0.291 3.769,0.624 20.64,5.531 37.889,18.765 48.576,37.272 10.689,18.507 13.524,40.068 7.993,60.708zm34.749-54.099c-17.674,0-31.999-14.325-31.999-31.999 0-17.675 14.325-31.999 31.999-31.999s31.999,14.324 31.999,31.999c0,17.674-14.325,31.999-31.999,31.999zm35.835,56.991c-0.529-1.01-0.815-1.883-1.086-2.892-5.531-20.64-2.695-42.202 7.992-60.709 10.687-18.507 27.936-31.741 48.576-37.272 1.248-0.333 2.527-0.532 3.769-0.623 0.537,4.103 0.91,8.258 0.91,12.505 0.001,40.264-24.94,74.756-60.161,88.991z"/>
</svg>
