<?xml version="1.0" encoding="iso-8859-1"?>
<!-- Generator: Adobe Illustrator 19.0.0, SVG Export Plug-In . SVG Version: 6.00 Build 0)  -->
<svg version="1.1" id="Capa_1" xmlns="http://www.w3.org/2000/svg" xmlns:xlink="http://www.w3.org/1999/xlink" x="0px" y="0px"
	 viewBox="0 0 511.906 511.906" style="enable-background:new 0 0 511.906 511.906;" xml:space="preserve">
<g>
	<g>
		<path d="M155.977,32.002h-144c-4.424,0-8,3.576-8,8v144c0,4.424,3.576,8,8,8h144c4.424,0,8-3.576,8-8v-144
			C163.977,35.578,160.401,32.002,155.977,32.002z M147.977,176.002h-128v-128h128V176.002z"/>
	</g>
</g>
<g>
	<g>
		<path d="M187.977,0.002h-144c-4.424,0-8,3.576-8,8c0,4.424,3.576,8,8,8h136v136c0,4.424,3.576,8,8,8c4.424,0,8-3.576,8-8v-144
			C195.977,3.578,192.401,0.002,187.977,0.002z"/>
	</g>
</g>
<g>
	<g>
		<path d="M49.633,2.346c-3.128-3.128-8.184-3.128-11.312,0l-32,32c-3.128,3.128-3.128,8.184,0,11.312
			c1.56,1.56,3.608,2.344,5.656,2.344c2.048,0,4.096-0.784,5.656-2.344l32-32C52.761,10.53,52.761,5.474,49.633,2.346z"/>
	</g>
</g>
<g>
	<g>
		<path d="M193.633,146.346c-3.128-3.128-8.184-3.128-11.312,0l-32,32c-3.128,3.128-3.128,8.184,0,11.312
			c1.56,1.56,3.608,2.344,5.656,2.344c2.048,0,4.096-0.784,5.656-2.344l32-32C196.761,154.53,196.761,149.474,193.633,146.346z"/>
	</g>
</g>
<g>
	<g>
		<path d="M193.633,2.346c-3.128-3.128-8.184-3.128-11.312,0l-32,32c-3.128,3.128-3.128,8.184,0,11.312
			c1.56,1.56,3.608,2.344,5.656,2.344c2.048,0,4.096-0.784,5.656-2.344l32-32C196.761,10.53,196.761,5.474,193.633,2.346z"/>
	</g>
</g>
<g>
	<g>
		<path d="M155.977,351.906h-144c-4.424,0-8,3.576-8,8v144c0,4.424,3.576,8,8,8h144c4.424,0,8-3.576,8-8v-144
			C163.977,355.482,160.401,351.906,155.977,351.906z M147.977,495.906h-128v-128h128V495.906z"/>
	</g>
</g>
<g>
	<g>
		<path d="M187.977,319.906h-144c-4.424,0-8,3.576-8,8s3.576,8,8,8h136v136c0,4.424,3.576,8,8,8c4.424,0,8-3.576,8-8v-144
			C195.977,323.482,192.401,319.906,187.977,319.906z"/>
	</g>
</g>
<g>
	<g>
		<path d="M49.633,322.25c-3.128-3.128-8.184-3.128-11.312,0l-32,32c-3.128,3.128-3.128,8.184,0,11.312
			c1.56,1.56,3.608,2.344,5.656,2.344c2.048,0,4.096-0.784,5.656-2.344l32-32C52.761,330.434,52.761,325.378,49.633,322.25z"/>
	</g>
</g>
<g>
	<g>
		<path d="M193.633,466.25c-3.128-3.128-8.184-3.128-11.312,0l-32,32c-3.128,3.128-3.128,8.184,0,11.312
			c1.56,1.56,3.608,2.344,5.656,2.344c2.048,0,4.096-0.784,5.656-2.344l32-32C196.761,474.434,196.761,469.378,193.633,466.25z"/>
	</g>
</g>
<g>
	<g>
		<path d="M193.633,322.25c-3.128-3.128-8.184-3.128-11.312,0l-32,32c-3.128,3.128-3.128,8.184,0,11.312
			c1.56,1.56,3.608,2.344,5.656,2.344c2.048,0,4.096-0.784,5.656-2.344l32-32C196.761,330.434,196.761,325.378,193.633,322.25z"/>
	</g>
</g>
<g>
	<g>
		<path d="M99.977,279.906c-4.424,0-8,3.576-8,8v56c0,4.424,3.576,8,8,8c4.424,0,8-3.576,8-8v-56
			C107.977,283.482,104.401,279.906,99.977,279.906z"/>
	</g>
</g>
<g>
	<g>
		<path d="M99.977,215.906c-17.648,0-32,14.352-32,32v32c0,17.648,14.352,32,32,32s32-14.352,32-32v-32
			C131.977,230.258,117.625,215.906,99.977,215.906z M115.977,279.906c0,8.824-7.176,16-16,16c-8.824,0-16-7.176-16-16v-32
			c0-8.824,7.176-16,16-16c8.816,0,16,7.184,16,16V279.906z"/>
	</g>
</g>
<g>
	<g>
		<path d="M99.977,175.906c-4.424,0-8,3.576-8,8v56c0,4.424,3.576,8,8,8c4.424,0,8-3.576,8-8v-56
			C107.977,179.482,104.401,175.906,99.977,175.906z"/>
	</g>
</g>
<g>
	<g>
		<path d="M227.929,407.906h-56c-4.424,0-8,3.576-8,8s3.576,8,8,8h56c4.424,0,8-3.576,8-8S232.353,407.906,227.929,407.906z"/>
	</g>
</g>
<g>
	<g>
		<path d="M267.929,383.906h-32c-17.648,0-32,14.352-32,32s14.352,32,32,32h32c17.648,0,32-14.352,32-32
			S285.577,383.906,267.929,383.906z M267.929,431.906h-32c-8.824,0-16-7.176-16-16c0-8.824,7.176-16,16-16h32
			c8.824,0,16,7.176,16,16C283.929,424.73,276.753,431.906,267.929,431.906z"/>
	</g>
</g>
<g>
	<g>
		<path d="M323.929,407.906h-48c-4.424,0-8,3.576-8,8s3.576,8,8,8h48c4.424,0,8-3.576,8-8S328.353,407.906,323.929,407.906z"/>
	</g>
</g>
<g>
	<g>
		<path d="M227.929,87.906h-56c-4.424,0-8,3.576-8,8c0,4.424,3.576,8,8,8h56c4.424,0,8-3.576,8-8
			C235.929,91.482,232.353,87.906,227.929,87.906z"/>
	</g>
</g>
<g>
	<g>
		<path d="M267.929,63.906h-32c-17.648,0-32,14.352-32,32c0,17.648,14.352,32,32,32h32c17.648,0,32-14.352,32-32
			C299.929,78.258,285.577,63.906,267.929,63.906z M267.929,111.906h-32c-8.824,0-16-7.176-16-16c0-8.824,7.176-16,16-16h32
			c8.824,0,16,7.176,16,16C283.929,104.73,276.753,111.906,267.929,111.906z"/>
	</g>
</g>
<g>
	<g>
		<path d="M323.929,87.906h-48c-4.424,0-8,3.576-8,8c0,4.424,3.576,8,8,8h48c4.424,0,8-3.576,8-8
			C331.929,91.482,328.353,87.906,323.929,87.906z"/>
	</g>
</g>
<g>
	<g>
		<path d="M467.929,32.002h-144c-4.424,0-8,3.576-8,8v144c0,4.424,3.576,8,8,8h144c4.424,0,8-3.576,8-8v-144
			C475.929,35.578,472.353,32.002,467.929,32.002z M459.929,176.002h-128v-128h128V176.002z"/>
	</g>
</g>
<g>
	<g>
		<path d="M499.929,0.002h-144c-4.424,0-8,3.576-8,8c0,4.424,3.576,8,8,8h136v136c0,4.424,3.576,8,8,8s8-3.576,8-8v-144
			C507.929,3.578,504.353,0.002,499.929,0.002z"/>
	</g>
</g>
<g>
	<g>
		<path d="M361.585,2.346c-3.128-3.128-8.184-3.128-11.312,0l-32,32c-3.128,3.128-3.128,8.184,0,11.312
			c1.56,1.56,3.608,2.344,5.656,2.344s4.096-0.784,5.656-2.344l32-32C364.713,10.53,364.713,5.474,361.585,2.346z"/>
	</g>
</g>
<g>
	<g>
		<path d="M505.585,146.346c-3.128-3.128-8.184-3.128-11.312,0l-32,32c-3.128,3.128-3.128,8.184,0,11.312
			c1.56,1.56,3.608,2.344,5.656,2.344s4.096-0.784,5.656-2.344l32-32C508.713,154.53,508.713,149.474,505.585,146.346z"/>
	</g>
</g>
<g>
	<g>
		<path d="M505.585,2.346c-3.128-3.128-8.184-3.128-11.312,0l-32,32c-3.128,3.128-3.128,8.184,0,11.312
			c1.56,1.56,3.608,2.344,5.656,2.344s4.096-0.784,5.656-2.344l32-32C508.713,10.53,508.713,5.474,505.585,2.346z"/>
	</g>
</g>
<g>
	<g>
		<path d="M467.929,351.906h-144c-4.424,0-8,3.576-8,8v144c0,4.424,3.576,8,8,8h144c4.424,0,8-3.576,8-8v-144
			C475.929,355.482,472.353,351.906,467.929,351.906z M459.929,495.906h-128v-128h128V495.906z"/>
	</g>
</g>
<g>
	<g>
		<path d="M499.929,319.906h-144c-4.424,0-8,3.576-8,8s3.576,8,8,8h136v136c0,4.424,3.576,8,8,8s8-3.576,8-8v-144
			C507.929,323.482,504.353,319.906,499.929,319.906z"/>
	</g>
</g>
<g>
	<g>
		<path d="M361.585,322.25c-3.128-3.128-8.184-3.128-11.312,0l-32,32c-3.128,3.128-3.128,8.184,0,11.312
			c1.56,1.56,3.608,2.344,5.656,2.344s4.096-0.784,5.656-2.344l32-32C364.713,330.434,364.713,325.378,361.585,322.25z"/>
	</g>
</g>
<g>
	<g>
		<path d="M505.585,466.25c-3.128-3.128-8.184-3.128-11.312,0l-32,32c-3.128,3.128-3.128,8.184,0,11.312
			c1.56,1.56,3.608,2.344,5.656,2.344s4.096-0.784,5.656-2.344l32-32C508.713,474.434,508.713,469.378,505.585,466.25z"/>
	</g>
</g>
<g>
	<g>
		<path d="M505.585,322.25c-3.128-3.128-8.184-3.128-11.312,0l-32,32c-3.128,3.128-3.128,8.184,0,11.312
			c1.56,1.56,3.608,2.344,5.656,2.344s4.096-0.784,5.656-2.344l32-32C508.713,330.434,508.713,325.378,505.585,322.25z"/>
	</g>
</g>
<g>
	<g>
		<path d="M411.929,279.906c-4.424,0-8,3.576-8,8v56c0,4.424,3.576,8,8,8s8-3.576,8-8v-56
			C419.929,283.482,416.353,279.906,411.929,279.906z"/>
	</g>
</g>
<g>
	<g>
		<path d="M411.929,215.906c-17.648,0-32,14.352-32,32v32c0,17.648,14.352,32,32,32s32-14.352,32-32v-32
			C443.929,230.258,429.577,215.906,411.929,215.906z M427.929,279.906c0,8.824-7.176,16-16,16c-8.824,0-16-7.176-16-16v-32
			c0-8.824,7.176-16,16-16s16,7.184,16,16V279.906z"/>
	</g>
</g>
<g>
	<g>
		<path d="M411.929,175.906c-4.424,0-8,3.576-8,8v56c0,4.424,3.576,8,8,8s8-3.576,8-8v-56
			C419.929,179.482,416.353,175.906,411.929,175.906z"/>
	</g>
</g>
<g>
</g>
<g>
</g>
<g>
</g>
<g>
</g>
<g>
</g>
<g>
</g>
<g>
</g>
<g>
</g>
<g>
</g>
<g>
</g>
<g>
</g>
<g>
</g>
<g>
</g>
<g>
</g>
<g>
</g>
</svg>
