<svg viewBox="0 1 511 511.99991" xmlns="http://www.w3.org/2000/svg"><path d="m330.5625 181.941406-67.035156-67.035156c-2.859375-2.859375-7.160156-3.714844-10.894532-2.167969-3.738281 1.550781-6.171874 5.195313-6.171874 9.238281v109.933594l-80.484376-80.488281c-3.90625-3.902344-10.238281-3.902344-14.140624 0-3.90625 3.90625-3.90625 10.238281 0 14.140625l90.480468 90.484375-90.480468 90.484375c-3.90625 3.902344-3.90625 10.234375 0 14.140625 1.949218 1.949219 4.507812 2.925781 7.066406 2.925781s5.121094-.976562 7.070312-2.925781l80.484375-80.488281v109.933594c0 4.042968 2.4375 7.6875 6.171875 9.238281 1.238282.511719 2.539063.757812 3.824219.757812 2.601563 0 5.160156-1.015625 7.074219-2.925781l67.035156-67.035156c3.902344-3.90625 3.902344-10.234375 0-14.140625l-59.964844-59.964844 59.964844-59.964844c3.902344-3.90625 3.902344-10.234375 0-14.140625zm-64.105469 184.035156v-85.792968l42.898438 42.898437zm0-134.066406v-85.796875l42.898438 42.898438zm0 0"/><path d="m423.617188 89.53125c1.953124 1.960938 4.519531 2.941406 7.085937 2.941406 2.550781 0 5.101563-.96875 7.054687-2.914062 3.914063-3.894532 3.925782-10.226563.03125-14.136719l-.355468-.355469c-3.902344-3.90625-10.234375-3.90625-14.140625 0-3.902344 3.902344-3.902344 10.234375 0 14.140625zm0 0"/><path d="m470.546875 115.699219c-3.035156-4.617188-9.234375-5.898438-13.847656-2.867188-4.617188 3.03125-5.898438 9.230469-2.867188 13.84375 61.039063 92.910157 48.195313 217.488281-30.539062 296.21875-44.5625 44.566407-103.816407 69.109375-166.84375 69.109375-63.023438 0-122.277344-24.542968-166.84375-69.109375-91.996094-92-91.996094-241.691406 0-333.6875 80.570312-80.570312 207.007812-92.164062 300.636719-27.566406 4.542968 3.136719 10.769531 1.992187 13.90625-2.550781 3.136718-4.546875 1.992187-10.773438-2.550782-13.90625-101.578125-70.082032-238.734375-57.511719-326.132812 29.882812-48.339844 48.34375-74.964844 112.617188-74.964844 180.984375 0 68.367188 26.625 132.640625 74.964844 180.984375 48.34375 48.34375 112.617187 74.964844 180.984375 74.964844 68.367187 0 132.640625-26.625 180.984375-74.964844 41.875-41.875 68.070312-97.335937 73.769531-156.175781 5.617187-58.046875-8.820313-116.699219-40.65625-165.160156zm0 0"/></svg>