<?xml version="1.0" encoding="iso-8859-1"?>
<!-- Generator: Adobe Illustrator 19.0.0, SVG Export Plug-In . SVG Version: 6.00 Build 0)  -->
<svg version="1.1" id="Capa_1" xmlns="http://www.w3.org/2000/svg" xmlns:xlink="http://www.w3.org/1999/xlink" x="0px" y="0px"
	 viewBox="0 0 512 512" style="enable-background:new 0 0 512 512;" xml:space="preserve">
<g>
	<g>
		<path d="M482,0H106C89.458,0,76,13.458,76,30v105c0,5.523,4.477,10,10,10s10-4.477,10-10V30c0-5.514,4.486-10,10-10h61v40
			c0,5.523,4.477,10,10,10s10-4.477,10-10V20h133.992v115c0,5.523,4.477,10,10,10h54.478c5.523,0,10-4.477,10-10v-28.667
			c0-5.523-4.477-10-10-10s-10,4.477-10,10V125h-34.478V20H482c5.514,0,10,4.486,10,10v293H340.992v-57H407c5.523,0,10-4.478,10-10
			c0-5.523-4.477-10-10-10h-76.008c-5.523,0-10,4.477-10,10v77c0,5.522,4.477,10,10,10H492v63c0,5.514-4.486,10-10,10H365.15
			c-5.523,0-10,4.478-10,10c0,5.522,4.477,10,10,10H482c16.542,0,30-13.458,30-30V30C512,13.458,498.542,0,482,0z"/>
	</g>
</g>
<g>
	<g>
		<path d="M287.75,416h-20.887v-25.925c0-5.522-4.477-10-10-10H216.5c-5.523,0-10,4.478-10,10c0,5.522,4.477,10,10,10h30.363V416
			H106c-5.514,0-10-4.486-10-10v-63h21c5.523,0,10-4.478,10-10c0-5.522-4.477-10-10-10H96v-57h150v19.917c0,5.522,4.477,10,10,10
			s10-4.478,10-10V256c0-5.523-4.477-10-10-10H96v-15.572c0-5.523-4.477-10-10-10s-10,4.477-10,10V406c0,16.542,13.458,30,30,30
			h181.75c5.523,0,10-4.478,10-10C297.75,420.478,293.273,416,287.75,416z"/>
	</g>
</g>
<g>
	<g>
		<path d="M450.74,248.93c-1.86-1.86-4.44-2.93-7.07-2.93s-5.21,1.07-7.08,2.93c-1.86,1.86-2.92,4.44-2.92,7.07
			s1.06,5.21,2.92,7.069c1.87,1.86,4.45,2.931,7.08,2.931c2.63,0,5.21-1.07,7.07-2.931c1.86-1.859,2.93-4.439,2.93-7.069
			S452.6,250.79,450.74,248.93z"/>
	</g>
</g>
<g>
	<g>
		<path d="M256,66.469c-5.523,0-10,4.477-10,10v88.05h-99c-5.523,0-10,4.477-10,10s4.477,10,10,10h109c5.523,0,10-4.477,10-10
			v-98.05C266,70.946,261.523,66.469,256,66.469z"/>
	</g>
</g>
<g>
	<g>
		<path d="M509.069,481.072l-13.854-13.856c-3.905-3.904-10.237-3.904-14.143,0c-2.954,2.955-3.669,7.297-2.153,10.928H101.081
			c1.516-3.631,0.801-7.973-2.153-10.928c-3.905-3.904-10.237-3.904-14.143,0l-13.856,13.856c-3.905,3.905-3.905,10.237,0,14.143
			l13.856,13.856c1.953,1.952,4.512,2.929,7.071,2.929c2.559,0,5.119-0.977,7.071-2.929c2.954-2.955,3.669-7.297,2.153-10.928
			h377.838c-1.516,3.631-0.801,7.973,2.153,10.928c1.953,1.952,4.512,2.929,7.071,2.929s5.119-0.977,7.071-2.929l13.856-13.856
			C512.974,491.31,512.974,484.978,509.069,481.072z"/>
	</g>
</g>
<g>
	<g>
		<path d="M33.855,410.92V33.081c1.233,0.514,2.545,0.775,3.858,0.775c2.559,0,5.119-0.977,7.071-2.929
			c3.905-3.905,3.905-10.237,0-14.143L30.928,2.929c-3.905-3.904-10.237-3.904-14.143,0L2.929,16.785
			c-3.905,3.905-3.905,10.237,0,14.143c2.955,2.954,7.297,3.669,10.928,2.153V410.92c-3.631-1.516-7.973-0.801-10.928,2.153
			c-3.905,3.905-3.905,10.237,0,14.143l13.856,13.856c1.953,1.952,4.512,2.929,7.071,2.929c2.559,0,5.119-0.977,7.071-2.929
			l13.856-13.856c3.905-3.905,3.905-10.237,0-14.143C41.828,410.119,37.486,409.404,33.855,410.92z"/>
	</g>
</g>
<g>
	<g>
		<path d="M93.07,167.45c-1.86-1.86-4.44-2.93-7.07-2.93s-5.21,1.07-7.07,2.93S76,171.89,76,174.52s1.07,5.21,2.93,7.07
			c1.86,1.86,4.44,2.93,7.07,2.93s5.21-1.07,7.07-2.93s2.93-4.44,2.93-7.07S94.93,169.31,93.07,167.45z"/>
	</g>
</g>
<g>
	<g>
		<path d="M469.378,131.033c-0.258-5.516-4.934-9.77-10.456-9.522c-5.516,0.258-9.78,4.939-9.522,10.456
			c0.047,1.003,0.071,2.024,0.071,3.033c0,5.523,4.477,10,10,10s10-4.477,9.999-10C469.47,133.68,469.439,132.346,469.378,131.033z"
			/>
	</g>
</g>
<g>
	<g>
		<g>
			<path d="M430.466,64.057c-1.815-1.154-3.698-2.25-5.596-3.26c-4.878-2.595-10.932-0.743-13.525,4.132
				c-2.594,4.876-0.744,10.931,4.132,13.525c1.447,0.769,2.88,1.604,4.262,2.482c1.663,1.058,3.519,1.562,5.354,1.562
				c3.307,0,6.544-1.641,8.45-4.638C436.505,73.199,435.128,67.019,430.466,64.057z"/>
			<path d="M459.674,95.603c-1.01-1.897-2.106-3.78-3.26-5.596c-2.961-4.662-9.143-6.037-13.803-3.078
				c-4.662,2.962-6.04,9.142-3.078,13.803c0.88,1.384,1.715,2.819,2.485,4.265c1.798,3.38,5.258,5.305,8.837,5.305
				c1.584,0,3.192-0.378,4.688-1.174C460.419,106.534,462.268,100.479,459.674,95.603z"/>
		</g>
	</g>
</g>
<g>
	<g>
		<path d="M389.432,51.092C388.117,51.031,386.784,51,385.47,51c-5.523,0-10,4.477-10,10s4.477,10,10,10
			c1.008,0,2.029,0.023,3.037,0.07c0.158,0.008,0.315,0.011,0.471,0.011c5.31,0,9.733-4.178,9.98-9.537
			C399.214,56.027,394.949,51.347,389.432,51.092z"/>
	</g>
</g>
<g>
	<g>
		<path d="M253.5,306.075c-1.315,0-2.648,0.031-3.963,0.092c-5.516,0.256-9.781,4.934-9.526,10.452
			c0.248,5.359,4.67,9.537,9.981,9.537c0.156,0,0.313-0.004,0.471-0.011c1.008-0.047,2.029-0.07,3.037-0.07c5.523,0,10-4.478,10-10
			C263.5,310.553,259.023,306.075,253.5,306.075z"/>
	</g>
</g>
<g>
	<g>
		<g>
			<path d="M227.627,320.001c-2.593-4.875-8.648-6.725-13.525-4.131c-1.901,1.012-3.783,2.109-5.596,3.26
				c-4.662,2.962-6.04,9.142-3.078,13.804c1.906,2.998,5.142,4.638,8.45,4.638c1.835,0,3.691-0.504,5.353-1.562
				c1.381-0.878,2.816-1.713,4.265-2.484C228.372,330.933,230.221,324.877,227.627,320.001z"/>
			<path d="M196.36,342.005c-4.66-2.962-10.841-1.587-13.804,3.075c-1.154,1.815-2.25,3.698-3.26,5.596
				c-2.594,4.876-0.744,10.931,4.132,13.525c1.497,0.796,3.104,1.173,4.688,1.173c3.579,0,7.04-1.926,8.837-5.305
				c0.769-1.445,1.604-2.878,2.482-4.26C202.397,351.149,201.021,344.968,196.36,342.005z"/>
		</g>
	</g>
</g>
<g>
	<g>
		<path d="M180.044,376.586c-5.521-0.266-10.197,4.009-10.452,9.526c-0.061,1.316-0.092,2.649-0.092,3.963c0,5.522,4.477,10,10,10
			s10-4.477,10.001-10c0-1.007,0.023-2.029,0.07-3.037C189.826,381.521,185.561,376.841,180.044,376.586z"/>
	</g>
</g>
<g>
</g>
<g>
</g>
<g>
</g>
<g>
</g>
<g>
</g>
<g>
</g>
<g>
</g>
<g>
</g>
<g>
</g>
<g>
</g>
<g>
</g>
<g>
</g>
<g>
</g>
<g>
</g>
<g>
</g>
</svg>
