<?xml version="1.0" encoding="iso-8859-1"?>
<!-- Generator: Adobe Illustrator 19.0.0, SVG Export Plug-In . SVG Version: 6.00 Build 0)  -->
<svg version="1.1" id="Layer_1" xmlns="http://www.w3.org/2000/svg" xmlns:xlink="http://www.w3.org/1999/xlink" x="0px" y="0px"
	 viewBox="0 0 512 512" style="enable-background:new 0 0 512 512;" xml:space="preserve">
<path style="fill:#F67656;" d="M368.886,242.499c-3.748-3.732-8.63-5.601-13.507-5.601H156.631c-4.877,0-9.766,1.869-13.489,5.601
	c-3.735,3.722-5.596,8.622-5.596,13.499c0,4.877,1.861,9.777,5.596,13.499c3.722,3.722,8.612,5.601,13.489,5.601h198.746
	c4.877,0,9.761-1.876,13.507-5.601c3.72-3.722,5.571-8.622,5.571-13.499C374.454,251.121,372.605,246.221,368.886,242.499z"/>
<g>
	<path style="fill:#CCCBCA;" d="M38.177,313.267V198.72H236.91c0-9.754-3.727-19.53-11.185-26.977
		c-7.46-7.478-17.224-11.2-26.988-11.2H38.177c-9.769,0-19.546,3.722-26.993,11.2C3.722,179.19,0,188.966,0,198.72v114.547
		c0,9.754,3.722,19.538,11.185,26.975c7.447,7.485,17.224,11.2,26.993,11.2h160.561c9.764,0,19.53-3.715,26.988-11.2
		c7.457-7.437,11.185-17.224,11.185-26.975H38.177z"/>
	<path style="fill:#CCCBCA;" d="M473.823,313.267V198.72H275.105c0-9.754,3.717-19.53,11.167-26.977
		c7.447-7.478,17.226-11.2,27-11.2h160.55c9.782,0,19.533,3.722,27.008,11.2C508.273,179.19,512,188.966,512,198.72v114.547
		c0,9.754-3.727,19.538-11.169,26.975c-7.475,7.485-17.226,11.2-27.008,11.2h-160.55c-9.772,0-19.553-3.715-27-11.2
		c-7.45-7.437-11.167-17.224-11.167-26.975H473.823z"/>
</g>
<g>
	<rect x="249.779" y="59.082" style="fill:#3F4A5A;" width="12.429" height="41.477"/>
	<polygon style="fill:#3F4A5A;" points="311.409,71.329 295.555,109.676 284.045,104.876 299.894,66.575 	"/>
	<polygon style="fill:#3F4A5A;" points="352.205,101.484 322.854,130.798 314.058,122.02 343.378,92.652 	"/>
	<polygon style="fill:#3F4A5A;" points="227.942,104.911 216.445,109.704 200.561,71.357 212.06,66.611 	"/>
	
		<rect x="172.646" y="91.036" transform="matrix(-0.7074 0.7068 -0.7068 -0.7074 384.4162 64.4368)" style="fill:#3F4A5A;" width="12.449" height="41.5"/>
	<rect x="249.779" y="411.441" style="fill:#3F4A5A;" width="12.429" height="41.477"/>
	<polygon style="fill:#3F4A5A;" points="311.409,440.668 295.555,402.335 284.045,407.119 299.894,445.443 	"/>
	<polygon style="fill:#3F4A5A;" points="352.205,410.519 322.854,381.189 314.058,389.967 343.378,419.343 	"/>
	<polygon style="fill:#3F4A5A;" points="227.942,407.076 216.445,402.291 200.561,440.635 212.06,445.384 	"/>
	<polygon style="fill:#3F4A5A;" points="197.947,389.926 189.138,381.128 159.795,410.476 168.614,419.259 	"/>
</g>
<g>
</g>
<g>
</g>
<g>
</g>
<g>
</g>
<g>
</g>
<g>
</g>
<g>
</g>
<g>
</g>
<g>
</g>
<g>
</g>
<g>
</g>
<g>
</g>
<g>
</g>
<g>
</g>
<g>
</g>
</svg>
