<?xml version="1.0" encoding="iso-8859-1"?>
<!-- Generator: Adobe Illustrator 16.0.0, SVG Export Plug-In . SVG Version: 6.00 Build 0)  -->
<!DOCTYPE svg PUBLIC "-//W3C//DTD SVG 1.1//EN" "http://www.w3.org/Graphics/SVG/1.1/DTD/svg11.dtd">
<svg version="1.1" id="Capa_1" xmlns="http://www.w3.org/2000/svg" xmlns:xlink="http://www.w3.org/1999/xlink" x="0px" y="0px"
	 width="46.096px" height="46.097px" viewBox="0 0 46.096 46.097" style="enable-background:new 0 0 46.096 46.097;"
	 xml:space="preserve">
<g>
	<g>
		<path d="M32.248,25.556l-3.683-0.925c1.562-1.386,2.84-3.296,3.693-5.39c1.193-0.265,2.291-1.259,2.471-3.449
			c0.17-2.063-0.459-2.982-1.304-3.384c-0.01-0.245,1.343-7.178-3.588-8.954c-0.562-0.852-4.36-6.035-11.255-1.828
			c-1.01,0.616-2.614,1.831-3.469,3.053c-1.242,1.561-2.073,3.967-2.212,7.663c-0.922,0.361-1.641,1.262-1.461,3.45
			c0.187,2.264,1.35,3.25,2.591,3.473c0.834,2.09,2.086,3.983,3.637,5.359l-3.744,0.931c-5.076,1.267-8.631,5.794-8.631,11.009
			v6.242c0,1.771,1.477,3.29,3.253,3.29h29.16c1.776,0,3.097-1.518,3.097-3.29v-6.242C40.803,31.35,37.323,26.822,32.248,25.556z
			 M14.856,13.474c0-0.678,0.021-1.308,0.061-1.894c6.485,0.218,10.34-2.403,12.448-4.681c2.713,2.705,3.679,6.364,4,8.113
			c-0.629,4.798-4.051,9.891-8.202,9.891C18.561,24.902,14.856,18.65,14.856,13.474z M38.879,42.808
			c0,0.683-0.486,1.278-1.173,1.278h-2.851v-2.657c0-0.272-0.252-0.494-0.524-0.494c-0.273,0-0.525,0.221-0.525,0.494v2.657h-6.69
			l-2.787-11.199c0.834-0.022,1.441-0.802,1.246-1.617l-0.535-2.203c-0.143-0.59-0.672-0.986-1.28-0.986h-1.266
			c-0.608,0-1.138,0.4-1.28,0.99l-0.535,2.206c-0.197,0.815,0.412,1.587,1.246,1.609l-2.787,11.2H12.29v-2.657
			c0-0.272-0.208-0.494-0.48-0.494c-0.273,0-0.481,0.221-0.481,0.494v2.657H8.547c-0.686,0-1.242-0.596-1.242-1.278v-6.242
			c0-4.309,2.922-8.048,7.114-9.095l5.442-1.36c1.024,0.493,2.133,0.77,3.296,0.77c1.132,0,2.217-0.275,3.226-0.765l5.41,1.355
			c4.191,1.047,7.086,4.786,7.086,9.095V42.808z"/>
		<path d="M15.327,36.384c-0.517-0.562-1.403-0.562-1.919,0l-1.34,1.449c-0.325,0.354-0.075,0.918,0.406,0.918h3.788
			c0.48,0,0.731-0.564,0.406-0.918L15.327,36.384z"/>
		<path d="M22.593,16.009h0.988c0.166,1.486,1.422,2.621,2.942,2.621c1.633,0,2.959-1.321,2.959-2.953
			c0-1.888-1.711-1.881-2.959-1.881c-1.084,0-2.514-0.061-2.875,1.25h-1.124c-0.361-1.312-1.791-1.25-2.874-1.25
			c-1.25,0-2.961-0.01-2.961,1.877c0,1.633,1.329,2.962,2.961,2.962C21.172,18.635,22.427,17.496,22.593,16.009z M26.524,14.765
			c1.641,0,1.973,0.151,1.973,0.899c0,1.087-0.885,1.972-1.973,1.972c-1.086,0-1.972-0.885-1.972-1.972
			C24.551,14.916,24.882,14.765,26.524,14.765z M17.68,15.664c0-0.748,0.331-0.899,1.972-0.899c1.64,0,1.972,0.151,1.972,0.899
			c0,1.087-0.885,1.972-1.972,1.972S17.68,16.75,17.68,15.664z"/>
	</g>
</g>
<g>
</g>
<g>
</g>
<g>
</g>
<g>
</g>
<g>
</g>
<g>
</g>
<g>
</g>
<g>
</g>
<g>
</g>
<g>
</g>
<g>
</g>
<g>
</g>
<g>
</g>
<g>
</g>
<g>
</g>
</svg>
