<?xml version="1.0" encoding="iso-8859-1"?>
<!-- Generator: Adobe Illustrator 19.0.0, SVG Export Plug-In . SVG Version: 6.00 Build 0)  -->
<svg version="1.1" id="Capa_1" xmlns="http://www.w3.org/2000/svg" xmlns:xlink="http://www.w3.org/1999/xlink" x="0px" y="0px"
	 viewBox="0 0 511.995 511.995" style="enable-background:new 0 0 511.995 511.995;" xml:space="preserve">
<polygon style="fill:#4A5054;" points="454.364,177.4 333.85,177.4 333.85,329.352 5.99,329.352 5.99,349.565 333.85,349.565 
	506.01,349.565 506.01,263.483 "/>
<polygon style="fill:#F7F7F7;" points="443.884,196.114 374.267,196.114 374.267,267.226 407.951,267.226 439.393,288.934 
	487.296,288.934 487.296,268.721 "/>
<rect x="5.99" y="104.794" style="fill:#FCC153;" width="327.834" height="223.811"/>
<polygon style="fill:#F7F7F7;" points="264.233,217.075 215.578,186.386 215.578,198.362 5.99,198.362 5.99,235.789 
	215.578,235.789 215.578,247.764 "/>
<rect x="5.99" y="349.591" style="fill:#C94242;" width="500.019" height="12.723"/>
<circle style="fill:#20262D;" cx="95.811" cy="362.289" r="44.913"/>
<circle style="fill:#F7F7F7;" cx="95.811" cy="362.289" r="26.199"/>
<circle style="fill:#20262D;" cx="415.437" cy="362.289" r="44.913"/>
<circle style="fill:#F7F7F7;" cx="415.437" cy="362.289" r="26.199"/>
<g>
	<rect y="329.367" style="fill:#E2E2E2;" width="5.99" height="20.961"/>
	<rect x="500.019" y="329.367" style="fill:#E2E2E2;" width="11.976" height="20.961"/>
</g>
<rect x="374.272" y="273.201" style="fill:#20262D;" width="23.204" height="6.738"/>
<g>
</g>
<g>
</g>
<g>
</g>
<g>
</g>
<g>
</g>
<g>
</g>
<g>
</g>
<g>
</g>
<g>
</g>
<g>
</g>
<g>
</g>
<g>
</g>
<g>
</g>
<g>
</g>
<g>
</g>
</svg>
