<?xml version="1.0" encoding="iso-8859-1"?>
<!-- Generator: Adobe Illustrator 19.0.0, SVG Export Plug-In . SVG Version: 6.00 Build 0)  -->
<svg version="1.1" id="Capa_1" xmlns="http://www.w3.org/2000/svg" xmlns:xlink="http://www.w3.org/1999/xlink" x="0px" y="0px"
	 viewBox="0 0 426.667 426.667" style="enable-background:new 0 0 426.667 426.667;" xml:space="preserve">
<g>
	<g>
		<g>
			<path d="M362.667,85.333h-64V42.667C298.667,19.2,279.467,0,256,0h-85.333C147.2,0,128,19.2,128,42.667v42.667H64
				c-12.8,0-21.333,8.533-21.333,21.333V128H384v-21.333C384,93.867,375.467,85.333,362.667,85.333z M256,85.333h-85.333V42.667H256
				V85.333z"/>
			<path d="M85.333,384c0,23.467,19.2,42.667,42.667,42.667h170.667c23.467,0,42.667-19.2,42.667-42.667V170.667h-256V384z
				 M234.667,213.333h42.667V384h-42.667V213.333z M149.333,213.333H192V384h-42.667V213.333z"/>
		</g>
	</g>
</g>
<g>
</g>
<g>
</g>
<g>
</g>
<g>
</g>
<g>
</g>
<g>
</g>
<g>
</g>
<g>
</g>
<g>
</g>
<g>
</g>
<g>
</g>
<g>
</g>
<g>
</g>
<g>
</g>
<g>
</g>
</svg>
