<svg xmlns="http://www.w3.org/2000/svg" height="511pt" version="1.1" viewBox="-53 1 511 511.99906" width="511pt">
<g id="surface1">
<path d="M 276.410156 3.957031 C 274.0625 1.484375 270.84375 0 267.507812 0 L 67.777344 0 C 30.921875 0 0.5 30.300781 0.5 67.152344 L 0.5 444.84375 C 0.5 481.699219 30.921875 512 67.777344 512 L 338.863281 512 C 375.71875 512 406.140625 481.699219 406.140625 444.84375 L 406.140625 144.941406 C 406.140625 141.726562 404.65625 138.636719 402.554688 136.285156 Z M 279.996094 43.65625 L 364.464844 132.328125 L 309.554688 132.328125 C 293.230469 132.328125 279.996094 119.21875 279.996094 102.894531 Z M 338.863281 487.265625 L 67.777344 487.265625 C 44.652344 487.265625 25.234375 468.097656 25.234375 444.84375 L 25.234375 67.152344 C 25.234375 44.027344 44.527344 24.734375 67.777344 24.734375 L 255.261719 24.734375 L 255.261719 102.894531 C 255.261719 132.945312 279.503906 157.0625 309.554688 157.0625 L 381.40625 157.0625 L 381.40625 444.84375 C 381.40625 468.097656 362.113281 487.265625 338.863281 487.265625 Z M 338.863281 487.265625 " style=" stroke:none;fill-rule:nonzero;fill:rgb(0%,0%,0%);fill-opacity:1;" />
<path d="M 305.101562 401.933594 L 101.539062 401.933594 C 94.738281 401.933594 89.171875 407.496094 89.171875 414.300781 C 89.171875 421.101562 94.738281 426.667969 101.539062 426.667969 L 305.226562 426.667969 C 312.027344 426.667969 317.59375 421.101562 317.59375 414.300781 C 317.59375 407.496094 312.027344 401.933594 305.101562 401.933594 Z M 305.101562 401.933594 " style=" stroke:none;fill-rule:nonzero;fill:rgb(0%,0%,0%);fill-opacity:1;" />
<path d="M 148.410156 325.007812 C 151.875 325.007812 155.335938 323.523438 157.808594 320.679688 C 162.261719 315.484375 161.644531 307.695312 156.449219 303.242188 L 111.929688 265.273438 L 156.449219 227.308594 C 161.644531 222.855469 162.261719 215.0625 157.808594 209.871094 C 153.359375 204.675781 145.566406 204.054688 140.371094 208.507812 L 84.84375 255.875 C 82.125 258.226562 80.515625 261.6875 80.515625 265.273438 C 80.515625 268.859375 82.121094 272.324219 84.84375 274.671875 L 140.371094 322.039062 C 142.722656 324.019531 145.566406 325.007812 148.410156 325.007812 Z M 148.410156 325.007812 " style=" stroke:none;fill-rule:nonzero;fill:rgb(0%,0%,0%);fill-opacity:1;" />
<path d="M 321.796875 255.875 L 266.269531 208.507812 C 261.074219 204.058594 253.285156 204.675781 248.832031 209.871094 C 244.378906 215.0625 244.996094 222.855469 250.191406 227.308594 L 294.714844 265.273438 L 250.191406 303.242188 C 245 307.695312 244.378906 315.484375 248.832031 320.679688 C 251.304688 323.523438 254.769531 325.007812 258.230469 325.007812 C 261.074219 325.007812 263.917969 324.019531 266.269531 322.042969 L 321.796875 274.675781 C 324.519531 272.324219 326.125 268.863281 326.125 265.273438 C 326.125 261.6875 324.519531 258.226562 321.796875 255.875 Z M 321.796875 255.875 " style=" stroke:none;fill-rule:nonzero;fill:rgb(0%,0%,0%);fill-opacity:1;" />
<path d="M 181.058594 360.253906 C 181.925781 360.378906 182.792969 360.503906 183.65625 360.503906 C 189.34375 360.503906 194.539062 356.546875 195.777344 350.734375 L 230.40625 186.25 C 231.765625 179.570312 227.558594 173.015625 220.882812 171.65625 C 214.203125 170.296875 207.648438 174.5 206.289062 181.179688 L 171.660156 345.660156 C 170.175781 352.214844 174.382812 358.769531 181.058594 360.253906 Z M 181.058594 360.253906 " style=" stroke:none;fill-rule:nonzero;fill:rgb(0%,0%,0%);fill-opacity:1;" />
</g>
</svg>