<?xml version="1.0" encoding="iso-8859-1"?>
<!-- Generator: Adobe Illustrator 19.1.0, SVG Export Plug-In . SVG Version: 6.00 Build 0)  -->
<svg version="1.1" id="Capa_1" xmlns="http://www.w3.org/2000/svg" xmlns:xlink="http://www.w3.org/1999/xlink" x="0px" y="0px"
	 viewBox="0 0 437.879 437.879" style="enable-background:new 0 0 437.879 437.879;" xml:space="preserve">
<g>
	<g>
		<g>
			<path style="fill:#010002;" d="M49.193,0v339.503H155.99l62.949,98.376l62.939-98.376h106.807V0H49.193z M181.94,289.822
				c-13.366,0-24.191-4.641-24.191-10.366c0-4.025,5.364-7.464,13.141-9.184V55.504H193v214.768
				c7.767,1.729,13.141,5.159,13.141,9.184C206.131,285.181,195.296,289.822,181.94,289.822z M202.565,131.135v0.391h-1.299
				L202.565,131.135V55.504l120.339,38.709L202.565,131.135z M202.565,131.545v-0.41l-1.299,0.401L202.565,131.545L202.565,131.545z
				"/>
		</g>
	</g>
</g>
<g>
</g>
<g>
</g>
<g>
</g>
<g>
</g>
<g>
</g>
<g>
</g>
<g>
</g>
<g>
</g>
<g>
</g>
<g>
</g>
<g>
</g>
<g>
</g>
<g>
</g>
<g>
</g>
<g>
</g>
</svg>
