<?xml version="1.0" encoding="iso-8859-1"?>
<!-- Generator: Adobe Illustrator 19.0.0, SVG Export Plug-In . SVG Version: 6.00 Build 0)  -->
<svg version="1.1" id="Capa_1" xmlns="http://www.w3.org/2000/svg" xmlns:xlink="http://www.w3.org/1999/xlink" x="0px" y="0px"
	 viewBox="0 0 512 512" style="enable-background:new 0 0 512 512;" xml:space="preserve">
<g>
	<g>
		<g>
			<path d="M465.455,69.818C465.455,31.302,360.727,0,232.727,0S0,31.302,0,69.818c0,139.636,186.182,162.909,186.182,279.273
				c0,4.073,0,7.68,0,11.636c0,16.989,0,32.116,0,45.615c0,0,0,0.582,0,0.931c-0.021,0.388-0.021,0.776,0,1.164
				C187.229,495.36,193.629,512,232.727,512c46.545,0,46.545-23.273,46.545-162.909C279.273,232.727,465.455,209.455,465.455,69.818
				z M232.727,23.273c115.665,0,209.455,20.829,209.455,46.545s-93.789,46.545-209.455,46.545S23.273,95.535,23.273,69.818
				S117.062,23.273,232.727,23.273z M351.418,205.265C304.524,243.2,256,282.415,256,349.091s0,107.636-5.12,128
				c-2.56,10.356-2.909,11.636-18.153,11.636c-15.244,0-15.593-1.047-18.153-11.636c-3.614-19.179-5.329-38.667-5.12-58.182h11.636
				c6.427,0,11.636-5.21,11.636-11.636c0-6.427-5.21-11.636-11.636-11.636h-11.636c0-7.331,0-15.011,0-23.273h11.636
				c6.427,0,11.636-5.21,11.636-11.636s-5.21-11.636-11.636-11.636h-11.636c0-66.676-48.524-105.891-95.418-143.826
				c-37.702-30.72-73.658-59.811-86.109-102.284c39.331,21.876,116.247,36.655,204.8,36.655s165.353-14.778,204.8-36.655
				C424.96,145.571,389.004,174.545,351.418,205.265z"/>
			<path d="M500.364,349.091h-58.182v-58.182c0-6.427-5.21-11.636-11.636-11.636s-11.636,5.21-11.636,11.636v58.182h-58.182
				c-6.427,0-11.636,5.21-11.636,11.636s5.21,11.636,11.636,11.636h58.182v58.182c0,6.427,5.21,11.636,11.636,11.636
				s11.636-5.21,11.636-11.636v-58.182h58.182c6.427,0,11.636-5.21,11.636-11.636S506.79,349.091,500.364,349.091z"/>
		</g>
	</g>
</g>
<g>
</g>
<g>
</g>
<g>
</g>
<g>
</g>
<g>
</g>
<g>
</g>
<g>
</g>
<g>
</g>
<g>
</g>
<g>
</g>
<g>
</g>
<g>
</g>
<g>
</g>
<g>
</g>
<g>
</g>
</svg>
