<?xml version="1.0" encoding="iso-8859-1"?>
<!-- Generator: Adobe Illustrator 19.0.0, SVG Export Plug-In . SVG Version: 6.00 Build 0)  -->
<svg version="1.1" id="Layer_1" xmlns="http://www.w3.org/2000/svg" xmlns:xlink="http://www.w3.org/1999/xlink" x="0px" y="0px"
	 viewBox="0 0 297 297" style="enable-background:new 0 0 297 297;" xml:space="preserve">
<g>
	<g>
		<g>
			<g>
				<circle style="fill:#FFA800;" cx="148.5" cy="148.5" r="148.5"/>
			</g>
		</g>
	</g>
	<path style="fill:#C98409;" d="M137.254,296.578c3.713,0.278,7.463,0.422,11.246,0.422c82.014,0,148.5-66.486,148.5-148.5
		c0-1.791-0.043-3.572-0.106-5.348l-32.055-31.984c-50.926,10.104-97.666,9.633-145.339,12.331c-7,29-40,35-59,55
		c-5.323,5.988-10.66,11.517-22.585,18.739L137.254,296.578z"/>
	<g>
		<path style="fill:#D0D5D9;" d="M33.727,123.049v50.019c0,15.432,12.51,27.941,27.941,27.941h42.487
			c13.233,0,24.768-9.006,27.977-21.844l7.817-31.267h17.704l7.817,31.267c3.209,12.838,14.744,21.844,27.977,21.844h42.487
			c15.432,0,27.941-12.51,27.941-27.941v-50.019c0-5.831-4.727-10.558-10.558-10.558H44.285
			C38.454,112.491,33.727,117.218,33.727,123.049z"/>
		<path style="fill:#2B2B2B;" d="M235.934,207.009h-42.487c-16.016,0-29.914-10.852-33.798-26.389l-6.681-26.722h-8.334
			l-6.681,26.722c-3.884,15.537-17.782,26.389-33.798,26.389H61.668c-18.716,0-33.941-15.226-33.941-33.94v-50.02
			c0-9.13,7.428-16.558,16.559-16.558h209.032c9.13,0,16.558,7.428,16.558,16.558v50.02
			C269.875,191.783,254.649,207.009,235.934,207.009z M139.949,141.898h17.703c2.753,0,5.153,1.874,5.821,4.545l7.817,31.267
			c2.546,10.186,11.656,17.299,22.155,17.299h42.487c12.099,0,21.941-9.843,21.941-21.94v-50.02c0-2.513-2.045-4.558-4.558-4.558
			H44.285c-2.514,0-4.559,2.045-4.559,4.558v50.02c0,12.098,9.843,21.94,21.941,21.94h42.487c10.499,0,19.609-7.113,22.155-17.299
			l7.817-31.267C134.796,143.772,137.196,141.898,139.949,141.898z"/>
	</g>
	<g>
		<path style="fill:#B85627;" d="M65.318,151.296H29.682c-3.69,0-6.682-2.991-6.682-6.682v-11.137c0-3.69,2.991-6.682,6.682-6.682
			h35.637c3.69,0,6.682,2.991,6.682,6.682v11.137C72,148.305,69.009,151.296,65.318,151.296z"/>
	</g>
	<g>
		<path style="fill:#5E4534;" d="M243.757,142.314H208.35c-1.657,0-3-1.343-3-3s1.343-3,3-3h35.407c1.657,0,3,1.343,3,3
			S245.414,142.314,243.757,142.314z"/>
	</g>
	<g>
		<path style="fill:#5E4534;" d="M243.757,155.19H208.35c-1.657,0-3-1.343-3-3s1.343-3,3-3h35.407c1.657,0,3,1.343,3,3
			S245.414,155.19,243.757,155.19z"/>
	</g>
	<g>
		<path style="fill:#5E4534;" d="M243.757,168.602H208.35c-1.657,0-3-1.343-3-3s1.343-3,3-3h35.407c1.657,0,3,1.343,3,3
			S245.414,168.602,243.757,168.602z"/>
	</g>
</g>
<g>
</g>
<g>
</g>
<g>
</g>
<g>
</g>
<g>
</g>
<g>
</g>
<g>
</g>
<g>
</g>
<g>
</g>
<g>
</g>
<g>
</g>
<g>
</g>
<g>
</g>
<g>
</g>
<g>
</g>
</svg>
