<?xml version="1.0" encoding="iso-8859-1"?>
<!-- Generator: Adobe Illustrator 18.0.0, SVG Export Plug-In . SVG Version: 6.00 Build 0)  -->
<!DOCTYPE svg PUBLIC "-//W3C//DTD SVG 1.1//EN" "http://www.w3.org/Graphics/SVG/1.1/DTD/svg11.dtd">
<svg version="1.1" id="Capa_1" xmlns="http://www.w3.org/2000/svg" xmlns:xlink="http://www.w3.org/1999/xlink" x="0px" y="0px"
	 viewBox="0 0 298.967 298.967" style="enable-background:new 0 0 298.967 298.967;" xml:space="preserve">
<g>
	<path d="M268.79,43.821l-20.997-20.997c-3.906-3.904-10.236-3.904-14.143,0c-3.905,3.905-3.905,10.237,0,14.143l3.926,3.926h-60.36
		C172.556,17.603,151.956,0,127.317,0s-45.24,17.603-49.899,40.893H37.248c-5.522,0-10,4.477-10,10s4.478,10,10,10h40.169
		c2.537,12.679,9.8,23.666,19.867,31.051c0-26.291,0-26.357,0-41.385c0-16.631,13.53-30.161,30.161-30.161
		s30.161,13.53,30.161,30.161c0,8.685,0,15.385,0,23.735c4.582,0.319,8.881,1.673,12.677,3.819
		c3.296-5.184,5.687-10.996,6.933-17.221h60.36l-3.926,3.926c-3.905,3.905-3.905,10.237,0,14.143c3.907,3.906,10.236,3.904,14.143,0
		l20.997-20.997C272.696,54.059,272.696,47.727,268.79,43.821z"/>
	<path d="M217.471,255.593h-90.64c-5.126,0-9.282,4.156-9.282,9.282v24.81c0,5.126,4.156,9.282,9.282,9.282h90.64
		c5.126,0,9.282-4.156,9.282-9.282v-24.81C226.753,259.749,222.597,255.593,217.471,255.593z"/>
	<path d="M119.042,222.585c7.44,11.084,19.894,17.745,33.191,17.745h29.677c19.322,0,36.414-12.436,42.511-30.601l0-0.001
		c3.211-9.566,2.332-8.956,2.332-81.087v0c0-8.373-6.788-15.161-15.161-15.161c-5.116,0-10.054,2.629-12.886,7.202
		c0,0-0.001,0.002-0.002,0.003v-4.93c0-8.307-6.705-15.16-15.196-15.16c-5.406,0.015-10.182,2.889-12.853,7.203v0v-3.414
		c0-8.373-6.788-15.161-15.161-15.161c-0.012,0-0.023,0.001-0.035,0.001c-5.341,0.015-10.146,2.829-12.852,7.202v-0.001V50.559
		c0-8.373-6.788-15.161-15.161-15.161c-8.373,0-15.161,6.788-15.161,15.161v114.056v0l-17.001-21.798
		c-5.131-6.575-14.643-7.757-21.229-2.666c-0.016,0.013-0.034,0.023-0.05,0.036c-6.603,5.15-7.78,14.677-2.631,21.279
		C73.396,164.059,106.525,206.536,119.042,222.585L119.042,222.585z"/>
</g>
<g>
</g>
<g>
</g>
<g>
</g>
<g>
</g>
<g>
</g>
<g>
</g>
<g>
</g>
<g>
</g>
<g>
</g>
<g>
</g>
<g>
</g>
<g>
</g>
<g>
</g>
<g>
</g>
<g>
</g>
</svg>
