<?xml version="1.0" encoding="iso-8859-1"?>
<!-- Generator: Adobe Illustrator 19.0.0, SVG Export Plug-In . SVG Version: 6.00 Build 0)  -->
<svg version="1.1" id="Capa_1" xmlns="http://www.w3.org/2000/svg" xmlns:xlink="http://www.w3.org/1999/xlink" x="0px" y="0px"
	 viewBox="0 0 512.003 512.003" style="enable-background:new 0 0 512.003 512.003;" xml:space="preserve">
<g>
	<g>
		<g>
			<path d="M469.346,273.84c-0.271-14.911-1.411-29.794-3.412-44.572c-2.371-17.699-5.963-35.213-10.75-52.417
				C432.927,99.023,387.698,47.474,324.267,27.147v-1.545c-0.015-14.132-11.468-25.585-25.6-25.6h-85.333
				c-14.132,0.015-25.585,11.468-25.6,25.6v1.545C124.303,47.474,79.075,99.025,56.809,176.91
				c-4.786,17.184-8.375,34.678-10.742,52.358v0.009c-2.002,14.776-3.141,29.656-3.412,44.564
				c-26.238,4.43-44.702,28.229-42.473,54.745c2.23,26.516,24.409,46.897,51.018,46.883h6.206l139.115,81.833
				c2.593,30.923,28.448,54.7,59.479,54.7c31.031,0,56.886-23.778,59.479-54.7l139.115-81.833h6.206
				c26.61,0.015,48.79-20.367,51.02-46.883C514.05,302.069,495.585,278.269,469.346,273.84z M444.58,205.598
				c0.198,0.952,0.344,1.919,0.533,2.873c0.881,4.435,1.548,8.921,2.269,13.396h-80.448v-34.133h73.332
				C441.803,193.645,443.332,199.564,444.58,205.598z M187.734,45.044v40.291c0,4.713,3.82,8.533,8.533,8.533
				s8.533-3.821,8.533-8.533V25.601c0.003-4.711,3.822-8.53,8.533-8.533h85.333c4.712,0.003,8.53,3.822,8.533,8.533v59.733
				c0,4.713,3.82,8.533,8.533,8.533s8.533-3.821,8.533-8.533V45.044c52.819,18.697,90.125,60.921,111.133,125.624H365.7
				c-3.592-10.348-13.413-17.227-24.366-17.067h-21.519c-14.232-21.326-38.176-34.133-63.815-34.133
				c-25.639,0-49.583,12.807-63.815,34.133h-21.519c-10.952-0.16-20.773,6.719-24.365,17.067H76.61
				C97.628,105.946,134.93,63.736,187.734,45.044z M328.32,170.668L328.32,170.668h13.014c4.258-0.321,8.016,2.762,8.533,7v54.267
				c-0.518,4.238-4.276,7.321-8.533,7h-21.519C333.354,218.83,336.512,193.48,328.32,170.668z M315.734,196.268
				c0,32.99-26.744,59.733-59.733,59.733c-32.973-0.04-59.693-26.76-59.733-59.733c0-32.99,26.744-59.733,59.733-59.733
				S315.734,163.278,315.734,196.268z M192.186,238.935h-21.519c-4.258,0.321-8.016-2.762-8.533-7v-1.533v-52.733
				c0.518-4.238,4.276-7.321,8.533-7h13.013C175.489,193.48,178.647,218.83,192.186,238.935z M66.894,208.442
				c0.186-0.938,0.329-1.889,0.523-2.825c1.252-6.048,2.783-11.97,4.323-17.883h73.327v34.133H64.621
				C65.343,217.382,66.011,212.884,66.894,208.442z M197.972,438.349L91.075,375.468h43.095l72.333,43.402
				C202.512,424.797,199.622,431.396,197.972,438.349z M167.341,375.468H344.66l-50.918,30.552
				c-21.949-17.981-53.535-17.981-75.483,0L167.341,375.468z M256.001,494.935c-23.564,0-42.667-19.102-42.667-42.667
				c0-23.564,19.102-42.667,42.667-42.667s42.667,19.102,42.667,42.667C298.64,475.821,279.553,494.907,256.001,494.935z
				 M314.03,438.349c-1.65-6.953-4.54-13.552-8.531-19.48l72.333-43.401h43.095L314.03,438.349z M460.801,358.401h-409.6
				c-18.851,0-34.133-15.282-34.133-34.133c0-18.851,15.282-34.133,34.133-34.133h34.133c4.713,0,8.533-3.82,8.533-8.533
				s-3.821-8.533-8.533-8.533H59.74c0.142-7.418,0.696-19.468,2.36-34.133h84.202c3.591,10.348,13.412,17.227,24.365,17.067h37.166
				c28.08,22.756,68.255,22.756,96.335,0h37.166c10.952,0.16,20.774-6.719,24.366-17.067h84.203
				c1.662,14.666,2.217,26.717,2.358,34.133h-25.594c-4.713,0-8.533,3.821-8.533,8.533s3.82,8.533,8.533,8.533h34.133
				c18.851,0,34.133,15.282,34.133,34.133C494.934,343.119,479.652,358.401,460.801,358.401z"/>
			<path d="M256.001,426.668c-14.139,0-25.6,11.462-25.6,25.6c0,14.138,11.461,25.6,25.6,25.6c14.138,0,25.6-11.462,25.6-25.6
				C281.585,438.136,270.133,426.683,256.001,426.668z M256.001,460.801c-4.713,0-8.533-3.821-8.533-8.533
				c0-4.713,3.82-8.533,8.533-8.533c4.713,0,8.533,3.821,8.533,8.533C264.531,456.98,260.712,460.798,256.001,460.801z"/>
		</g>
	</g>
</g>
<g>
</g>
<g>
</g>
<g>
</g>
<g>
</g>
<g>
</g>
<g>
</g>
<g>
</g>
<g>
</g>
<g>
</g>
<g>
</g>
<g>
</g>
<g>
</g>
<g>
</g>
<g>
</g>
<g>
</g>
</svg>
