<?xml version="1.0" encoding="iso-8859-1"?>
<!-- Generator: Adobe Illustrator 19.0.0, SVG Export Plug-In . SVG Version: 6.00 Build 0)  -->
<svg version="1.1" id="Capa_1" xmlns="http://www.w3.org/2000/svg" xmlns:xlink="http://www.w3.org/1999/xlink" x="0px" y="0px"
	 viewBox="0 0 512 512" style="enable-background:new 0 0 512 512;" xml:space="preserve">
<path style="fill:#3C6EAA;" d="M392.848,416.034H29.5c-12.15,0-22-9.85-22-22V117.967c0-12.15,9.85-22,22-22h453
	c12.15,0,22,9.85,22,22v186.415C504.5,366.046,454.512,416.034,392.848,416.034z"/>
<path style="fill:#365889;" d="M482.5,95.972c12.15,0,22,9.85,22,22v186.41c0,46.64-28.6,86.61-69.23,103.29
	c28.58-20.21,47.23-53.52,47.23-91.19V95.972L482.5,95.972z"/>
<rect x="71.5" y="198.691" style="fill:#35C9A6;" width="189.14" height="158.41"/>
<path style="fill:#D4D0BA;" d="M227.637,292.221v64.878H102.05v-64.878c0-11.299,9.158-20.457,20.457-20.457h84.673
	C218.479,271.763,227.637,280.922,227.637,292.221z"/>
<rect x="102.05" y="336.791" style="fill:#C1BCA4;" width="125.53" height="20.309"/>
<path style="fill:#FFD19F;" d="M212.418,228.7c0,2.74-0.233,5.428-0.68,8.04c-3.815,22.446-23.359,39.535-46.894,39.535
	c-24.515,0-44.701-18.545-47.289-42.37c-0.19-1.708-0.285-3.444-0.285-5.205c0-26.271,21.299-47.575,47.575-47.575
	c3.896,0,7.683,0.466,11.309,1.356c11.913,2.902,22.07,10.295,28.578,20.281C209.592,210.221,212.418,219.132,212.418,228.7z"/>
<path style="fill:#FBC176;" d="M201.779,169.568c0,0,19.203,7.522,19.678,31.31c0.476,23.787-9.039,27.824-9.039,27.824
	s-3.264-26.872-20.9-32.581S187.334,163.473,201.779,169.568z"/>
<path style="fill:#DB9F5D;" d="M182.922,205.16c-25.215,4.282-45.196-5.233-57.09,8.088c-11.694,13.093-8.673,19.292-8.568,19.501
	c-0.257-0.262-9.477-9.838-7.131-33.297c0.038-0.366,0.076-0.733,0.119-1.094c2.583-22.988,12.855-32.246,21.052-34.587
	l-2.141-7.612c0,0,11.936,3.33,25.234,0c10.053-2.517,32.612-1.955,43.445,8.259c3.506,3.297,5.78,7.607,6.013,13.15
	C204.173,185.111,208.136,200.878,182.922,205.16z"/>
<path d="M337,408.534H29.5c-7.995,0-14.5-6.505-14.5-14.5V117.967c0-7.995,6.505-14.5,14.5-14.5h359.736c4.142,0,7.5-3.357,7.5-7.5
	s-3.358-7.5-7.5-7.5H29.5c-16.267,0-29.5,13.233-29.5,29.5v276.067c0,16.267,13.233,29.5,29.5,29.5H337c4.142,0,7.5-3.357,7.5-7.5
	S341.142,408.534,337,408.534z"/>
<path d="M482.5,88.467h-62.141c-4.142,0-7.5,3.357-7.5,7.5s3.358,7.5,7.5,7.5H482.5c7.995,0,14.5,6.505,14.5,14.5v186.415
	c0,57.43-46.723,104.152-104.152,104.152h-24.181c-4.142,0-7.5,3.357-7.5,7.5s3.358,7.5,7.5,7.5h24.181
	c65.701,0,119.152-53.451,119.152-119.152V117.967C512,101.701,498.767,88.467,482.5,88.467z"/>
<path d="M71.5,248.501c-4.142,0-7.5,3.357-7.5,7.5v101.101c0,4.143,3.358,7.5,7.5,7.5h30.55h125.59h33c4.142,0,7.5-3.357,7.5-7.5
	v-158.41c0-4.143-3.358-7.5-7.5-7.5h-32.804c-3.695-16.588-15.498-24.577-20.766-27.384c-1.756-2.66-4.027-5.057-6.805-7.133
	c-13.493-10.084-36.435-10.611-47.69-7.793c-11.081,2.772-21.324,0.07-21.398,0.052c-2.609-0.73-5.41,0.009-7.324,1.926
	c-1.914,1.918-2.645,4.72-1.912,7.328l0.406,1.442c-6.794,4.166-15.155,12.989-18.611,31.562H71.5c-4.142,0-7.5,3.357-7.5,7.5v28.76
	c0,4.143,3.358,7.5,7.5,7.5s7.5-3.357,7.5-7.5v-21.26h23.257c-0.153,16.552,5.138,25.966,8.017,29.849
	c1.424,10.48,5.851,20.268,12.562,28.222h-0.326c-15.417,0-27.96,12.542-27.96,27.959v57.381H79V256
	C79,251.859,75.642,248.501,71.5,248.501z M253.14,349.602h-18v-57.381c0-15.417-12.543-27.959-27.96-27.959h-0.33
	c7.469-8.848,12.113-19.965,12.935-31.78c3.764-3.692,8.448-11.269,9.107-26.29h24.247v143.41H253.14z M147.793,264.974
	c-13.986-6.581-23.023-20.819-23.023-36.273c0-0.114-0.012-0.225-0.017-0.339c0.652-1.932,2.332-5.257,6.674-10.12
	c4.734-5.304,11.683-5.252,24.582-4.688c8.294,0.365,17.694,0.777,28.169-1.001c5.041-0.856,9.156-2.169,12.543-3.783
	c5.161,6.391,7.566,16.092,8.185,20.353c-0.164,15.291-9.153,29.331-23.028,35.856c-5.327,2.516-11.06,3.792-17.037,3.792
	S153.13,267.495,147.793,264.974z M213.771,207.878c-1.517-3.067-3.404-6.129-5.71-8.92c1.947-3.212,2.916-6.584,3.352-9.717
	c1.447,3.189,2.454,7.078,2.548,11.788C214.012,203.602,213.937,205.874,213.771,207.878z M133.364,170.98
	c2.859-0.816,4.855-3.187,5.332-5.933c4.964,0.247,11.098-0.006,17.524-1.615c7.535-1.886,25.698-1.744,35.067,5.258
	c1.637,1.224,2.857,2.559,3.692,4.058c0.02,0.043,0.045,0.083,0.065,0.125c0.805,1.491,1.238,3.142,1.317,5.007
	c0.034,0.809,0.103,1.701,0.18,2.658c0.622,7.782,1.159,14.504-14.875,17.226c-8.901,1.512-17.085,1.151-25,0.805
	c-13.747-0.602-26.735-1.175-36.429,9.683c-1.021,1.144-1.952,2.253-2.799,3.33c-0.274-3.233-0.28-7.012,0.157-11.386
	C119.956,176.594,130.261,171.868,133.364,170.98z M109.55,292.221c0-7.146,5.814-12.959,12.96-12.959h20.472
	c13.786,5.985,29.929,5.99,43.716,0h20.482c7.146,0,12.96,5.813,12.96,12.959v57.381h-8.849v-33.118c0-4.143-3.358-7.5-7.5-7.5
	s-7.5,3.357-7.5,7.5v33.118h-62.896v-33.118c0-4.143-3.358-7.5-7.5-7.5s-7.5,3.357-7.5,7.5v33.118h-8.846L109.55,292.221
	L109.55,292.221z"/>
<path d="M145.457,217.799h-0.476c-4.142,0-7.5,3.357-7.5,7.5s3.358,7.5,7.5,7.5h0.476c4.142,0,7.5-3.357,7.5-7.5
	S149.599,217.799,145.457,217.799z"/>
<path d="M184.706,232.799c4.142,0,7.5-3.357,7.5-7.5s-3.358-7.5-7.5-7.5h-0.476c-4.142,0-7.5,3.357-7.5,7.5s3.358,7.5,7.5,7.5
	H184.706z"/>
<path d="M430,191.708H295c-4.142,0-7.5,3.357-7.5,7.5s3.358,7.5,7.5,7.5h135c4.142,0,7.5-3.357,7.5-7.5S434.142,191.708,430,191.708
	z"/>
<path d="M430,281.167H295c-4.142,0-7.5,3.357-7.5,7.5s3.358,7.5,7.5,7.5h135c4.142,0,7.5-3.357,7.5-7.5S434.142,281.167,430,281.167
	z"/>
<path d="M430,308.984H295c-4.142,0-7.5,3.357-7.5,7.5s3.358,7.5,7.5,7.5h135c4.142,0,7.5-3.357,7.5-7.5S434.142,308.984,430,308.984
	z"/>
<path d="M430,336.799H295c-4.142,0-7.5,3.357-7.5,7.5s3.358,7.5,7.5,7.5h135c4.142,0,7.5-3.357,7.5-7.5S434.142,336.799,430,336.799
	z"/>
<path d="M295,232.799h67.5c4.142,0,7.5-3.357,7.5-7.5s-3.358-7.5-7.5-7.5H295c-4.142,0-7.5,3.357-7.5,7.5
	S290.858,232.799,295,232.799z"/>
<g>
</g>
<g>
</g>
<g>
</g>
<g>
</g>
<g>
</g>
<g>
</g>
<g>
</g>
<g>
</g>
<g>
</g>
<g>
</g>
<g>
</g>
<g>
</g>
<g>
</g>
<g>
</g>
<g>
</g>
</svg>
