<?xml version="1.0" encoding="iso-8859-1"?>
<!-- Generator: Adobe Illustrator 19.0.0, SVG Export Plug-In . SVG Version: 6.00 Build 0)  -->
<svg version="1.1" id="Layer_1" xmlns="http://www.w3.org/2000/svg" xmlns:xlink="http://www.w3.org/1999/xlink" x="0px" y="0px"
	 viewBox="0 0 512.002 512.002" style="enable-background:new 0 0 512.002 512.002;" xml:space="preserve">
<g>
	<circle style="fill:#D35B38;" cx="355.883" cy="182.371" r="44.499"/>
	<circle style="fill:#D35B38;" cx="355.883" cy="182.371" r="3.522"/>
</g>
<g>
	<circle style="fill:#FFAD61;" cx="38.31" cy="439.371" r="28.109"/>
	<circle style="fill:#FFAD61;" cx="151.001" cy="403.643" r="28.109"/>
	<circle style="fill:#FFAD61;" cx="186.851" cy="256" r="28.109"/>
	<circle style="fill:#FFAD61;" cx="473.694" cy="274.44" r="28.109"/>
</g>
<g>
	<path style="fill:#4D3D36;" d="M355.885,168.646c-7.566,0-13.721,6.155-13.721,13.721c0,7.566,6.155,13.721,13.721,13.721
		s13.721-6.155,13.721-13.721C369.606,174.802,363.451,168.646,355.885,168.646z"/>
	<path style="fill:#4D3D36;" d="M355.309,281.207c-5.632,0-10.199,4.567-10.199,10.199v29.708c0,5.632,4.567,10.199,10.199,10.199
		c5.632,0,10.199-4.567,10.199-10.199v-29.708C365.508,285.773,360.942,281.207,355.309,281.207z"/>
	<path style="fill:#4D3D36;" d="M355.309,84.424c5.632,0,10.199-4.567,10.199-10.199V44.517c0-5.632-4.567-10.199-10.199-10.199
		c-5.632,0-10.199,4.567-10.199,10.199v29.708C345.109,79.858,349.677,84.424,355.309,84.424z"/>
	<path style="fill:#4D3D36;" d="M355.309,343.696c-5.632,0-10.199,4.567-10.199,10.199v29.709c0,5.632,4.567,10.199,10.199,10.199
		c5.632,0,10.199-4.567,10.199-10.199v-29.709C365.508,348.264,360.942,343.696,355.309,343.696z"/>
	<path style="fill:#4D3D36;" d="M355.309,406.188c-5.632,0-10.199,4.567-10.199,10.199v29.708c0,5.632,4.567,10.199,10.199,10.199
		c5.632,0,10.199-4.567,10.199-10.199v-29.708C365.508,410.754,360.942,406.188,355.309,406.188z"/>
	<path style="fill:#4D3D36;" d="M473.694,236.132c-8.441,0-16.248,2.75-22.586,7.393l-46.191-36.952
		c3.62-7.303,5.666-15.518,5.666-24.206c0-26.877-19.49-49.271-45.074-53.834v-21.525c0-5.632-4.567-10.199-10.199-10.199
		c-5.632,0-10.199,4.567-10.199,10.199v21.731c-25.019,5.019-43.924,27.154-43.924,53.628c0,3.914,0.421,7.731,1.207,11.414
		l-85.584,38.384c-7.025-8.81-17.838-14.473-29.956-14.473c-21.123,0-38.308,17.186-38.308,38.308
		c0,14.663,8.286,27.424,20.418,33.859l-17.822,75.482c-0.048,0-0.096-0.004-0.144-0.004c-21.123,0-38.307,17.186-38.307,38.308
		c0,0.687,0.02,1.371,0.056,2.05l-42.191,13.038c-6.818-10.614-18.721-17.667-32.246-17.667C17.186,401.068,0,418.254,0,439.376
		c0,21.123,17.186,38.308,38.308,38.308s38.308-17.186,38.308-38.308c0-0.387-0.017-0.77-0.03-1.154l42.648-13.179
		c6.891,10.196,18.555,16.912,31.761,16.912c21.123,0,38.308-17.186,38.308-38.308c0-13.882-7.423-26.062-18.508-32.782
		l18.088-76.61c20.181-1.061,36.276-17.812,36.276-38.253c0-1.72-0.125-3.411-0.346-5.071l85.503-38.347
		c7.905,11.882,20.324,20.511,34.793,23.412v22.63c0,5.632,4.567,10.199,10.199,10.199c5.632,0,10.199-4.567,10.199-10.199v-22.424
		c10.322-1.841,19.655-6.57,27.113-13.342l45.802,36.641c-1.953,4.594-3.035,9.643-3.035,14.941
		c0,21.123,17.186,38.308,38.308,38.308c21.123,0,38.307-17.188,38.307-38.31C512.002,253.317,494.816,236.132,473.694,236.132z
		 M38.31,457.283c-9.876,0-17.91-8.034-17.91-17.91c0-9.876,8.034-17.91,17.91-17.91s17.91,8.034,17.91,17.91
		C56.22,449.249,48.185,457.283,38.31,457.283z M150.997,421.554c-9.875,0-17.909-8.034-17.909-17.91
		c0-9.876,8.034-17.91,17.909-17.91c9.876,0,17.91,8.034,17.91,17.91C168.907,413.52,160.873,421.554,150.997,421.554z
		 M186.852,273.909c-9.876,0-17.91-8.034-17.91-17.91c0-9.876,8.034-17.91,17.91-17.91s17.91,8.034,17.91,17.91
		C204.762,265.875,196.728,273.909,186.852,273.909z M355.885,216.667c-18.913,0-34.301-15.387-34.301-34.3
		s15.388-34.301,34.301-34.301c18.913,0,34.3,15.388,34.3,34.301S374.798,216.667,355.885,216.667z M473.694,292.349
		c-9.876,0-17.91-8.034-17.91-17.91c0-9.876,8.034-17.91,17.91-17.91c9.876,0,17.91,8.034,17.91,17.91
		C491.604,284.316,483.57,292.349,473.694,292.349z"/>
</g>
<g>
</g>
<g>
</g>
<g>
</g>
<g>
</g>
<g>
</g>
<g>
</g>
<g>
</g>
<g>
</g>
<g>
</g>
<g>
</g>
<g>
</g>
<g>
</g>
<g>
</g>
<g>
</g>
<g>
</g>
</svg>
