<svg height="371pt" viewBox="0 0 371 371.44576" width="371pt" xmlns="http://www.w3.org/2000/svg"><path d="m126.652344 184.757812-6.273438 6.273438c-1.871094 1.882812-4.417968 2.9375-7.070312 2.929688h-.011719c-2.65625.003906-5.203125-1.054688-7.074219-2.945313l-83.105468-83.453125c-3.882813-3.910156-3.878907-10.222656.011718-14.125l70.53125-70.53125c3.902344-3.890625 10.214844-3.898438 14.125-.015625l83.457032 83.105469c1.878906 1.875 2.9375 4.421875 2.941406 7.078125.003906 2.652343-1.050782 5.203125-2.929688 7.078125l-6.273437 6.277344c-3.90625 3.902343-3.90625 10.234374 0 14.140624s10.238281 3.90625 14.144531 0l6.273438-6.273437c5.632812-5.632813 8.792968-13.277344 8.785156-21.246094-.007813-7.964843-3.183594-15.601562-8.828125-21.226562l-83.457031-83.101563c-11.730469-11.648437-30.671876-11.628906-42.378907.042969l-70.53125 70.527344c-11.671875 11.710937-11.691406 30.648437-.042969 42.382812l83.101563 83.453125c5.609375 5.664063 13.253906 8.84375 21.226563 8.832032h.03125c7.960937.023437 15.601562-3.140626 21.214843-8.785157l6.273438-6.277343c3.90625-3.902344 3.90625-10.234376 0-14.140626s-10.238281-3.90625-14.144531 0zm0 0"/><path d="m279.847656 166.316406c-5.609375-5.664062-13.253906-8.84375-21.226562-8.832031h-.035156c-7.960938-.023437-15.597657 3.144531-21.210938 8.789063l-6.273438 6.273437c-3.90625 3.902344-3.90625 10.234375 0 14.140625 3.902344 3.90625 10.234376 3.90625 14.140626 0l6.273437-6.273438c1.871094-1.882812 4.417969-2.9375 7.070313-2.929687h.011718c2.65625-.003906 5.207032 1.058594 7.074219 2.945313l83.109375 83.453124c3.882812 3.910157 3.875 10.222657-.015625 14.128907l-70.527344 70.527343c-3.90625 3.890626-10.21875 3.894532-14.128906.015626l-83.460937-83.105469c-1.882813-1.875-2.941407-4.421875-2.945313-7.078125-.003906-2.652344 1.050781-5.203125 2.929687-7.078125l6.273438-6.273438c3.90625-3.90625 3.90625-10.238281 0-14.144531s-10.238281-3.90625-14.140625 0l-6.277344 6.273438c-5.632812 5.632812-8.792969 13.277343-8.785156 21.246093.007813 7.964844 3.183594 15.601563 8.832031 21.226563l83.457032 83.101562c11.734374 11.648438 30.671874 11.628906 42.382812-.042968l70.527344-70.53125c11.671875-11.707032 11.691406-30.644532.042968-42.378907zm0 0"/><path d="m274.367188 97.300781c3.90625 3.902344 10.238281 3.902344 14.144531 0l46.117187-46.117187c3.90625-3.90625 3.90625-10.238282 0-14.140625-3.90625-3.90625-10.238281-3.90625-14.144531-.003907l-46.117187 46.117188c-3.902344 3.90625-3.902344 10.238281 0 14.144531zm0 0"/><path d="m237.332031 59.558594c2.367188 1.199218 5.113281 1.40625 7.632813.578125 2.519531-.824219 4.609375-2.621094 5.804687-4.988281l20.027344-39.59375c2.496094-4.929688.523437-10.945313-4.40625-13.441407-4.929687-2.492187-10.945313-.519531-13.4375 4.410157l-20.03125 39.597656c-2.492187 4.929687-.515625 10.941406 4.410156 13.4375zm0 0"/><path d="m312.113281 134.335938c1.195313 2.371093 3.28125 4.164062 5.804688 4.992187 2.519531.828125 5.265625.617187 7.628906-.582031l39.601563-20.027344c4.929687-2.496094 6.902343-8.511719 4.410156-13.4375-2.496094-4.929688-8.511719-6.902344-13.4375-4.410156l-39.601563 20.03125c-4.925781 2.492187-6.902343 8.507812-4.40625 13.433594zm0 0"/><path d="m97.523438 274.144531c-3.902344-3.902343-10.234376-3.902343-14.140626 0l-46.117187 46.117188c-3.90625 3.90625-3.90625 10.238281 0 14.144531 3.90625 3.902344 10.238281 3.902344 14.140625 0l46.117188-46.117188c3.90625-3.90625 3.90625-10.238281 0-14.144531zm0 0"/><path d="m59.78125 237.109375c-2.492188-4.929687-8.507812-6.902344-13.4375-4.410156l-39.597656 20.03125c-3.210938 1.597656-5.320313 4.796875-5.523438 8.375-.207031 3.582031 1.523438 7 4.527344 8.957031 3.007812 1.957031 6.832031 2.152344 10.023438.511719l39.601562-20.03125c4.925781-2.492188 6.898438-8.507813 4.40625-13.433594zm0 0"/><path d="m134.5625 311.890625c-4.929688-2.496094-10.945312-.519531-13.4375 4.40625l-20.03125 39.601563c-1.640625 3.191406-1.445312 7.015624.511719 10.023437s5.375 4.734375 8.957031 4.527344c3.582031-.203125 6.777344-2.3125 8.378906-5.523438l20.027344-39.59375c2.496094-4.929687.523438-10.949219-4.40625-13.441406zm0 0"/><path d="m134.328125 134.105469c-3.90625 3.902343-3.90625 10.234375 0 14.140625l89.101563 89.101562c3.902343 3.90625 10.234374 3.902344 14.140624 0 3.90625-3.90625 3.90625-10.238281 0-14.144531l-89.101562-89.097656c-3.902344-3.90625-10.234375-3.90625-14.140625 0zm0 0"/></svg>