<?xml version="1.0" encoding="iso-8859-1"?>
<!-- Generator: Adobe Illustrator 18.0.0, SVG Export Plug-In . SVG Version: 6.00 Build 0)  -->
<!DOCTYPE svg PUBLIC "-//W3C//DTD SVG 1.1//EN" "http://www.w3.org/Graphics/SVG/1.1/DTD/svg11.dtd">
<svg version="1.1" id="Capa_1" xmlns="http://www.w3.org/2000/svg" xmlns:xlink="http://www.w3.org/1999/xlink" x="0px" y="0px"
	 viewBox="0 0 482.141 482.141" style="enable-background:new 0 0 482.141 482.141;" xml:space="preserve">
<g>
	<path d="M165.035,124.57l-11.221,18.313v0.268h18.816v-18.58c0-5.043,0.283-10.197,0.662-15.619h-0.504
		C170.078,114.373,167.871,119.275,165.035,124.57z"/>
	<path d="M255.656,117.857c0-8.007-5.549-12.782-15.352-12.782c-4.002,0-6.713,0.394-8.131,0.771v25.689
		c1.67,0.38,3.75,0.505,6.586,0.505C249.193,132.041,255.656,126.761,255.656,117.857z"/>
	<path d="M357.168,0H163.521c-28.29,0-51.316,23.043-51.316,51.316v9.504H23.774c-11.426,0-20.676,9.25-20.676,20.677v105.294
		c0,11.428,9.25,20.679,20.676,20.679h88.432v223.355c0,28.306,23.026,51.316,51.316,51.316h264.223
		c28.273,0,51.299-23.011,51.299-51.316V121.449L357.168,0z M201.283,143.15v14.707h-10.055v19.998h-18.598v-19.998h-37.163v-12.783
		l31.741-51.094h24.02v49.17H201.283z M106.659,177.855l-1.293-33.285c-0.41-10.465-0.787-23.104-0.787-35.744H104.2
		c-2.71,11.096-6.334,23.482-9.678,33.68l-10.59,33.932H68.58l-9.298-33.68c-2.837-10.197-5.799-22.585-7.864-33.932h-0.267
		c-0.504,11.74-0.898,25.153-1.545,35.997l-1.545,33.032H29.875l5.547-86.965h26.193l8.51,29.031
		c2.712,10.054,5.422,20.897,7.346,31.094h0.408c2.429-10.07,5.422-21.543,8.26-31.221l9.267-28.904h25.689l4.792,86.965H106.659z
		 M427.744,450.715H163.521c-10.953,0-19.873-8.921-19.873-19.891V207.47h139.73c11.426,0,20.678-9.251,20.678-20.679V81.497
		c0-11.427-9.252-20.677-20.678-20.677h-139.73v-9.504c0-10.938,8.919-19.858,19.873-19.858L345.41,31.27v67.232
		c0,19.638,15.934,35.588,35.588,35.588l65.863-0.189l0.74,296.924C447.601,441.794,438.697,450.715,427.744,450.715z
		 M212.693,177.855V92.042c6.053-1.024,14.594-1.798,26.572-1.798c12.135,0,20.773,2.317,26.604,6.967
		c5.549,4.38,9.268,11.615,9.268,20.125c0,8.512-2.838,15.745-7.975,20.646c-6.715,6.319-16.674,9.156-28.275,9.156
		c-2.584,0-4.918-0.125-6.713-0.377v31.094H212.693z"/>
	<path d="M376.57,213.49c-3.264-1.34-6.982-0.614-9.473,1.876l-22.49,22.489c-36.074-26.162-86.918-23.104-119.4,9.393l-9.203,9.205
		c-7.076,7.061-7.076,18.534,0,25.611c3.529,3.529,8.164,5.295,12.797,5.295c4.633,0,9.268-1.766,12.797-5.295l9.205-9.204
		c18.33-18.331,46.24-21.247,67.691-8.89l-20.189,20.188c-2.49,2.49-3.23,6.242-1.893,9.488c1.357,3.248,4.508,5.374,8.037,5.374
		h68.795c4.807,0,8.684-3.907,8.684-8.698v-68.794C381.928,218.014,379.83,214.831,376.57,213.49z"/>
	<path d="M349.65,361.213l-9.203,9.203c-10.576,10.59-24.682,16.438-39.67,16.438c-10.006,0-19.59-2.663-28.02-7.549l20.188-20.221
		c2.506-2.49,3.246-6.225,1.891-9.473c-1.355-3.246-4.508-5.357-8.037-5.357h-68.793c-4.809,0-8.686,3.877-8.686,8.684v68.795
		c0,3.529,2.113,6.681,5.359,8.037c3.262,1.355,6.996,0.598,9.488-1.893l22.457-22.458c15.666,11.396,34.406,17.636,54.152,17.636
		c24.666,0,47.85-9.598,65.279-27.045l9.203-9.188c7.078-7.093,7.078-18.549,0-25.609
		C368.185,354.136,356.728,354.136,349.65,361.213z"/>
</g>
<g>
</g>
<g>
</g>
<g>
</g>
<g>
</g>
<g>
</g>
<g>
</g>
<g>
</g>
<g>
</g>
<g>
</g>
<g>
</g>
<g>
</g>
<g>
</g>
<g>
</g>
<g>
</g>
<g>
</g>
</svg>
