<?xml version="1.0" encoding="iso-8859-1"?>
<!-- Generator: Adobe Illustrator 19.0.0, SVG Export Plug-In . SVG Version: 6.00 Build 0)  -->
<svg version="1.1" id="Layer_1" xmlns="http://www.w3.org/2000/svg" xmlns:xlink="http://www.w3.org/1999/xlink" x="0px" y="0px"
	 viewBox="0 0 512 512" style="enable-background:new 0 0 512 512;" xml:space="preserve">
<circle style="fill:#43D3E8;" cx="255.999" cy="256" r="92.57"/>
<g>
	<path style="fill:#FFFFFF;" d="M301.951,307.2h-91.904v-16.604c0-6.851,2.611-13.706,7.864-18.947
		c5.22-5.233,12.083-7.859,18.959-7.859h38.257c6.861,0,13.704,2.627,18.97,7.859c5.245,5.243,7.854,12.099,7.854,18.947
		L301.951,307.2L301.951,307.2z"/>
	<path style="fill:#FFFFFF;" d="M283.916,225.411c0,15.416-12.465,27.932-27.912,27.932c-15.421,0-27.93-12.516-27.93-27.932
		c0-15.398,12.506-27.924,27.93-27.924C271.451,197.486,283.916,210.012,283.916,225.411z"/>
</g>
<g>
	<rect x="246.86" y="107.484" style="fill:#242D3C;" width="18.284" height="43.878"/>
	<path style="fill:#242D3C;" d="M256.002,95.427c-26.312,0-47.718-21.402-47.718-47.708C208.283,21.407,229.69,0,256.002,0
		c26.307,0,47.711,21.407,47.711,47.718C303.712,74.025,282.308,95.427,256.002,95.427z M256.002,18.286
		c-16.23,0-29.427,13.204-29.427,29.432c0,16.223,13.197,29.425,29.427,29.425c16.225,0,29.425-13.202,29.425-29.425
		C285.426,31.491,272.227,18.286,256.002,18.286z"/>
	
		<rect x="124.451" y="183.554" transform="matrix(-0.8661 -0.4999 0.4999 -0.8661 176.8479 432.7737)" style="fill:#242D3C;" width="43.879" height="18.291"/>
	<path style="fill:#242D3C;" d="M75.578,199.575L75.578,199.575c-8.333,0-16.568-2.214-23.813-6.4
		c-11.041-6.369-18.939-16.663-22.236-28.977s-1.605-25.165,4.769-36.204c8.497-14.72,24.348-23.867,41.352-23.867
		c8.338,0,16.576,2.214,23.828,6.403c22.781,13.156,30.615,42.394,17.464,65.18C108.438,190.433,92.589,199.575,75.578,199.575z
		 M75.647,122.419c-10.493,0-20.273,5.64-25.513,14.72c-3.935,6.804-4.979,14.735-2.941,22.331
		c2.033,7.596,6.904,13.939,13.714,17.874c4.472,2.578,9.546,3.948,14.671,3.948c10.501,0,20.28-5.64,25.526-14.72
		c8.115-14.054,3.282-32.09-10.77-40.205C85.859,123.786,80.777,122.419,75.647,122.419z"/>
	
		<rect x="137.223" y="297.337" transform="matrix(-0.4999 -0.8661 0.8661 -0.4999 -56.9884 605.6469)" style="fill:#242D3C;" width="18.286" height="43.879"/>
	<path style="fill:#242D3C;" d="M75.652,407.862c-0.003,0-0.003,0-0.003,0c-17.014,0-32.858-9.147-41.357-23.867
		c-13.156-22.781-5.32-52.019,17.464-65.175c7.252-4.186,15.488-6.4,23.823-6.4c17.011,0,32.858,9.142,41.362,23.862
		c13.148,22.789,5.315,52.029-17.467,65.18C92.223,405.65,83.985,407.862,75.652,407.862z M75.578,330.706
		c-5.13,0-10.202,1.367-14.679,3.948c-14.049,8.115-18.88,26.15-10.77,40.2c5.24,9.085,15.02,14.725,25.518,14.725h0.003
		c5.13,0,10.202-1.367,14.679-3.95c14.052-8.113,18.88-26.148,10.772-40.205C95.858,336.348,86.079,330.706,75.578,330.706z"/>
	<rect x="246.86" y="360.627" style="fill:#242D3C;" width="18.281" height="43.878"/>
	<path style="fill:#242D3C;" d="M256.004,512h-0.003l0,0l0,0c-26.314,0-47.721-21.402-47.721-47.713
		c0-26.307,21.402-47.713,47.713-47.718c26.309,0.008,47.716,21.414,47.716,47.713c0,12.749-4.961,24.735-13.972,33.746
		C280.724,507.039,268.745,512,256.004,512z M255.989,434.854c-16.218,0.005-29.425,13.207-29.425,29.432
		c0,16.228,13.199,29.427,29.427,29.427h0.008h0.003c7.857,0,15.24-3.059,20.797-8.617c5.563-5.558,8.617-12.951,8.617-20.815
		C285.419,448.061,272.214,434.862,255.989,434.854z"/>
	
		<rect x="343.684" y="310.135" transform="matrix(-0.866 -0.5 0.5 -0.866 522.6168 778.5913)" style="fill:#242D3C;" width="43.877" height="18.283"/>
	<path style="fill:#242D3C;" d="M436.344,407.869L436.344,407.869c-8.333,0-16.571-2.212-23.828-6.403
		c-22.779-13.148-30.613-42.391-17.469-65.178c8.507-14.723,24.358-23.864,41.364-23.864c8.333,0,16.568,2.212,23.818,6.403
		c11.041,6.369,18.936,16.658,22.236,28.966c3.297,12.314,1.608,25.172-4.767,36.211
		C469.193,398.725,453.355,407.869,436.344,407.869z M436.413,330.711c-10.504,0-20.283,5.642-25.528,14.723
		c-8.108,14.054-3.272,32.09,10.778,40.202c4.477,2.583,9.554,3.95,14.682,3.95c10.496,0,20.275-5.642,25.516-14.723
		c3.935-6.807,4.977-14.743,2.944-22.333c-2.038-7.593-6.907-13.934-13.714-17.869C446.609,332.078,441.538,330.711,436.413,330.711
		z"/>
	
		<rect x="356.482" y="170.804" transform="matrix(-0.5001 -0.866 0.866 -0.5001 381.5565 605.7539)" style="fill:#242D3C;" width="18.284" height="43.88"/>
	<path style="fill:#242D3C;" d="M436.42,199.58h-0.008c-17.006,0-32.85-9.142-41.354-23.854
		c-13.148-22.799-5.315-52.035,17.462-65.185c7.255-4.188,15.493-6.403,23.826-6.403c17.014,0,32.858,9.147,41.357,23.872
		c6.372,11.031,8.064,23.895,4.772,36.201c-3.3,12.314-11.197,22.602-22.239,28.972C452.986,197.371,444.748,199.58,436.42,199.58z
		 M436.344,122.422c-5.125,0-10.199,1.367-14.676,3.955c-14.049,8.11-18.885,26.145-10.772,40.205
		c5.24,9.073,15.022,14.712,25.521,14.712h0.005c5.125,0,10.196-1.367,14.674-3.948c6.81-3.935,11.681-10.281,13.714-17.869
		c2.033-7.588,0.988-15.519-2.944-22.326C456.621,128.067,446.847,122.422,436.344,122.422z"/>
	<path style="fill:#242D3C;" d="M44.384,306.058c-3.848-16.215-5.804-33.055-5.804-50.058c0-17.001,1.956-33.843,5.804-50.058
		l17.792,4.227c-3.525,14.83-5.307,30.254-5.307,45.832c0,15.583,1.782,30.999,5.307,45.827L44.384,306.058z"/>
	<path style="fill:#242D3C;" d="M318.489,464.3l-5.245-17.523c29.363-8.786,56.778-24.637,79.299-45.842l12.534,13.315
		C380.505,437.391,350.56,454.7,318.489,464.3z"/>
	<path style="fill:#242D3C;" d="M392.529,111.091c-22.433-21.197-49.835-37.056-79.25-45.868l5.248-17.518
		c32.136,9.628,62.067,26.947,86.561,50.099L392.529,111.091z"/>
	<path style="fill:#242D3C;" d="M467.609,306.058l-17.792-4.229c3.525-14.84,5.315-30.257,5.315-45.827s-1.789-30.989-5.315-45.832
		l17.792-4.227c3.858,16.228,5.809,33.068,5.809,50.058S471.467,289.836,467.609,306.058z"/>
	<path style="fill:#242D3C;" d="M193.474,464.294c-32.11-9.62-62.039-26.929-86.559-50.056l12.547-13.297
		c22.456,21.179,49.866,37.03,79.26,45.834L193.474,464.294z"/>
	<path style="fill:#242D3C;" d="M119.464,111.058l-12.547-13.299c24.515-23.127,54.449-40.435,86.559-50.053l5.248,17.518
		C169.325,74.028,141.918,89.876,119.464,111.058z"/>
</g>
<g>
</g>
<g>
</g>
<g>
</g>
<g>
</g>
<g>
</g>
<g>
</g>
<g>
</g>
<g>
</g>
<g>
</g>
<g>
</g>
<g>
</g>
<g>
</g>
<g>
</g>
<g>
</g>
<g>
</g>
</svg>
