<?xml version="1.0" encoding="iso-8859-1"?>
<!-- Generator: Adobe Illustrator 19.0.0, SVG Export Plug-In . SVG Version: 6.00 Build 0)  -->
<svg version="1.1" id="Layer_1" xmlns="http://www.w3.org/2000/svg" xmlns:xlink="http://www.w3.org/1999/xlink" x="0px" y="0px"
	 viewBox="0 0 512 512" style="enable-background:new 0 0 512 512;" xml:space="preserve">
<g>
	<g>
		<path d="M256,0C147.925,0,60,87.925,60,196c0,34.594,9.14,68.605,26.431,98.355c4.031,6.936,8.537,13.695,13.395,20.09
			L247.484,512h17.031l147.659-197.554c4.857-6.396,9.363-13.154,13.395-20.09C442.86,264.605,452,230.594,452,196
			C452,87.925,364.075,0,256,0z M256,261c-35.841,0-65-29.159-65-65s29.159-65,65-65s65,29.159,65,65S291.841,261,256,261z"/>
	</g>
</g>
<g>
</g>
<g>
</g>
<g>
</g>
<g>
</g>
<g>
</g>
<g>
</g>
<g>
</g>
<g>
</g>
<g>
</g>
<g>
</g>
<g>
</g>
<g>
</g>
<g>
</g>
<g>
</g>
<g>
</g>
</svg>
