<?xml version="1.0" encoding="iso-8859-1"?>
<!-- Generator: Adobe Illustrator 19.0.0, SVG Export Plug-In . SVG Version: 6.00 Build 0)  -->
<svg version="1.1" id="Layer_1" xmlns="http://www.w3.org/2000/svg" xmlns:xlink="http://www.w3.org/1999/xlink" x="0px" y="0px"
	 viewBox="0 0 448 448" style="enable-background:new 0 0 448 448;" xml:space="preserve">
<g>
	<g>
		<g>
			<path d="M224.002,85.333c-70.699,0-128,57.323-128,128c0,85.333,128,234.667,128,234.667s128-149.333,128-234.667
				C352.002,142.656,294.679,85.333,224.002,85.333z M224.002,266.667c-29.44,0-53.333-23.872-53.333-53.333
				c0-29.44,23.893-53.333,53.333-53.333s53.333,23.893,53.333,53.333C277.335,242.795,253.442,266.667,224.002,266.667z"/>
			<rect x="202.668" y="0" width="42.667" height="42.667"/>
			
				<rect x="338.421" y="56.231" transform="matrix(0.7071 -0.7071 0.7071 0.7071 50.5233 277.1028)" width="42.666" height="42.666"/>
			<rect x="66.913" y="56.231" transform="matrix(0.7071 -0.7071 0.7071 0.7071 -28.9993 85.117)" width="42.666" height="42.666"/>
		</g>
	</g>
</g>
<g>
</g>
<g>
</g>
<g>
</g>
<g>
</g>
<g>
</g>
<g>
</g>
<g>
</g>
<g>
</g>
<g>
</g>
<g>
</g>
<g>
</g>
<g>
</g>
<g>
</g>
<g>
</g>
<g>
</g>
</svg>
