<svg height="496pt" viewBox="0 0 496.00151 496" width="496pt" xmlns="http://www.w3.org/2000/svg"><path d="m248 352h-48c-4.414062 0-8 3.578125-8 8v128c0 4.425781 3.585938 8 8 8h48c4.417969 0 8-3.574219 8-8v-128c0-4.421875-3.582031-8-8-8zm-8 128h-32v-112h32zm0 0"/><path d="m328 368h-48c-4.414062 0-8 3.578125-8 8v112c0 4.425781 3.585938 8 8 8h48c4.417969 0 8-3.574219 8-8v-112c0-4.421875-3.582031-8-8-8zm-8 112h-32v-96h32zm0 0"/><path d="m408 304h-48c-4.414062 0-8 3.578125-8 8v176c0 4.425781 3.585938 8 8 8h48c4.417969 0 8-3.574219 8-8v-176c0-4.421875-3.582031-8-8-8zm-8 176h-32v-160h32zm0 0"/><path d="m488 240h-48c-4.414062 0-8 3.578125-8 8v240c0 4.425781 3.585938 8 8 8h48c4.417969 0 8-3.574219 8-8v-240c0-4.421875-3.582031-8-8-8zm-8 240h-32v-224h32zm0 0"/><path d="m160 296h-16v-48h-16v56c0 4.425781 3.585938 8 8 8h4.691406l-20.691406 20.6875-20.6875-20.6875h4.6875c4.417969 0 8-3.574219 8-8v-56h-16v48h-16c-3.230469 0-6.152344 1.945312-7.390625 4.9375s-.550781 6.429688 1.734375 8.71875l40 40c1.5625 1.558594 3.609375 2.34375 5.65625 2.34375 2.050781 0 4.097656-.785156 5.65625-2.34375l40-40c2.289062-2.289062 2.976562-5.726562 1.738281-8.71875-1.242187-2.992188-4.160156-4.9375-7.394531-4.9375zm0 0"/><path d="m88 440h-16v-48h-16v56c0 4.425781 3.585938 8 8 8h4.691406l-20.691406 20.6875-20.6875-20.6875h4.6875c4.417969 0 8-3.574219 8-8v-56h-16v48h-16c-3.230469 0-6.152344 1.945312-7.390625 4.9375s-.5507812 6.429688 1.734375 8.71875l40 40c1.5625 1.558594 3.609375 2.34375 5.65625 2.34375 2.050781 0 4.097656-.785156 5.65625-2.34375l40-40c2.289062-2.289062 2.976562-5.726562 1.738281-8.71875-1.242187-2.992188-4.160156-4.9375-7.394531-4.9375zm0 0"/><path d="m56 360h16v16h-16zm0 0"/><path d="m56 328h16v16h-16zm0 0"/><path d="m24 360h16v16h-16zm0 0"/><path d="m24 328h16v16h-16zm0 0"/><path d="m160 72h-16v-48h-16v56c0 4.425781 3.585938 8 8 8h4.691406l-20.691406 20.6875-20.6875-20.6875h4.6875c4.417969 0 8-3.574219 8-8v-56h-16v48h-16c-3.230469 0-6.152344 1.945312-7.390625 4.9375s-.550781 6.429688 1.734375 8.71875l40 40c1.5625 1.558594 3.609375 2.34375 5.65625 2.34375 2.050781 0 4.097656-.785156 5.65625-2.34375l40-40c2.289062-2.289062 2.976562-5.726562 1.738281-8.71875-1.242187-2.992188-4.160156-4.9375-7.394531-4.9375zm0 0"/><path d="m42.34375 269.65625c1.5625 1.558594 3.609375 2.34375 5.65625 2.34375 2.050781 0 4.097656-.785156 5.65625-2.34375l40-40c2.289062-2.289062 2.976562-5.726562 1.738281-8.71875-1.242187-2.992188-4.160156-4.9375-7.394531-4.9375h-16v-48h-16v56c0 4.425781 3.585938 8 8 8h4.691406l-20.691406 20.6875-20.6875-20.6875h4.6875c4.417969 0 8-3.574219 8-8v-56h-16v48h-16c-3.230469 0-6.152344 1.945312-7.390625 4.9375s-.5507812 6.429688 1.734375 8.71875zm0 0"/><path d="m56 136h16v16h-16zm0 0"/><path d="m56 104h16v16h-16zm0 0"/><path d="m24 136h16v16h-16zm0 0"/><path d="m24 104h16v16h-16zm0 0"/><path d="m264 128h104v104c0 4.425781 3.585938 8 8 8 66.167969 0 120-53.832031 120-120s-53.832031-120-120-120-120 53.832031-120 120c0 4.425781 3.585938 8 8 8zm120 95.695312v-95.695312h95.617188c-3.910157 50.976562-44.640626 91.800781-95.617188 95.695312zm95.59375-111.695312h-100.28125l-70.871094-70.871094c18.199219-15.609375 41.761719-25.128906 67.558594-25.128906 54.648438 0 99.480469 42.394531 103.59375 96zm-182.480469-59.574219 59.578125 59.574219h-84.386718c1.738281-22.671875 10.824218-43.277344 24.808593-59.574219zm0 0"/><path d="m352 152c0-4.421875-3.582031-8-8-8h-112c-4.414062 0-8 3.578125-8 8 0 66.167969 53.832031 120 120 120 4.417969 0 8-3.574219 8-8zm-16 103.695312c-50.984375-3.894531-91.796875-44.710937-95.695312-95.695312h95.695312zm0 0"/></svg>