<?xml version="1.0" encoding="iso-8859-1"?>
<!-- Generator: Adobe Illustrator 19.0.0, SVG Export Plug-In . SVG Version: 6.00 Build 0)  -->
<svg version="1.1" id="Capa_1" xmlns="http://www.w3.org/2000/svg" xmlns:xlink="http://www.w3.org/1999/xlink" x="0px" y="0px"
	 viewBox="0 0 511.999 511.999" style="enable-background:new 0 0 511.999 511.999;" xml:space="preserve">
<g>
	<g>
		<path d="M102.5,377.686c-13.509,0-24.5,10.99-24.5,24.5s10.991,24.5,24.5,24.5c13.509,0,24.5-10.99,24.5-24.5
			S116.009,377.686,102.5,377.686z M102.5,411.686c-5.238,0-9.5-4.262-9.5-9.5c0-5.238,4.262-9.5,9.5-9.5s9.5,4.262,9.5,9.5
			C112,407.424,107.738,411.686,102.5,411.686z"/>
	</g>
</g>
<g>
	<g>
		<path d="M377.5,377.686c-13.51,0-24.5,10.99-24.5,24.5s10.99,24.5,24.5,24.5s24.5-10.99,24.5-24.5S391.01,377.686,377.5,377.686z
			 M377.5,411.686c-5.238,0-9.5-4.262-9.5-9.5c0-5.238,4.262-9.5,9.5-9.5c5.238,0,9.5,4.262,9.5,9.5
			C387,407.424,382.738,411.686,377.5,411.686z"/>
	</g>
</g>
<g>
	<g>
		<path d="M114.5,249.686H75.161c-2.627,0-5.063,1.375-6.421,3.624l-32.661,54.11c-0.706,1.17-1.079,2.51-1.079,3.876v9.891
			c0,4.143,3.358,7.5,7.5,7.5h72v-0.001c4.142,0,7.5-3.357,7.5-7.5v-64C122,253.043,118.642,249.686,114.5,249.686z M107,313.687H50
			v-0.303l29.395-48.697H107V313.687z"/>
	</g>
</g>
<g>
	<g>
		<path d="M173.5,249.686h-34c-4.142,0-7.5,3.357-7.5,7.5v64c0,4.143,3.358,7.5,7.5,7.5h34c4.142,0,7.5-3.357,7.5-7.5v-64
			C181,253.043,177.642,249.686,173.5,249.686z M166,313.686h-19v-49h19V313.686z"/>
	</g>
</g>
<g>
	<g>
		<path d="M499.979,384.686H495V166.602c0-10.981-8.935-19.916-19.916-19.916H459V86.12c0-3.36-2.235-6.312-5.471-7.221
			l-86.5-24.306c-1.328-0.373-2.73-0.373-4.059,0l-86.5,24.306c-3.235,0.909-5.47,3.861-5.47,7.221v60.566h-60.084
			c-10.981,0-19.916,8.935-19.916,19.916v30.084H58.5c-11.855,0-21.5,9.645-21.5,21.5c0,8.478,4.944,15.803,12.089,19.301
			l-38.01,62.972c-0.706,1.17-1.079,2.51-1.079,3.876v80.791c-5.742,1.489-10,6.7-10,12.9v13.318
			c0,7.356,5.985,13.341,13.341,13.341h38.443c8.65,19.42,28.121,33,50.716,33s42.066-13.58,50.716-33h173.568
			c8.65,19.42,28.121,33,50.716,33c22.595,0,42.066-13.58,50.716-33h71.762c6.629,0,12.021-5.393,12.021-12.021v-15.957
			C512,390.079,506.607,384.686,499.979,384.686z M459,166.532v-4.846h16.084v0c2.711,0,4.916,2.205,4.916,4.916v20.084h-23.067
			C458.288,180.144,459,173.401,459,166.532z M206,166.602c0-2.711,2.205-4.916,4.916-4.916H271v4.846
			c0,6.783,0.727,13.542,2.126,20.154H206V166.602z M206,201.687h71.558c3.327,8.664,7.87,16.868,13.525,24.286
			c2.511,3.295,7.218,3.931,10.511,1.419c3.295-2.511,3.93-7.217,1.419-10.511C292.042,202.485,286,184.604,286,166.532v-74.73
			l79-22.198l79,22.198v74.729c0,8.499-1.275,16.774-3.687,24.615c-0.228,0.514-0.401,1.057-0.509,1.625
			c-6.005,18.181-18.219,33.889-35.102,44.354L365,261.734l-39.704-24.609c-0.742-0.46-1.476-0.933-2.2-1.414
			c-3.449-2.294-8.105-1.354-10.396,2.098c-2.292,3.45-1.353,8.105,2.098,10.396c0.857,0.569,1.724,1.128,2.6,1.671l43.652,27.058
			c1.21,0.75,2.581,1.125,3.951,1.125s2.741-0.375,3.951-1.125l43.652-27.058c18.627-11.546,32.43-28.502,39.946-48.189H480v105H206
			V201.687z M58.5,211.686H191v13H58.5c-3.584,0-6.5-2.916-6.5-6.5C52,214.602,54.916,211.686,58.5,211.686z M15,409.686v-10h32.063
			c-0.037,0.829-0.063,1.662-0.063,2.5c0,2.545,0.188,5.045,0.521,7.5H15z M102.5,442.686c-22.332,0-40.5-18.168-40.5-40.5
			c0-22.332,18.168-40.5,40.5-40.5c22.332,0,40.5,18.168,40.5,40.5C143,424.518,124.832,442.686,102.5,442.686z M191,409.686
			h-33.521c0.333-2.455,0.521-4.955,0.521-7.5c0-0.838-0.026-1.67-0.063-2.5H191V409.686z M206,409.686v-10h116.063
			c-0.037,0.829-0.063,1.662-0.063,2.5c0,2.545,0.188,5.045,0.521,7.5H206z M377.5,442.686c-22.332,0-40.5-18.168-40.5-40.5
			c0-22.332,18.168-40.5,40.5-40.5c22.332,0,40.5,18.168,40.5,40.5C418,424.518,399.832,442.686,377.5,442.686z M377.5,346.687
			c-24.489,0-45.309,15.949-52.657,38H206v-11.621c0-4.143-3.358-7.5-7.5-7.5c-4.142,0-7.5,3.357-7.5,7.5v11.621h-35.843
			c-7.348-22.051-28.168-38-52.657-38s-45.309,15.949-52.657,38H25v-78.263l40.283-66.737H191v103.379c0,4.143,3.358,7.5,7.5,7.5
			c4.142,0,7.5-3.357,7.5-7.5v-21.379h274v63h-49.843C422.809,362.636,401.989,346.687,377.5,346.687z M497,409.686h-64.521
			c0.333-2.455,0.521-4.955,0.521-7.5c0-0.838-0.026-1.671-0.063-2.5H487.5h9.5V409.686z"/>
	</g>
</g>
<g>
	<g>
		<path d="M428.529,97.842l-61.5-17.281c-1.328-0.373-2.73-0.373-4.059,0l-61.5,17.281c-3.235,0.909-5.471,3.86-5.471,7.221v61.469
			c0.001,25.465,12.923,48.678,34.568,62.095l30.481,18.894c1.21,0.75,2.581,1.125,3.951,1.125s2.741-0.375,3.951-1.125
			l30.481-18.894C421.078,215.21,434,191.997,434,166.532v-61.469C434,101.703,431.765,98.751,428.529,97.842z M357,227.362
			l-18.53-11.486c-15.439-9.568-25.288-25.412-27.145-43.19H357V227.362z M357,157.686h-46v-46.94l46-12.926V157.686z
			 M391.53,215.877L372,227.982v-55.296h46.675C416.818,190.464,406.969,206.308,391.53,215.877z M419,157.686h-47V97.539l47,13.207
			V157.686z"/>
	</g>
</g>
<g>
</g>
<g>
</g>
<g>
</g>
<g>
</g>
<g>
</g>
<g>
</g>
<g>
</g>
<g>
</g>
<g>
</g>
<g>
</g>
<g>
</g>
<g>
</g>
<g>
</g>
<g>
</g>
<g>
</g>
</svg>
