<?xml version="1.0" encoding="iso-8859-1"?>
<!-- Generator: Adobe Illustrator 19.0.0, SVG Export Plug-In . SVG Version: 6.00 Build 0)  -->
<svg version="1.1" id="Capa_1" xmlns="http://www.w3.org/2000/svg" xmlns:xlink="http://www.w3.org/1999/xlink" x="0px" y="0px"
	 viewBox="0 0 499.768 499.768" style="enable-background:new 0 0 499.768 499.768;" xml:space="preserve">
<g>
	<g>
		<path d="M271.2,295.523v-94.798c0-10.792-9.019-19.571-20.105-19.571c-11.086,0-20.105,8.779-20.105,19.571v94.22
			c-10.865,2.394-21.3,6.892-30.463,13.165c-2.018,1.382-3.007,3.842-2.505,6.236c0.502,2.394,2.395,4.252,4.799,4.707
			c3.798,0.719,6.555,3.938,6.555,7.654c0,4.305-3.654,7.807-8.145,7.807c-4.076,0-7.541-2.922-8.061-6.797
			c-0.32-2.392-2.031-4.366-4.354-5.022c-2.323-0.657-4.813,0.13-6.338,2c-12.286,15.069-18.78,33.224-18.78,52.497
			c0,46.477,38.664,84.29,86.186,84.29c47.522,0,86.186-37.813,86.185-84.29C336.069,338.435,309.11,304.932,271.2,295.523z
			 M249.884,449.374c-40.847,0-74.078-32.381-74.078-72.182c0-13.259,3.605-25.905,10.501-37.055c3.728,4,9.077,6.485,14.924,6.486
			c11.168,0,20.252-8.934,20.252-19.915c0-5.231-2.081-10.07-5.532-13.668c7.045-3.542,14.662-5.982,22.446-7.163
			c1.699-0.257,3.208-1.224,4.152-2.661c0.943-1.435,1.232-3.205,0.794-4.866c-0.165-0.628-0.246-1.212-0.246-1.782v-95.842
			c0-4.115,3.588-7.463,7.998-7.463s7.998,3.348,7.998,7.463v95.842c0,0.655-0.103,1.328-0.302,2
			c-0.491,1.65-0.256,3.43,0.644,4.897c0.901,1.466,2.385,2.48,4.078,2.787c35.027,6.347,60.449,36.182,60.449,70.94
			C323.962,416.993,290.73,449.374,249.884,449.374z"/>
	</g>
</g>
<g>
	<g>
		<path d="M369.389,339.524c-1.885-5.705-4.223-11.318-6.949-16.688c-1.485-2.926-5.118-4.124-8.112-2.67
			c-2.996,1.45-4.221,4.995-2.736,7.92c2.463,4.849,4.573,9.918,6.275,15.067c3.619,10.959,5.455,22.412,5.455,34.04
			c0,61.068-50.888,110.753-113.438,110.753c-28.277,0-55.364-10.218-76.272-28.771c-2.476-2.193-6.302-2.015-8.552,0.398
			c-2.249,2.417-2.065,6.154,0.409,8.351c23.142,20.534,53.121,31.844,84.416,31.844c69.227,0,125.546-54.987,125.546-122.574
			C375.429,364.33,373.397,351.656,369.389,339.524z"/>
	</g>
</g>
<g>
	<g>
		<path d="M209.22,160.312c-3.344,0-6.054,2.646-6.054,5.91v97.163c-22.594,8.84-41.922,23.781-56.017,43.334
			c-14.923,20.703-22.812,45.071-22.812,70.474c0,24.562,7.416,48.263,21.445,68.536c1.17,1.691,3.078,2.604,5.021,2.604
			c1.166-0.001,2.345-0.329,3.383-1.014c2.771-1.827,3.5-5.502,1.627-8.206c-12.669-18.314-19.367-39.726-19.368-61.92
			c0-45.457,29.02-86.813,72.334-103.261l0.385,0.003c1.634-0.015,3.169-0.603,4.317-1.712c1.148-1.109,1.793-2.621,1.793-4.198
			V166.222C215.275,162.958,212.564,160.312,209.22,160.312z"/>
	</g>
</g>
<g>
	<g>
		<path d="M349.915,303.111c-13.285-17.076-30.865-30.441-50.972-38.783V46.754C298.943,20.974,277.462,0,251.055,0
			c-26.406,0-47.889,20.974-47.889,46.754v97.071c0.001,3.263,2.712,5.91,6.055,5.91c3.343,0,6.054-2.647,6.054-5.911v-13.309
			h37.127c3.344,0,6.055-2.647,6.055-5.911s-2.711-5.911-6.055-5.911h-37.127V97.169h37.127c3.344,0,6.055-2.646,6.055-5.911
			c0-3.264-2.711-5.91-6.055-5.91h-37.127V63.823h37.127c3.344,0,6.055-2.646,6.055-5.911s-2.711-5.911-6.055-5.911h-37.127v-5.248
			c0-19.263,16.051-34.933,35.781-34.933c19.729,0,35.78,15.67,35.78,34.933v220.192c0,1.187,0.366,2.346,1.05,3.326l1.298,1.862
			c0.679,0.974,1.64,1.726,2.759,2.163c19.112,7.454,35.826,19.891,48.332,35.965c1.19,1.531,2.997,2.336,4.825,2.336
			c1.276,0,2.563-0.393,3.657-1.205C351.419,309.418,351.939,305.71,349.915,303.111z"/>
	</g>
</g>
<g>
</g>
<g>
</g>
<g>
</g>
<g>
</g>
<g>
</g>
<g>
</g>
<g>
</g>
<g>
</g>
<g>
</g>
<g>
</g>
<g>
</g>
<g>
</g>
<g>
</g>
<g>
</g>
<g>
</g>
</svg>
