<?xml version="1.0" encoding="iso-8859-1"?>
<!-- Generator: Adobe Illustrator 19.0.0, SVG Export Plug-In . SVG Version: 6.00 Build 0)  -->
<svg version="1.1" id="Layer_1" xmlns="http://www.w3.org/2000/svg" xmlns:xlink="http://www.w3.org/1999/xlink" x="0px" y="0px"
	 viewBox="0 0 512.001 512.001" style="enable-background:new 0 0 512.001 512.001;" xml:space="preserve">
<g>
	<g>
		<rect x="347.616" y="42.023" width="61.28" height="30.437"/>
	</g>
</g>
<g>
	<g>
		<rect x="347.616" y="92.752" width="91.717" height="30.437"/>
	</g>
</g>
<g>
	<g>
		<rect x="347.616" y="143.48" width="61.28" height="30.437"/>
	</g>
</g>
<g>
	<g>
		<rect x="347.616" y="194.209" width="91.717" height="30.437"/>
	</g>
</g>
<g>
	<g>
		<rect x="347.616" y="244.937" width="61.28" height="30.437"/>
	</g>
</g>
<g>
	<g>
		<rect x="347.616" y="295.666" width="91.717" height="30.437"/>
	</g>
</g>
<g>
	<g>
		<rect x="103.105" y="42.023" width="61.28" height="30.437"/>
	</g>
</g>
<g>
	<g>
		<rect x="72.668" y="92.752" width="91.717" height="30.437"/>
	</g>
</g>
<g>
	<g>
		<rect x="103.105" y="143.48" width="61.28" height="30.437"/>
	</g>
</g>
<g>
	<g>
		<rect x="72.668" y="194.209" width="91.717" height="30.437"/>
	</g>
</g>
<g>
	<g>
		<rect x="103.105" y="244.937" width="61.28" height="30.437"/>
	</g>
</g>
<g>
	<g>
		<rect x="72.668" y="295.666" width="91.717" height="30.437"/>
	</g>
</g>
<g>
	<g>
		<path d="M255.994,399.312c-8.69,0-15.76,7.07-15.76,15.761s7.071,15.761,15.76,15.761s15.76-7.071,15.76-15.761
			S264.684,399.312,255.994,399.312z"/>
	</g>
</g>
<g>
	<g>
		<path d="M320.158,342.413V64.162C320.158,28.783,291.375,0,255.994,0s-64.162,28.783-64.162,64.162v278.25
			c-20.917,18.402-32.764,44.472-32.764,72.661c0,25.368,9.738,49.354,27.418,67.536c17.603,18.103,41.169,28.51,66.373,29.315
			c1.036,0.051,2.09,0.076,3.135,0.076c1.044,0,2.098-0.025,3.135-0.076c25.205-0.804,48.77-11.211,66.373-29.315
			c17.681-18.183,27.418-42.168,27.418-67.536C352.921,386.885,341.074,360.815,320.158,342.413z M255.994,461.273
			c-25.473,0-46.197-20.725-46.197-46.198c0-20.142,12.962-37.305,30.979-43.61V154.205h30.437v217.259
			c18.017,6.306,30.979,23.468,30.979,43.61C302.192,440.548,281.467,461.273,255.994,461.273z"/>
	</g>
</g>
<g>
</g>
<g>
</g>
<g>
</g>
<g>
</g>
<g>
</g>
<g>
</g>
<g>
</g>
<g>
</g>
<g>
</g>
<g>
</g>
<g>
</g>
<g>
</g>
<g>
</g>
<g>
</g>
<g>
</g>
</svg>
