<?xml version="1.0" encoding="iso-8859-1"?>
<!-- Generator: Adobe Illustrator 19.0.0, SVG Export Plug-In . SVG Version: 6.00 Build 0)  -->
<svg version="1.1" id="Capa_1" xmlns="http://www.w3.org/2000/svg" xmlns:xlink="http://www.w3.org/1999/xlink" x="0px" y="0px"
	 viewBox="0 0 512 512" style="enable-background:new 0 0 512 512;" xml:space="preserve">
<path style="fill:#E7ECED;" d="M300,290.96c37.84,17.92,64,56.4,64,101.04c0,61.84-50.16,112-112,112s-112-50.16-112-112
	c0-44.64,26.16-83.12,64-101.04V40c0-17.68,14.32-32,32-32h32c17.68,0,32,14.32,32,32V290.96z"/>
<path style="fill:#F23222;" d="M268,330.08c27.6,7.12,48,32.08,48,61.92c0,35.36-28.64,64-64,64s-64-28.64-64-64
	c0-29.84,20.4-54.8,48-61.92V192h32V330.08z"/>
<circle style="fill:#CB2D1E;" cx="252" cy="392" r="40"/>
<path d="M308,285.992V40c0-22.056-17.944-40-40-40h-32c-22.056,0-40,17.944-40,40v245.992c-39.04,20.672-64,61.736-64,106.008
	c0,66.168,53.832,120,120,120s120-53.832,120-120C372,347.728,347.04,306.664,308,285.992z M252,496c-57.344,0-104-46.656-104-104
	c0-39.832,23.336-76.672,59.44-93.856c2.784-1.32,4.56-4.136,4.56-7.224V40c0-13.232,10.768-24,24-24h32c13.232,0,24,10.768,24,24
	v250.92c0,3.088,1.776,5.896,4.56,7.224C332.664,315.328,356,352.168,356,392C356,449.344,309.344,496,252,496z"/>
<path d="M276,324.176V192c0-4.416-3.584-8-8-8h-32c-4.416,0-8,3.584-8,8v132.176c-28.552,10.064-48,37.12-48,67.824
	c0,39.704,32.304,72,72,72s72-32.296,72-72C324,361.296,304.552,334.24,276,324.176z M252,448c-30.88,0-56-25.12-56-56
	c0-25.512,17.272-47.784,42-54.16c3.536-0.912,6-4.096,6-7.744V200h16v130.096c0,3.648,2.472,6.832,6,7.744
	c24.728,6.376,42,28.648,42,54.16C308,422.88,282.88,448,252,448z"/>
<path d="M252,352c-22.056,0-40,17.944-40,40s17.944,40,40,40v-16c-13.232,0-24-10.768-24-24s10.768-24,24-24s24,10.768,24,24h16
	C292,369.944,274.056,352,252,352z"/>
<path d="M380,32V16h-48c-4.416,0-8,3.584-8,8v248h16v-48h40v-16h-40v-16h24v-16h-24v-16h40v-16h-40v-16h24v-16h-24V96h40V80h-40V64
	h24V48h-24V32H380z"/>
<g>
</g>
<g>
</g>
<g>
</g>
<g>
</g>
<g>
</g>
<g>
</g>
<g>
</g>
<g>
</g>
<g>
</g>
<g>
</g>
<g>
</g>
<g>
</g>
<g>
</g>
<g>
</g>
<g>
</g>
</svg>
