<svg height="511pt" viewBox="1 -8 511.99994 511" width="511pt" xmlns="http://www.w3.org/2000/svg"><path d="m486.398438 418.632812h-136.53125v-128h93.863281l42.667969 51.199219zm0 0" fill="#85bc94"/><path d="m486.398438 341.832031h-128v-51.199219h85.332031zm0 0" fill="#b3e4e8"/><path d="m443.730469 290.632812h-93.863281v-34.132812h68.265624c14.136719 0 25.601563 11.460938 25.601563 25.597656v8.535156zm0 0" fill="#85bc94"/><path d="m76.800781 162.632812h281.597657v247.464844h-281.597657zm0 0" fill="#da922a"/><path d="m76.800781 162.632812h221.867188v247.464844h-221.867188zm0 0" fill="#f3af3e"/><path d="m76.800781 162.632812h281.597657v93.867188h-281.597657zm0 0" fill="#ea9d2d"/><path d="m76.800781 162.632812h221.867188v93.867188h-221.867188zm0 0" fill="#fbb540"/><path d="m486.714844 444.230469h-418.765625c-9.335938-.085938-16.835938-7.726563-16.75-17.066407-.085938-9.335937 7.414062-16.976562 16.75-17.066406h418.765625c9.335937.089844 16.835937 7.730469 16.75 17.066406.085937 9.339844-7.414063 16.980469-16.75 17.066407zm0 0" fill="#6b9777"/><path d="m452.265625 444.230469c0 23.566406-19.101563 42.667969-42.667969 42.667969-23.5625 0-42.664062-19.101563-42.664062-42.667969 0-23.5625 19.101562-42.664063 42.664062-42.664063 23.566406 0 42.667969 19.101563 42.667969 42.664063zm0 0" fill="#cdcdcd"/><path d="m196.265625 444.230469c0 23.566406-19.101563 42.667969-42.664063 42.667969-23.566406 0-42.667968-19.101563-42.667968-42.667969 0-23.5625 19.101562-42.664063 42.667968-42.664063 23.5625 0 42.664063 19.101563 42.664063 42.664063zm0 0" fill="#cdcdcd"/><path d="m426.664062 444.230469c0 9.425781-7.640624 17.070312-17.066406 17.070312-9.425781 0-17.066406-7.644531-17.066406-17.070312 0-9.421875 7.640625-17.066407 17.066406-17.066407 9.425782 0 17.066406 7.644532 17.066406 17.066407zm0 0" fill="#b9b9b9"/><path d="m170.667969 444.230469c0 9.425781-7.640625 17.070312-17.066407 17.070312-9.425781 0-17.070312-7.644531-17.070312-17.070312 0-9.421875 7.644531-17.066407 17.070312-17.066407 9.425782 0 17.066407 7.644532 17.066407 17.066407zm0 0" fill="#b9b9b9"/><path d="m238.933594 410.097656h85.332031v51.203125h-85.332031zm0 0" fill="#b9b9b9"/><g fill="#b3e4e8"><path d="m0 350.367188h51.199219v17.066406h-51.199219zm0 0"/><path d="m0 299.167969h51.199219v17.066406h-51.199219zm0 0"/><path d="m0 247.964844h51.199219v17.066406h-51.199219zm0 0"/></g><path d="m289.125 82.121094-33.125 46.378906-33.128906-46.378906c-6.203125-8.683594-9.539063-19.089844-9.539063-29.765625v-.65625c0-23.5625 19.101563-42.664063 42.667969-42.664063 23.5625 0 42.664062 19.101563 42.664062 42.664063v.65625c.003907 10.675781-3.332031 21.082031-9.539062 29.765625zm0 0" fill="#ea6b65"/><path d="m273.066406 51.699219c0 9.425781-7.640625 17.066406-17.066406 17.066406s-17.066406-7.640625-17.066406-17.066406 7.640625-17.066407 17.066406-17.066407 17.066406 7.640626 17.066406 17.066407zm0 0" fill="#fbb540"/><path d="m221.867188 324.765625-34.132813-17.066406-34.132813 17.066406v-162.132813h68.265626zm0 0" fill="#e06661"/><path d="m153.601562 162.632812h68.265626v93.867188h-68.265626zm0 0" fill="#ea6b65"/><path d="m298.667969 418.632812h-113.070313c-4.710937 0-8.53125-3.816406-8.53125-8.535156 0-4.714844 3.820313-8.53125 8.53125-8.53125h104.535156v-230.398437h-204.800781v230.398437h35.558594c4.714844 0 8.535156 3.816406 8.535156 8.53125 0 4.71875-3.820312 8.535156-8.535156 8.535156h-44.089844c-4.714843 0-8.535156-3.816406-8.535156-8.535156v-247.464844c0-4.710937 3.820313-8.53125 8.535156-8.53125h221.867188c4.714843 0 8.53125 3.820313 8.53125 8.53125v247.464844c0 4.71875-3.816407 8.535156-8.53125 8.535156zm0 0"/><path d="m358.398438 418.632812h-172.089844c-4.714844 0-8.535156-3.816406-8.535156-8.535156 0-4.714844 3.820312-8.53125 8.535156-8.53125h163.558594v-230.398437h-264.535157v230.398437h35.558594c4.714844 0 8.535156 3.816406 8.535156 8.53125 0 4.71875-3.820312 8.535156-8.535156 8.535156h-44.089844c-4.714843 0-8.535156-3.816406-8.535156-8.535156v-247.464844c0-4.710937 3.820313-8.53125 8.535156-8.53125h281.597657c4.71875 0 8.535156 3.820313 8.535156 8.53125v247.464844c0 4.71875-3.816406 8.535156-8.535156 8.535156zm0 0"/><path d="m153.601562 495.433594c-28.234374 0-51.203124-22.96875-51.203124-51.203125 0-28.230469 22.96875-51.199219 51.203124-51.199219 28.230469 0 51.199219 22.96875 51.199219 51.199219 0 28.234375-22.96875 51.203125-51.199219 51.203125zm0-85.335938c-18.824218 0-34.136718 15.308594-34.136718 34.132813 0 18.828125 15.3125 34.136719 34.136718 34.136719 18.820313 0 34.132813-15.308594 34.132813-34.136719 0-18.824219-15.3125-34.132813-34.132813-34.132813zm0 0"/><path d="m221.867188 333.300781c-1.304688 0-2.613282-.300781-3.816407-.902343l-30.316406-15.15625-30.316406 15.15625c-2.648438 1.316406-5.792969 1.183593-8.304688-.375-2.511719-1.558594-4.046875-4.300782-4.046875-7.257813v-162.132813c0-4.710937 3.820313-8.53125 8.53125-8.53125h68.269532c4.710937 0 8.53125 3.820313 8.53125 8.53125v162.132813c0 2.957031-1.53125 5.699219-4.046876 7.257813-1.367187.851562-2.925781 1.277343-4.484374 1.277343zm-34.132813-34.132812c1.308594 0 2.613281.296875 3.816406.898437l21.78125 10.890625v-139.789062h-51.199219v139.789062l21.785157-10.890625c1.199219-.601562 2.507812-.898437 3.816406-.898437zm0 0"/><path d="m358.398438 265.03125h-281.597657c-4.714843 0-8.535156-3.816406-8.535156-8.53125v-93.867188c0-4.710937 3.820313-8.53125 8.535156-8.53125h281.597657c4.71875 0 8.535156 3.820313 8.535156 8.53125v93.867188c0 4.714844-3.816406 8.53125-8.535156 8.53125zm-273.066407-17.066406h264.535157v-76.796875h-264.535157zm0 0"/><path d="m486.398438 418.632812h-49.332032c-4.71875 0-8.535156-3.816406-8.535156-8.535156 0-4.714844 3.816406-8.53125 8.535156-8.53125h40.800782v-56.640625l-38.132813-45.757812h-72.800781v102.398437h16.800781c4.714844 0 8.53125 3.816406 8.53125 8.53125 0 4.71875-3.816406 8.535156-8.53125 8.535156h-25.335937c-4.714844 0-8.53125-3.816406-8.53125-8.535156v-119.464844c0-4.71875 3.816406-8.535156 8.53125-8.535156h85.332031c2.535156 0 4.933593 1.125 6.558593 3.070313l42.667969 51.199219c1.273438 1.53125 1.976563 3.464843 1.976563 5.464843v68.265625c0 4.71875-3.816406 8.535156-8.535156 8.535156zm0 0"/><path d="m231.109375 452.765625h-28.441406c-4.714844 0-8.535157-3.816406-8.535157-8.535156 0-4.714844 3.820313-8.53125 8.535157-8.53125h28.441406c4.710937 0 8.53125 3.816406 8.53125 8.53125 0 4.71875-3.820313 8.535156-8.53125 8.535156zm0 0"/><path d="m366.933594 452.765625h-36.976563c-4.714843 0-8.53125-3.816406-8.53125-8.535156 0-4.714844 3.816407-8.53125 8.53125-8.53125h36.976563c4.714844 0 8.53125 3.816406 8.53125 8.53125 0 4.71875-3.816406 8.535156-8.53125 8.535156zm0 0"/><path d="m452.265625 452.765625c-4.714844 0-8.53125-3.816406-8.53125-8.535156 0-4.714844 3.816406-8.53125 8.53125-8.53125h34.449219c4.535156-.042969 8.257812-3.839844 8.21875-8.457031.039062-4.769532-3.683594-8.566407-8.300782-8.609376h-49.035156c-4.714844 0-8.53125-3.816406-8.53125-8.535156 0-4.714844 3.816406-8.53125 8.53125-8.53125h49.117188c14.101562.140625 25.410156 11.65625 25.285156 25.675782.125 13.867187-11.183594 25.382812-25.199219 25.523437zm0 0"/><path d="m381.339844 418.632812h-200.8125c-4.710938 0-8.53125-3.816406-8.53125-8.535156 0-4.714844 3.820312-8.53125 8.53125-8.53125h200.8125c4.71875 0 8.535156 3.816406 8.535156 8.53125 0 4.71875-3.816406 8.535156-8.535156 8.535156zm0 0"/><path d="m103.109375 452.765625h-35.160156c-14.101563-.140625-25.40625-11.65625-25.28125-25.675781 0-15 12.117187-25.523438 29.464843-25.523438h55.867188c4.710938 0 8.53125 3.816406 8.53125 8.53125 0 4.71875-3.820312 8.535156-8.53125 8.535156h-55.867188c-7.648437 0-12.398437 3.265626-12.398437 8.53125-.042969 4.691407 3.683594 8.492188 8.300781 8.535157h35.074219c4.710937 0 8.53125 3.816406 8.53125 8.53125 0 4.71875-3.820313 8.535156-8.53125 8.535156zm0 0"/><path d="m486.398438 350.367188h-128c-4.714844 0-8.53125-3.816407-8.53125-8.535157v-51.199219c0-4.71875 3.816406-8.535156 8.53125-8.535156h85.332031c2.535156 0 4.933593 1.125 6.558593 3.070313l42.667969 51.199219c2.117188 2.550781 2.574219 6.089843 1.167969 9.082031-1.402344 3-4.417969 4.917969-7.726562 4.917969zm-119.464844-17.066407h101.25l-28.449219-34.132812h-72.800781zm0 0"/><path d="m443.730469 299.167969h-85.332031c-4.714844 0-8.53125-3.820313-8.53125-8.535157v-34.132812c0-4.71875 3.816406-8.535156 8.53125-8.535156h59.734374c18.824219 0 34.132813 15.308594 34.132813 34.136718v8.53125c0 4.714844-3.816406 8.535157-8.535156 8.535157zm-76.796875-17.070313h68.265625c0-9.40625-7.65625-17.066406-17.066407-17.066406h-51.199218zm0 0"/><path d="m409.597656 495.433594c-28.230468 0-51.199218-22.96875-51.199218-51.203125 0-28.230469 22.96875-51.199219 51.199218-51.199219 28.234375 0 51.203125 22.96875 51.203125 51.199219 0 28.234375-22.96875 51.203125-51.203125 51.203125zm0-85.335938c-18.824218 0-34.132812 15.308594-34.132812 34.132813 0 18.828125 15.308594 34.136719 34.132812 34.136719 18.828125 0 34.132813-15.308594 34.132813-34.136719 0-18.824219-15.304688-34.132813-34.132813-34.132813zm0 0"/><path d="m409.597656 461.300781c-9.40625 0-17.066406-7.660156-17.066406-17.070312 0-9.40625 7.660156-17.066407 17.066406-17.066407 9.410156 0 17.066406 7.660157 17.066406 17.066407 0 9.410156-7.65625 17.070312-17.066406 17.070312zm0 0"/><path d="m153.601562 461.300781c-9.414062 0-17.070312-7.660156-17.070312-17.070312 0-9.40625 7.65625-17.066407 17.070312-17.066407 9.410157 0 17.066407 7.660157 17.066407 17.066407 0 9.410156-7.65625 17.070312-17.066407 17.070312zm0 0"/><path d="m324.265625 469.832031h-85.332031c-4.714844 0-8.535156-3.816406-8.535156-8.53125v-51.203125c0-4.714844 3.820312-8.53125 8.535156-8.53125h85.332031c4.71875 0 8.535156 3.816406 8.535156 8.53125v51.203125c0 4.714844-3.816406 8.53125-8.535156 8.53125zm-76.800781-17.066406h68.269531v-34.132813h-68.269531zm0 0"/><path d="m0 350.367188h51.199219v17.066406h-51.199219zm0 0"/><path d="m0 299.167969h51.199219v17.066406h-51.199219zm0 0"/><path d="m0 247.964844h51.199219v17.066406h-51.199219zm0 0"/><path d="m256 137.03125c-2.753906 0-5.34375-1.328125-6.945312-3.574219l-33.125-46.378906c-7.28125-10.191406-11.128907-22.195313-11.128907-34.71875 0-28.894531 22.964844-51.859375 51.199219-51.859375s51.199219 22.964844 51.199219 51.199219c0 13.1875-3.851563 25.195312-11.132813 35.382812l-33.121094 46.375c-1.605468 2.246094-4.191406 3.574219-6.945312 3.574219zm0-119.464844c-18.820312 0-34.132812 15.3125-34.132812 34.132813 0 9.605469 2.75 18.179687 7.949218 25.457031l26.183594 36.660156 26.183594-36.652344c0-.003906 0-.003906 0-.003906 5.199218-7.277344 7.949218-15.851562 7.949218-24.800781 0-19.480469-15.308593-34.792969-34.132812-34.792969zm0 0"/><path d="m256 68.765625c-9.414062 0-17.066406-7.652344-17.066406-17.066406 0-9.410157 7.652344-17.066407 17.066406-17.066407 9.40625 0 17.066406 7.65625 17.066406 17.066407 0 9.414062-7.660156 17.066406-17.066406 17.066406zm0 0"/></svg>