<svg height="511pt" viewBox="0 -8 511.99994 511" width="511pt" xmlns="http://www.w3.org/2000/svg"><path d="m495.253906 402.867188-.28125-61.335938c-.019531-1.054688-.234375-2.097656-.632812-3.078125-.160156-.332031-.339844-.652344-.542969-.957031-.226563-.488282-.492187-.953125-.804687-1.390625l-40.6875-48.867188v-5.441406c0-18.855469-15.285157-34.136719-34.136719-34.136719h-51.207031v-85.339844c0-4.714843-3.820313-8.535156-8.53125-8.535156h-281.625c-4.710938 0-8.53125 3.820313-8.53125 8.535156v239.25c-14.058594.15625-25.332032 11.675782-25.175782 25.734376.152344 13.71875 11.144532 24.847656 24.859375 25.171874h35.21875c4.683594 27.855469 31.0625 46.636719 58.917969 41.953126 21.496094-3.617188 38.339844-20.457032 41.953125-41.953126h26.371094v8.53125c0 4.714844 3.820312 8.535157 8.535156 8.535157h85.339844c4.710937 0 8.535156-3.820313 8.535156-8.535157v-8.53125h26.367187c4.6875 27.855469 31.066407 46.636719 58.917969 41.953126 21.496094-3.617188 38.339844-20.457032 41.957031-41.953126h26.683594c14.140625-.199218 25.441406-11.820312 25.242188-25.957031-.144532-10.578125-6.785156-19.976562-16.707032-23.652343zm-57.375-1.597657c-17.109375-11.378906-39.378906-11.378906-56.492187 0h-14.425781v-51.203125h110.945312l.238281 51.203125zm-130.652344 0v-136.542969h42.667969v136.542969zm-120.902343 0h-4.464844c-17.113281-11.378906-39.382813-11.378906-56.496094 0h-40.023437v-136.542969h59.738281v59.738282c-.027344 4.714844 3.773437 8.554687 8.488281 8.582031 1.339844.007813 2.660156-.300781 3.859375-.902344l30.324219-15.207031 30.320312 15.207031c4.214844 2.109375 9.339844.398438 11.449219-3.816406.597657-1.199219.90625-2.523437.898438-3.863281v-59.738282h59.738281v136.542969zm27.027343-136.542969v45.929688l-21.789062-10.941406c-2.402344-1.199219-5.226562-1.199219-7.628906 0l-21.785156 10.941406v-45.929688zm-51.207031-17.066406v-76.808594h51.207031v76.808594zm277.621094 51.203125 28.453125 34.136719h-101.253906v-34.136719zm-4.53125-17.066406h-68.273437v-17.070313h51.207031c9.425781 0 17.066406 7.640626 17.066406 17.070313zm-85.339844-34.136719h-42.667969v-76.808594h42.667969zm-59.738281 0h-59.738281v-76.808594h59.738281zm-145.078125-76.808594v76.808594h-59.738281v-76.808594zm-85.339844 256.023438c0-6.292969 6.398438-8.535156 12.398438-8.535156h37.199219c-3.058594 5.273437-5.148438 11.054687-6.160157 17.066406h-35.21875c-4.625-.09375-8.300781-3.910156-8.21875-8.53125zm93.875 51.203125c-18.855469 0-34.136719-15.285156-34.136719-34.136719 0-18.851562 15.28125-34.136718 34.136719-34.136718 18.851563 0 34.136719 15.285156 34.136719 34.136718 0 18.851563-15.285156 34.136719-34.136719 34.136719zm50.433594-42.671875c-1.015625-6.011719-3.101563-11.792969-6.160156-17.066406h32.53125v17.066406zm43.441406 17.070312v-34.136718h68.269531v34.136718zm85.339844-34.136718h32.53125c-3.0625 5.273437-5.148437 11.054687-6.164063 17.066406h-26.367187zm76.804687 59.738281c-18.851562 0-34.136718-15.285156-34.136718-34.136719 0-18.851562 15.285156-34.136718 34.136718-34.136718 18.851563 0 34.136719 15.285156 34.136719 34.136718 0 18.851563-15.285156 34.136719-34.136719 34.136719zm77.121094-42.671875h-26.683594c-1.015624-6.011719-3.105468-11.792969-6.164062-17.066406h32.847656c4.714844 0 8.535156 3.820312 8.535156 8.535156 0 4.710938-3.820312 8.53125-8.535156 8.53125zm0 0"/><path d="m426.699219 443.941406c0 9.425782-7.640625 17.066406-17.066407 17.066406-9.425781 0-17.066406-7.640624-17.066406-17.066406 0-9.425781 7.640625-17.066406 17.066406-17.066406 9.425782 0 17.066407 7.640625 17.066407 17.066406zm0 0"/><path d="m170.679688 443.941406c0 9.425782-7.640626 17.066406-17.066407 17.066406s-17.070312-7.640624-17.070312-17.066406c0-9.425781 7.644531-17.066406 17.070312-17.066406s17.066407 7.640625 17.066407 17.066406zm0 0"/><path d="m0 350.066406h51.203125v17.070313h-51.203125zm0 0"/><path d="m0 298.863281h51.203125v17.066407h-51.203125zm0 0"/><path d="m0 247.660156h51.203125v17.066406h-51.203125zm0 0"/><path d="m249.074219 133.140625c2.738281 3.835937 8.066406 4.726563 11.902343 1.988281.769532-.546875 1.441407-1.21875 1.992188-1.988281l33.160156-46.382813c7.347656-10.324218 11.230469-22.710937 11.097656-35.382812-.183593-28.277344-23.253906-51.054688-51.535156-50.875-28.277344.183594-51.054687 23.253906-50.875 51.535156-.03125 12.449219 3.847656 24.597656 11.09375 34.722656zm6.945312-115.898437c18.953125.09375 34.238281 15.539062 34.140625 34.488281 0 .101562-.003906.203125-.003906.304687.015625 8.894532-2.761719 17.570313-7.945312 24.796875l-26.191407 36.664063-26.191406-36.695313c-5.273437-7.417969-8.054687-16.320312-7.945313-25.421875 0-18.855468 15.285157-34.136718 34.136719-34.136718zm0 0"/><path d="m273.089844 51.375c0 9.429688-7.644532 17.070312-17.070313 17.070312s-17.066406-7.640624-17.066406-17.070312c0-9.425781 7.640625-17.066406 17.066406-17.066406s17.070313 7.640625 17.070313 17.066406zm0 0"/></svg>