<?xml version="1.0" encoding="iso-8859-1"?>
<!-- Generator: Adobe Illustrator 19.0.0, SVG Export Plug-In . SVG Version: 6.00 Build 0)  -->
<svg version="1.1" id="Capa_1" xmlns="http://www.w3.org/2000/svg" xmlns:xlink="http://www.w3.org/1999/xlink" x="0px" y="0px"
	 viewBox="0 0 366.95 366.95" style="enable-background:new 0 0 366.95 366.95;" xml:space="preserve">
<g>
	<g>
		<g>
			<path d="M183.68,138.65c38.195,0,69.325-31.078,69.325-69.325C253.005,31.13,221.926,0,183.68,0
				c-38.195,0-69.325,31.078-69.325,69.325S145.485,138.65,183.68,138.65z M183.68,17.459c28.621,0,51.917,23.296,51.917,51.917
				s-23.296,51.917-51.917,51.917s-51.917-23.296-51.917-51.917S155.059,17.459,183.68,17.459z"/>
			<path d="M326.733,253.594c0-24.986-9.728-48.486-27.392-66.15c-17.664-17.613-41.165-27.341-66.15-27.341h-99.533
				c-24.986,0-48.486,9.728-66.15,27.341c-17.664,17.664-27.341,41.114-27.341,66.15v92.928c0,11.264,9.165,20.429,20.429,20.429
				h245.76c11.264,0,20.429-9.165,20.429-20.429v-92.928H326.733z M309.274,346.522c0,1.587-1.382,3.021-3.021,3.021h-36.352
				v-95.488c0-3.942-3.226-7.168-7.168-7.168c-3.942,0-7.168,3.226-7.168,7.168v95.488H111.181v-95.488
				c0-3.942-3.226-7.168-7.168-7.168c-3.942,0-7.168,3.226-7.168,7.168v95.488H60.493c-1.587,0-3.021-1.382-3.021-3.021v-92.928
				c0.102-41.933,34.253-76.083,76.186-76.083h99.533c20.326,0,39.475,7.885,53.811,22.272
				c14.387,14.336,22.272,33.485,22.272,53.811V346.522z"/>
		</g>
	</g>
</g>
<g>
</g>
<g>
</g>
<g>
</g>
<g>
</g>
<g>
</g>
<g>
</g>
<g>
</g>
<g>
</g>
<g>
</g>
<g>
</g>
<g>
</g>
<g>
</g>
<g>
</g>
<g>
</g>
<g>
</g>
</svg>
