<?xml version="1.0" encoding="iso-8859-1"?>
<!-- Generator: Adobe Illustrator 19.0.0, SVG Export Plug-In . SVG Version: 6.00 Build 0)  -->
<svg version="1.1" id="Capa_1" xmlns="http://www.w3.org/2000/svg" xmlns:xlink="http://www.w3.org/1999/xlink" x="0px" y="0px"
	 viewBox="0 0 512 512" style="enable-background:new 0 0 512 512;" xml:space="preserve">
<path style="fill:#6F6571;" d="M480.452,456.418H31.548c-13.282,0-24.048-10.767-24.048-24.048v-64.129
	c0-13.282,10.767-24.048,24.048-24.048h448.903c13.282,0,24.048,10.767,24.048,24.048v64.129
	C504.5,445.652,493.733,456.418,480.452,456.418z"/>
<circle style="fill:#867E88;" cx="191.87" cy="400.31" r="16.03"/>
<circle style="fill:#BEE673;" cx="320.13" cy="400.31" r="16.03"/>
<circle style="fill:#FFE17D;" cx="256" cy="400.31" r="16.03"/>
<path style="fill:#5D5360;" d="M480.452,432.37H31.548c-13.282,0-24.048-10.767-24.048-24.048v24.048
	c0,13.282,10.767,24.048,24.048,24.048h448.903c13.282,0,24.048-10.767,24.048-24.048v-24.048
	C504.5,421.603,493.733,432.37,480.452,432.37z"/>
<g>
	<path style="fill:#4B3F4E;" d="M55.597,488.483H39.565c-4.427,0-8.016-3.589-8.016-8.016v-24.048h32.065v24.048
		C63.613,484.894,60.024,488.483,55.597,488.483z"/>
	<path style="fill:#4B3F4E;" d="M472.435,488.483h-16.032c-4.427,0-8.016-3.589-8.016-8.016v-24.048h32.065v24.048
		C480.452,484.894,476.863,488.483,472.435,488.483z"/>
</g>
<path d="M52.075,98.509c-3.326,2.469-4.021,7.167-1.552,10.492c1.472,1.983,3.735,3.03,6.028,3.03c1.554,0,3.121-0.481,4.464-1.478
	c6.979-5.18,16.542-5.442,23.797-0.653c3.457,2.282,8.109,1.331,10.391-2.126s1.33-8.109-2.126-10.392
	C80.577,89.13,64.1,89.584,52.075,98.509z"/>
<path d="M117.525,77.629c2.39-3.384,1.584-8.063-1.799-10.453C90.051,49.042,55.709,49.262,30.27,67.721
	c-3.353,2.433-4.098,7.123-1.666,10.476c1.467,2.022,3.755,3.096,6.077,3.096c1.527,0,3.068-0.465,4.398-1.431
	c20.241-14.688,47.566-14.861,67.994-0.434C110.455,81.817,115.135,81.011,117.525,77.629z"/>
<path d="M13.09,50.354c1.511,0,3.038-0.456,4.36-1.403C50.618,25.2,95.316,25.02,128.675,48.502
	c3.387,2.384,8.067,1.571,10.45-1.816c2.384-3.387,1.571-8.066-1.816-10.45C98.742,9.088,47.064,9.296,8.717,36.755
	c-3.368,2.411-4.143,7.097-1.731,10.464C8.451,49.265,10.753,50.354,13.09,50.354z"/>
<path d="M79.642,448.919H31.548c-9.125,0-16.548-7.424-16.548-16.549v-64.129c0-9.125,7.423-16.548,16.548-16.548h360.726
	c4.142,0,7.5-3.358,7.5-7.5c0-4.143-3.358-7.5-7.5-7.5H79.129v-200.92c0-4.142-3.358-7.5-7.5-7.5s-7.5,3.358-7.5,7.5v200.92H31.548
	C14.152,336.693,0,350.845,0,368.241v64.129c0,14.812,10.262,27.265,24.048,30.641v17.457c0,8.556,6.96,15.516,15.516,15.516h16.032
	c8.556,0,15.516-6.96,15.516-15.516V463.92h8.529c4.142,0,7.5-3.358,7.5-7.5S83.784,448.919,79.642,448.919z M56.113,480.467
	c0,0.285-0.231,0.516-0.516,0.516H39.564c-0.285,0-0.516-0.231-0.516-0.516v-16.548h17.064L56.113,480.467L56.113,480.467z"/>
<path d="M480.452,336.693h-32.581v-200.92c0-4.142-3.358-7.5-7.5-7.5s-7.5,3.358-7.5,7.5v200.92h-8.536c-4.142,0-7.5,3.357-7.5,7.5
	c0,4.142,3.358,7.5,7.5,7.5h56.116c9.125,0,16.548,7.423,16.548,16.548v64.129c0,9.125-7.423,16.549-16.548,16.549H111.709
	c-4.142,0-7.5,3.358-7.5,7.5s3.358,7.5,7.5,7.5h329.178v16.548c0,8.556,6.96,15.516,15.516,15.516h16.032
	c8.556,0,15.516-6.96,15.516-15.516V463.01C501.738,459.635,512,447.182,512,432.37v-64.129
	C512,350.845,497.848,336.693,480.452,336.693z M472.436,480.983h-16.032c-0.285,0-0.516-0.231-0.516-0.516v-16.548h17.064v16.548
	C472.952,480.752,472.72,480.983,472.436,480.983z"/>
<path d="M168.339,400.305c0,12.976,10.557,23.532,23.532,23.532s23.532-10.557,23.532-23.532s-10.557-23.532-23.532-23.532
	S168.339,387.33,168.339,400.305z M200.403,400.305c0,4.705-3.828,8.532-8.532,8.532s-8.532-3.827-8.532-8.532
	c0-4.704,3.828-8.532,8.532-8.532S200.403,395.601,200.403,400.305z"/>
<path d="M296.597,400.305c0,12.976,10.557,23.532,23.532,23.532s23.532-10.557,23.532-23.532s-10.557-23.532-23.532-23.532
	S296.597,387.33,296.597,400.305z M328.661,400.305c0,4.705-3.828,8.532-8.532,8.532s-8.532-3.827-8.532-8.532
	c0-4.704,3.828-8.532,8.532-8.532S328.661,395.601,328.661,400.305z"/>
<path d="M232.468,400.305c0,12.976,10.557,23.532,23.532,23.532c12.975,0,23.532-10.557,23.532-23.532S268.976,376.773,256,376.773
	S232.468,387.33,232.468,400.305z M264.532,400.305c0,4.705-3.828,8.532-8.532,8.532s-8.532-3.827-8.532-8.532
	c0-4.704,3.828-8.532,8.532-8.532C260.704,391.773,264.532,395.601,264.532,400.305z"/>
<path d="M420.817,98.509c-3.326,2.469-4.021,7.167-1.552,10.492c1.472,1.983,3.735,3.03,6.028,3.03c1.554,0,3.121-0.481,4.464-1.478
	c6.978-5.18,16.541-5.442,23.796-0.653c3.457,2.282,8.109,1.331,10.391-2.126s1.33-8.109-2.126-10.392
	C449.319,89.13,432.842,89.584,420.817,98.509z"/>
<path d="M486.267,77.629c2.39-3.384,1.584-8.063-1.799-10.453c-25.675-18.133-60.017-17.914-85.457,0.546
	c-3.353,2.433-4.098,7.123-1.666,10.476c1.467,2.022,3.755,3.096,6.077,3.096c1.527,0,3.068-0.465,4.398-1.431
	c20.242-14.687,47.566-14.861,67.994-0.434C479.197,81.817,483.878,81.011,486.267,77.629z"/>
<path d="M381.833,50.354c1.512,0,3.038-0.456,4.36-1.403c33.167-23.75,77.865-23.931,111.225-0.449
	c3.387,2.384,8.066,1.571,10.45-1.816s1.571-8.066-1.816-10.45c-38.568-27.148-90.245-26.94-128.592,0.52
	c-3.368,2.411-4.143,7.097-1.731,10.464C377.193,49.265,379.496,50.354,381.833,50.354z"/>
<g>
</g>
<g>
</g>
<g>
</g>
<g>
</g>
<g>
</g>
<g>
</g>
<g>
</g>
<g>
</g>
<g>
</g>
<g>
</g>
<g>
</g>
<g>
</g>
<g>
</g>
<g>
</g>
<g>
</g>
</svg>
