<?xml version="1.0" encoding="iso-8859-1"?>
<!-- Generator: Adobe Illustrator 19.0.0, SVG Export Plug-In . SVG Version: 6.00 Build 0)  -->
<svg version="1.1" id="Capa_1" xmlns="http://www.w3.org/2000/svg" xmlns:xlink="http://www.w3.org/1999/xlink" x="0px" y="0px"
	 viewBox="0 0 512 512" style="enable-background:new 0 0 512 512;" xml:space="preserve">
<g>
	<path style="fill:#5D5360;" d="M67.53,365.8c-4.495,0-8.132-3.641-8.132-8.132v-219.57c0-4.491,3.637-8.132,8.132-8.132
		s8.132,3.641,8.132,8.132v219.57C75.662,362.159,72.025,365.8,67.53,365.8z"/>
	<path style="fill:#5D5360;" d="M441.613,365.8c-4.495,0-8.132-3.641-8.132-8.132v-219.57c0-4.491,3.637-8.132,8.132-8.132
		s8.132,3.641,8.132,8.132v219.57C449.745,362.159,446.108,365.8,441.613,365.8z"/>
</g>
<path style="fill:#6F6571;" d="M482.274,463.387H26.869c-13.474,0-24.397-10.923-24.397-24.397v-65.058
	c0-13.474,10.923-24.397,24.397-24.397h455.405c13.474,0,24.397,10.923,24.397,24.397v65.058
	C506.671,452.464,495.748,463.387,482.274,463.387z"/>
<g>
	<path style="fill:#FFE17D;" d="M52.234,114.534c-2.486,0-4.94-1.136-6.536-3.284c-2.676-3.609-1.922-8.7,1.684-11.38
		c12.381-9.181,29.328-9.653,42.194-1.156c3.748,2.474,4.781,7.521,2.311,11.265c-2.486,3.756-7.537,4.761-11.269,2.307
		c-7.163-4.729-16.63-4.479-23.547,0.647C55.617,114.014,53.918,114.534,52.234,114.534z"/>
	<path style="fill:#FFE17D;" d="M30.045,83.351c-2.517,0-5.003-1.163-6.592-3.355c-2.637-3.637-1.827-8.724,1.811-11.361
		c25.969-18.857,61.063-19.084,87.302-0.56c3.669,2.593,4.543,7.664,1.946,11.333c-2.581,3.669-7.648,4.539-11.333,1.954
		c-20.537-14.509-48.023-14.323-68.37,0.441C33.373,82.847,31.697,83.351,30.045,83.351z"/>
	<path style="fill:#FFE17D;" d="M8.142,51.962c-2.533,0-5.035-1.179-6.623-3.399c-2.613-3.649-1.771-8.732,1.882-11.345
		C42.49,9.236,95.167,9.022,134.462,36.69c3.677,2.585,4.559,7.66,1.97,11.333c-2.581,3.673-7.656,4.555-11.325,1.97
		c-33.68-23.698-78.773-23.515-112.239,0.449C11.438,51.47,9.778,51.962,8.142,51.962z"/>
</g>
<circle style="fill:#867E88;" cx="189.51" cy="406.46" r="16.264"/>
<circle style="fill:#BEE673;" cx="319.63" cy="406.46" r="16.264"/>
<g>
	<circle style="fill:#FFE17D;" cx="254.57" cy="406.46" r="16.264"/>
	<path style="fill:#FFE17D;" d="M426.317,114.534c-2.486,0-4.94-1.136-6.536-3.284c-2.676-3.609-1.922-8.7,1.684-11.38
		c12.381-9.181,29.328-9.653,42.194-1.156c3.748,2.474,4.781,7.521,2.311,11.265c-2.486,3.756-7.529,4.761-11.269,2.307
		c-7.163-4.729-16.622-4.479-23.547,0.647C429.7,114.014,428.001,114.534,426.317,114.534z"/>
	<path style="fill:#FFE17D;" d="M404.128,83.351c-2.518,0-5.003-1.163-6.592-3.355c-2.637-3.637-1.827-8.724,1.811-11.361
		c25.977-18.857,61.063-19.084,87.302-0.56c3.669,2.593,4.543,7.664,1.946,11.333c-2.581,3.669-7.648,4.539-11.333,1.954
		c-20.537-14.509-48.023-14.323-68.37,0.441C407.456,82.847,405.78,83.351,404.128,83.351z"/>
	<path style="fill:#FFE17D;" d="M382.225,51.962c-2.533,0-5.035-1.179-6.623-3.399c-2.613-3.649-1.771-8.732,1.882-11.345
		c39.081-27.982,91.758-28.197,131.061-0.528c3.677,2.585,4.559,7.66,1.97,11.333c-2.581,3.673-7.656,4.555-11.325,1.97
		c-33.68-23.698-78.773-23.515-112.239,0.449C385.521,51.47,383.861,51.962,382.225,51.962z"/>
</g>
<path style="fill:#5D5360;" d="M482.274,438.99H26.869c-13.474,0-24.397-10.923-24.397-24.397v24.397
	c0,13.474,10.923,24.397,24.397,24.397v24.397c0,4.491,3.641,8.132,8.132,8.132h16.264c4.491,0,8.132-3.641,8.132-8.132v-24.397
	h390.347v24.397c0,4.491,3.641,8.132,8.132,8.132h16.264c4.491,0,8.132-3.641,8.132-8.132v-24.397
	c13.474,0,24.397-10.923,24.397-24.397v-24.397C506.671,428.067,495.748,438.99,482.274,438.99z"/>
<g>
	<rect x="26.869" y="463.39" style="fill:#4B3F4E;" width="32.529" height="16.264"/>
	<rect x="449.75" y="463.39" style="fill:#4B3F4E;" width="32.529" height="16.264"/>
</g>
<g>
</g>
<g>
</g>
<g>
</g>
<g>
</g>
<g>
</g>
<g>
</g>
<g>
</g>
<g>
</g>
<g>
</g>
<g>
</g>
<g>
</g>
<g>
</g>
<g>
</g>
<g>
</g>
<g>
</g>
</svg>
