<svg height="512pt" viewBox="-36 0 512 512" width="512pt" xmlns="http://www.w3.org/2000/svg"><path d="m248.945312 61.464844c3.425782-5.390625 5.414063-9.789063 5.414063-16.652344 0-19.226562-15.582031-34.8125-34.796875-34.8125-19.21875 0-34.796875 15.585938-34.796875 34.8125 0 6.863281 1.984375 11.261719 5.414063 16.652344" fill="#ff6e39"/><path d="m386.496094 346.945312c-10.84375-2.554687-17.550782-10.207031-21.71875-21.445312-24.980469-67.410156 41.570312-263.871094-145.207032-263.871094-186.78125 0-120.242187 196.460938-145.226562 263.871094-4.15625 11.238281-10.863281 18.886719-21.714844 21.445312" fill="#ffc73b"/><path d="m332.867188 346.945312h61.519531c19.183593 0 34.738281 15.5625 34.738281 34.757813s-15.550781 34.757813-34.738281 34.757813h-349.648438c-19.1875 0-34.742187-15.5625-34.742187-34.757813s15.554687-34.757813 34.742187-34.757813h199.863281" fill="#ff6e39"/><path d="m289.363281 356.949219c-.652343 0-1.3125-.070313-1.960937-.199219-.628906-.128906-1.261719-.320312-1.871094-.570312-.597656-.25-1.179688-.558594-1.71875-.917969-.550781-.363281-1.058594-.78125-1.523438-1.242188-.457031-.460937-.878906-.980469-1.238281-1.519531-.359375-.550781-.667969-1.128906-.917969-1.730469-.25-.597656-.449218-1.230469-.570312-1.871093-.128906-.648438-.199219-1.296876-.199219-1.949219 0-.660157.070313-1.308594.199219-1.957031.121094-.640626.308594-1.273438.558594-1.871094.25-.601563.5625-1.179688.921875-1.730469.367187-.539063.789062-1.058594 1.25-1.519531.460937-.460938.96875-.878906 1.519531-1.238282.539062-.363281 1.121094-.671874 1.71875-.921874.613281-.25 1.242188-.441407 1.871094-.570313 1.289062-.257813 2.621094-.257813 3.910156 0 .640625.128906 1.269531.320313 1.871094.570313.609375.25 1.1875.558593 1.730468.921874.550782.359376 1.058594.777344 1.519532 1.238282.460937.460937.878906.980468 1.238281 1.519531.359375.550781.671875 1.128906.921875 1.730469.25.601562.4375 1.230468.566406 1.871094.132813.648437.203125 1.296874.203125 1.957031 0 .652343-.070312 1.300781-.203125 1.949219-.128906.640624-.316406 1.273437-.566406 1.871093-.25.601563-.5625 1.179688-.921875 1.730469-.359375.539062-.777344 1.058594-1.238281 1.519531-.460938.460938-.972656.878907-1.519532 1.242188-.542968.359375-1.121093.667969-1.730468.917969-.601563.25-1.230469.441406-1.871094.570312s-1.300781.199219-1.949219.199219zm0 0"/><path d="m262.3125 459.230469c0-23.621094-19.140625-42.769531-42.75-42.769531s-42.75 19.148437-42.75 42.769531c0 23.621093 19.140625 42.769531 42.75 42.769531s42.75-19.148438 42.75-42.769531zm0 0" fill="#ef444b"/><path d="m394.386719 336.945312h-6.621094c-4.410156-1.257812-9.695313-4.355468-13.609375-14.921874-6.039062-16.289063-6.203125-43.203126-6.375-71.699219-.261719-42.597657-.554688-90.875-18.851562-129.6875-10.21875-21.679688-25.359376-38.445313-44.996094-49.828125-11.871094-6.882813-25.625-11.929688-41.136719-15.113282 1-3.238281 1.558594-6.765624 1.558594-10.882812.003906-24.707031-20.09375-44.8125-44.792969-44.8125s-44.796875 20.105469-44.796875 44.8125c0 4.117188.5625 7.648438 1.558594 10.882812-15.503907 3.183594-29.253907 8.230469-41.121094 15.109376-19.640625 11.386718-34.78125 28.152343-45 49.832031-18.300781 38.8125-18.597656 87.09375-18.855469 129.6875-.175781 28.496093-.339844 55.410156-6.378906 71.707031-3.90625 10.558594-9.191406 13.652344-13.601562 14.914062h-6.628907c-24.667969 0-44.738281 20.078126-44.738281 44.753907 0 24.683593 20.070312 44.761719 44.738281 44.761719h133.507813c-7.152344 9.003906-11.433594 20.394531-11.433594 32.769531 0 29.097656 23.664062 52.769531 52.75 52.769531s52.75-23.671875 52.75-52.769531c0-12.375-4.28125-23.761719-11.433594-32.769531h133.507813c24.667969 0 44.738281-20.078126 44.738281-44.761719 0-24.675781-20.070312-44.753907-44.738281-44.753907zm-174.824219-316.945312c13.671875 0 24.796875 11.132812 24.796875 24.8125 0 2.957031-.460937 5.105469-1.867187 7.871094-7.328126-.699219-14.972657-1.054688-22.921876-1.054688-7.957031 0-15.605468.355469-22.9375 1.058594-1.40625-2.769531-1.867187-4.917969-1.867187-7.875 0-13.679688 11.125-24.8125 24.796875-24.8125zm0 472c-18.058594 0-32.75-14.699219-32.75-32.769531 0-18.070313 14.691406-32.769531 32.75-32.769531s32.75 14.699218 32.75 32.769531c0 18.070312-14.691406 32.769531-32.75 32.769531zm174.824219-85.539062h-349.648438c-13.640625 0-24.738281-11.109376-24.738281-24.757813 0-13.652344 11.097656-24.757813 24.738281-24.757813h7.695313.1875.1875 191.792968c5.523438 0 10-4.476562 10-10 0-5.523437-4.476562-10-10-10h-164.492187c1.347656-2.445312 2.550781-5.105468 3.613281-7.96875 7.261719-19.59375 7.429688-46.90625 7.625-78.527343.511719-83.816407 1.09375-178.816407 128.222656-178.816407 127.125 0 127.703126 94.996094 128.210938 178.8125.195312 31.625.359375 58.9375 7.621094 78.527344 1.0625 2.867188 2.269531 5.523438 3.617187 7.972656h-26.152343c-5.519532 0-10 4.476563-10 10 0 5.523438 4.480468 10 10 10h53.449218c.136719.003907.273438.003907.410156 0h7.660157c13.640625 0 24.738281 11.105469 24.738281 24.757813 0 13.648437-11.097656 24.757813-24.738281 24.757813zm0 0"/></svg>