<?xml version="1.0" encoding="iso-8859-1"?>
<!-- Generator: Adobe Illustrator 19.0.0, SVG Export Plug-In . SVG Version: 6.00 Build 0)  -->
<svg version="1.1" id="Layer_1" xmlns="http://www.w3.org/2000/svg" xmlns:xlink="http://www.w3.org/1999/xlink" x="0px" y="0px"
	 viewBox="0 0 512 512" style="enable-background:new 0 0 512 512;" xml:space="preserve">
<g>
	<g>
		<path d="M485.083,64.143H457.02V45.244c0-9.79-7.964-17.754-17.754-17.754H420.94c-9.79,0-17.754,7.964-17.754,17.754v18.899
			H108.814V45.244c0-9.79-7.964-17.754-17.754-17.754H72.734c-9.79,0-17.754,7.964-17.754,17.754v18.899H26.917
			C12.075,64.143,0,76.218,0,91.06v366.532c0,14.842,12.075,26.917,26.917,26.917h458.166c14.842,0,26.917-12.075,26.917-26.917
			V91.06C512,76.218,499.925,64.143,485.083,64.143z M420.367,45.244c0-0.316,0.257-0.573,0.573-0.573h18.327
			c0.316,0,0.573,0.257,0.573,0.573v54.98c0,0.316-0.257,0.573-0.573,0.573H420.94c-0.316,0-0.573-0.257-0.573-0.573V45.244z
			 M72.161,45.244c0-0.316,0.257-0.573,0.573-0.573H91.06c0.316,0,0.573,0.257,0.573,0.573v54.98c0,0.316-0.257,0.573-0.573,0.573
			H72.734c-0.316,0-0.573-0.257-0.573-0.573V45.244z M128.287,467.329H26.917c-5.369,0-9.736-4.367-9.736-9.736V402.04h111.106
			V467.329z M128.287,384.859H17.181V319.57h111.106V384.859z M128.287,302.389H17.181v-65.289h111.106V302.389z M128.287,219.919
			H17.181v-65.289h111.106V219.919z M247.409,384.859H173.53c-4.744,0-8.591,3.846-8.591,8.591c0,4.744,3.846,8.591,8.591,8.591
			h73.879v65.289H145.469V319.57h101.941V384.859z M247.409,302.389H145.469v-65.289h101.941V302.389z M247.409,219.919H145.469
			v-65.289h101.941V219.919z M366.532,467.329H264.591V402.04h101.942V467.329z M366.532,384.859H264.591V319.57h101.942V384.859z
			 M366.532,302.389H264.591v-65.289h73.879c4.744,0,8.591-3.846,8.591-8.591s-3.846-8.591-8.591-8.591h-73.879v-65.289h101.942
			V302.389z M494.819,457.593c0,5.369-4.367,9.736-9.736,9.736H383.714V402.04h111.105V457.593z M494.819,384.859H383.714V319.57
			h111.105V384.859z M494.819,302.389H383.714v-65.289h111.105V302.389z M494.819,219.919H383.714v-65.289h111.105V219.919z
			 M494.819,137.45H17.181V91.06c0-5.369,4.367-9.736,9.736-9.736H54.98v18.899c0,9.79,7.964,17.754,17.754,17.754H91.06
			c9.79,0,17.754-7.964,17.754-17.754V81.324h294.371v18.899c0,9.79,7.964,17.754,17.754,17.754h18.327
			c9.79,0,17.754-7.964,17.754-17.754V81.324h28.063c5.369,0,9.736,4.367,9.736,9.736V137.45z"/>
	</g>
</g>
<g>
</g>
<g>
</g>
<g>
</g>
<g>
</g>
<g>
</g>
<g>
</g>
<g>
</g>
<g>
</g>
<g>
</g>
<g>
</g>
<g>
</g>
<g>
</g>
<g>
</g>
<g>
</g>
<g>
</g>
</svg>
