<?xml version="1.0" encoding="iso-8859-1"?>
<!-- Generator: Adobe Illustrator 19.0.0, SVG Export Plug-In . SVG Version: 6.00 Build 0)  -->
<svg version="1.1" id="Capa_1" xmlns="http://www.w3.org/2000/svg" xmlns:xlink="http://www.w3.org/1999/xlink" x="0px" y="0px"
	 viewBox="0 0 512.001 512.001" style="enable-background:new 0 0 512.001 512.001;" xml:space="preserve">
<g>
	<g>
		<path d="M481.844,317.037v-0.725c0-54.882-19.924-107.79-56.103-148.979c-35.013-39.862-82.793-66.1-134.885-74.18
			c-5.031-14.701-18.975-25.303-35.359-25.303c-16.447,0-30.436,10.684-35.418,25.474c-51.99,8.318-99.642,34.767-134.44,74.715
			c-35.78,41.076-55.485,93.733-55.485,148.273v0.725C13.109,319.616,0,334.366,0,352.122v13.027
			c0,15.689,10.077,29.323,25.077,33.925l82.103,25.19c43.004,13.195,87.619,19.886,132.603,19.886h32.436
			c44.984,0,89.599-6.691,132.603-19.886l82.103-25.19c14.999-4.602,25.077-18.236,25.077-33.925v-13.027
			C512,334.366,498.891,319.615,481.844,317.037z M255.497,82.281c12.649,0,22.942,10.291,22.942,22.94v75.39
			c0,12.649-10.291,22.94-22.94,22.94s-22.941-10.291-22.941-22.94v-75.39h-0.001C232.556,92.572,242.848,82.281,255.497,82.281z
			 M482.691,385.278l-82.103,25.19c-41.632,12.774-84.822,19.25-128.37,19.25h-9.505v-5.978h-14.43v5.978h-8.5
			c-43.548,0-86.738-6.476-128.37-19.25l-82.103-25.19c-8.9-2.73-14.88-10.82-14.88-20.129v-13.027
			c0-9.765,6.693-17.976,15.726-20.345v27.579l111.689,33.906h31.226v-14.43h-29.085l-99.401-30.175v-32.345
			c0-51.055,18.445-100.346,51.936-138.795c31.631-36.313,74.598-60.71,121.605-69.223v72.317c0,18.138,12.991,33.294,30.156,36.665
			v10.453h14.43v-10.453c17.165-3.371,30.156-18.528,30.156-36.665v-72.497c47.107,8.296,90.202,32.504,122.031,68.742
			c33.866,38.553,52.516,88.08,52.516,139.455v32.215l-108.741,30.305h-19.746v14.431h21.718l121.197-33.776v-27.71
			c9.033,2.369,15.726,10.58,15.726,20.345v13.028h0.001C497.57,374.458,491.591,382.548,482.691,385.278z"/>
	</g>
</g>
<g>
	<g>
		<path d="M135.701,157.994v82.928c0,41.748-33.965,75.713-75.713,75.713v14.431c49.705,0,90.144-40.438,90.144-90.144v-82.928
			H135.701z"/>
	</g>
</g>
<g>
	<g>
		<path d="M376.3,240.923v-82.928h-14.431v82.928c0,49.705,40.438,90.144,90.144,90.144v-14.431
			C410.265,316.636,376.3,282.671,376.3,240.923z"/>
	</g>
</g>
<g>
	<g>
		<path d="M316.133,135.377v150.779c0,33.435-27.202,60.635-60.635,60.635s-60.635-27.201-60.635-60.635V135.377h-14.431v150.779
			c0,41.392,33.674,75.066,75.066,75.066s75.066-33.674,75.066-75.066V135.377H316.133z"/>
	</g>
</g>
<g>
	<g>
		<polygon points="188.15,378.832 188.15,393.263 248.283,393.263 248.283,408.664 262.712,408.664 262.712,393.263 
			323.851,393.263 323.851,378.832 		"/>
	</g>
</g>
<g>
	<g>
		<rect x="248.785" y="310.655" width="14.43" height="15.078"/>
	</g>
</g>
<g>
</g>
<g>
</g>
<g>
</g>
<g>
</g>
<g>
</g>
<g>
</g>
<g>
</g>
<g>
</g>
<g>
</g>
<g>
</g>
<g>
</g>
<g>
</g>
<g>
</g>
<g>
</g>
<g>
</g>
</svg>
