<svg width="640" height="480" xmlns="http://www.w3.org/2000/svg" xmlns:svg="http://www.w3.org/2000/svg" xmlns:xlink="http://www.w3.org/1999/xlink">
 <defs>
  <pattern height="100" width="100" y="0" x="0" patternUnits="userSpaceOnUse" id="gridpattern">
   <image height="100" width="100" y="0" x="0" id="svg_46"/>
  </pattern>
  <symbol viewBox="0 0 512 512" y="0px" x="0px" id="svg_17" xmlns:xlink="http://www.w3.org/1999/xlink" xmlns="http://www.w3.org/2000/svg">
   <g>
    <g>
     <g>
      <path d="m400.493,251.658c-27.608,-43.571 -53.225,-90.829 -76.133,-140.458l-44.242,-95.8c-4.383,-9.5 -13.625,-15.4 -24.117,-15.4c-10.492,0 -19.733,5.9 -24.117,15.396l-35.592,77.071c-22.525,48.788 -50.1,105.675 -83.825,157.696c-20.633,31.817 -29.783,68.821 -26.475,107.008c6.925,80.112 70.133,144.763 150.283,153.721c6.558,0.733 13.192,1.108 19.725,1.108c0.008,0 0.008,0 0.017,0c45.567,0 88.417,-17.671 120.65,-49.75c32.242,-32.092 50,-74.758 50,-120.146c0.001,-32.146 -9.049,-63.425 -26.174,-90.446zm-35.867,198.496c-29.017,28.875 -67.583,44.779 -108.608,44.779c-0.008,0 -0.008,0 -0.017,0c-5.9,0 -11.9,-0.337 -17.825,-1c-72.1,-8.058 -128.95,-66.196 -135.183,-138.233c-2.975,-34.371 5.25,-67.654 23.792,-96.254c34.317,-52.921 62.225,-110.487 85.008,-159.821l35.592,-77.075c2.35,-5.087 7.192,-5.483 8.617,-5.483c1.425,0 6.267,0.396 8.617,5.488l44.242,95.8c23.233,50.313 49.208,98.233 77.217,142.437c15.392,24.288 23.525,52.404 23.525,81.313c-0.002,40.812 -15.977,79.183 -44.977,108.049z"/>
      <path d="m320.976,257.796c-3.725,-2.892 -9.075,-2.208 -11.975,1.5l-119.467,153.6c-2.9,3.717 -2.225,9.079 1.492,11.975c1.558,1.208 3.408,1.796 5.233,1.796c2.542,0 5.058,-1.133 6.742,-3.296l119.467,-153.6c2.9,-3.717 2.225,-9.079 -1.492,-11.975z"/>
      <path d="m298.668,349.867c-18.825,0 -34.133,15.312 -34.133,34.133s15.308,34.133 34.133,34.133s34.133,-15.313 34.133,-34.133s-15.308,-34.133 -34.133,-34.133zm0,51.2c-9.408,0 -17.067,-7.654 -17.067,-17.067s7.658,-17.067 17.067,-17.067s17.067,7.654 17.067,17.067s-7.659,17.067 -17.067,17.067z"/>
      <path d="m213.335,332.8c18.825,0 34.133,-15.312 34.133,-34.133s-15.308,-34.133 -34.133,-34.133c-18.825,0 -34.133,15.313 -34.133,34.133s15.308,34.133 34.133,34.133zm0,-51.2c9.408,0 17.067,7.654 17.067,17.067s-7.658,17.067 -17.067,17.067c-9.408,0 -17.067,-7.654 -17.067,-17.067s7.658,-17.067 17.067,-17.067z"/>
     </g>
    </g>
   </g>
   <g/>
   <g/>
   <g/>
   <g/>
   <g/>
   <g/>
   <g/>
   <g/>
   <g/>
   <g/>
   <g/>
   <g/>
   <g/>
   <g/>
   <g/>
  </symbol>
 </defs>
 <g>
  <title>Layer 1</title>
  <ellipse stroke="#000000" ry="234.5" rx="234.5" id="svg_4" cy="239.5" cx="306.5" stroke-width="0" fill="#e5e5e5"/>
  <use x="933.14561" y="345.17782" transform="matrix(0.8118832111358643,0,0,0.8118832111358643,-717.5126760985004,-250.8901252746582) " xlink:href="#svg_17" id="svg_28"/>
  <g id="svg_30"/>
 </g>
</svg>