<?xml version="1.0" encoding="iso-8859-1"?>
<!-- Generator: Adobe Illustrator 19.0.0, SVG Export Plug-In . SVG Version: 6.00 Build 0)  -->
<svg version="1.1" id="Capa_1" xmlns="http://www.w3.org/2000/svg" xmlns:xlink="http://www.w3.org/1999/xlink" x="0px" y="0px"
	 viewBox="0 0 468.293 468.293" style="enable-background:new 0 0 468.293 468.293;" xml:space="preserve">
<g>
	<path style="fill:#64798A;" d="M95.335,427.84l-9.401-8.085c0.097-0.109,2.391-2.766,6.792-7.077l8.669,8.862
		C97.472,425.379,95.432,427.728,95.335,427.84z"/>
	<path style="fill:#64798A;" d="M115.457,408.955l-7.882-9.565c5.018-4.144,10.333-8.206,15.782-12.077l7.18,10.103
		C125.331,401.119,120.258,405.002,115.457,408.955z M146.385,386.935l-6.489-10.57c5.618-3.445,11.417-6.744,17.247-9.807
		l5.763,10.975C157.324,380.47,151.761,383.633,146.385,386.935z M180.019,369.256l-5.024-11.332
		c6.035-2.676,12.222-5.179,18.385-7.437l4.262,11.641C191.733,364.292,185.806,366.689,180.019,369.256z M384.957,356.392
		c-6.169-1.634-12.422-3.121-18.578-4.419l2.555-12.131c6.368,1.344,12.828,2.878,19.196,4.564L384.957,356.392z M215.687,356.198
		l-3.475-11.901c6.338-1.852,12.803-3.508,19.208-4.922l2.676,12.107C227.957,352.836,221.765,354.422,215.687,356.198z
		 M347.607,348.534c-6.296-0.978-12.658-1.783-18.917-2.397L329.9,333.8c6.483,0.636,13.082,1.471,19.608,2.482L347.607,348.534z
		 M252.783,347.99l-1.877-12.252c6.489-0.993,13.112-1.786,19.686-2.355l1.065,12.349
		C265.356,346.28,259.006,347.039,252.783,347.99z M309.681,344.839c-6.471-0.251-12.822-0.279-19.039-0.151l-0.278-12.392
		c6.429-0.157,13.052-0.112,19.801,0.157L309.681,344.839z"/>
	<path style="fill:#64798A;" d="M417.943,366.592l-5.781-1.967c-2.918-0.996-5.818-1.949-8.699-2.863l3.741-11.817
		c0.981,0.309,1.961,0.624,2.942,0.941c0.236-0.805,0.484-1.686,0.751-2.639l11.95,3.287c-1.616,5.89-2.845,9.307-2.845,9.307
		L417.943,366.592z"/>
	<path style="fill:#64798A;" d="M426.896,334.139l-12.168-2.349c1.078-5.59,1.931-11.208,2.536-16.696l12.325,1.362
		C428.949,322.274,428.041,328.222,426.896,334.139z M430.771,298.535l-12.398-0.212l0.03-3.136c0-4.628-0.206-9.198-0.605-13.575
		l12.349-1.132c0.436,4.755,0.654,9.701,0.654,14.707L430.771,298.535z M415.219,265.279c-1.259-5.463-2.924-10.703-4.94-15.57
		l11.453-4.746c2.276,5.5,4.153,11.396,5.569,17.525L415.219,265.279z M402.694,235.475c-2.984-4.452-6.441-8.596-10.273-12.313
		l8.632-8.899c4.455,4.319,8.475,9.135,11.944,14.311L402.694,235.475z M379.775,213.225c-4.419-2.812-9.274-5.321-14.444-7.455
		l4.734-11.459c5.836,2.412,11.338,5.255,16.369,8.454L379.775,213.225z M349.677,200.621c-5.152-1.314-10.654-2.382-16.363-3.169
		l1.695-12.283c6.169,0.854,12.137,2.01,17.731,3.441L349.677,200.621z M316.564,195.917c-5.37-0.263-10.993-0.333-16.938-0.209
		l-0.278-12.392c6.205-0.142,12.162-0.057,17.822,0.215L316.564,195.917z"/>
	<path style="fill:#64798A;" d="M273.262,197.488l-1.332-12.325c3.208-0.348,6.344-0.645,9.419-0.896l1.017,12.355
		C279.401,196.868,276.362,197.152,273.262,197.488z"/>
</g>
<path style="fill:#DC8744;" d="M280.186,192.028c5.709-19.469,11.738-33.52,16.838-43.296c3.455-6.624,10.339-16.651,15.648-21.908
	c10.716-10.609,16.708-25.979,14.525-42.681c-2.952-22.589-21.525-40.796-44.162-43.356c-30.522-3.451-56.382,20.335-56.382,50.161
	c0,13.999,5.701,26.663,14.903,35.808c5.401,5.368,12.422,15.614,15.925,22.376c5.055,9.759,10.999,23.692,16.63,42.897
	C275.004,195.071,279.294,195.071,280.186,192.028z"/>
<circle style="fill:#EBF0F3;" cx="277.148" cy="91.099" r="33.998"/>
<path style="fill:#E56353;" d="M96.955,417.459c11.322-38.119,23.29-64.496,32.911-81.866c7.16-12.926,16.41-24.51,26.637-35.176
	c16.167-16.86,25.903-39.933,25.247-65.285c-1.215-47.026-39.579-86.227-86.571-88.386C43.031,144.35,0,185.919,0,237.538
	c0,24.277,9.524,46.323,25.034,62.624c10.267,10.791,19.664,22.402,26.881,35.432c9.621,17.37,21.589,43.747,32.911,81.866
	C86.618,423.493,95.163,423.493,96.955,417.459z"/>
<circle style="fill:#EBF0F3;" cx="90.911" cy="237.83" r="61.196"/>
<path style="fill:#27A2DB;" d="M420.835,357.552c5.709-19.469,11.738-33.52,16.838-43.296c3.455-6.624,10.339-16.651,15.648-21.908
	c10.716-10.609,16.708-25.979,14.525-42.681c-2.952-22.589-21.525-40.796-44.162-43.356c-30.522-3.452-56.382,20.335-56.382,50.161
	c0,13.999,5.701,26.663,14.903,35.808c5.401,5.368,12.422,15.614,15.925,22.376c5.055,9.759,10.999,23.692,16.63,42.897
	C415.653,360.595,419.943,360.595,420.835,357.552z"/>
<circle style="fill:#EBF0F3;" cx="417.78" cy="256.631" r="33.998"/>
<g>
</g>
<g>
</g>
<g>
</g>
<g>
</g>
<g>
</g>
<g>
</g>
<g>
</g>
<g>
</g>
<g>
</g>
<g>
</g>
<g>
</g>
<g>
</g>
<g>
</g>
<g>
</g>
<g>
</g>
</svg>
