<?xml version="1.0" encoding="iso-8859-1"?>
<!-- Generator: Adobe Illustrator 19.0.0, SVG Export Plug-In . SVG Version: 6.00 Build 0)  -->
<svg version="1.1" id="Capa_1" xmlns="http://www.w3.org/2000/svg" xmlns:xlink="http://www.w3.org/1999/xlink" x="0px" y="0px"
	 viewBox="0 0 512 512" style="enable-background:new 0 0 512 512;" xml:space="preserve">
<g>
	<g>
		<path d="M68.267,0c-14.114,0-25.6,11.486-25.6,25.6v119.467c0,4.719,3.823,8.533,8.533,8.533h34.133
			c4.71,0,8.533-3.814,8.533-8.533V25.6C93.867,11.486,82.381,0,68.267,0z M76.8,136.533H59.733V25.6
			c0-4.71,3.831-8.533,8.533-8.533S76.8,20.89,76.8,25.6V136.533z"/>
	</g>
</g>
<g>
	<g>
		<path d="M443.733,0c-14.114,0-25.6,11.486-25.6,25.6v119.467c0,4.719,3.823,8.533,8.533,8.533H460.8
			c4.71,0,8.533-3.814,8.533-8.533V25.6C469.333,11.486,457.847,0,443.733,0z M452.267,136.533H435.2V25.6
			c0-4.71,3.831-8.533,8.533-8.533c4.702,0,8.533,3.823,8.533,8.533V136.533z"/>
	</g>
</g>
<g>
	<g>
		<path d="M486.426,136.533H25.574C11.469,136.533,0,148.011,0,162.108v102.451c0,14.097,11.469,25.574,25.574,25.574h460.851
			c14.106,0,25.574-11.477,25.574-25.574V162.108C512,148.011,500.531,136.533,486.426,136.533z M494.933,264.559
			c0,4.693-3.814,8.508-8.508,8.508H25.574c-4.693,0-8.508-3.814-8.508-8.508V162.108c0-4.693,3.814-8.508,8.508-8.508h460.851
			c4.693,0,8.508,3.814,8.508,8.508V264.559z"/>
	</g>
</g>
<g>
	<g>
		<path d="M469.333,170.667H332.8c-4.71,0-8.533,3.814-8.533,8.533v68.267c0,4.719,3.823,8.533,8.533,8.533h136.533
			c4.71,0,8.533-3.814,8.533-8.533V179.2C477.867,174.481,474.044,170.667,469.333,170.667z M460.8,238.933H341.333v-51.2H460.8
			V238.933z"/>
	</g>
</g>
<g>
	<g>
		<path d="M384,204.8h-17.067c-4.71,0-8.533,3.814-8.533,8.533c0,4.719,3.823,8.533,8.533,8.533H384c4.71,0,8.533-3.814,8.533-8.533
			C392.533,208.614,388.71,204.8,384,204.8z"/>
	</g>
</g>
<g>
	<g>
		<path d="M435.2,204.8h-17.067c-4.71,0-8.533,3.814-8.533,8.533c0,4.719,3.823,8.533,8.533,8.533H435.2
			c4.71,0,8.533-3.814,8.533-8.533C443.733,208.614,439.91,204.8,435.2,204.8z"/>
	</g>
</g>
<g>
	<g>
		<path d="M42.667,170.667c-4.71,0-8.533,3.814-8.533,8.533v68.267c0,4.719,3.823,8.533,8.533,8.533c4.71,0,8.533-3.814,8.533-8.533
			V179.2C51.2,174.481,47.377,170.667,42.667,170.667z"/>
	</g>
</g>
<g>
	<g>
		<path d="M76.8,170.667c-4.71,0-8.533,3.814-8.533,8.533v17.067c0,4.719,3.823,8.533,8.533,8.533s8.533-3.814,8.533-8.533V179.2
			C85.333,174.481,81.51,170.667,76.8,170.667z"/>
	</g>
</g>
<g>
	<g>
		<path d="M76.8,221.867c-4.71,0-8.533,3.814-8.533,8.533v17.067c0,4.719,3.823,8.533,8.533,8.533s8.533-3.814,8.533-8.533V230.4
			C85.333,225.681,81.51,221.867,76.8,221.867z"/>
	</g>
</g>
<g>
	<g>
		<path d="M145.067,170.667c-4.71,0-8.533,3.814-8.533,8.533v17.067c0,4.719,3.823,8.533,8.533,8.533
			c4.71,0,8.533-3.814,8.533-8.533V179.2C153.6,174.481,149.777,170.667,145.067,170.667z"/>
	</g>
</g>
<g>
	<g>
		<path d="M145.067,221.867c-4.71,0-8.533,3.814-8.533,8.533v17.067c0,4.719,3.823,8.533,8.533,8.533
			c4.71,0,8.533-3.814,8.533-8.533V230.4C153.6,225.681,149.777,221.867,145.067,221.867z"/>
	</g>
</g>
<g>
	<g>
		<path d="M110.933,170.667c-4.71,0-8.533,3.814-8.533,8.533v68.267c0,4.719,3.823,8.533,8.533,8.533s8.533-3.814,8.533-8.533V179.2
			C119.467,174.481,115.644,170.667,110.933,170.667z"/>
	</g>
</g>
<g>
	<g>
		<path d="M196.267,204.8H179.2c-4.71,0-8.533,3.814-8.533,8.533c0,4.719,3.823,8.533,8.533,8.533h17.067
			c4.71,0,8.533-3.814,8.533-8.533C204.8,208.614,200.977,204.8,196.267,204.8z"/>
	</g>
</g>
<g>
	<g>
		<path d="M298.667,204.8H281.6c-4.71,0-8.533,3.814-8.533,8.533c0,4.719,3.823,8.533,8.533,8.533h17.067
			c4.71,0,8.533-3.814,8.533-8.533C307.2,208.614,303.377,204.8,298.667,204.8z"/>
	</g>
</g>
<g>
	<g>
		<path d="M247.467,204.8H230.4c-4.71,0-8.533,3.814-8.533,8.533c0,4.719,3.823,8.533,8.533,8.533h17.067
			c4.71,0,8.533-3.814,8.533-8.533C256,208.614,252.177,204.8,247.467,204.8z"/>
	</g>
</g>
<g>
	<g>
		<path d="M196.267,238.933H179.2c-4.71,0-8.533,3.814-8.533,8.533S174.49,256,179.2,256h17.067c4.71,0,8.533-3.814,8.533-8.533
			S200.977,238.933,196.267,238.933z"/>
	</g>
</g>
<g>
	<g>
		<path d="M298.667,238.933H281.6c-4.71,0-8.533,3.814-8.533,8.533S276.89,256,281.6,256h17.067c4.71,0,8.533-3.814,8.533-8.533
			S303.377,238.933,298.667,238.933z"/>
	</g>
</g>
<g>
	<g>
		<path d="M247.467,238.933H230.4c-4.71,0-8.533,3.814-8.533,8.533S225.69,256,230.4,256h17.067c4.71,0,8.533-3.814,8.533-8.533
			S252.177,238.933,247.467,238.933z"/>
	</g>
</g>
<g>
	<g>
		<path d="M196.267,170.667H179.2c-4.71,0-8.533,3.814-8.533,8.533s3.823,8.533,8.533,8.533h17.067c4.71,0,8.533-3.814,8.533-8.533
			S200.977,170.667,196.267,170.667z"/>
	</g>
</g>
<g>
	<g>
		<path d="M298.667,170.667H281.6c-4.71,0-8.533,3.814-8.533,8.533s3.823,8.533,8.533,8.533h17.067c4.71,0,8.533-3.814,8.533-8.533
			S303.377,170.667,298.667,170.667z"/>
	</g>
</g>
<g>
	<g>
		<path d="M247.467,170.667H230.4c-4.71,0-8.533,3.814-8.533,8.533s3.823,8.533,8.533,8.533h17.067c4.71,0,8.533-3.814,8.533-8.533
			S252.177,170.667,247.467,170.667z"/>
	</g>
</g>
<g>
	<g>
		<path d="M256,0c-56.465,0-102.4,45.935-102.4,102.4c0,4.719,3.823,8.533,8.533,8.533c4.71,0,8.533-3.814,8.533-8.533
			c0-47.053,38.281-85.333,85.333-85.333s85.333,38.281,85.333,85.333c0,4.719,3.823,8.533,8.533,8.533s8.533-3.814,8.533-8.533
			C358.4,45.935,312.465,0,256,0z"/>
	</g>
</g>
<g>
	<g>
		<path d="M256,34.133c-37.641,0-68.267,30.626-68.267,68.267c0,4.719,3.823,8.533,8.533,8.533s8.533-3.814,8.533-8.533
			c0-28.237,22.963-51.2,51.2-51.2c28.237,0,51.2,22.963,51.2,51.2c0,4.719,3.823,8.533,8.533,8.533s8.533-3.814,8.533-8.533
			C324.267,64.759,293.641,34.133,256,34.133z"/>
	</g>
</g>
<g>
	<g>
		<path d="M256,68.267c-18.825,0-34.133,15.309-34.133,34.133c0,4.719,3.823,8.533,8.533,8.533s8.533-3.814,8.533-8.533
			c0-9.412,7.654-17.067,17.067-17.067c9.412,0,17.067,7.654,17.067,17.067c0,4.719,3.823,8.533,8.533,8.533
			s8.533-3.814,8.533-8.533C290.133,83.575,274.825,68.267,256,68.267z"/>
	</g>
</g>
<g>
	<g>
		<path d="M256,409.6c-28.237,0-51.2,22.963-51.2,51.2c0,28.237,22.963,51.2,51.2,51.2s51.2-22.963,51.2-51.2
			C307.2,432.563,284.237,409.6,256,409.6z M256,494.933c-18.825,0-34.133-15.309-34.133-34.133
			c0-18.825,15.309-34.133,34.133-34.133c18.825,0,34.133,15.309,34.133,34.133C290.133,479.625,274.825,494.933,256,494.933z"/>
	</g>
</g>
<g>
	<g>
		<path d="M213.333,452.267H8.533c-4.71,0-8.533,3.814-8.533,8.533c0,4.719,3.823,8.533,8.533,8.533h204.8
			c4.71,0,8.533-3.814,8.533-8.533C221.867,456.081,218.044,452.267,213.333,452.267z"/>
	</g>
</g>
<g>
	<g>
		<path d="M503.467,452.267h-204.8c-4.71,0-8.533,3.814-8.533,8.533c0,4.719,3.823,8.533,8.533,8.533h204.8
			c4.71,0,8.533-3.814,8.533-8.533C512,456.081,508.177,452.267,503.467,452.267z"/>
	</g>
</g>
<g>
	<g>
		<path d="M262.033,275.567c-3.337-3.337-8.73-3.337-12.066,0L181.7,343.834c-3.337,3.337-3.337,8.73,0,12.066
			c1.664,1.664,3.849,2.5,6.033,2.5c2.185,0,4.369-0.836,6.033-2.5l68.267-68.267C265.37,284.297,265.37,278.903,262.033,275.567z"
			/>
	</g>
</g>
<g>
	<g>
		<path d="M330.3,343.834c-3.337-3.337-8.73-3.337-12.066,0L249.967,412.1c-3.337,3.337-3.337,8.73,0,12.066
			c1.664,1.664,3.849,2.5,6.033,2.5c2.185,0,4.369-0.836,6.033-2.5L330.3,355.9C333.636,352.563,333.636,347.17,330.3,343.834z"/>
	</g>
</g>
<g>
	<g>
		<path d="M93.867,273.067h-51.2c-4.71,0-8.533,3.814-8.533,8.533v34.133c0,4.719,3.823,8.533,8.533,8.533h51.2
			c4.71,0,8.533-3.814,8.533-8.533V281.6C102.4,276.881,98.577,273.067,93.867,273.067z M85.333,307.2H51.2v-17.067h34.133V307.2z"
			/>
	</g>
</g>
<g>
	<g>
		<path d="M469.333,273.067h-51.2c-4.71,0-8.533,3.814-8.533,8.533v34.133c0,4.719,3.823,8.533,8.533,8.533h51.2
			c4.71,0,8.533-3.814,8.533-8.533V281.6C477.867,276.881,474.044,273.067,469.333,273.067z M460.8,307.2h-34.133v-17.067H460.8
			V307.2z"/>
	</g>
</g>
<g>
</g>
<g>
</g>
<g>
</g>
<g>
</g>
<g>
</g>
<g>
</g>
<g>
</g>
<g>
</g>
<g>
</g>
<g>
</g>
<g>
</g>
<g>
</g>
<g>
</g>
<g>
</g>
<g>
</g>
</svg>
