<svg height="512pt" viewBox="-26 0 512 512.00002" width="512pt" xmlns="http://www.w3.org/2000/svg"><path d="m136.535156 25.601562h187.730469v203.859376h-187.730469zm0 0" fill="#c6a16f"/><path d="m324.265625 229.460938h-187.730469c96.851563-17.261719 171.789063-94.570313 186.023438-191.914063l1.707031-11.945313zm0 0" fill="#896942"/><path d="m256 93.867188-25.601562-25.601563-25.597657 25.601563v-85.332032h51.199219zm0 0" fill="#e8d8bf"/><path d="m213.332031 119.464844h34.132813v17.070312h-34.132813zm0 0" fill="#896942"/><g fill="#c6a16f"><path d="m25.601562 428.816406h34.132813v47.847656h-34.132813zm0 0"/><path d="m213.332031 428.816406h34.132813v47.847656h-34.132813zm0 0"/><path d="m401.066406 428.816406h34.132813v47.847656h-34.132813zm0 0"/><path d="m42.667969 213.332031h375.464843v199.578125h-375.464843zm0 0"/></g><path d="m230.398438 412.910156h-187.730469c96.988281-17.746094 171.996093-95.140625 186.691406-192.640625l1.039063-6.9375zm0 0" fill="#896942"/><path d="m418.132812 412.910156h-187.734374c100.117187-14.054687 177.5625-94.875 187.34375-195.496094l.390624-4.082031zm0 0" fill="#896942"/><path d="m349.867188 298.667969-25.601563-25.601563-25.597656 25.601563v-85.335938h51.199219zm0 0" fill="#e8d8bf"/><path d="m162.132812 298.667969-25.597656-25.601563-25.601562 25.601563v-85.335938h51.199218zm0 0" fill="#e8d8bf"/><path d="m307.199219 324.265625h34.132812v17.066406h-34.132812zm0 0" fill="#896942"/><path d="m119.46875 324.265625h34.132812v17.066406h-34.132812zm0 0" fill="#896942"/><path d="m8.535156 469.332031h443.730469v34.132813h-443.730469zm0 0" fill="#ffd789"/><path d="m8.535156 401.066406h443.730469v34.132813h-443.730469zm0 0" fill="#ffd789"/><path d="m8.535156 460.800781c-4.714844 0-8.535156 3.820313-8.535156 8.53125v34.132813c0 4.714844 3.820312 8.535156 8.535156 8.535156h443.730469c4.714844 0 8.535156-3.820312 8.535156-8.535156v-34.132813c0-4.710937-3.820312-8.53125-8.535156-8.53125h-8.53125v-17.066406h8.53125c4.714844 0 8.535156-3.820313 8.535156-8.535156v-34.132813c0-4.710937-3.820312-8.53125-8.535156-8.53125h-25.597656v-179.203125c0-4.710937-3.820313-8.53125-8.535157-8.53125h-85.332031v-179.199219c0-4.714843-3.820312-8.535156-8.535156-8.535156h-59.730469v-8.53125c0-4.714844-3.820312-8.535156-8.535156-8.535156h-51.199219c-4.714843 0-8.535156 3.820312-8.535156 8.535156v8.53125h-59.730469c-4.714844 0-8.535156 3.820313-8.535156 8.535156v179.199219h-85.332031c-4.714844 0-8.535157 3.820313-8.535157 8.53125v179.203125h-25.597656c-4.714844 0-8.535156 3.820313-8.535156 8.53125v34.132813c0 4.714843 3.820312 8.535156 8.535156 8.535156h8.53125v17.066406zm341.332032-153.601562c1.121093.003906 2.234374-.214844 3.269531-.648438 3.1875-1.320312 5.265625-4.433593 5.261719-7.882812v-76.800781h51.203124v170.664062h-170.667968v-170.664062h51.199218v76.800781c.003907 4.710937 3.824219 8.53125 8.535157 8.53125 2.261719 0 4.433593-.898438 6.03125-2.5l19.566406-19.574219 19.570313 19.566406c1.597656 1.601563 3.765624 2.507813 6.03125 2.507813zm-8.535157-85.332031v56.199218l-11.03125-11.03125c-3.332031-3.332031-8.734375-3.332031-12.066406 0l-11.035156 11.023438v-56.191406zm-128-204.800782h34.132813v56.199219l-11.03125-11.039063c-3.332032-3.332031-8.734375-3.332031-12.066406 0l-11.035157 11.03125zm-68.265625 17.066406h51.199219v59.734376c.003906 4.710937 3.824219 8.53125 8.535156 8.53125 2.261719 0 4.433594-.898438 6.03125-2.5l19.566407-19.574219 19.570312 19.566406c3.332031 3.332031 8.734375 3.332031 12.066406 0 1.597656-1.597656 2.496094-3.765625 2.5-6.023437v-59.734376h51.199219v170.667969h-170.667969zm-25.597656 187.734376h34.132812v56.199218l-11.035156-11.03125c-3.332031-3.332031-8.734375-3.332031-12.066406 0l-11.03125 11.023438zm-68.269531 0h51.199219v76.800781c.003906 4.710937 3.824218 8.53125 8.539062 8.53125 2.261719 0 4.429688-.898438 6.03125-2.5l19.566406-19.574219 19.566406 19.566406c3.332032 3.332032 8.734376 3.332032 12.066407-.003906 1.597656-1.597656 2.496093-3.761719 2.5-6.019531v-76.800781h51.199219v170.664062h-170.667969zm-34.132813 187.734374h426.667969v17.066407h-426.667969zm409.601563 34.132813v17.066406h-17.066407v-17.066406zm-34.132813 0v17.066406h-136.535156v-17.066406zm-153.601562 0v17.066406h-17.066406v-17.066406zm-34.132813 0v17.066406h-136.535156v-17.066406zm-153.601562 0v17.066406h-17.066407v-17.066406zm-25.597657 34.132813h418.132813v17.066406h-426.667969v-17.066406zm0 0"/><path d="m213.332031 119.457031h34.132813v17.066407h-34.132813zm0 0"/><path d="m307.199219 324.257812h34.132812v17.066407h-34.132812zm0 0"/><path d="m119.46875 324.257812h34.132812v17.066407h-34.132812zm0 0"/></svg>