<svg height="512pt" viewBox="-102 0 512 512" width="512pt" xmlns="http://www.w3.org/2000/svg"><path d="m274.105469 153.902344-17.832031-10.90625v-38.957032h21.875v-104.039062h-247.425782v104.039062h21.871094v38.957032l-17.828125 10.90625c-21.445313 13.121094-34.765625 36.886718-34.765625 62.027344v296.070312h308.867188v-296.070312c.003906-25.140626-13.316407-48.90625-34.761719-62.027344zm4.890625 246.085937h-134.761719v-130.148437h134.761719zm-218.402344-370.117187h187.679688v44.296875h-187.679688zm165.808594 74.167968v32.390626h-143.933594v-32.390626zm-196.53125 378.089844v-266.199218c0-14.8125 7.851562-28.816407 20.484375-36.542969l21.382812-13.082031h165.394531l21.382813 13.082031c12.632813 7.726562 20.480469 21.730469 20.480469 36.542969v24.039062h-164.632813v189.890625h164.632813v52.269531zm0 0"/></svg>