<?xml version="1.0" encoding="iso-8859-1"?>
<!-- Generator: Adobe Illustrator 19.0.0, SVG Export Plug-In . SVG Version: 6.00 Build 0)  -->
<svg version="1.1" id="Capa_1" xmlns="http://www.w3.org/2000/svg" xmlns:xlink="http://www.w3.org/1999/xlink" x="0px" y="0px"
	 viewBox="0 0 512 512" style="enable-background:new 0 0 512 512;" xml:space="preserve">
<path style="fill:#F9644B;" d="M496.235,70.741h-90.638V7.489h90.638c0.767,0,1.245,0.831,0.86,1.494l-17.222,29.632
	c-0.18,0.309-0.18,0.69,0,0.999l17.222,29.632C497.48,69.91,497.002,70.741,496.235,70.741z"/>
<path style="fill:#C1D15D;" d="M81.195,319.795c-36.685,0-66.423,29.739-66.423,66.423c0,65.954,66.423,118.292,66.423,118.292
	s66.423-52.338,66.423-118.292C147.619,349.534,117.88,319.795,81.195,319.795z M81.195,419.834
	c-18.565,0-33.615-15.05-33.615-33.615s15.05-33.615,33.615-33.615s33.615,15.05,33.615,33.615
	C114.811,404.784,99.761,419.834,81.195,419.834z"/>
<path style="fill:#B5BF4C;" d="M81.195,319.795c-8.162,0-15.976,1.48-23.198,4.172c15.214,5.672,27.786,16.758,35.377,30.92
	c12.543,4.879,21.437,17.063,21.437,31.331c0,12.902-7.272,24.1-17.937,29.735c-7.801,27.093-24.683,50.27-38.876,66.113
	c12.671,14.144,23.198,22.444,23.198,22.444s66.423-52.338,66.423-118.292C147.619,349.534,117.88,319.795,81.195,319.795z"/>
<path style="fill:#DB3F2E;" d="M497.095,8.983c0.385-0.663-0.093-1.494-0.86-1.494h-45.463V70.74h45.463
	c0.767,0,1.245-0.831,0.86-1.494l-17.222-29.632c-0.18-0.309-0.18-0.69,0-0.999L497.095,8.983z"/>
<path d="M92.409,140.916c1.313,0.927,2.821,1.373,4.315,1.373c2.35,0,4.664-1.103,6.123-3.168
	c10.242-14.496,25.406-24.403,42.699-27.895c4.055-0.819,6.677-4.769,5.859-8.823s-4.768-6.676-8.823-5.859
	c-21.055,4.252-39.51,16.303-51.968,33.934C88.227,133.856,89.031,138.53,92.409,140.916z"/>
<path d="M239.593,247.989c-4.136,0-7.489,3.354-7.488,7.49c0,4.136,3.354,7.489,7.49,7.488l57.917-0.006
	c4.136,0,7.488-3.354,7.488-7.49c0-4.137-3.354-7.489-7.49-7.489L239.593,247.989z"/>
<path d="M101.523,236.645c1.744,0,3.495-0.605,4.913-1.839c3.121-2.715,3.449-7.445,0.734-10.566
	c-10.923-12.555-16.939-28.647-16.939-45.313c0-0.942,0.019-1.879,0.056-2.811c0.164-4.133-3.053-7.617-7.186-7.781
	c-4.129-0.17-7.617,3.053-7.781,7.186c-0.045,1.133-0.068,2.279-0.068,3.406c0,20.279,7.322,39.862,20.617,55.144
	C97.351,235.774,99.431,236.645,101.523,236.645z"/>
<path d="M187.894,109.858h57.917c4.136,0,7.489-3.353,7.489-7.489s-3.353-7.489-7.489-7.489h-57.917
	c-4.136,0-7.489,3.353-7.489,7.489C180.405,106.505,183.758,109.858,187.894,109.858z"/>
<path d="M289.748,109.858h57.917c4.137,0,7.489-3.353,7.489-7.489s-3.353-7.489-7.489-7.489h-57.917
	c-4.137,0-7.489,3.353-7.489,7.489C282.259,106.505,285.611,109.858,289.748,109.858z"/>
<path d="M387.892,296.893c1.435,0,2.886-0.412,4.168-1.273c3.435-2.306,4.348-6.959,2.043-10.393
	c-12.034-17.92-30.196-30.408-51.144-35.163c-4.033-0.918-8.045,1.612-8.961,5.646s1.611,8.046,5.645,8.961
	c17.205,3.906,32.13,14.172,42.024,28.906C383.112,295.73,385.48,296.893,387.892,296.893z"/>
<path d="M341.891,398.834c-5.715,1.502-11.641,2.264-17.611,2.264h-38.181c-4.137,0-7.489,3.353-7.489,7.489
	s3.353,7.489,7.489,7.489h38.181c7.254,0,14.461-0.927,21.419-2.755c4-1.052,6.391-5.146,5.34-9.147
	C349.987,400.174,345.892,397.785,341.891,398.834z"/>
<path d="M242.162,401.098h-56.598c-4.136,0-7.489,3.353-7.489,7.489s3.353,7.489,7.489,7.489h56.598
	c4.136,0,7.489-3.353,7.489-7.489S246.298,401.098,242.162,401.098z"/>
<path d="M400.83,323.254c-0.04,0-0.081,0-0.122,0.001c-4.136,0.066-7.435,3.472-7.368,7.608c0.006,0.388,0.01,0.777,0.01,1.166
	c0,17.269-6.405,33.798-18.035,46.542c-2.788,3.055-2.572,7.792,0.484,10.581c1.436,1.311,3.244,1.957,5.046,1.957
	c2.031,0,4.057-0.822,5.534-2.441c14.154-15.51,21.949-35.625,21.949-56.639c0-0.469-0.004-0.938-0.012-1.405
	C408.251,326.528,404.911,323.254,400.83,323.254z"/>
<path d="M203.146,255.482c0-4.136-3.354-7.489-7.49-7.488l-36.356,0.004c-6.529,0-12.988-0.908-19.196-2.701
	c-3.98-1.145-8.126,1.145-9.272,5.119c-1.147,3.974,1.144,8.126,5.118,9.273c7.559,2.181,15.415,3.288,23.351,3.288l36.357-0.004
	C199.794,262.971,203.147,259.618,203.146,255.482z"/>
<path d="M81.195,427.323c22.665,0,41.105-18.439,41.105-41.105s-18.44-41.105-41.105-41.105S40.09,363.552,40.09,386.218
	S58.53,427.323,81.195,427.323z M81.195,360.092c14.406,0,26.127,11.72,26.127,26.126s-11.721,26.126-26.127,26.126
	s-26.126-11.72-26.126-26.126S66.789,360.092,81.195,360.092z"/>
<path d="M81.195,312.306c-40.755,0-73.912,33.157-73.912,73.913c0,14.207,2.896,28.848,8.607,43.516
	c1.501,3.854,5.841,5.763,9.696,4.261c3.854-1.5,5.762-5.842,4.261-9.696c-5.034-12.929-7.586-25.742-7.586-38.082
	c0-32.496,26.438-58.934,58.934-58.934s58.934,26.438,58.934,58.934c0,51.572-44.309,95.387-58.945,108.45
	c-7.49-6.657-22.718-21.312-35.812-40.975c-2.294-3.442-6.943-4.375-10.385-2.082c-3.443,2.293-4.375,6.942-2.082,10.385
	c9.775,14.678,20.534,26.654,28.93,35.026H36.528c-4.136,0-7.489,3.353-7.489,7.489c0,4.136,3.353,7.489,7.489,7.489h89.334
	c4.136,0,7.489-3.353,7.489-7.489c0-4.136-3.353-7.489-7.489-7.489h-25.25c20.382-20.252,54.495-61.509,54.495-110.803
	C155.108,345.463,121.951,312.306,81.195,312.306z"/>
<path d="M488.244,39.115l15.326-26.368c1.52-2.616,1.528-5.871,0.019-8.494C502.079,1.63,499.261,0,496.235,0h-45.463
	c-4.137,0-7.489,3.353-7.489,7.489s3.353,7.489,7.489,7.489h34.176l-11.551,19.873c-1.528,2.63-1.528,5.897,0,8.526l11.551,19.874
	h-71.862V14.979h2.84c4.137,0,7.489-3.353,7.489-7.489S420.062,0,415.926,0h-10.329c-4.137,0-7.489,3.353-7.489,7.489l0,0v168.279
	h-20.37c-4.137,0-7.489,3.353-7.489,7.489s3.353,7.489,7.489,7.489h55.719c4.137,0,7.489-3.353,7.489-7.489
	s-3.353-7.489-7.489-7.489h-20.37V78.23h83.149c3.026,0,5.843-1.63,7.353-4.253s1.502-5.878-0.019-8.494L488.244,39.115z"/>
<g>
</g>
<g>
</g>
<g>
</g>
<g>
</g>
<g>
</g>
<g>
</g>
<g>
</g>
<g>
</g>
<g>
</g>
<g>
</g>
<g>
</g>
<g>
</g>
<g>
</g>
<g>
</g>
<g>
</g>
</svg>
