<svg width="640" height="480" xmlns="http://www.w3.org/2000/svg" xmlns:svg="http://www.w3.org/2000/svg" xmlns:xlink="http://www.w3.org/1999/xlink">
 <defs>
  <pattern id="gridpattern" patternUnits="userSpaceOnUse" x="0" y="0" width="100" height="100">
   <image id="svg_46" x="0" y="0" width="100" height="100"/>
  </pattern>
  <symbol id="svg_28" viewBox="0 0 512 512" xmlns="http://www.w3.org/2000/svg" xmlns:xlink="http://www.w3.org/1999/xlink">
   <g id="svg_1">
    <g id="svg_2">
     <path fill="#FFF" id="svg_3" d="m491.729,112.971l-232.468,-112.226c-2.061,-0.994 -4.461,-0.994 -6.521,0l-232.469,112.226c-2.592,1.251 -4.239,3.876 -4.239,6.754l0,272.549c0,2.878 1.647,5.503 4.239,6.754l232.468,112.226c1.03,0.497 2.146,0.746 3.261,0.746s2.23,-0.249 3.261,-0.746l232.468,-112.226c2.592,-1.251 4.239,-3.876 4.239,-6.754l0,-272.548c0,-2.88 -1.648,-5.503 -4.239,-6.755zm-235.729,-97.143l215.217,103.897l-62.387,30.118c-0.395,-0.301 -0.812,-0.579 -1.27,-0.8l-213.755,-103.19l62.195,-30.025zm-79.133,38.505l214.904,103.746l-44.015,21.249l-214.815,-103.704l43.926,-21.291zm219.932,117.974l0,78.546l-41.113,19.848l0,-78.546l41.113,-19.848zm84.169,215.261l-217.468,104.982l0,-255.892l51.873,-25.042c3.73,-1.801 5.294,-6.284 3.493,-10.015c-1.801,-3.729 -6.284,-5.295 -10.015,-3.493l-52.851,25.515l-20.796,-10.04c-3.731,-1.803 -8.214,-0.237 -10.015,3.493c-1.801,3.73 -0.237,8.214 3.493,10.015l19.818,9.567l0,255.892l-217.468,-104.984l0,-255.892l165.6,79.945c1.051,0.508 2.162,0.748 3.255,0.748c2.788,0 5.466,-1.562 6.759,-4.241c1.801,-3.73 0.237,-8.214 -3.493,-10.015l-162.37,-78.386l74.505,-35.968l225.294,108.763c0.033,0.046 0.07,0.087 0.104,0.132l0,89.999c0,2.581 1.327,4.98 3.513,6.353c1.214,0.762 2.599,1.147 3.988,1.147c1.112,0 2.227,-0.247 3.26,-0.746l56.113,-27.089c2.592,-1.251 4.239,-3.875 4.239,-6.754l0,-90.495l69.169,-33.392l0,255.893z"/>
    </g>
   </g>
   <g id="svg_5">
    <g id="svg_6">
     <path fill="#FFF" id="svg_7" d="m92.926,358.479l-34.115,-16.469c-3.732,-1.803 -8.214,-0.237 -10.015,3.493c-1.801,3.73 -0.237,8.214 3.493,10.015l34.115,16.469c1.051,0.508 2.162,0.748 3.255,0.748c2.788,0 5.466,-1.562 6.759,-4.241c1.802,-3.731 0.238,-8.213 -3.492,-10.015z"/>
    </g>
   </g>
   <g id="svg_9">
    <g id="svg_10">
     <path fill="#FFF" id="svg_11" d="m124.323,338.042l-65.465,-31.604c-3.731,-1.801 -8.214,-0.237 -10.015,3.494c-1.8,3.73 -0.236,8.214 3.494,10.015l65.465,31.604c1.051,0.507 2.162,0.748 3.255,0.748c2.788,0 5.466,-1.562 6.759,-4.241c1.801,-3.732 0.237,-8.216 -3.493,-10.016z"/>
    </g>
   </g>
   <g id="svg_12"/>
   <g id="svg_13"/>
   <g id="svg_14"/>
   <g id="svg_15"/>
   <g id="svg_16"/>
   <g id="svg_17"/>
   <g id="svg_18"/>
   <g id="svg_19"/>
   <g id="svg_20"/>
   <g id="svg_21"/>
   <g id="svg_22"/>
   <g id="svg_23"/>
   <g id="svg_24"/>
   <g id="svg_25"/>
   <g id="svg_26"/>
  </symbol>
  <symbol id="svg_32" viewBox="0 0 511.993 511.993" xmlns="http://www.w3.org/2000/svg" xmlns:xlink="http://www.w3.org/1999/xlink">
   <g id="svg_27">
    <g id="svg_31">
     <g id="svg_36">
      <path fill="#FFF" id="svg_37" d="m221.38,396.11l-79.253,-91.2l79.253,-91.136c3.499,-4.011 3.499,-9.984 0,-13.995l-79.232,-91.072l79.232,-91.051c3.883,-4.437 3.413,-11.179 -1.045,-15.04c-4.416,-3.883 -11.157,-3.371 -15.04,1.045l-85.333,98.048c-3.499,4.011 -3.499,9.984 0,13.995l79.232,91.072l-79.253,91.136c-3.499,4.011 -3.499,9.984 0,13.995l79.253,91.2l-79.253,91.2c-3.861,4.48 -3.392,11.2 1.067,15.061c2.027,1.771 4.501,2.624 6.997,2.624c2.987,0 5.952,-1.259 8.043,-3.669l85.333,-98.219c3.497,-4.01 3.497,-9.983 -0.001,-13.994z"/>
      <path fill="#FFF" id="svg_38" d="m306.713,396.11l-79.253,-91.2l79.253,-91.136c3.499,-4.011 3.499,-9.984 0,-13.995l-79.232,-91.072l79.232,-91.051c3.883,-4.437 3.413,-11.179 -1.045,-15.04c-4.437,-3.883 -11.179,-3.371 -15.04,1.045l-85.333,98.048c-3.499,4.011 -3.499,9.984 0,13.995l79.232,91.072l-79.253,91.136c-3.499,4.011 -3.499,9.984 0,13.995l79.253,91.2l-79.253,91.2c-3.861,4.459 -3.392,11.179 1.045,15.04c2.048,1.792 4.523,2.645 7.019,2.645c2.987,0 5.952,-1.259 8.043,-3.669l85.333,-98.219c3.497,-4.01 3.497,-9.983 -0.001,-13.994z"/>
      <path fill="#FFF" id="svg_39" d="m392.046,199.779l-79.232,-91.072l79.232,-91.051c3.883,-4.437 3.413,-11.179 -1.045,-15.04c-4.416,-3.883 -11.157,-3.371 -15.04,1.045l-85.333,98.048c-3.499,4.011 -3.499,9.984 0,13.995l79.232,91.072l-79.253,91.136c-3.499,4.011 -3.499,9.984 0,13.995l79.253,91.2l-79.253,91.2c-3.861,4.459 -3.392,11.179 1.045,15.04c2.048,1.792 4.523,2.645 7.019,2.645c2.987,0 5.952,-1.259 8.043,-3.669l85.333,-98.219c3.499,-4.011 3.499,-9.984 0,-13.995l-79.253,-91.2l79.253,-91.136c3.498,-4.01 3.498,-9.983 -0.001,-13.994z"/>
     </g>
    </g>
   </g>
   <g id="svg_40"/>
   <g id="svg_41"/>
   <g id="svg_42"/>
   <g id="svg_43"/>
   <g id="svg_44"/>
   <g id="svg_45"/>
   <g id="svg_47"/>
   <g id="svg_48"/>
   <g id="svg_49"/>
   <g id="svg_50"/>
   <g id="svg_51"/>
   <g id="svg_52"/>
   <g id="svg_53"/>
   <g id="svg_54"/>
   <g id="svg_55"/>
  </symbol>
 </defs>
 <g>
  <title>Layer 1</title>
  <g id="svg_8"/>
  <g id="svg_30"/>
  <g id="svg_34"/>
  <g stroke="null" id="svg_56">
   <use fill="#FFF" stroke="null" id="svg_33" xlink:href="#svg_32" transform="matrix(0.46764830550967484,0,0,0.46764830550967484,-129.36098888892414,-112.09207991101184) " y="524.792863" x="1163.71748"/>
   <use fill="#FFF" stroke="null" id="svg_29" xlink:href="#svg_28" transform="matrix(0.7070273607385205,0,0,0.7070273607385205,-453.62531915801674,-486.6824050244122) " y="811.012054" x="768.656517"/>
   <use fill="#FFF" stroke="null" xlink:href="#svg_32" transform="matrix(0.46764830550967484,0,0,0.46764830550967484,-129.36098888892414,-112.09207991101184) " y="519.457242" x="102.393769" id="svg_35"/>
  </g>
 </g>
</svg>