<svg width="640" height="479.99999999999994" xmlns="http://www.w3.org/2000/svg" xmlns:svg="http://www.w3.org/2000/svg" xmlns:xlink="http://www.w3.org/1999/xlink">
 <defs>
  <pattern id="gridpattern" patternUnits="userSpaceOnUse" x="0" y="0" width="100" height="100">
   <image id="svg_46" x="0" y="0" width="100" height="100"/>
  </pattern>
  <symbol viewBox="0 0 512.00017 512" id="svg_42" xmlns="http://www.w3.org/2000/svg">
   <path id="svg_1" d="m502,0l-492,0c-3.44141,0 -6.64453,1.76953 -8.47266,4.6875c-1.82812,2.91797 -2.02734,6.57031 -0.52734,9.66797l88.02734,181.93359l-68.24218,161.82813c-1.23828,2.9414 -1,6.29687 0.64062,9.03125l27.02735,45.00781l-47.19532,84.98828c-1.71875,3.09766 -1.67187,6.875 0.125,9.92969c1.79688,3.05078 5.07422,4.92578 8.61719,4.92578l492,0c5.52344,0 10,-4.47656 10,-10l0,-492c0,-5.52344 -4.47656,-10 -10,-10zm-327,20l162,0l0,56.91797l-15.16016,-14.21484c-3.9375,-3.6875 -10.09375,-3.59375 -13.91015,0.22656l-22.92969,22.92578l-22.92969,-22.92578c-3.90234,-3.90625 -10.23437,-3.90625 -14.14062,0l-22.92969,22.92578l-22.92969,-22.92578c-1.875,-1.875 -4.41797,-2.92969 -7.07031,-2.92969s-5.19531,1.05469 -7.07031,2.92969l-12.92969,12.92578l0,-55.85547zm-95.33984,249.97266l46.63672,24.85156c4.77343,2.54687 10.70703,0.83203 13.38671,-3.86719l40.15235,-70.37109l60.96875,48.7539c0.58203,0.46485 1.20312,0.85547 1.85156,1.17188l-12.23828,13.46484l-39.42969,-17.14453c-4.6875,-2.03906 -10.16015,-0.21484 -12.68359,4.23047l-41.5586,73.17969l-74.6914,-32.51953l17.60547,-41.75zm412.33984,222.02734l-465.00781,0l35.55078,-64.01953s44.52734,41.23047 44.66406,41.35547c2.28125,2.11328 6.23438,3.17187 9.39453,2.32031l52,-14c5.33203,-1.4375 8.49219,-6.92188 7.05469,-12.25781c-1.43359,-5.33203 -6.92187,-8.48828 -12.25391,-7.05469l-46.66406,12.5625l-48.84765,-45.23047l-26.70313,-44.46875l13.09766,-31.05859l79.8789,34.78125s23.27344,37.23437 23.35547,37.36718c1.67188,2.67188 5.17188,4.70313 8.5,4.70313c1.71875,0 3.41016,-0.45313 4.91016,-1.30078c0,0 45.92578,-26.00781 45.96875,-26.03125c4.48437,-2.53906 6.42187,-8.97266 3.77344,-13.62891c-2.62891,-4.62109 -8.9961,-6.39062 -13.62891,-3.78125l-37.64063,21.32031l-16.76171,-26.82421l38.61718,-68l37.75391,16.41406c3.92969,1.70703 8.50781,0.72656 11.38672,-2.44141l50,-55c3.3125,-3.64062 3.48047,-9.14844 0.40234,-12.98437c-3.07422,-3.83594 -8.48437,-4.86719 -12.75781,-2.42578l-30.05078,17.15625l-64.79688,-51.8125c-2.28515,-1.82422 -5.2539,-2.5586 -8.125,-2.01172c-2.87109,0.54687 -5.35937,2.32812 -6.80859,4.86718l-41.13281,72.08985l-39.66407,-21.13672l21.75,-51.57813c1.11719,-2.65234 1.03907,-5.65234 -0.21484,-8.24218l-31.76172,-65.64844l43.33594,0l23.03906,35.44922c2.69531,4.14844 8.01953,5.69922 12.52344,3.65234l28.07812,-12.76172s66.3086,42.02735 66.42969,42.10547c3.23047,2.04688 7.78906,2.04297 11.07031,-0.24219l19.0625,-13.28515s51.53907,51.54297 51.64844,51.65234c3.60938,3.60938 10.3711,3.76953 14.14453,0c3.90625,-3.90625 3.90625,-10.23828 0,-14.14453l-49.125,-49.125l30.26953,-21.09766c4.53125,-3.16015 5.64453,-9.39062 2.48828,-13.92187c-3.16015,-4.53125 -9.39453,-5.64453 -13.92187,-2.48828l-60.54688,42.19922l-65.38281,-41.44141c-2.85156,-1.80469 -6.41797,-2.05078 -9.49219,-0.65625l-25.16796,11.44141l-21.3086,-32.78907c-1.84765,-2.83593 -5,-4.54687 -8.38672,-4.54687l-58.4375,0l-41.60937,-86l129.05078,0l0,80c0,5.13281 4.77344,10 10,10c2.60156,0 5.16016,-1.01563 7.07031,-2.92969l22.92969,-22.92578s22.83203,22.83203 22.92969,22.92578c3.70703,3.70703 10.30468,3.83594 14.14062,0l22.92969,-22.92969s22.84766,22.84766 22.92969,22.92969c3.80468,3.8086 10.36328,3.78125 14.14062,0l23.15235,-23.15234l24.9375,23.3789c2.90625,2.72266 7.15625,3.46485 10.8164,1.87891c3.65625,-1.58594 6.02344,-5.1875 6.02344,-9.17578l0,-80l135,0l0,472zm0,0"/>
   <path id="svg_2" d="m282,342l0,120c0,5.52344 4.47656,10 10,10l170,0c5.52344,0 10,-4.47656 10,-10l0,-120c0,-5.52344 -4.47656,-10 -10,-10l-170,0c-5.52344,0 -10,4.47656 -10,10zm20,10l150,0l0,100l-150,0l0,-100zm0,0"/>
   <path id="svg_4" d="m332,392c5.51172,0 10,-4.48828 10,-10s-4.48828,-10 -10,-10s-10,4.48828 -10,10s4.48828,10 10,10zm0,0"/>
   <path id="svg_6" d="m422,372l-50,0c-5.51172,0 -10,4.48828 -10,10s4.48828,10 10,10l50,0c5.51172,0 10,-4.48828 10,-10s-4.48828,-10 -10,-10zm0,0"/>
   <path id="svg_7" d="m422,412l-90,0c-5.52344,0 -10,4.47656 -10,10s4.47656,10 10,10l90,0c5.52344,0 10,-4.47656 10,-10s-4.47656,-10 -10,-10zm0,0"/>
   <path id="svg_8" d="m257,351c0,5.52344 -4.47656,10 -10,10s-10,-4.47656 -10,-10s4.47656,-10 10,-10s10,4.47656 10,10zm0,0"/>
  </symbol>
  <pattern height="100" width="100" y="0" x="0" patternUnits="userSpaceOnUse" id="gridpattern">
   <image height="100" width="100" y="0" x="0"/>
  </pattern>
 </defs>
 <g>
  <title>Layer 1</title>
  <g id="svg_5"/>
  <g transform="rotate(166.64288330078125 0,0) " id="svg_9"/>
  <g id="svg_3"/>
  <g id="svg_10"/>
  <g id="svg_14"/>
  <ellipse fill="#e5e5e5" stroke-width="0" cx="314" cy="239" id="svg_13" rx="236" ry="237" stroke="#000000"/>
  <use id="svg_43" xlink:href="#svg_42" transform="matrix(0.49890267941882416,0,0,0.5327262808497307,-55.957422060549334,-40.28575845791687) " y="269.07079" x="404.69665"/>
  <g id="svg_44"/>
 </g>
</svg>