<?xml version="1.0" encoding="iso-8859-1"?>
<!-- Generator: Adobe Illustrator 19.0.0, SVG Export Plug-In . SVG Version: 6.00 Build 0)  -->
<svg version="1.1" id="Capa_1" xmlns="http://www.w3.org/2000/svg" xmlns:xlink="http://www.w3.org/1999/xlink" x="0px" y="0px"
	 viewBox="0 0 512.007 512.007" style="enable-background:new 0 0 512.007 512.007;" xml:space="preserve">
<g>
	<g>
		<g>
			<path d="M279.276,329.891V186.182c0-12.853-10.42-23.273-23.273-23.273c-12.853,0-23.273,10.42-23.273,23.273v143.709
				c-36.354,12.853-55.406,52.744-42.552,89.098c12.853,36.354,52.744,55.406,89.098,42.552
				c36.354-12.853,55.406-52.744,42.552-89.098C314.799,352.561,299.159,336.921,279.276,329.891z"/>
			<path d="M349.094,325.818c-6.616-8.821-14.452-16.657-23.273-23.273V69.818C325.822,31.259,294.563,0,256.003,0
				s-69.818,31.259-69.818,69.818v232.727c-51.413,38.56-61.832,111.496-23.273,162.909c38.56,51.413,111.496,61.832,162.909,23.273
				S387.654,377.231,349.094,325.818z M336.363,442.347c-16.624,28.659-47.228,46.322-80.359,46.381
				c-51.413-0.091-93.017-41.843-92.926-93.255c0.059-33.131,17.722-63.735,46.381-80.359V69.818
				c0-25.706,20.839-46.545,46.545-46.545s46.545,20.839,46.545,46.545v245.295C347.021,340.91,362.16,397.875,336.363,442.347z"/>
		</g>
	</g>
</g>
<g>
</g>
<g>
</g>
<g>
</g>
<g>
</g>
<g>
</g>
<g>
</g>
<g>
</g>
<g>
</g>
<g>
</g>
<g>
</g>
<g>
</g>
<g>
</g>
<g>
</g>
<g>
</g>
<g>
</g>
</svg>
