<svg height="512pt" viewBox="0 0 512 512" width="512pt" xmlns="http://www.w3.org/2000/svg"><path d="m437.332031 277.332031v74.667969h-405.332031c-11.765625-.035156-21.296875-9.566406-21.332031-21.332031v-53.335938zm0 0" fill="#d0d7df"/><path d="m437.332031 149.332031v128h-426.664062v-245.332031c.035156-11.765625 9.566406-21.296875 21.332031-21.332031h384c11.765625.035156 21.296875 9.566406 21.332031 21.332031zm0 0" fill="#49aaee"/><path d="m138.667969 352h117.332031v53.332031h-117.332031zm0 0" fill="#a4b0c0"/><path d="m181.332031 202.667969c0 11.78125-9.550781 21.332031-21.332031 21.332031s-21.332031-9.550781-21.332031-21.332031c0-11.785157 9.550781-21.335938 21.332031-21.335938s21.332031 9.550781 21.332031 21.335938zm0 0" fill="#f1f2f2"/><path d="m181.332031 96c0 11.78125-9.550781 21.332031-21.332031 21.332031s-21.332031-9.550781-21.332031-21.332031 9.550781-21.332031 21.332031-21.332031 21.332031 9.550781 21.332031 21.332031zm0 0" fill="#f1f2f2"/><path d="m384 352c-13.5625.066406-25.65625-8.515625-30.078125-21.332031-1.292969-3.40625-1.945313-7.023438-1.921875-10.667969v-8.640625c9.699219 5.695313 20.75 8.679687 32 8.640625l32-8.640625v8.640625c.023438 3.644531-.628906 7.261719-1.921875 10.667969-1.511719 4.511719-4.070313 8.605469-7.464844 11.945312-5.992187 6.011719-14.128906 9.386719-22.613281 9.386719zm0 0" fill="#feceae"/><path d="m352 311.359375c-19.804688-11.394531-32.007812-32.507813-32-55.359375v-32c8.542969.183594 16.789062-3.128906 22.828125-9.171875 6.042969-6.039063 9.355469-14.285156 9.171875-22.828125 0 0 0 32 96 32v32c.050781 16.980469-6.710938 33.273438-18.773438 45.226562l-13.226562 10.132813-32 8.640625c-11.25.039062-22.300781-2.945312-32-8.640625zm0 0" fill="#feceae"/><path d="m501.332031 416v85.332031h-117.332031v-149.332031c8.484375 0 16.621094-3.375 22.613281-9.386719 3.394531-3.339843 5.953125-7.433593 7.464844-11.945312h1.921875c47.128906 0 85.332031 38.203125 85.332031 85.332031zm0 0" fill="#35dc86"/><path d="m384 352v149.332031h-117.332031v-85.332031c0-47.128906 38.203125-85.332031 85.332031-85.332031h1.921875c4.421875 12.816406 16.515625 21.398437 30.078125 21.332031zm0 0" fill="#35dc86"/><path d="m320 224v21.332031h-10.667969v-53.332031c0-41.238281 33.429688-74.667969 74.667969-74.667969s74.667969 33.429688 74.667969 74.667969v53.332031h-10.667969v-21.332031c-96 0-96-32-96-32 .183594 8.542969-3.128906 16.789062-9.171875 22.828125-6.039063 6.042969-14.285156 9.355469-22.828125 9.171875zm0 0" fill="#768ba0"/><g fill="#474c54"><path d="m426.613281 320.617188c0-.210938.054688-.402344.054688-.617188v-3.371094l9.054687-6.933594c.371094-.277343.726563-.570312 1.066406-.882812 14.089844-13.953125 21.976563-32.984375 21.878907-52.8125 5.890625 0 10.664062-4.777344 10.664062-10.667969v-53.332031c0-47.128906-38.203125-85.332031-85.332031-85.332031s-85.332031 38.203125-85.332031 85.332031v53.332031c0 5.890625 4.773437 10.667969 10.664062 10.667969.070313 24.347656 12.015625 47.128906 32 61.035156v2.964844c0 .214844.054688.40625.054688.617188-48.578125 5.453124-85.324219 46.5-85.386719 95.382812v85.332031c0 5.890625 4.777344 10.667969 10.667969 10.667969h234.664062c5.890625 0 10.667969-4.777344 10.667969-10.667969v-85.332031c-.0625-48.882812-36.808594-89.929688-85.386719-95.382812zm-42.613281 20.714843c-8.578125-.039062-16.277344-5.273437-19.464844-13.234375 6.347656 1.707032 12.890625 2.570313 19.464844 2.570313.941406-.003907 1.875-.128907 2.785156-.375l17.683594-4.769531c-.140625.617187-.316406 1.226562-.523438 1.824218-1 2.921875-2.667968 5.566406-4.875 7.722656-3.984374 4.019532-9.410156 6.273438-15.070312 6.261719zm-64-149.332031c0-35.347656 28.652344-64 64-64s64 28.652344 64 64v21.332031c-77.78125 0-85.140625-21.332031-85.332031-21.332031 0-5.890625-4.777344-10.667969-10.667969-10.667969s-10.667969 4.777344-10.667969 10.667969c.371094 5.761719-1.757812 11.40625-5.839843 15.492188-4.085938 4.082031-9.730469 6.210937-15.492188 5.839843zm10.667969 64v-22.398438c10.59375-2.175781 19.785156-8.707031 25.320312-17.996093 12.800781 9.238281 36.746094 17.78125 81.34375 18.953125v21.441406c.066407 13.914062-5.382812 27.289062-15.15625 37.195312l-10.988281 8.414063-28.542969 7.722656c-8.917969-.199219-17.636719-2.683593-25.320312-7.210937-16.480469-9.515625-26.636719-27.09375-26.65625-46.121094zm-53.335938 160c.046875-39.390625 30.683594-71.96875 69.996094-74.433594 5.695313 9.757813 15.058594 16.828125 26.003906 19.628906v129.472657h-96zm213.335938 74.667969h-96v-129.515625c7.367187-1.851563 14.101562-5.652344 19.496093-10.996094 2.542969-2.5625 4.757813-5.429688 6.59375-8.535156 39.257813 2.507812 69.835938 35.042968 69.910157 74.378906zm0 0"/><path d="m160 170.667969c-16.289062-.070313-30.03125 12.113281-31.917969 28.292969-1.886719 16.179687 8.683594 31.195312 24.554688 34.878906 15.867187 3.679687 31.96875-5.148438 37.402343-20.507813h76.628907c4.3125 0 8.199219-2.597656 9.851562-6.582031 1.648438-3.988281.738281-8.574219-2.3125-11.625l-85.40625-85.417969c2.085938-4.269531 3.179688-8.957031 3.199219-13.707031 0-17.671875-14.328125-32-32-32s-32 14.328125-32 32 14.328125 32 32 32c4.75-.019531 9.4375-1.113281 13.707031-3.199219l67.199219 67.199219h-50.878906c-4.503906-12.734375-16.519532-21.273438-30.027344-21.332031zm-10.667969-74.667969c0-5.890625 4.777344-10.667969 10.667969-10.667969s10.667969 4.777344 10.667969 10.667969-4.777344 10.667969-10.667969 10.667969-10.667969-4.777344-10.667969-10.667969zm10.667969 117.332031c-5.890625 0-10.667969-4.773437-10.667969-10.664062s4.777344-10.667969 10.667969-10.667969 10.667969 4.777344 10.667969 10.667969-4.777344 10.664062-10.667969 10.664062zm0 0"/><path d="m21.332031 330.667969v-32h266.667969v-21.335938h-266.667969v-245.332031c0-5.890625 4.777344-10.667969 10.667969-10.667969h384c5.890625 0 10.667969 4.777344 10.667969 10.667969v64h21.332031v-64c0-17.671875-14.328125-32-32-32h-384c-17.671875 0-32 14.328125-32 32v298.667969c0 17.671875 14.328125 32 32 32h96v32h-32v21.332031h138.667969v-21.332031h-85.335938v-32h96v-21.335938h-213.332031c-5.890625 0-10.667969-4.773437-10.667969-10.664062zm0 0"/><path d="m64 74.667969c0-5.890625 4.777344-10.667969 10.667969-10.667969h21.332031v-21.332031h-21.332031c-17.675781 0-32 14.324219-32 32v21.332031h21.332031zm0 0"/><path d="m42.667969 117.332031h21.332031v21.335938h-21.332031zm0 0"/><path d="m330.667969 405.332031h21.332031v21.335938h-21.332031zm0 0"/><path d="m330.667969 448h21.332031v21.332031h-21.332031zm0 0"/><path d="m416 405.332031h21.332031v21.335938h-21.332031zm0 0"/><path d="m416 448h21.332031v21.332031h-21.332031zm0 0"/></g></svg>