<?xml version="1.0" encoding="iso-8859-1"?>
<!-- Generator: Adobe Illustrator 19.0.0, SVG Export Plug-In . SVG Version: 6.00 Build 0)  -->
<svg version="1.1" id="Capa_1" xmlns="http://www.w3.org/2000/svg" xmlns:xlink="http://www.w3.org/1999/xlink" x="0px" y="0px"
	 viewBox="0 0 511.993 511.993" style="enable-background:new 0 0 511.993 511.993;" xml:space="preserve">
<g>
	<g>
		<g>
			<path fill="#FFF" d="M221.38,396.11l-79.253-91.2l79.253-91.136c3.499-4.011,3.499-9.984,0-13.995l-79.232-91.072l79.232-91.051
				c3.883-4.437,3.413-11.179-1.045-15.04c-4.416-3.883-11.157-3.371-15.04,1.045l-85.333,98.048c-3.499,4.011-3.499,9.984,0,13.995
				l79.232,91.072l-79.253,91.136c-3.499,4.011-3.499,9.984,0,13.995l79.253,91.2l-79.253,91.2c-3.861,4.48-3.392,11.2,1.067,15.061
				c2.027,1.771,4.501,2.624,6.997,2.624c2.987,0,5.952-1.259,8.043-3.669l85.333-98.219
				C224.878,406.094,224.878,400.121,221.38,396.11z"/>
			<path fill="#FFF" d="M306.713,396.11l-79.253-91.2l79.253-91.136c3.499-4.011,3.499-9.984,0-13.995l-79.232-91.072l79.232-91.051
				c3.883-4.437,3.413-11.179-1.045-15.04c-4.437-3.883-11.179-3.371-15.04,1.045l-85.333,98.048c-3.499,4.011-3.499,9.984,0,13.995
				l79.232,91.072l-79.253,91.136c-3.499,4.011-3.499,9.984,0,13.995l79.253,91.2l-79.253,91.2
				c-3.861,4.459-3.392,11.179,1.045,15.04c2.048,1.792,4.523,2.645,7.019,2.645c2.987,0,5.952-1.259,8.043-3.669l85.333-98.219
				C310.211,406.094,310.211,400.121,306.713,396.11z"/>
			<path fill="#FFF" d="M392.046,199.779l-79.232-91.072l79.232-91.051c3.883-4.437,3.413-11.179-1.045-15.04
				c-4.416-3.883-11.157-3.371-15.04,1.045l-85.333,98.048c-3.499,4.011-3.499,9.984,0,13.995l79.232,91.072l-79.253,91.136
				c-3.499,4.011-3.499,9.984,0,13.995l79.253,91.2l-79.253,91.2c-3.861,4.459-3.392,11.179,1.045,15.04
				c2.048,1.792,4.523,2.645,7.019,2.645c2.987,0,5.952-1.259,8.043-3.669l85.333-98.219c3.499-4.011,3.499-9.984,0-13.995
				l-79.253-91.2l79.253-91.136C395.545,209.763,395.545,203.79,392.046,199.779z"/>
		</g>
	</g>
</g>
<g>
</g>
<g>
</g>
<g>
</g>
<g>
</g>
<g>
</g>
<g>
</g>
<g>
</g>
<g>
</g>
<g>
</g>
<g>
</g>
<g>
</g>
<g>
</g>
<g>
</g>
<g>
</g>
<g>
</g>
</svg>
