<?xml version="1.0" encoding="iso-8859-1"?>
<!-- Generator: Adobe Illustrator 19.0.0, SVG Export Plug-In . SVG Version: 6.00 Build 0)  -->
<svg version="1.1" id="Layer_1" xmlns="http://www.w3.org/2000/svg" xmlns:xlink="http://www.w3.org/1999/xlink" x="0px" y="0px"
	 viewBox="0 0 511.995 511.995" style="enable-background:new 0 0 511.995 511.995;" xml:space="preserve">
<g>
	<rect y="246.377" style="fill:#242D3C;" width="27.881" height="19.246"/>
	
		<rect x="12.542" y="304.718" transform="matrix(-0.2587 -0.966 0.966 -0.2587 -279.9055 422.5047)" style="fill:#242D3C;" width="19.255" height="27.877"/>
	
		<rect x="36.779" y="363.099" transform="matrix(-0.5 -0.866 0.866 -0.5 -256.9183 605.749)" style="fill:#242D3C;" width="19.248" height="27.88"/>
	
		<rect x="75.224" y="413.234" transform="matrix(-0.7071 -0.7071 0.7071 -0.7071 -157.2131 789.2285)" style="fill:#242D3C;" width="19.248" height="27.881"/>
	
		<rect x="125.347" y="451.706" transform="matrix(-0.866 -0.5 0.5 -0.866 19.0328 936.3795)" style="fill:#242D3C;" width="19.248" height="27.868"/>
	
		<rect x="183.755" y="475.888" transform="matrix(-0.9661 -0.2583 0.2583 -0.9661 253.6787 1012.9873)" style="fill:#242D3C;" width="19.249" height="27.884"/>
	<rect x="246.374" y="484.124" style="fill:#242D3C;" width="19.246" height="27.868"/>
	
		<rect x="304.738" y="480.207" transform="matrix(-0.259 -0.9659 0.9659 -0.259 -71.9058 924.5001)" style="fill:#242D3C;" width="27.879" height="19.252"/>
	
		<rect x="363.093" y="456.048" transform="matrix(-0.5003 -0.8659 0.8659 -0.5003 162.437 1025.0994)" style="fill:#242D3C;" width="27.872" height="19.255"/>
	
		<rect x="413.226" y="417.526" transform="matrix(-0.707 -0.7072 0.7072 -0.707 427.0775 1031.2365)" style="fill:#242D3C;" width="27.863" height="19.248"/>
	
		<rect x="451.682" y="367.416" transform="matrix(-0.8662 -0.4997 0.4997 -0.8662 680.5263 936.3041)" style="fill:#242D3C;" width="27.871" height="19.251"/>
	
		<rect x="475.904" y="309.036" transform="matrix(-0.966 -0.2587 0.2587 -0.966 880.579 753.1943)" style="fill:#242D3C;" width="27.88" height="19.252"/>
	<rect x="484.122" y="246.377" style="fill:#242D3C;" width="27.873" height="19.251"/>
	
		<rect x="480.17" y="179.393" transform="matrix(-0.2589 -0.9659 0.9659 -0.2589 429.8645 716.4796)" style="fill:#242D3C;" width="19.251" height="27.876"/>
	
		<rect x="455.993" y="121.057" transform="matrix(-0.4999 -0.8661 0.8661 -0.4999 581.4589 605.7435)" style="fill:#242D3C;" width="19.249" height="27.876"/>
	
		<rect x="417.546" y="70.904" transform="matrix(-0.7071 -0.7071 0.7071 -0.7071 669.2351 446.8843)" style="fill:#242D3C;" width="19.248" height="27.87"/>
	
		<rect x="367.413" y="32.436" transform="matrix(-0.8659 -0.5002 0.5002 -0.8659 680.321 275.1222)" style="fill:#242D3C;" width="19.248" height="27.873"/>
	
		<rect x="309.004" y="8.262" transform="matrix(-0.9659 -0.2588 0.2588 -0.9659 620.6577 126.1068)" style="fill:#242D3C;" width="19.251" height="27.875"/>
	<rect x="246.374" y="0.003" style="fill:#242D3C;" width="19.246" height="27.878"/>
	
		<rect x="179.422" y="12.556" transform="matrix(-0.2589 -0.9659 0.9659 -0.2589 221.9976 214.6899)" style="fill:#242D3C;" width="27.876" height="19.249"/>
	
		<rect x="121.04" y="36.746" transform="matrix(-0.5 -0.866 0.866 -0.5 162.3078 186.4504)" style="fill:#242D3C;" width="27.873" height="19.251"/>
	
		<rect x="70.91" y="75.214" transform="matrix(-0.7073 -0.7069 0.7069 -0.7073 84.8914 204.8253)" style="fill:#242D3C;" width="27.878" height="19.248"/>
	
		<rect x="32.435" y="125.352" transform="matrix(-0.8661 -0.4999 0.4999 -0.8661 19.0672 275.0609)" style="fill:#242D3C;" width="27.881" height="19.249"/>
	
		<rect x="8.241" y="183.739" transform="matrix(-0.966 -0.2587 0.2587 -0.966 -6.4145 385.8891)" style="fill:#242D3C;" width="27.88" height="19.255"/>
</g>
<path style="fill:#43D3E8;" d="M348.388,256.005c0,51.023-41.372,92.396-92.388,92.396c-51.018,0-92.388-41.372-92.388-92.396
	c0-51.016,41.37-92.383,92.388-92.383C307.016,163.622,348.388,204.989,348.388,256.005z"/>
<g>
	<path style="fill:#242D3C;" d="M256,288.729c-18.04,0-32.719-14.682-32.719-32.724c0-18.04,14.676-32.719,32.719-32.719
		c18.045,0,32.722,14.676,32.722,32.719C288.722,274.048,274.045,288.729,256,288.729z M256,242.537
		c-7.427,0-13.471,6.039-13.471,13.468c0,7.434,6.044,13.478,13.471,13.478c7.427,0,13.476-6.042,13.476-13.478
		C269.476,248.578,263.427,242.537,256,242.537z"/>
	<path style="fill:#242D3C;" d="M256,380.618c-85.207,0-164.7-45.906-207.457-119.79l-2.788-4.823l2.788-4.82
		C91.3,177.3,170.793,131.394,256,131.394c85.212,0,164.7,45.906,207.457,119.79l2.788,4.82l-2.788,4.823
		C420.7,334.712,341.212,380.618,256,380.618z M68.076,256.005C108.022,321.137,179.507,361.369,256,361.369
		s147.983-40.233,187.924-105.364C403.983,190.876,332.493,150.643,256,150.643C179.512,150.643,108.022,190.876,68.076,256.005z"/>
</g>
<path style="fill:#FFFFFF;" d="M203.067,256.002h-19.249c0-19.277,7.514-37.404,21.146-51.034l13.604,13.609
	C208.573,228.575,203.067,241.864,203.067,256.002z"/>
<g>
</g>
<g>
</g>
<g>
</g>
<g>
</g>
<g>
</g>
<g>
</g>
<g>
</g>
<g>
</g>
<g>
</g>
<g>
</g>
<g>
</g>
<g>
</g>
<g>
</g>
<g>
</g>
<g>
</g>
</svg>
