<?xml version="1.0" encoding="utf-8"?>
<!-- Svg Vector Icons : http://www.onlinewebfonts.com/icon -->
<!DOCTYPE svg PUBLIC "-//W3C//DTD SVG 1.1//EN" "http://www.w3.org/Graphics/SVG/1.1/DTD/svg11.dtd">
<svg version="1.1" xmlns="http://www.w3.org/2000/svg" xmlns:xlink="http://www.w3.org/1999/xlink" x="0px" y="0px" viewBox="0 0 1000 1000" enable-background="new 0 0 1000 1000" xml:space="preserve">
<metadata> Svg Vector Icons : http://www.onlinewebfonts.com/icon </metadata>
<g><g><path id="iconos_43_" d="M348.4,973.5l198.1-342.8l-28.6-27.5c-33.6,27.5-74.3,43.5-118.3,43.5c-41.3,0-80.3-14.3-112.3-39.1l-40.7,39.1h-79.8c-36.9,0-65.5,12.7-88,38.5c-65.5,75.4-54.5,238.3-49.5,288.3H348.4L348.4,973.5z M234,445.8c5.5,45.7,24.2,85.8,52.3,115.6c6.1,6.1,12.1,12.1,18.7,17.1c8.3,6.6,17.1,12.1,26.4,17.1c20.9,11,44,17.1,68.8,17.1c24.8,0,47.9-6.1,68.8-17.1c9.4-5,18.2-10.5,26.4-17.1c6.6-5.5,12.7-11,18.7-17.1c27.5-29.7,46.8-69.9,51.7-115c0.5,0,1.1,0,1.7,0c29.2,0,52.3-27,52.3-60c0-20.4-8.8-38-22-49H210.3c-13.2,11-22,28.6-22,49C188.9,416.6,208.1,441.4,234,445.8z M318.7,78.2c-57.2,29.2-102.3,87.5-119.4,144.2l-3.9,12.1h-31.4v68.8h34.1h48.4H267h265.2H552h75.4V300v-65.5h-30.8l-3.9-12.1c-17.1-56.7-62.2-114.5-119.4-143.6v129.3v18.2c0,1.1,0,1.7,0,2.2c-0.6,6.1-1.7,11.6-4.4,17.1c-7.2,13.8-21.5,23.7-38,23.7h-8.8h-60.5c-15.4,0-29.2-8.3-36.3-20.4c-3.3-5-5-10.5-6.1-16.5c-0.6-2.2-0.6-3.9-0.6-6.1v-15.4V78.2L318.7,78.2z M361.6,251h68.8c9.9,0,18.2-5.5,22.6-13.8c2.2-3.9,3.3-7.7,3.3-12.1v-5v-20.4V70V51.3v-7.2c0-4.4-1.1-8.3-2.2-12.1c-5-12.7-17.6-22-31.9-22h-60.5c-13.2,0-24.2,9.9-25.3,22.6c0,1.1-0.6,2.2-0.6,3.3v15.4V70V202v20.9v2.2c0,5.5,1.7,10.5,4.4,14.9C345.1,246.6,352.8,251,361.6,251z M652.2,835.9h69.3l13.2-107.8l3.9-30.8l2.2-16.5h-13.2h-22h-72.6L652.2,835.9z M645,853.5h85.8v85.8H645V853.5z M683.5,483.2c-6,0-12.1,3.3-15.4,8.8l-69.3,120.5l-9.9,17.1l-9.9,17.1L395.8,964.1c-1.7,2.8-2.2,6.1-2.2,8.8c0,2.8,0.6,6.1,2.2,8.3c3.3,5.5,8.8,8.8,15.4,8.8h367.6h17.1H957l0,0c9.9,0,17.6-7.7,17.6-17.6c0-4.4-1.6-7.7-3.8-11L698.9,492C695.6,486.5,690.1,483.2,683.5,483.2z M798,956.4h-17.1h-17.1H441.4l178.8-309.2l9.9-17.1l9.9-17.1l44.6-76.5l242.7,419.8H798z"/></g><g></g><g></g><g></g><g></g><g></g><g></g><g></g><g></g><g></g><g></g><g></g><g></g><g></g><g></g><g></g></g>
</svg>