<?xml version="1.0" encoding="iso-8859-1"?>
<!-- Generator: Adobe Illustrator 19.0.0, SVG Export Plug-In . SVG Version: 6.00 Build 0)  -->
<svg version="1.1" id="Capa_1" xmlns="http://www.w3.org/2000/svg" xmlns:xlink="http://www.w3.org/1999/xlink" x="0px" y="0px"
	 viewBox="0 0 480 480" style="enable-background:new 0 0 480 480;" xml:space="preserve">
<g>
	<path style="fill:#6D6C6B;" d="M472,456H8c-4.418,0-8-3.582-8-8s3.582-8,8-8h464c4.418,0,8,3.582,8,8S476.418,456,472,456z"/>
	<path style="fill:#6D6C6B;" d="M288,424h-80c-4.418,0-8-3.582-8-8s3.582-8,8-8h80c4.418,0,8,3.582,8,8S292.418,424,288,424z"/>
	<path style="fill:#6D6C6B;" d="M176,424h-16c-4.418,0-8-3.582-8-8s3.582-8,8-8h16c4.418,0,8,3.582,8,8S180.418,424,176,424z"/>
	<path style="fill:#6D6C6B;" d="M264,312h-96c-4.418,0-8-3.582-8-8s3.582-8,8-8h96c4.418,0,8,3.582,8,8S268.418,312,264,312z"/>
	<path style="fill:#6D6C6B;" d="M136,312h-16c-4.418,0-8-3.582-8-8s3.582-8,8-8h16c4.418,0,8,3.582,8,8S140.418,312,136,312z"/>
</g>
<path style="fill:#FFDE55;" d="M94.872,334.056l12.016,24.344l26.856,3.904l-19.432,18.944L118.896,408l-24.024-12.632L70.848,408
	l4.592-26.752L56,362.304l26.864-3.904L94.872,334.056z"/>
<g>
	<path style="fill:#C1D6E8;" d="M96,148.848c-30.926,30.929-30.926,81.071,0,112l3.032,3.024c3.182,3.185,7.498,4.975,12,4.976
		c9.372-0.004,16.968-7.604,16.968-16.976c0-4.5-1.787-8.817-4.968-12L120,236.848c-17.672-17.673-17.672-46.327,0-64l144,144V392
		c-0.01,8.036,4.002,15.543,10.688,20c8.061,5.374,18.563,5.374,26.624,0c6.686-4.457,10.698-11.964,10.688-20v-99.152l-40-40l40-40
		l49.376,49.368c4.241,4.248,9.997,6.635,16,6.632C389.872,268.844,400,258.712,400,246.216c-0.001-6-2.384-11.755-6.624-16
		L312,148.848l-64,64l-64-64v-8c35.346,0,64-28.654,64-64v-1.376c-0.001-4.243-1.687-8.312-4.688-11.312
		c-6.248-6.246-16.376-6.246-22.624,0c-3.001,3-4.687,7.069-4.688,11.312c0,18.433-14.943,33.376-33.376,33.376
		c-29.853,0-58.483,11.859-79.592,32.968L96,148.848z"/>
	<circle style="fill:#C1D6E8;" cx="96" cy="92.848" r="40"/>
</g>
<path style="fill:#4091DB;" d="M419.632,26.12L416,24l-3.632,2.12c-16.387,9.519-35.672,12.765-54.272,9.136v80.56
	c0.003,9.94,2.773,19.682,8,28.136c6.157,9.924,15.277,17.663,26.072,22.12L416,176l23.816-9.928
	c10.795-4.457,19.915-12.195,26.072-22.12c5.227-8.454,7.997-18.196,8-28.136v-80.56C455.293,38.881,436.014,35.635,419.632,26.12z"
	/>
<path style="fill:#2273AF;" d="M419.632,26.12L416,24v152l23.816-9.928c10.795-4.457,19.915-12.195,26.072-22.12
	c5.227-8.454,7.997-18.196,8-28.136v-80.56C455.293,38.881,436.014,35.635,419.632,26.12L419.632,26.12z"/>
<g>
</g>
<g>
</g>
<g>
</g>
<g>
</g>
<g>
</g>
<g>
</g>
<g>
</g>
<g>
</g>
<g>
</g>
<g>
</g>
<g>
</g>
<g>
</g>
<g>
</g>
<g>
</g>
<g>
</g>
</svg>
