<?xml version="1.0" encoding="iso-8859-1"?>
<!-- Generator: Adobe Illustrator 19.0.0, SVG Export Plug-In . SVG Version: 6.00 Build 0)  -->
<svg version="1.1" id="Capa_1" xmlns="http://www.w3.org/2000/svg" xmlns:xlink="http://www.w3.org/1999/xlink" x="0px" y="0px"
	 viewBox="0 0 460.413 460.413" style="enable-background:new 0 0 460.413 460.413;" xml:space="preserve">
<g>
	<g id="XMLID_307_">
		<path id="XMLID_1153_" d="13.293l-44.193-34.661l0,0
			c0.768-9.745,3.244-41.179,4.011-50.924c0.645-8.185-5.518-15.247-13.562-15.881c-0.024-0.002-0.047-0.001-0.07-0.003
			C86.025-0.552,78.87,5.426,78.227,13.606l-4.633,58.818c-0.392,4.978,1.76,9.761,5.608,12.779l48.8,38.276l-14.602-6.776
			c-3.216,14.82-17.612,81.152-19.987,92.092l0.04-0.02c-1.355,7.647,2.449,15.562,9.796,19.073l75.539,36.089l37.563,49.86
			c5.903,7.833,17.016,9.368,24.817,3.491c7.817-5.89,9.38-16.999,3.491-24.817l-40.169-53.319c-1.712-2.273-3.947-4.1-6.514-5.327
			l-79.446-37.957c31.1,7.231,63.104,14.438,66.833,16.22l15.043-5.118l-1.333,11.668l5.02,2.398
			c4.603,2.201,8.656,5.517,11.72,9.586l15.251,20.244l7.729-67.673c1.472-12.902-11.01-22.97-23.314-18.787l-34.973,11.898
			c4.49-20.69,3.475-16.014,8.645-39.833l38.732,7.248c6.594,1.235,13.192-2.133,16.063-8.195l12.841-27.117l-15.715,47.043
			c8.888,6.86,13.749,17.883,12.433,29.423c-0.096,0.838-1.856,16.25-1.952,17.089l5.278-15.799l92.614,21.268l-7.895,60.833
			l-95.017-22.347l-2.527,22.127l2.407,3.196l91.945,21.624l-8.077,62.238l-91.797-21.08c-12.623,3.247-25.764-1.489-33.454-11.694
			l-13.651-18.12c-3.763,11.266-30.189,90.371-34.333,102.775c-2.159,6.463,1.33,13.453,7.794,15.613
			c6.461,2.159,13.453-1.33,15.613-7.794l21.341-63.886l125.296,28.773l-8.669,66.796c-0.876,6.758,3.891,12.948,10.649,13.824
			c6.761,0.877,12.947-3.894,13.824-10.648c0,0,42.712-329.121,43.866-338.012C387.577,105.348,383.476,99.456,377.284,98.034z
			 M264.686,162.644l20.212-60.505l75.947,17.441l-8.21,63.261L264.686,162.644z"/>
	
	</g>
</g>
<g>
</g>
<g>
</g>
<g>
</g>
<g>
</g>
<g>
</g>
<g>
</g>
<g>
</g>
<g>
</g>
<g>
</g>
<g>
</g>
<g>
</g>
<g>
</g>
<g>
</g>
<g>
</g>
<g>
</g>
</svg>
