<?xml version="1.0" encoding="iso-8859-1"?>
<!-- Generator: Adobe Illustrator 19.0.0, SVG Export Plug-In . SVG Version: 6.00 Build 0)  -->
<svg version="1.1" id="Capa_1" xmlns="http://www.w3.org/2000/svg" xmlns:xlink="http://www.w3.org/1999/xlink" x="0px" y="0px"
	 viewBox="0 0 512 512" style="enable-background:new 0 0 512 512;" xml:space="preserve">
<path style="fill:#F1F1F3;" d="M512,471H0V41h512V471z"/>
<path style="fill:#DFDFE1;" d="M512,471H256V41h256V471z"/>
<path style="fill:#50B9E9;" d="M407,211c-9.436,0-18.199,2.925-25.441,7.908l-82.439-60.055c1.217-4.076,1.88-8.388,1.88-12.854
	c0-24.813-20.187-45-45-45s-45,20.187-45,45c0,9.888,3.213,19.035,8.639,26.469l-103,150.066C112.924,321.539,109.025,321,105,321
	c-24.813,0-45,20.187-45,45s20.187,45,45,45s45-20.187,45-45c0-9.888-3.213-19.035-8.64-26.469l103-150.066
	c3.715,0.996,7.615,1.535,11.64,1.535c9.436,0,18.199-2.925,25.441-7.908l82.439,60.055c-1.217,4.076-1.88,8.388-1.88,12.854
	c0,24.813,20.187,45,45,45s45-20.187,45-45S431.813,211,407,211z M105,381c-8.271,0-15-6.729-15-15s6.729-15,15-15s15,6.729,15,15
	S113.271,381,105,381z M256,161c-8.271,0-15-6.729-15-15s6.729-15,15-15s15,6.729,15,15S264.271,161,256,161z M407,271
	c-8.271,0-15-6.729-15-15s6.729-15,15-15s15,6.729,15,15S415.271,271,407,271z"/>
<path style="fill:#009AE1;" d="M407,211c-9.436,0-18.199,2.925-25.441,7.908l-82.439-60.055c1.217-4.076,1.88-8.388,1.88-12.854
	c0-24.813-20.187-45-45-45v30c8.271,0,15,6.729,15,15s-6.729,15-15,15v30c9.436,0,18.199-2.925,25.441-7.908l82.439,60.055
	c-1.217,4.076-1.88,8.388-1.88,12.854c0,24.813,20.187,45,45,45s45-20.187,45-45S431.813,211,407,211z M407,271
	c-8.271,0-15-6.729-15-15s6.729-15,15-15s15,6.729,15,15S415.271,271,407,271z"/>
<g>
</g>
<g>
</g>
<g>
</g>
<g>
</g>
<g>
</g>
<g>
</g>
<g>
</g>
<g>
</g>
<g>
</g>
<g>
</g>
<g>
</g>
<g>
</g>
<g>
</g>
<g>
</g>
<g>
</g>
</svg>
