<svg xmlns="http://www.w3.org/2000/svg" height="512pt" version="1.1" viewBox="0 0 512 512.002" width="512pt">
<g id="surface1">
<path d="M 398.460938 337.53125 C 415.28125 354.355469 415.28125 381.632812 398.460938 398.457031 C 381.636719 415.28125 354.359375 415.28125 337.535156 398.457031 Z M 398.460938 337.53125 " style=" stroke:none;fill-rule:nonzero;fill:rgb(70.196078%,71.372549%,76.470588%);fill-opacity:1;" />
<path d="M 40.421875 101.347656 L 22.617188 83.542969 C 5.796875 66.71875 5.796875 39.441406 22.617188 22.617188 C 39.441406 5.792969 66.71875 5.792969 83.542969 22.617188 L 101.347656 40.421875 Z M 40.421875 101.347656 " style=" stroke:none;fill-rule:nonzero;fill:rgb(70.196078%,71.372549%,76.470588%);fill-opacity:1;" />
<path d="M 398.238281 152.40625 L 315.640625 69.808594 C 247.757812 1.925781 137.695312 1.925781 69.8125 69.808594 C 1.925781 137.695312 1.925781 247.753906 69.8125 315.640625 L 152.410156 398.238281 C 169.925781 415.753906 180.445312 439.367188 180.445312 464.136719 C 180.445312 473.824219 184.140625 483.515625 191.535156 490.910156 C 206.320312 505.695312 230.296875 505.695312 245.082031 490.910156 L 490.910156 245.082031 C 505.699219 230.292969 505.699219 206.320312 490.910156 191.535156 C 483.519531 184.140625 473.828125 180.445312 464.136719 180.445312 C 439.367188 180.445312 415.753906 169.921875 398.238281 152.40625 Z M 398.238281 152.40625 " style=" stroke:none;fill-rule:nonzero;fill:rgb(100%,72.54902%,32.941176%);fill-opacity:1;" />
<path d="M 464.136719 170.445312 C 442.707031 170.445312 421.265625 161.292969 405.308594 145.339844 L 322.710938 62.738281 C 287.988281 28.019531 241.828125 8.894531 192.726562 8.898438 C 161.867188 8.898438 132.175781 16.453125 105.75 30.683594 L 90.613281 15.546875 C 69.917969 -5.148438 36.246094 -5.148438 15.546875 15.546875 C 5.523438 25.570312 0 38.902344 0 53.082031 C 0 67.257812 5.523438 80.589844 15.546875 90.613281 L 30.683594 105.75 C 16.453125 132.175781 8.898438 161.867188 8.898438 192.726562 C 8.898438 241.828125 28.019531 287.988281 62.738281 322.710938 L 145.339844 405.308594 C 161.292969 421.265625 170.445312 442.707031 170.445312 464.136719 C 170.445312 476.921875 175.425781 488.941406 184.464844 497.984375 C 193.503906 507.023438 205.523438 512.003906 218.308594 512.003906 C 231.09375 512.003906 243.113281 507.023438 252.152344 497.984375 L 338.203125 411.933594 C 346.925781 417.875 357.214844 421.078125 367.996094 421.078125 C 382.175781 421.078125 395.507812 415.554688 405.53125 405.53125 C 423.808594 387.253906 425.933594 358.855469 411.925781 338.210938 L 497.984375 252.152344 C 516.644531 233.488281 516.644531 203.125 497.984375 184.464844 C 488.941406 175.421875 476.921875 170.445312 464.136719 170.445312 Z M 29.691406 76.472656 C 23.441406 70.222656 20 61.914062 20 53.078125 C 20 44.242188 23.441406 35.9375 29.691406 29.6875 C 42.585938 16.792969 63.574219 16.789062 76.472656 29.6875 L 88.226562 41.441406 C 79.203125 47.703125 70.667969 54.808594 62.738281 62.738281 C 54.808594 70.667969 47.703125 79.203125 41.441406 88.226562 Z M 391.386719 391.386719 C 385.140625 397.636719 376.832031 401.074219 367.996094 401.074219 C 362.605469 401.074219 357.414062 399.789062 352.765625 397.371094 L 397.363281 352.769531 C 403.8125 365.226562 401.820312 380.953125 391.386719 391.386719 Z M 483.839844 238.011719 L 391.390625 330.460938 C 391.390625 330.460938 391.390625 330.460938 391.386719 330.460938 C 391.386719 330.464844 391.386719 330.464844 391.386719 330.464844 L 238.011719 483.839844 C 232.746094 489.101562 225.75 492 218.308594 492 C 210.867188 492 203.867188 489.101562 198.605469 483.839844 C 193.34375 478.574219 190.445312 471.578125 190.445312 464.136719 C 190.445312 437.441406 179.160156 410.84375 159.480469 391.164062 L 76.882812 308.566406 C 13.007812 244.691406 13.007812 140.757812 76.882812 76.878906 C 107.824219 45.9375 148.964844 28.894531 192.726562 28.894531 C 236.484375 28.894531 277.625 45.9375 308.570312 76.878906 L 391.167969 159.476562 C 410.847656 179.15625 437.441406 190.441406 464.140625 190.441406 C 471.582031 190.441406 478.578125 193.339844 483.839844 198.601562 C 494.703125 209.46875 494.703125 227.144531 483.839844 238.011719 Z M 483.839844 238.011719 " style=" stroke:none;fill-rule:nonzero;fill:rgb(0%,0%,0%);fill-opacity:1;" />
<path d="M 211.984375 63.734375 C 184.734375 59.691406 157.453125 64.179688 133.078125 76.71875 C 128.167969 79.242188 126.234375 85.273438 128.761719 90.183594 C 131.289062 95.097656 137.320312 97.027344 142.226562 94.503906 C 185.050781 72.472656 236.71875 80.570312 270.796875 114.652344 C 272.75 116.605469 275.308594 117.582031 277.867188 117.582031 C 280.425781 117.582031 282.984375 116.605469 284.9375 114.652344 C 288.84375 110.746094 288.84375 104.414062 284.9375 100.511719 C 265.011719 80.582031 239.78125 67.867188 211.984375 63.734375 Z M 211.984375 63.734375 " style=" stroke:none;fill-rule:nonzero;fill:rgb(0%,0%,0%);fill-opacity:1;" />
<path d="M 378.914062 62.214844 C 417.992188 62.214844 449.785156 94.007812 449.785156 133.085938 C 449.785156 138.609375 454.265625 143.085938 459.785156 143.085938 C 465.308594 143.085938 469.785156 138.609375 469.785156 133.085938 C 469.785156 82.980469 429.023438 42.214844 378.914062 42.214844 C 373.394531 42.214844 368.914062 46.691406 368.914062 52.214844 C 368.914062 57.738281 373.394531 62.214844 378.914062 62.214844 Z M 378.914062 62.214844 " style=" stroke:none;fill-rule:nonzero;fill:rgb(0%,0%,0%);fill-opacity:1;" />
<path d="M 378.914062 20 C 441.273438 20 492 70.730469 492 133.085938 C 492 138.609375 496.480469 143.085938 502 143.085938 C 507.523438 143.085938 512 138.609375 512 133.085938 C 512 59.703125 452.300781 0 378.914062 0 C 373.394531 0 368.914062 4.476562 368.914062 10 C 368.914062 15.523438 373.394531 20 378.914062 20 Z M 378.914062 20 " style=" stroke:none;fill-rule:nonzero;fill:rgb(0%,0%,0%);fill-opacity:1;" />
<path d="M 133.085938 449.785156 C 94.007812 449.785156 62.214844 417.992188 62.214844 378.914062 C 62.214844 373.390625 57.738281 368.914062 52.214844 368.914062 C 46.691406 368.914062 42.214844 373.390625 42.214844 378.914062 C 42.214844 429.019531 82.980469 469.785156 133.085938 469.785156 C 138.609375 469.785156 143.085938 465.308594 143.085938 459.785156 C 143.085938 454.261719 138.609375 449.785156 133.085938 449.785156 Z M 133.085938 449.785156 " style=" stroke:none;fill-rule:nonzero;fill:rgb(0%,0%,0%);fill-opacity:1;" />
<path d="M 133.085938 492 C 70.730469 492 20 441.269531 20 378.914062 C 20 373.390625 15.523438 368.914062 10 368.914062 C 4.480469 368.914062 0 373.390625 0 378.914062 C 0 452.296875 59.703125 512 133.085938 512 C 138.609375 512 143.085938 507.523438 143.085938 502 C 143.085938 496.476562 138.609375 492 133.085938 492 Z M 133.085938 492 " style=" stroke:none;fill-rule:nonzero;fill:rgb(0%,0%,0%);fill-opacity:1;" />
<path d="M 311.671875 130 C 309.039062 130 306.460938 131.070312 304.589844 132.929688 C 302.730469 134.789062 301.671875 137.371094 301.671875 140 C 301.671875 142.628906 302.730469 145.210938 304.589844 147.070312 C 306.460938 148.929688 309.039062 150 311.671875 150 C 314.300781 150 316.882812 148.929688 318.742188 147.070312 C 320.601562 145.210938 321.671875 142.628906 321.671875 140 C 321.671875 137.371094 320.601562 134.789062 318.742188 132.929688 C 316.882812 131.070312 314.300781 130 311.671875 130 Z M 311.671875 130 " style=" stroke:none;fill-rule:nonzero;fill:rgb(0%,0%,0%);fill-opacity:1;" />
</g>
</svg>