<?xml version="1.0" encoding="iso-8859-1"?>
<!-- Generator: Adobe Illustrator 19.0.0, SVG Export Plug-In . SVG Version: 6.00 Build 0)  -->
<svg version="1.1" id="Capa_1" xmlns="http://www.w3.org/2000/svg" xmlns:xlink="http://www.w3.org/1999/xlink" x="0px" y="0px"
	 viewBox="0 0 512 512" style="enable-background:new 0 0 512 512;" xml:space="preserve">
<g>
	<g>
		<path d="M461.32,103.041c-3.305-4.425-9.57-5.332-13.996-2.028c-4.425,3.305-5.333,9.571-2.028,13.996
			c69.575,93.158,59.938,225.512-22.418,307.868c-92.017,92.016-241.739,92.016-333.754,0c-92.017-92.017-92.017-241.738,0-333.754
			c82.449-82.45,214.896-92.02,308.081-22.259c4.422,3.31,10.689,2.408,13.999-2.013s2.409-10.688-2.013-13.998
			C360.376,14.31,299.819-3.54,238.667,0.583C176.922,4.749,118.791,31.17,74.98,74.98C26.629,123.332,0,187.619,0,255.999
			c0,68.38,26.629,132.667,74.98,181.02c48.352,48.352,112.639,74.98,181.02,74.98c68.38,0,132.667-26.629,181.02-74.98
			c43.773-43.774,70.191-101.857,74.387-163.549C515.562,212.377,497.773,151.851,461.32,103.041z"/>
	</g>
</g>
<g>
	<g>
		<path d="M437.131,75.092l-0.189-0.19c-3.895-3.915-10.227-3.931-14.142-0.037c-3.916,3.895-3.932,10.227-0.037,14.142l0.189,0.191
			c1.954,1.964,4.521,2.947,7.089,2.947c2.551,0,5.102-0.97,7.053-2.911C441.01,85.339,441.026,79.007,437.131,75.092z"/>
	</g>
</g>
<g>
	<g>
		<path d="M256,45.999c-115.794,0-210,94.206-210,210s94.206,210,210,210s210-94.206,210-210S371.794,45.999,256,45.999z
			 M256,445.999c-104.767,0-190-85.233-190-190s85.233-190,190-190s190,85.233,190,190S360.767,445.999,256,445.999z"/>
	</g>
</g>
<g>
	<g>
		<path d="M256,222.999c-5.458,0-10.606,1.34-15.146,3.696l-83.108-83.108c-3.905-3.905-10.237-3.905-14.143,0
			c-3.906,3.905-3.905,10.237,0,14.143l83.103,83.103c-2.362,4.545-3.706,9.7-3.706,15.166c0,14.744,9.72,27.258,23.088,31.477
			v51.076c0,5.523,4.477,10,10,10s10-4.477,10-10v-51.136C279.365,283.143,289,270.678,289,255.999
			C289,237.803,274.196,222.999,256,222.999z M256,268.999c-7.168,0-13-5.832-13-13c0-7.168,5.832-13,13-13c7.168,0,13,5.832,13,13
			C269,263.168,263.168,268.999,256,268.999z"/>
	</g>
</g>
<g>
	<g>
		<path d="M420,246.187h-14.21c-5.523,0-10,4.477-10,10c0,5.523,4.477,10,10,10H420c5.523,0,10-4.477,10-10
			C430,250.664,425.523,246.187,420,246.187z"/>
	</g>
</g>
<g>
	<g>
		<path d="M106.21,245.812H92c-5.523,0-10,4.477-10,10c0,5.523,4.477,10,10,10h14.21c5.523,0,10-4.477,10-10
			C116.21,250.289,111.733,245.812,106.21,245.812z"/>
	</g>
</g>
<g>
	<g>
		<path d="M256.187,81.999c-5.523,0-10,4.477-10,10v14.21c0,5.523,4.478,10,10,10c5.523,0,10-4.477,10-10v-14.21
			C266.187,86.476,261.71,81.999,256.187,81.999z"/>
	</g>
</g>
<g>
	<g>
		<path d="M255.812,395.789c-5.523,0-10,4.477-10,10v14.21c0,5.523,4.477,10,10,10s10-4.477,10-10v-14.21
			C265.812,400.266,261.335,395.789,255.812,395.789z"/>
	</g>
</g>
<g>
	<g>
		<path d="M115.778,299.911c-0.003-0.011-0.03-0.094-0.033-0.105c-1.661-5.26-7.258-8.147-12.519-6.494
			c-5.263,1.652-8.183,7.29-6.54,12.556c0.006,0.019,0.042,0.132,0.047,0.151c1.352,4.242,5.261,6.924,9.484,6.924
			c1.004,0,2.026-0.151,3.036-0.47C114.51,310.817,117.419,305.173,115.778,299.911z"/>
	</g>
</g>
<g>
	<g>
		<path d="M198.048,391.023c-28.505-12.251-52.901-33.755-68.694-60.55c-2.805-4.758-8.937-6.342-13.692-3.537
			c-4.758,2.804-6.342,8.935-3.537,13.692c17.936,30.43,45.646,54.853,78.026,68.77c1.288,0.553,2.626,0.815,3.944,0.815
			c3.876,0,7.565-2.267,9.192-6.054C205.468,399.085,203.123,393.204,198.048,391.023z"/>
	</g>
</g>
<g>
</g>
<g>
</g>
<g>
</g>
<g>
</g>
<g>
</g>
<g>
</g>
<g>
</g>
<g>
</g>
<g>
</g>
<g>
</g>
<g>
</g>
<g>
</g>
<g>
</g>
<g>
</g>
<g>
</g>
</svg>
