<svg width="640" height="480" xmlns="http://www.w3.org/2000/svg" xmlns:svg="http://www.w3.org/2000/svg" xmlns:xlink="http://www.w3.org/1999/xlink">
 <defs>
  <pattern height="100" width="100" y="0" x="0" patternUnits="userSpaceOnUse" id="gridpattern">
   <image height="100" width="100" y="0" x="0" id="svg_46"/>
  </pattern>
  <symbol id="svg_54" viewBox="0 0 512 512" xmlns="http://www.w3.org/2000/svg" xmlns:xlink="http://www.w3.org/1999/xlink">
   <g id="svg_1">
    <g id="svg_2">
     <g id="svg_3">
      <path fill="#cc0000" id="svg_7" d="m496,239.978l-129.248,0l-0.016,0c-1.36,-9.472 -3.792,-18.72 -7.536,-27.6c-5.648,-13.328 -13.712,-25.312 -24,-35.6c-6.256,-6.256 -16.368,-6.256 -22.624,0s-6.256,16.368 0,22.624c7.36,7.36 13.12,15.92 17.152,25.44c4.16,9.856 6.272,20.336 6.272,31.136s-2.112,21.28 -6.288,31.136c-4.032,9.52 -9.792,18.08 -17.152,25.44c-7.36,7.36 -15.92,13.136 -25.424,17.136c-19.712,8.336 -42.56,8.336 -62.288,0c-8.176,-3.392 -17.536,0.368 -20.976,8.512s0.352,17.52 8.496,20.96c13.872,5.856 28.544,8.816 43.632,8.816s29.76,-2.96 43.6,-8.8c13.328,-5.632 25.296,-13.696 35.6,-24c10.288,-10.288 18.352,-22.256 24,-35.6c3.76,-8.88 6.192,-18.128 7.536,-27.6l0.016,0l129.248,0c8.848,0 16,-7.168 16,-16c0,-8.832 -7.152,-16 -16,-16z"/>
      <path fill="#cc0000" id="svg_8" d="m199.44,312.554c-7.36,-7.36 -13.12,-15.92 -17.152,-25.44c-4.176,-9.856 -6.288,-20.336 -6.288,-31.136s2.112,-21.28 6.288,-31.136c4.032,-9.52 9.792,-18.08 17.152,-25.44c7.36,-7.36 15.92,-13.136 25.424,-17.136c19.712,-8.336 42.56,-8.336 62.288,0c8.16,3.392 17.52,-0.368 20.96,-8.512s-0.352,-17.52 -8.496,-20.96c-27.68,-11.696 -59.552,-11.696 -87.2,0c-13.328,5.632 -25.296,13.696 -35.6,24c-10.288,10.288 -18.352,22.256 -24,35.6c-3.856,9.104 -6.32,18.608 -7.648,28.336c-1.216,-0.304 -2.368,-0.752 -3.664,-0.752l-125.504,0c-8.848,0 -16,7.168 -16,16c0,8.832 7.152,16 16,16l125.504,0c1.296,0 2.448,-0.448 3.664,-0.736c1.328,9.728 3.808,19.232 7.648,28.336c5.648,13.328 13.712,25.312 24,35.6c3.12,3.12 7.216,4.688 11.312,4.688s8.192,-1.568 11.312,-4.688c6.256,-6.256 6.256,-16.368 0,-22.624z"/>
      <path fill="#cc0000" id="svg_9" d="m210.352,301.626c1.552,1.568 3.6,2.352 5.648,2.352c2.048,0 4.096,-0.784 5.664,-2.336l34.336,-34.352l34.336,34.336c1.568,1.568 3.616,2.352 5.664,2.352c2.048,0 4.096,-0.784 5.664,-2.336c3.12,-3.12 3.12,-8.192 0,-11.312l-34.352,-34.352l34.336,-34.336c3.136,-3.136 3.136,-8.192 0.016,-11.328c-3.12,-3.12 -8.192,-3.12 -11.312,0l-34.352,34.352l-34.336,-34.336c-3.12,-3.12 -8.192,-3.12 -11.312,0s-3.12,8.192 0,11.312l34.336,34.336l-34.336,34.336c-3.12,3.12 -3.12,8.192 0,11.312z"/>
     </g>
    </g>
   </g>
   <g id="svg_10"/>
   <g id="svg_11"/>
   <g id="svg_13"/>
   <g id="svg_14"/>
   <g id="svg_15"/>
   <g id="svg_16"/>
   <g id="svg_18"/>
   <g id="svg_19"/>
   <g id="svg_20"/>
   <g id="svg_21"/>
   <g id="svg_22"/>
   <g id="svg_23"/>
   <g id="svg_24"/>
   <g id="svg_25"/>
   <g id="svg_26"/>
  </symbol>
  <symbol id="svg_48" viewBox="0 0 41.756 41.756" xmlns="http://www.w3.org/2000/svg" xmlns:xlink="http://www.w3.org/1999/xlink">
   <g id="svg_27">
    <path id="svg_28" d="m27.948,20.878l12.343,-12.342c1.953,-1.953 1.953,-5.119 0,-7.071c-1.951,-1.952 -5.119,-1.952 -7.07,0l-12.343,12.344l-12.343,-12.344c-1.951,-1.952 -5.119,-1.952 -7.07,0c-1.953,1.953 -1.953,5.119 0,7.071l12.342,12.342l-12.342,12.342c-1.953,1.953 -1.953,5.119 0,7.071c0.975,0.977 2.256,1.464 3.535,1.464c1.278,0 2.56,-0.487 3.535,-1.464l12.343,-12.342l12.343,12.343c0.976,0.977 2.256,1.464 3.535,1.464s2.56,-0.487 3.535,-1.464c1.953,-1.953 1.953,-5.119 0,-7.071l-12.343,-12.343z"/>
   </g>
   <g id="svg_29"/>
   <g id="svg_30"/>
   <g id="svg_32"/>
   <g id="svg_33"/>
   <g id="svg_34"/>
   <g id="svg_35"/>
   <g id="svg_36"/>
   <g id="svg_37"/>
   <g id="svg_38"/>
   <g id="svg_40"/>
   <g id="svg_41"/>
   <g id="svg_42"/>
   <g id="svg_43"/>
   <g id="svg_44"/>
   <g id="svg_45"/>
  </symbol>
 </defs>
 <g>
  <title>Layer 1</title>
  <g id="svg_4"/>
  <g id="svg_50"/>
  <g id="svg_17"/>
  <g id="svg_5" transform="rotate(-75.66893005371094 0,0) " stroke="null"/>
  <g id="svg_31"/>
  <g id="svg_39"/>
  <g id="svg_6"/>
  <g id="svg_12"/>
  <use id="svg_55" xlink:href="#svg_54" transform="matrix(1.2602795660495758,0,0,1.2602795660495758,-72.78947067260742,-124.93689938671378) " y="30.15204" x="-9.5217"/>
  <g id="svg_56"/>
  <ellipse fill="#ffffff" stroke-width="0" stroke-dasharray="null" stroke-linejoin="null" stroke-linecap="null" cx="319" cy="213.90724" id="svg_59" rx="84" ry="86.90724" stroke="#000000"/>
  <g id="svg_63"/>
  <use id="svg_49" xlink:href="#svg_48" transform="matrix(0.19540132939775645,0,0,0.19540132939775645,2682.971443858062,717.95376054317) " y="-2819.06487" x="-12419.76878"/>
  <g id="svg_51"/>
 </g>
</svg>