<?xml version="1.0" encoding="iso-8859-1"?>
<!-- Generator: Adobe Illustrator 19.0.0, SVG Export Plug-In . SVG Version: 6.00 Build 0)  -->
<svg xmlns="http://www.w3.org/2000/svg" xmlns:xlink="http://www.w3.org/1999/xlink" version="1.1" id="Capa_1" x="0px" y="0px" viewBox="0 0 367.6 367.6" style="enable-background:new 0 0 367.6 367.6;" xml:space="preserve" width="512px" height="512px">
<g>
	<g>
		<g>
			<path d="M328.6,81.6c-0.4,0-0.4-0.4-0.8-0.8c-0.4-0.4-0.4-0.8-0.8-1.2L258.2,2.4c-0.4-0.4-1.2-0.8-1.6-1.2     c-0.4,0-0.4-0.4-0.8-0.4c-0.8-0.4-2-0.8-3.2-0.8H83.8C59,0,38.6,20.4,38.6,45.2v277.2c0,24.8,20.4,45.2,45.2,45.2h200     c24.8,0,45.2-20.4,45.2-45.2v-238C329,83.6,328.6,82.4,328.6,81.6z M260.2,27.2l44.4,50h-44.4V27.2z M313.8,322     c0,16.8-13.2,30.4-30,30.4h-200c-16.8,0-30-13.6-30-30V44.8c0-16.8,13.6-30,30-30H245v69.6c0,4,3.2,7.6,7.6,7.6h61.2V322z" fill="#006DF0"/>
			<path d="M151.4,143.6l-16.8-16.8c-2.8-2.8-7.6-2.8-10.8,0c-2.8,2.8-2.8,7.6,0,10.8l12,12c-18.8,8.4-34,21.2-42.8,36.8     c-0.8,1.2-0.8,2.4-0.8,3.6s0.4,2.4,0.8,3.6c16.4,28.8,53.2,47.6,94.4,47.6c12.4,0,24.4-1.6,35.6-4.8l17.2,17.2     c1.6,1.6,3.6,2.4,5.2,2.4c1.6,0,4-0.8,5.2-2.4c2.8-2.8,2.8-7.6,0-10.8l-12.4-12.4c18.8-8.4,34-21.2,43.2-37.2     c0.8-1.2,0.8-2.4,0.8-3.6s-0.4-2.4-0.8-3.6c-16-28.8-52.8-47.2-94-47.2C175,138.8,163,140.4,151.4,143.6z M187.4,226     c-34,0-64.4-14-78.8-36c8.4-12.8,22.4-22.8,39.2-28.8l10.4,10.4c-3.2,5.2-5.6,11.6-5.6,18.4c0,19.2,15.6,34.8,34.8,34.8     c6.8,0,13.2-2,18.4-5.6l4.4,4.4C203,225.2,195.4,226,187.4,226z M194.6,208.4c-2.4,0.8-4.8,1.6-7.2,1.6     c-10.8,0-19.6-8.8-19.6-19.6c0-2.8,0.4-5.2,1.6-7.2L194.6,208.4z M179.8,171.6c2.4-1.2,4.8-1.6,7.6-1.6     c10.8,0,19.6,8.8,19.6,19.6c0,3.2-0.4,5.6-1.6,8L179.8,171.6z M266.2,190c-8.4,12.8-22.4,22.8-39.2,29.2l-10.4-10.4     c3.6-5.6,5.6-12,5.6-18.8c0-19.2-15.6-34.8-34.8-34.8c-6.8,0-13.2,2-18.8,5.6l-4.4-4.4c7.6-1.6,15.2-2.4,23.2-2.4     C221.4,154,251.8,168,266.2,190z" fill="#006DF0"/>
		</g>
	</g>
</g>
<g>
</g>
<g>
</g>
<g>
</g>
<g>
</g>
<g>
</g>
<g>
</g>
<g>
</g>
<g>
</g>
<g>
</g>
<g>
</g>
<g>
</g>
<g>
</g>
<g>
</g>
<g>
</g>
<g>
</g>
</svg>
