<?xml version="1.0" encoding="iso-8859-1"?>
<!-- Generator: Adobe Illustrator 19.0.0, SVG Export Plug-In . SVG Version: 6.00 Build 0)  -->
<svg version="1.1" id="Capa_1" xmlns="http://www.w3.org/2000/svg" xmlns:xlink="http://www.w3.org/1999/xlink" x="0px" y="0px"
	 viewBox="0 0 512 512" style="enable-background:new 0 0 512 512;" xml:space="preserve">
<g>
	<g>
		<g>
			<circle cx="118.001" cy="452" r="20"/>
			<circle cx="48.001" cy="452" r="20"/>
			<path d="M459.384,88.229l-179.8-83.551c-7.129-3.288-14.672-4.872-22.4-4.658c-12.895,0.326-25.077,5.54-34.306,14.681
				C213.284,24.202,208,36.913,208,50.49v344.951c-23.278,8.256-40,30.487-40,56.56c0,33.084,26.916,60,60,60
				c11.046,0,20-8.954,20-20c0-11.046-8.954-20-20-20c-11.028,0-20-8.972-20-20s8.972-20,20-20c11.028,0,20,8.972,20,20
				c0,11.046,8.954,20,20,20c11.046,0,20-8.954,20-20c0-26.073-16.722-48.303-40-56.56V50.49c0-6.316,5.293-10.359,10.198-10.484
				c1.57-0.032,3.118,0.296,4.58,0.971l179.8,83.552c0.458,0.211,1.41,0.65,1.42,2.189c0.012,1.649-1.006,2.079-1.449,2.266
				l-145.344,60.922c-10.187,4.271-14.983,15.989-10.714,26.177c4.271,10.187,15.99,14.984,26.177,10.714l145.39-60.941
				c15.873-6.7,26.055-22.167,25.94-39.402C483.888,109.826,474.437,95.172,459.384,88.229z"/>
		</g>
	</g>
</g>
<g>
</g>
<g>
</g>
<g>
</g>
<g>
</g>
<g>
</g>
<g>
</g>
<g>
</g>
<g>
</g>
<g>
</g>
<g>
</g>
<g>
</g>
<g>
</g>
<g>
</g>
<g>
</g>
<g>
</g>
</svg>
