<?xml version="1.0" encoding="iso-8859-1"?>
<!-- Generator: Adobe Illustrator 19.0.0, SVG Export Plug-In . SVG Version: 6.00 Build 0)  -->
<svg version="1.1" id="Capa_1" xmlns="http://www.w3.org/2000/svg" xmlns:xlink="http://www.w3.org/1999/xlink" x="0px" y="0px"
	 viewBox="0 0 512 512" style="enable-background:new 0 0 512 512;" xml:space="preserve">
<g>
	<g>
		<g>
			<path d="M256,128c-35.346,0-64,28.654-64,64c0,35.346,28.654,64,64,64c35.346,0,64-28.654,64-64
				C319.961,156.67,291.33,128.039,256,128z"/>
			<path d="M164.571,146.286h23.04c15.255-22.85,40.914-36.572,68.389-36.572s53.134,13.722,68.389,36.572h23.04
				c11.739-0.155,22.266,7.206,26.149,18.286h74.606c-22.491-69.303-62.446-114.56-119.04-134.583v43.154
				c0,5.049-4.093,9.143-9.143,9.143c-5.049,0-9.143-4.093-9.143-9.143v-64c-0.015-5.043-4.099-9.128-9.143-9.143h-91.429
				c-5.043,0.015-9.128,4.099-9.143,9.143v64c0,5.049-4.093,9.143-9.143,9.143s-9.143-4.093-9.143-9.143V29.989
				c-56.594,20.023-96.549,65.28-119.04,134.583h74.606C142.306,153.492,152.832,146.131,164.571,146.286z"/>
			<path d="M374.857,219.429h86.216c-0.821-4.754-1.554-9.6-2.469-14.354c-0.182-1.006-0.365-2.103-0.548-3.109
				c-1.371-6.4-3.017-12.8-4.662-19.109h-78.538V219.429z"/>
			<path d="M164.571,164.571c-4.554-0.324-8.568,2.968-9.143,7.497v58.149c0.575,4.53,4.588,7.821,9.143,7.497h23.04
				C178.53,224.2,173.69,208.282,173.714,192c0.009-9.355,1.649-18.637,4.846-27.429H164.571z"/>
			<path d="M347.429,237.714c4.554,0.324,8.568-2.967,9.143-7.497v-58.149c-0.575-4.53-4.588-7.821-9.143-7.497H333.44
				c3.197,8.792,4.837,18.074,4.846,27.429c0.024,16.282-4.815,32.2-13.897,45.714H347.429z"/>
			<path d="M256,457.143c-5.049,0-9.143,4.093-9.143,9.143c0,5.049,4.093,9.143,9.143,9.143s9.143-4.093,9.143-9.143
				C265.128,461.242,261.043,457.157,256,457.143z"/>
			<path d="M475.429,292.571h-36.571c-5.049,0-9.143-4.093-9.143-9.143s4.093-9.143,9.143-9.143h27.429
				c-0.183-7.954-0.732-20.846-2.56-36.571h-90.149c-3.883,11.08-14.409,18.441-26.149,18.286h-39.863
				c-30.054,24.381-73.077,24.381-103.131,0h-39.863c-11.739,0.155-22.266-7.206-26.149-18.286H48.274
				c-1.829,15.726-2.377,28.617-2.56,36.571h27.429c5.049,0,9.143,4.093,9.143,9.143s-4.093,9.143-9.143,9.143H36.571
				C16.374,292.571,0,308.945,0,329.143s16.374,36.571,36.571,36.571h438.857c20.198,0,36.571-16.374,36.571-36.571
				S495.626,292.571,475.429,292.571z"/>
			<path d="M309.029,430.537c4.272,6.345,7.369,13.406,9.143,20.846L432.731,384H386.56L309.029,430.537z"/>
			<path d="M256,420.571c-25.247,0-45.714,20.467-45.714,45.714C210.286,491.533,230.753,512,256,512s45.714-20.467,45.714-45.714
				C301.705,441.042,281.244,420.581,256,420.571z M256,493.714c-15.148,0-27.429-12.28-27.429-27.429
				c0-15.148,12.28-27.429,27.429-27.429s27.429,12.28,27.429,27.429C283.384,481.416,271.13,493.67,256,493.714z"/>
			<path d="M137.143,182.857H58.605c-1.645,6.309-3.29,12.709-4.662,19.2c-0.183,1.006-0.366,2.011-0.548,3.017
				c-0.915,4.754-1.647,9.509-2.469,14.354h86.217V182.857z"/>
			<path d="M79.268,384l114.561,67.383c1.774-7.44,4.871-14.501,9.143-20.846L125.44,384H79.268z"/>
		</g>
	</g>
</g>
<g>
</g>
<g>
</g>
<g>
</g>
<g>
</g>
<g>
</g>
<g>
</g>
<g>
</g>
<g>
</g>
<g>
</g>
<g>
</g>
<g>
</g>
<g>
</g>
<g>
</g>
<g>
</g>
<g>
</g>
</svg>
