<?xml version="1.0" encoding="iso-8859-1"?>
<!-- Generator: Adobe Illustrator 19.0.0, SVG Export Plug-In . SVG Version: 6.00 Build 0)  -->
<svg version="1.1" id="Capa_1" xmlns="http://www.w3.org/2000/svg" xmlns:xlink="http://www.w3.org/1999/xlink" x="0px" y="0px"
	 viewBox="0 0 512.001 512.001" style="enable-background:new 0 0 512.001 512.001;" xml:space="preserve">
<g>
	<g>
		<path d="M469.072,91.929l-89-89C378.196,1.054,375.652,0,373.001,0h-303c-16.542,0-30,13.458-30,30v452.001
			c0,16.542,13.458,30,30,30h372c16.542,0,30-13.458,30-30V99C472.001,96.348,470.947,93.804,469.072,91.929z M383.001,34.143
			L437.858,89h-44.858c-5.514,0-10-4.486-10-10V34.143z M452.001,482.001c0,5.515-4.487,10-10,10h-372c-5.514,0-10-4.486-10-10V30
			c0-5.514,4.486-10,10-10h293v59c0,16.542,13.458,30,30,30h59V482.001z"/>
	</g>
</g>
<g>
	<g>
		<path d="M111.109,66.97c-1.859-1.86-4.439-2.93-7.069-2.93c-2.641,0-5.21,1.07-7.07,2.93c-1.86,1.86-2.93,4.44-2.93,7.07
			s1.069,5.21,2.93,7.07s4.429,2.93,7.07,2.93c2.63,0,5.21-1.07,7.069-2.93c1.86-1.86,2.931-4.44,2.931-7.07
			S112.97,68.83,111.109,66.97z"/>
	</g>
</g>
<g>
	<g>
		<path d="M261.999,64.039H141.973c-5.522,0-10,4.477-10,10s4.478,10,10,10h120.026c5.522,0,10-4.477,10-10
			S267.522,64.039,261.999,64.039z"/>
	</g>
</g>
<g>
	<g>
		<path d="M408.001,160h-304c-5.522,0-10,4.477-10,10v192c0,5.523,4.478,10,10,10h304c5.522,0,10-4.477,10-10V170
			C418.001,164.477,413.522,160,408.001,160z M156.001,352h-42c0,0,0-44,0-44h42V352z M156.001,288h-42c0,0,0-44,0-44h42V288z
			 M156.001,224h-42v-44h42V224z M286.001,352h-110v-44h110V352z M286.001,288h-110v-44h110V288z M286.001,224h-110v-44h110V224z
			 M398.001,352h-92v-44h92V352z M398.001,288h-92v-44h92V288z M398.001,224h-92v-44h92V224z"/>
	</g>
</g>
<g>
	<g>
		<path d="M303.069,410.93c-1.859-1.86-4.439-2.93-7.069-2.93s-5.21,1.07-7.07,2.93s-2.93,4.44-2.93,7.07s1.069,5.21,2.93,7.07
			c1.861,1.86,4.44,2.93,7.07,2.93s5.21-1.07,7.069-2.93c1.86-1.86,2.931-4.44,2.931-7.07S304.931,412.79,303.069,410.93z"/>
	</g>
</g>
<g>
	<g>
		<path d="M408.001,408h-70c-5.522,0-10,4.477-10,10s4.478,10,10,10h70c5.522,0,10-4.477,10-10S413.522,408,408.001,408z"/>
	</g>
</g>
<g>
</g>
<g>
</g>
<g>
</g>
<g>
</g>
<g>
</g>
<g>
</g>
<g>
</g>
<g>
</g>
<g>
</g>
<g>
</g>
<g>
</g>
<g>
</g>
<g>
</g>
<g>
</g>
<g>
</g>
</svg>
