<svg height="413pt" viewBox="-10 0 413 413" width="413pt" xmlns="http://www.w3.org/2000/svg"><path d="m9.671875 309.671875h92.65625v92.65625h-92.65625zm0 0" fill="#fedb41"/><path d="m9.671875 159.671875h92.65625v92.65625h-92.65625zm0 0" fill="#00efd1"/><path d="m9.671875 9.671875h92.65625v92.65625h-92.65625zm0 0" fill="#00acea"/><g fill="#083863"><path d="m113 160c0-5.523438-4.476562-10-10-10h-93c-5.523438 0-10 4.476562-10 10v93c0 5.523438 4.476562 10 10 10h93c5.523438 0 10-4.476562 10-10zm-93 10h72v72h-72zm0 0"/><path d="m149.671875 216h232.65625c5.523437 0 10-4.476562 10-10s-4.476563-10-10-10h-232.65625c-5.523437 0-10 4.476562-10 10s4.476563 10 10 10zm0 0"/><path d="m113 10c0-5.523438-4.476562-10-10-10h-93c-5.523438 0-10 4.476562-10 10v93c0 5.523438 4.476562 10 10 10h93c5.523438 0 10-4.476562 10-10zm-93 10h72v72h-72zm0 0"/><path d="m149.671875 66h232.65625c5.523437 0 10-4.476562 10-10s-4.476563-10-10-10h-232.65625c-5.523437 0-10 4.476562-10 10s4.476563 10 10 10zm0 0"/><path d="m113 310c0-5.523438-4.476562-10-10-10h-93c-5.523438 0-10 4.476562-10 10v93c0 5.523438 4.476562 10 10 10h93c5.523438 0 10-4.476562 10-10zm-93 10h72v72h-72zm0 0"/><path d="m149.671875 366h232.65625c5.523437 0 10-4.476562 10-10s-4.476563-10-10-10h-232.65625c-5.523437 0-10 4.476562-10 10s4.476563 10 10 10zm0 0"/></g></svg>