<?xml version="1.0" encoding="iso-8859-1"?>
<!-- Generator: Adobe Illustrator 19.0.0, SVG Export Plug-In . SVG Version: 6.00 Build 0)  -->
<svg version="1.1" id="Capa_1" xmlns="http://www.w3.org/2000/svg" xmlns:xlink="http://www.w3.org/1999/xlink" x="0px" y="0px"
	 viewBox="0 0 512 512" style="enable-background:new 0 0 512 512;" xml:space="preserve">
<g>
	<g>
		<path d="M490.668,192h-42.464c-3.027-9.139-6.702-18.051-10.997-26.667l29.995-30.005c0.002-0.002,0.004-0.004,0.006-0.006
			c8.33-8.333,8.327-21.84-0.006-30.17L406.86,44.8c-0.006-0.006-0.011-0.011-0.017-0.017c-8.336-8.327-21.843-8.319-30.17,0.017
			l-30.005,29.995c-8.615-4.295-17.527-7.967-26.667-10.987V21.333C320.001,9.551,310.45,0,298.668,0h-85.333
			c-11.783,0-21.334,9.551-21.334,21.333v42.475c-9.14,3.02-18.052,6.692-26.667,10.987L135.329,44.8
			c-0.006-0.006-0.011-0.011-0.017-0.017c-8.336-8.327-21.843-8.319-30.17,0.017l-60.341,60.352c-8.328,8.331-8.328,21.835,0,30.165
			l29.995,30.016c-4.295,8.616-7.971,17.528-10.997,26.667H21.334c-11.782,0-21.333,9.551-21.333,21.333v85.333
			C0.001,310.449,9.552,320,21.334,320h42.464c3.027,9.139,6.702,18.051,10.997,26.667l-29.994,30.005
			c-0.002,0.002-0.004,0.004-0.006,0.006c-8.329,8.333-8.327,21.84,0.006,30.17l60.341,60.352c0.006,0.006,0.011,0.011,0.017,0.017
			c8.336,8.327,21.843,8.319,30.17-0.017l30.005-29.995c8.615,4.295,17.527,7.966,26.667,10.987v42.475
			c0,11.782,9.551,21.333,21.333,21.333h85.333c11.782,0,21.333-9.551,21.333-21.333v-42.475c9.14-3.02,18.052-6.692,26.667-10.987
			l30.005,29.995c0.006,0.006,0.011,0.011,0.017,0.017c8.336,8.327,21.843,8.319,30.17-0.017l60.341-60.352
			c8.328-8.331,8.328-21.835,0-30.165l-29.995-30.016c4.295-8.616,7.971-17.528,10.997-26.667h42.464
			c11.782,0,21.333-9.551,21.333-21.333v-85.333C512.001,201.551,502.45,192,490.668,192z M440.332,298.667
			c-4.766,0.005-8.95,3.17-10.251,7.755c-3.699,12.915-8.829,25.376-15.296,37.152c-2.295,4.158-1.565,9.333,1.792,12.693
			l35.531,35.499l-60.341,60.341l-35.541-35.531c-3.36-3.357-8.535-4.087-12.693-1.792c-11.779,6.46-24.239,11.59-37.152,15.296
			c-4.568,1.317-7.713,5.497-7.712,10.251v50.336h-85.333v-50.336c0.001-4.754-3.144-8.934-7.712-10.251
			c-12.913-3.706-25.373-8.836-37.152-15.296c-1.576-0.875-3.349-1.334-5.152-1.333c-2.844-0.011-5.574,1.114-7.584,3.125
			l-35.509,35.531l-60.331-60.341l35.531-35.541c3.357-3.36,4.087-8.535,1.792-12.693c-6.466-11.776-11.597-24.237-15.296-37.152
			c-1.317-4.568-5.497-7.713-10.251-7.712H21.334v-85.333H71.67c4.754,0.001,8.934-3.144,10.251-7.712
			c3.699-12.925,8.83-25.397,15.296-37.184c2.301-4.161,1.57-9.342-1.792-12.704l-35.531-35.499l60.341-60.341l35.541,35.531
			c3.36,3.357,8.535,4.087,12.693,1.792c11.779-6.46,24.239-11.59,37.152-15.296c4.568-1.317,7.713-5.497,7.712-10.251V21.333
			h85.333v50.336c-0.001,4.754,3.144,8.934,7.712,10.251c12.927,3.703,25.403,8.833,37.195,15.296
			c4.158,2.295,9.333,1.565,12.693-1.792l35.509-35.531l60.331,60.341l-35.531,35.531c-3.362,3.362-4.093,8.543-1.792,12.704
			c6.464,11.777,11.594,24.238,15.296,37.152c1.317,4.568,5.497,7.713,10.251,7.712h50.336v85.334H440.332z"/>
	</g>
</g>
<g>
	<g>
		<path d="M319.681,146.741c-5.599-24.413-24.662-43.476-49.075-49.075c-35.169-8.066-70.219,13.906-78.285,49.075
			c-0.212,0.848-0.32,1.718-0.32,2.592v21.013c0,48.033,28.117,85.654,64,85.654s64-37.621,64-85.653v-21.013
			C320.001,148.459,319.893,147.589,319.681,146.741z M298.668,170.347L298.668,170.347c0,35.52-19.136,64.32-42.667,64.32
			s-42.667-28.8-42.667-64.32v-19.509v-0.011c3.893-15.911,16.316-28.334,32.227-32.227c23.564-5.766,47.341,8.663,53.107,32.227
			V170.347z"/>
	</g>
</g>
<g>
	<g>
		<path d="M309.334,256c-0.866,0.056-1.735,0.056-2.602,0c-11.064-0.718-19.45-10.27-18.732-21.333h-21.333
			c-0.024,0.808-0.024,1.617,0,2.425c0.67,22.895,19.772,40.912,42.667,40.242c17.673,0,32,14.327,32,32v85.333h21.333v-85.333
			C362.632,279.893,338.775,256.035,309.334,256z"/>
	</g>
</g>
<g>
	<g>
		<path d="M245.334,234.667h-21.333c0.056,0.866,0.056,1.735,0,2.602c-0.718,11.064-10.27,19.45-21.333,18.732
			c-29.441,0.035-53.298,23.893-53.333,53.333v85.333h21.333v-85.333c0-17.673,14.327-32,32-32c0.808,0.024,1.617,0.024,2.425,0
			C227.987,276.664,246.004,257.561,245.334,234.667z"/>
	</g>
</g>
<g>
	<g>
		<rect x="192.001" y="320" width="21.333" height="74.67"/>
	</g>
</g>
<g>
	<g>
		<rect x="298.671" y="320" width="21.333" height="74.67"/>
	</g>
</g>
<g>
	<g>
		<path d="M160.001,234.667v-53.333h-21.333v53.205c0.071,0.657,0.075,1.32,0.012,1.978c-0.514,5.383-5.295,9.331-10.678,8.817
			H85.334v21.333h42.667c0.606,0.018,1.213,0.018,1.819,0C146.991,266.164,160.503,251.838,160.001,234.667z"/>
	</g>
</g>
<g>
	<g>
		<rect x="42.668" y="245.33" width="21.333" height="21.333"/>
	</g>
</g>
<g>
	<g>
		<rect x="138.671" y="138.67" width="21.333" height="21.333"/>
	</g>
</g>
<g>
	<g>
		<path d="M384.001,245.333L384.001,245.333c-0.634,0.062-1.273,0.062-1.907,0c-5.365-0.526-9.287-5.302-8.76-10.667v-53.333
			h-21.333v53.333c-0.018,0.606-0.018,1.213,0,1.819c0.502,17.171,14.829,30.684,32,30.181h42.667v-21.333H384.001z"/>
	</g>
</g>
<g>
	<g>
		<rect x="448.001" y="245.33" width="21.333" height="21.333"/>
	</g>
</g>
<g>
	<g>
		<rect x="352.001" y="138.67" width="21.333" height="21.333"/>
	</g>
</g>
<g>
</g>
<g>
</g>
<g>
</g>
<g>
</g>
<g>
</g>
<g>
</g>
<g>
</g>
<g>
</g>
<g>
</g>
<g>
</g>
<g>
</g>
<g>
</g>
<g>
</g>
<g>
</g>
<g>
</g>
</svg>
