<?xml version="1.0"?>
<svg xmlns="http://www.w3.org/2000/svg" height="512px" version="1.1" viewBox="-112 1 511 511.999" width="512px">
<g id="surface1">
<path d="M 280.546875 80.160156 L 280.03125 80.160156 L 280.03125 47.582031 C 280.03125 41.746094 276.789062 36.65625 272.015625 34.007812 L 272.015625 15.515625 C 272.015625 6.960938 265.054688 0 256.5 0 L 40.066406 0 C 31.507812 0 24.546875 6.960938 24.546875 15.515625 L 24.546875 32.0625 L 24.03125 32.0625 C 15.476562 32.0625 8.515625 39.023438 8.515625 47.578125 L 8.515625 80.160156 L 8 80.160156 C 3.859375 80.160156 0.5 83.519531 0.5 87.660156 C 0.5 91.804688 3.859375 95.160156 8 95.160156 L 8.515625 95.160156 L 8.515625 111.710938 C 8.515625 120.265625 15.476562 127.226562 24.03125 127.226562 L 24.546875 127.226562 L 24.546875 496.484375 C 24.546875 505.039062 31.507812 512 40.066406 512 L 248.484375 512 C 257.039062 512 264 505.039062 264 496.484375 L 264 127.226562 L 264.515625 127.226562 C 273.070312 127.226562 280.03125 120.265625 280.03125 111.710938 L 280.03125 95.160156 L 280.546875 95.160156 C 284.691406 95.160156 288.046875 91.804688 288.046875 87.660156 C 288.046875 83.519531 284.691406 80.160156 280.546875 80.160156 Z M 215.902344 80.160156 L 215.902344 47.0625 L 232.964844 47.0625 L 232.964844 80.160156 Z M 183.835938 80.160156 L 183.835938 47.0625 L 200.902344 47.0625 L 200.902344 80.160156 Z M 151.773438 80.160156 L 151.773438 47.0625 L 168.835938 47.0625 L 168.835938 80.160156 Z M 119.710938 80.160156 L 119.710938 47.0625 L 136.773438 47.0625 L 136.773438 80.160156 Z M 87.644531 80.160156 L 87.644531 47.0625 L 104.707031 47.0625 L 104.707031 80.160156 Z M 55.582031 80.160156 L 55.582031 47.0625 L 72.644531 47.0625 L 72.644531 80.160156 Z M 247.964844 47.0625 L 264.515625 47.0625 C 264.800781 47.0625 265.03125 47.296875 265.03125 47.578125 L 265.03125 80.160156 L 247.964844 80.160156 Z M 39.546875 15.515625 C 39.546875 15.230469 39.777344 15 40.0625 15 L 256.5 15 C 256.785156 15 257.015625 15.230469 257.015625 15.515625 L 257.015625 32.0625 L 39.546875 32.0625 Z M 23.515625 47.582031 C 23.515625 47.296875 23.746094 47.066406 24.03125 47.066406 L 40.582031 47.066406 L 40.582031 80.160156 L 23.515625 80.160156 Z M 224.433594 328.660156 L 184.351562 328.660156 C 184.070312 328.660156 183.835938 328.429688 183.835938 328.144531 L 183.835938 296.078125 C 183.835938 295.796875 184.070312 295.5625 184.351562 295.5625 L 224.433594 295.5625 C 228.578125 295.5625 231.933594 292.207031 231.933594 288.0625 L 231.933594 247.984375 C 231.933594 247.699219 232.164062 247.46875 232.449219 247.46875 L 249 247.46875 L 249 376.757812 L 232.449219 376.757812 C 232.164062 376.757812 231.933594 376.527344 231.933594 376.242188 L 231.933594 336.160156 C 231.933594 332.019531 228.578125 328.660156 224.433594 328.660156 Z M 265.03125 111.710938 C 265.03125 111.996094 264.800781 112.226562 264.515625 112.226562 L 240.464844 112.226562 C 236.324219 112.226562 232.964844 115.585938 232.964844 119.726562 C 232.964844 123.867188 236.324219 127.226562 240.464844 127.226562 L 249 127.226562 L 249 184.371094 L 128.242188 184.371094 C 115.265625 184.371094 104.710938 194.929688 104.710938 207.902344 L 104.710938 416.320312 C 104.710938 429.296875 115.265625 439.855469 128.242188 439.855469 C 132.382812 439.855469 135.742188 436.496094 135.742188 432.355469 C 135.742188 428.210938 132.382812 424.855469 128.242188 424.855469 C 123.535156 424.855469 119.710938 421.027344 119.710938 416.320312 L 119.710938 207.902344 C 119.710938 203.199219 123.539062 199.371094 128.242188 199.371094 L 249 199.371094 L 249 232.46875 L 232.453125 232.46875 C 223.894531 232.46875 216.933594 239.429688 216.933594 247.984375 L 216.933594 280.566406 L 184.355469 280.566406 C 175.796875 280.566406 168.839844 287.523438 168.839844 296.082031 L 168.839844 328.144531 C 168.839844 336.703125 175.796875 343.660156 184.355469 343.660156 L 216.933594 343.660156 L 216.933594 376.242188 C 216.933594 384.800781 223.894531 391.757812 232.453125 391.757812 L 249 391.757812 L 249 424.855469 L 160.304688 424.855469 C 156.164062 424.855469 152.804688 428.214844 152.804688 432.355469 C 152.804688 436.496094 156.164062 439.855469 160.304688 439.855469 L 249 439.855469 L 249 496.484375 C 249 496.769531 248.769531 497 248.484375 497 L 40.066406 497 C 39.78125 497 39.546875 496.769531 39.546875 496.484375 L 39.546875 127.226562 L 208.402344 127.226562 C 212.542969 127.226562 215.902344 123.867188 215.902344 119.726562 C 215.902344 115.585938 212.542969 112.226562 208.402344 112.226562 L 24.03125 112.226562 C 23.746094 112.226562 23.515625 111.996094 23.515625 111.710938 L 23.515625 95.160156 L 265.03125 95.160156 Z M 265.03125 111.710938 " style=" fill-rule:nonzero;fill-opacity:1;" stroke="#006DF0" fill="#006DF0"/>
</g>
</svg>
