<svg xmlns="http://www.w3.org/2000/svg" height="511pt" version="1.1" viewBox="0 0 511.99905 511" width="511pt">
<g id="surface1">
<path d="M 430.667969 93.246094 C 428.089844 93.246094 425.515625 92.257812 423.558594 90.28125 L 422.886719 89.609375 C 418.984375 85.703125 418.984375 79.371094 422.886719 75.464844 C 426.792969 71.558594 433.125 71.558594 437.03125 75.464844 L 437.773438 76.210938 C 441.660156 80.136719 441.628906 86.46875 437.699219 90.355469 C 435.75 92.285156 433.207031 93.246094 430.667969 93.246094 Z M 430.667969 93.246094 " style=" stroke:none;fill-rule:nonzero;fill:rgb(0%,0%,0%);fill-opacity:1;" />
<path d="M 256.007812 512.5 C 187.625 512.5 123.335938 485.867188 74.980469 437.515625 C 26.628906 389.160156 0 324.875 0 256.492188 C 0 188.109375 26.628906 123.820312 74.980469 75.464844 C 95.910156 54.539062 119.964844 37.566406 146.480469 25.019531 C 172.109375 12.894531 199.449219 5.164062 227.75 2.039062 C 284.386719 -4.21875 342.128906 8.730469 390.339844 38.492188 C 395.039062 41.394531 396.496094 47.554688 393.597656 52.253906 C 390.695312 56.953125 384.53125 58.410156 379.832031 55.511719 C 286.414062 -2.160156 166.871094 11.863281 89.125 89.609375 C -2.894531 181.628906 -2.894531 331.351562 89.125 423.371094 C 133.699219 467.945312 192.96875 492.496094 256.007812 492.496094 C 319.046875 492.496094 378.3125 467.945312 422.886719 423.371094 C 500.316406 345.945312 514.050781 222.714844 455.542969 130.355469 C 452.585938 125.691406 453.972656 119.511719 458.636719 116.558594 C 463.300781 113.601562 469.480469 114.988281 472.4375 119.652344 C 503.050781 167.980469 516.609375 226.109375 510.609375 283.328125 C 504.523438 341.394531 478.390625 396.152344 437.03125 437.511719 C 388.675781 485.867188 324.390625 512.5 256.007812 512.5 Z M 256.007812 512.5 " style=" stroke:none;fill-rule:nonzero;fill:rgb(0%,0%,0%);fill-opacity:1;" />
<path d="M 138.96875 421.621094 C 136.867188 421.621094 134.75 420.960938 132.945312 419.597656 C 108.261719 400.945312 87.816406 376.554688 73.820312 349.054688 C 59.136719 320.214844 51.695312 289.070312 51.695312 256.492188 C 51.695312 250.96875 56.171875 246.488281 61.695312 246.488281 C 67.21875 246.488281 71.695312 250.96875 71.695312 256.492188 C 71.695312 314.804688 98.414062 368.4375 145.003906 403.640625 C 149.410156 406.96875 150.28125 413.242188 146.953125 417.648438 C 144.988281 420.25 141.992188 421.621094 138.96875 421.621094 Z M 138.96875 421.621094 " style=" stroke:none;fill-rule:nonzero;fill:rgb(0%,0%,0%);fill-opacity:1;" />
<path d="M 256.007812 406.222656 C 237.257812 406.222656 222.007812 390.972656 222.007812 372.222656 L 222.007812 290.492188 L 140.273438 290.492188 C 121.527344 290.492188 106.273438 275.238281 106.273438 256.492188 C 106.273438 237.742188 121.527344 222.492188 140.273438 222.492188 L 222.007812 222.492188 L 222.007812 140.757812 C 222.007812 122.011719 237.257812 106.757812 256.007812 106.757812 C 274.753906 106.757812 290.007812 122.011719 290.007812 140.757812 L 290.007812 222.492188 L 371.738281 222.492188 C 390.488281 222.492188 405.738281 237.742188 405.738281 256.492188 C 405.738281 275.238281 390.488281 290.492188 371.738281 290.492188 L 290.007812 290.492188 L 290.007812 372.222656 C 290.007812 390.972656 274.753906 406.222656 256.007812 406.222656 Z M 140.273438 242.488281 C 132.554688 242.488281 126.273438 248.769531 126.273438 256.492188 C 126.273438 264.210938 132.554688 270.492188 140.273438 270.492188 L 232.007812 270.492188 C 237.53125 270.492188 242.007812 274.96875 242.007812 280.492188 L 242.007812 372.222656 C 242.007812 379.941406 248.285156 386.222656 256.007812 386.222656 C 263.726562 386.222656 270.007812 379.941406 270.007812 372.222656 L 270.007812 280.492188 C 270.007812 274.96875 274.484375 270.492188 280.007812 270.492188 L 371.738281 270.492188 C 379.460938 270.492188 385.738281 264.210938 385.738281 256.492188 C 385.738281 248.769531 379.460938 242.488281 371.738281 242.488281 L 280.007812 242.488281 C 274.484375 242.488281 270.007812 238.011719 270.007812 232.488281 L 270.007812 140.757812 C 270.007812 133.039062 263.726562 126.757812 256.007812 126.757812 C 248.285156 126.757812 242.007812 133.039062 242.007812 140.757812 L 242.007812 232.488281 C 242.007812 238.011719 237.53125 242.488281 232.007812 242.488281 Z M 140.273438 242.488281 " style=" stroke:none;fill-rule:nonzero;fill:rgb(0%,0%,0%);fill-opacity:1;" />
<path d="M 185.195312 447.085938 C 182.554688 447.085938 179.984375 446.027344 178.125 444.164062 C 176.265625 442.304688 175.195312 439.726562 175.195312 437.085938 C 175.195312 434.457031 176.265625 431.875 178.125 430.015625 C 179.984375 428.15625 182.566406 427.085938 185.195312 427.085938 C 187.824219 427.085938 190.394531 428.15625 192.265625 430.015625 C 194.125 431.886719 195.195312 434.457031 195.195312 437.085938 C 195.195312 439.726562 194.125 442.296875 192.265625 444.164062 C 190.40625 446.027344 187.824219 447.085938 185.195312 447.085938 Z M 185.195312 447.085938 " style=" stroke:none;fill-rule:nonzero;fill:rgb(0%,0%,0%);fill-opacity:1;" />
</g>
</svg>