<?xml version="1.0" encoding="iso-8859-1"?>
<!-- Generator: Adobe Illustrator 16.0.0, SVG Export Plug-In . SVG Version: 6.00 Build 0)  -->
<!DOCTYPE svg PUBLIC "-//W3C//DTD SVG 1.1//EN" "http://www.w3.org/Graphics/SVG/1.1/DTD/svg11.dtd">
<svg version="1.1" id="Capa_1" xmlns="http://www.w3.org/2000/svg" xmlns:xlink="http://www.w3.org/1999/xlink" x="0px" y="0px"
	 width="67.584px" height="67.584px" viewBox="0 0 67.584 67.584" style="enable-background:new 0 0 67.584 67.584;"
	 xml:space="preserve">
<g>
	<g id="_x31_8">
		<g>
			<path d="M55.296,38.101c-0.68,0-1.229,0.55-1.229,1.229v15.629c0,3.599-2.922,6.527-6.516,6.527H8.974
				c-3.593,0-6.516-2.93-6.516-6.527V23.703c0-3.599,2.923-6.527,6.516-6.527h22.975c0.68,0,1.229-0.55,1.229-1.23
				s-0.55-1.23-1.229-1.23H8.974C4.024,14.715,0,18.747,0,23.703v31.256c0,4.955,4.024,8.988,8.974,8.988h38.577
				c4.949,0,8.975-4.033,8.975-8.988V39.33C56.523,38.65,55.975,38.101,55.296,38.101z M52.8,3.637
				c-8.149,0-14.78,6.643-14.78,14.808c0,3.38,1.147,6.488,3.058,8.982L30.002,45.662c-0.323,0.531-0.199,1.223,0.291,1.605
				c0.223,0.178,0.491,0.264,0.758,0.264c0.317,0,0.632-0.121,0.869-0.359l15.083-15.109c1.781,0.764,3.74,1.189,5.797,1.189
				c8.152,0,14.784-6.643,14.784-14.808S60.952,3.637,52.8,3.637z M37.423,38.178l5.379-8.859c0.605,0.56,1.251,1.072,1.942,1.525
				L37.423,38.178z M52.8,30.79c-6.795,0-12.323-5.539-12.323-12.346S46.005,6.099,52.8,6.099c6.798,0,12.326,5.539,12.326,12.346
				S59.598,30.79,52.8,30.79z M59.709,12.279c-0.447-0.504-1.225-0.551-1.734-0.099c-0.507,0.451-0.55,1.229-0.099,1.738
				c1.108,1.246,1.722,2.853,1.722,4.526c0,3.754-3.049,6.807-6.798,6.807c-0.68,0-1.229,0.551-1.229,1.229
				c0,0.681,0.55,1.231,1.229,1.231c5.103,0,9.255-4.158,9.255-9.269C62.055,16.166,61.221,13.977,59.709,12.279z"/>
		</g>
	</g>
</g>
<g>
</g>
<g>
</g>
<g>
</g>
<g>
</g>
<g>
</g>
<g>
</g>
<g>
</g>
<g>
</g>
<g>
</g>
<g>
</g>
<g>
</g>
<g>
</g>
<g>
</g>
<g>
</g>
<g>
</g>
</svg>
