<svg height="624pt" viewBox="-19 -96 624 624" width="624pt" xmlns="http://www.w3.org/2000/svg"><path d="m132.882812 95.574219c0 16.894531-13.699218 30.597656-30.597656 30.597656-16.894531 0-30.589844-13.703125-30.589844-30.597656s13.695313-30.589844 30.589844-30.589844c16.898438 0 30.597656 13.695313 30.597656 30.589844zm0 0"/><path d="m102.285156-5.082031c-56.402344 0-102.285156 44.066406-102.285156 98.226562 0 73.105469 92.945312 133.363281 96.898438 135.898438 3.289062 2.09375 7.492187 2.09375 10.777343 0 3.957031-2.535157 96.898438-62.792969 96.898438-135.898438 0-54.160156-45.886719-98.226562-102.289063-98.226562zm0 151.25c-27.941406.003906-50.597656-22.648438-50.597656-50.59375 0-27.9375 22.652344-50.59375 50.59375-50.59375 27.945312 0 50.59375 22.65625 50.59375 50.59375-.03125 27.925781-22.660156 50.558593-50.589844 50.597656zm0 0"/><path d="m482.714844-5.082031c-56.402344 0-102.289063 44.066406-102.289063 98.226562 0 73.105469 92.941407 133.363281 96.898438 135.898438 3.285156 2.09375 7.488281 2.09375 10.777343 0 3.953126-2.535157 96.898438-62.792969 96.898438-135.898438 0-54.160156-45.882812-98.226562-102.285156-98.226562zm0 151.25c-27.945313 0-50.597656-22.652344-50.597656-50.597657.007812-27.9375 22.652343-50.589843 50.597656-50.589843 27.941406 0 50.589844 22.652343 50.589844 50.59375-.027344 27.929687-22.660157 50.5625-50.589844 50.597656zm0 0"/><path d="m513.304688 95.574219c0 16.894531-13.695313 30.597656-30.589844 30.597656-16.898438 0-30.597656-13.703125-30.597656-30.597656s13.699218-30.589844 30.597656-30.589844c16.894531 0 30.589844 13.695313 30.589844 30.589844zm0 0"/><path d="m482.714844 323.394531c-25.074219.03125-46.542969 17.96875-51.035156 42.636719h-278.359376c-4.769531-26.261719-28.691406-44.609375-55.292968-42.410156-26.597656 2.203125-47.175782 24.238281-47.5625 50.925781-.382813 26.683594 19.550781 49.304687 46.074218 52.273437 26.523438 2.96875 50.964844-14.683593 56.492188-40.789062h278.9375c5.652344 26.652344 30.964844 44.394531 57.949219 40.609375 26.980469-3.785156 46.441406-27.796875 44.542969-54.980469-1.890626-27.183594-24.496094-48.265625-51.742188-48.265625zm0 0"/></svg>