<?xml version="1.0" encoding="iso-8859-1"?>
<!-- Generator: Adobe Illustrator 19.0.0, SVG Export Plug-In . SVG Version: 6.00 Build 0)  -->
<svg version="1.1" id="Capa_1" xmlns="http://www.w3.org/2000/svg" xmlns:xlink="http://www.w3.org/1999/xlink" x="0px" y="0px"
	 viewBox="0 0 481.918 481.918" style="enable-background:new 0 0 481.918 481.918;" xml:space="preserve">
<path style="fill:#FFAF46;" d="M104.959,224h72c20.056,0,37.952-19.512,49.68-42.848c3.942-7.909,13.548-11.125,21.457-7.183
	c3.111,1.551,5.632,4.072,7.183,7.183C267.007,204.488,284.903,224,304.959,224h72c53.019,0,96-42.981,96-96s-42.981-96-96-96h-272
	c-53.019,0-96,42.981-96,96S51.94,224,104.959,224z M104.959,56h272c39.764,0,72,32.235,72,72s-32.236,72-72,72h-72
	c-6.632,0-18.464-10.176-28.24-29.6c-9.898-19.75-33.933-27.736-53.683-17.837c-7.714,3.866-13.971,10.123-17.837,17.837
	c-9.776,19.424-21.608,29.6-28.24,29.6h-72c-39.765,0-72-32.236-72-72S65.195,56,104.959,56L104.959,56z"/>
<path style="fill:#E7E7E8;" d="M104.959,200h72c6.632,0,18.464-10.176,28.24-29.6c9.898-19.75,33.933-27.736,53.683-17.837
	c7.714,3.866,13.971,10.123,17.837,17.837c9.776,19.448,21.6,29.6,28.24,29.6h72c39.764,0,72-32.236,72-72s-32.236-72-72-72h-272
	c-39.765,0-72,32.235-72,72S65.195,200,104.959,200z"/>
<g>
	<path style="fill:#C49A6C;" d="M112.959,8h32v24h-32V8z"/>
	<path style="fill:#C49A6C;" d="M336.959,8h32v24h-32V8z"/>
	<path style="fill:#C49A6C;" d="M158.639,448.96c24.682,15.372,53.244,23.367,82.32,23.04c29.076,0.327,57.638-7.668,82.32-23.04
		c9.056-5.821,16.995-13.218,23.44-21.84c9.351-12.421,14.355-27.573,14.24-43.12c0-20.72-16.56-45.52-37.2-68.16
		c-7.2-7.92-14.96-15.52-22.64-22.64c-21.04-19.44-41.92-50.8-52.08-56.72c-5.002-2.88-11.158-2.88-16.16,0
		c-10.16,5.92-31.04,37.28-52.08,56.72c-7.68,7.12-15.44,14.72-22.64,22.64c-20.64,22.64-37.2,47.44-37.2,68.16
		c-0.115,15.547,4.889,30.7,14.24,43.12C141.645,435.742,149.583,443.139,158.639,448.96L158.639,448.96z M240.959,360
		c17.673,0,32,14.327,32,32s-14.327,32-32,32s-32-14.327-32-32S223.286,360,240.959,360z"/>
</g>
<circle style="fill:#FFAF46;" cx="240.959" cy="392" r="32"/>
<g>
	<path style="fill:#C49A6C;" d="M323.759,315.84l23.12-23.12l-22.64-22.64l-23.12,23.12
		C308.799,300.32,316.559,307.92,323.759,315.84L323.759,315.84z"/>
	<path style="fill:#C49A6C;" d="M180.799,293.2l-23.12-23.12l-22.64,22.64l23.12,23.12C165.359,307.92,173.119,300.32,180.799,293.2
		z"/>
	<path style="fill:#C49A6C;" d="M133.679,473.92l24.96-24.96c-9.056-5.821-16.995-13.218-23.44-21.84l-24.16,24.16L133.679,473.92z"
		/>
	<path style="fill:#C49A6C;" d="M323.279,448.96l24.96,24.96l22.64-22.64l-24.16-24.16
		C340.274,435.742,332.335,443.139,323.279,448.96L323.279,448.96z"/>
</g>
<g>
	<path style="fill:#231F20;" d="M376.959,24V8c0-4.418-3.582-8-8-8h-32c-4.418,0-8,3.582-8,8v16h-176V8c0-4.418-3.582-8-8-8h-32
		c-4.418,0-8,3.582-8,8v16c-57.438,0-104,46.562-104,104s46.562,104,104,104h72c21.024,0,41.736-17.224,56.8-47.256
		c2.209-3.959,7.208-5.378,11.167-3.169c1.33,0.742,2.427,1.839,3.169,3.169C263.223,214.776,283.935,232,304.959,232h72
		c57.438,0,104-46.562,104-104S434.397,24,376.959,24z M344.959,16h16v8h-16V16z M120.959,16h16v8h-16V16z M376.959,216h-72
		c-14.536,0-30.4-14.4-42.536-38.448c-5.93-11.854-20.347-16.657-32.202-10.726c-4.641,2.322-8.405,6.085-10.726,10.726
		C207.399,201.6,191.495,216,176.959,216h-72c-48.601,0-88-39.399-88-88s39.399-88,88-88h272c48.601,0,88,39.399,88,88
		S425.56,216,376.959,216z"/>
	<path style="fill:#231F20;" d="M376.959,48h-272c-44.183,0-80,35.817-80,80s35.817,80,80,80h72c11.104,0,25-13.36,35.384-34.04
		c7.91-15.804,27.134-22.204,42.938-14.294c6.184,3.095,11.199,8.11,14.294,14.294c10.384,20.68,24.28,34.04,35.384,34.04h72
		c44.183,0,80-35.817,80-80S421.142,48,376.959,48z M376.959,192h-71.936c-2.464-0.344-11.944-6.888-21.152-25.216
		c-11.878-23.7-40.72-33.283-64.419-21.405c-9.257,4.639-16.765,12.148-21.405,21.405c-9.248,18.4-18.76,24.928-21.088,25.216h-72
		c-35.346,0-64-28.654-64-64s28.654-64,64-64h272c35.346,0,64,28.654,64,64S412.305,192,376.959,192z"/>
	<path style="fill:#231F20;" d="M240.959,352c-22.091,0-40,17.909-40,40s17.909,40,40,40s40-17.909,40-40
		C280.933,369.92,263.04,352.026,240.959,352z M240.959,416c-13.255,0-24-10.745-24-24s10.745-24,24-24c13.255,0,24,10.745,24,24
		S254.214,416,240.959,416z"/>
	<path style="fill:#231F20;" d="M357.055,426.136c7.893-12.628,12.022-27.245,11.904-42.136c0-18.832-11.624-41.6-34.264-67.776
		l17.84-17.848c3.123-3.124,3.123-8.188,0-11.312l-22.64-22.64c-3.174-3.001-8.138-3.001-11.312,0l-17.496,17.496
		c-8.128-8.32-16.208-17.92-23.488-26.72c-6.961-9.662-15.241-18.301-24.6-25.664c-7.468-4.32-16.676-4.32-24.144,0
		c-9.326,7.354-17.584,15.97-24.536,25.6c-7.272,8.8-15.344,18.4-23.488,26.728l-17.472-17.44c-3.124-3.123-8.188-3.123-11.312,0
		l-22.64,22.64c-3.123,3.124-3.123,8.188,0,11.312l17.84,17.848C124.583,342.4,112.959,365.168,112.959,384
		c-0.124,14.895,4.006,29.515,11.904,42.144l-19.48,19.456c-3.123,3.124-3.123,8.188,0,11.312l22.64,22.64
		c3.124,3.123,8.188,3.123,11.312,0l20.544-20.536c50.441,27.946,111.719,27.946,162.16,0l20.52,20.56
		c3.124,3.123,8.188,3.123,11.312,0l22.64-22.64c3.123-3.124,3.123-8.188,0-11.312L357.055,426.136z M324.255,281.392l11.328,11.328
		l-11.616,11.616c-0.872-0.904-1.808-1.84-2.712-2.76s-1.6-1.664-2.472-2.52c-1.024-1.024-2.12-2.08-3.2-3.12
		c-0.936-0.92-1.856-1.832-2.832-2.768l-0.136-0.136L324.255,281.392z M157.695,281.392l11.632,11.64l-0.192,0.192
		c-0.8,0.8-1.6,1.52-2.344,2.288c-1.24,1.2-2.488,2.4-3.664,3.584c-0.76,0.76-1.464,1.488-2.192,2.24c-0.992,1-2.008,2.016-2.952,3
		l-11.632-11.616L157.695,281.392z M133.695,462.608l-11.344-11.328l12.256-12.248c1.312,1.448,2.752,2.848,4.2,4.24
		c0.432,0.416,0.8,0.864,1.264,1.28c1.984,1.845,4.075,3.64,6.272,5.384L133.695,462.608z M163.063,442.288
		c-8.29-5.322-15.551-12.097-21.432-20c-8.327-11.018-12.782-24.478-12.672-38.288c0-15.872,12.144-37.6,35.12-62.776
		c3.136-3.448,20.848-20.944,22.152-22.144c10.84-10.568,20.994-21.818,30.4-33.68c5.956-8.006,12.729-15.371,20.208-21.976
		c1.255-0.718,2.674-1.098,4.12-1.104c1.404,0.005,2.782,0.375,4,1.072c7.511,6.604,14.306,13.98,20.272,22.008
		c9.406,11.86,19.56,23.107,30.4,33.672c8.64,8,15.888,15.248,22.16,22.152c23.032,25.176,35.168,46.904,35.168,62.776
		c0.111,13.853-4.361,27.353-12.72,38.4c-1.328,1.824-2.773,3.613-4.336,5.368c-5.035,5.548-10.765,10.423-17.048,14.504
		c-23.357,14.535-50.388,22.075-77.896,21.728c-27.511,0.352-54.548-7.182-77.912-21.712L163.063,442.288z M348.255,462.608
		l-12.664-12.672c2.192-1.728,4.275-3.515,6.248-5.36c0.568-0.528,1.064-1.088,1.6-1.6c1.328-1.296,2.664-2.584,3.88-3.92
		l12.256,12.248L348.255,462.608z"/>
</g>
<g>
</g>
<g>
</g>
<g>
</g>
<g>
</g>
<g>
</g>
<g>
</g>
<g>
</g>
<g>
</g>
<g>
</g>
<g>
</g>
<g>
</g>
<g>
</g>
<g>
</g>
<g>
</g>
<g>
</g>
</svg>
