<svg xmlns="http://www.w3.org/2000/svg" height="511pt" version="1.1" viewBox="-38 1 511 511.99925" width="511pt">
<g id="surface1">
<path d="M 217.890625 502 C 344.652344 441.113281 425.28125 312.941406 425.28125 172.3125 L 425.28125 100.816406 L 217.890625 10 L 10.5 100.816406 L 10.5 172.3125 C 10.5 312.941406 91.125 441.113281 217.890625 502 Z M 217.890625 502 " style=" stroke:none;fill-rule:nonzero;fill:rgb(100%,36.470588%,36.470588%);fill-opacity:1;" />
<path d="M 217.890625 502 C 344.652344 441.113281 425.28125 312.941406 425.28125 172.3125 L 425.28125 100.816406 L 217.890625 10 L 10.5 100.816406 L 10.5 172.3125 C 10.5 312.941406 91.125 441.113281 217.890625 502 Z M 217.890625 502 " style=" stroke:none;fill-rule:nonzero;fill:rgb(30.196078%,72.941176%,96.470588%);fill-opacity:1;" />
<path d="M 217.890625 512 C 216.410156 512 214.929688 511.671875 213.558594 511.011719 C 149.664062 480.324219 95.9375 432.386719 58.195312 372.382812 C 20.449219 312.382812 0.5 243.199219 0.5 172.3125 L 0.5 100.816406 C 0.5 96.84375 2.851562 93.25 6.488281 91.65625 L 67.292969 65.027344 C 72.355469 62.8125 78.25 65.121094 80.464844 70.175781 C 82.683594 75.238281 80.375 81.132812 75.316406 83.347656 L 20.5 107.355469 L 20.5 172.3125 C 20.5 306.648438 97.820312 431.148438 217.890625 490.867188 C 337.957031 431.148438 415.28125 306.648438 415.28125 172.3125 L 415.28125 107.355469 L 217.890625 20.917969 L 146.285156 52.273438 C 141.226562 54.484375 135.328125 52.183594 133.113281 47.125 C 130.898438 42.0625 133.203125 36.167969 138.261719 33.953125 L 213.878906 0.839844 C 216.4375 -0.28125 219.34375 -0.28125 221.902344 0.839844 L 429.289062 91.65625 C 432.929688 93.25 435.277344 96.84375 435.277344 100.816406 L 435.277344 172.3125 C 435.277344 243.199219 415.328125 312.382812 377.585938 372.382812 C 339.839844 432.386719 286.117188 480.320312 222.21875 511.011719 C 220.851562 511.667969 219.371094 512 217.890625 512 Z M 217.890625 512 " style=" stroke:none;fill-rule:nonzero;fill:rgb(0%,0%,0%);fill-opacity:1;" />
<path d="M 58.5 132.195312 L 58.5 172.3125 C 58.5 285.867188 120.355469 391.550781 217.890625 447.769531 C 315.421875 391.550781 377.28125 285.867188 377.28125 172.3125 L 377.28125 132.195312 L 217.890625 62.398438 Z M 58.5 132.195312 " style=" stroke:none;fill-rule:nonzero;fill:rgb(100%,100%,100%);fill-opacity:1;" />
<path d="M 217.890625 457.769531 C 216.164062 457.769531 214.441406 457.324219 212.894531 456.433594 C 163.402344 427.90625 121.933594 386.453125 92.96875 336.5625 C 63.878906 286.441406 48.5 229.644531 48.5 172.3125 L 48.5 132.195312 C 48.5 128.226562 50.851562 124.628906 54.488281 123.039062 L 213.878906 53.238281 C 216.4375 52.121094 219.34375 52.121094 221.902344 53.238281 L 381.289062 123.039062 C 384.929688 124.628906 387.277344 128.226562 387.277344 132.195312 L 387.277344 172.3125 C 387.277344 229.644531 371.902344 286.441406 342.808594 336.5625 C 313.84375 386.453125 272.375 427.90625 222.882812 456.433594 C 221.335938 457.324219 219.613281 457.769531 217.890625 457.769531 Z M 68.5 138.734375 L 68.5 172.3125 C 68.5 280.058594 125.589844 380.617188 217.890625 436.164062 C 310.191406 380.617188 367.28125 280.0625 367.28125 172.3125 L 367.28125 138.734375 L 217.890625 73.316406 Z M 68.5 138.734375 " style=" stroke:none;fill-rule:nonzero;fill:rgb(0%,0%,0%);fill-opacity:1;" />
<path d="M 201.023438 313.5625 L 134.355469 246.894531 L 168.296875 212.953125 L 201.023438 245.679688 L 267.484375 179.222656 L 301.421875 213.164062 Z M 201.023438 313.5625 " style=" stroke:none;fill-rule:nonzero;fill:rgb(62.745098%,89.803922%,34.117647%);fill-opacity:1;" />
<path d="M 201.023438 323.5625 C 198.464844 323.5625 195.90625 322.585938 193.953125 320.636719 L 127.285156 253.964844 C 123.378906 250.058594 123.378906 243.726562 127.285156 239.820312 L 161.226562 205.882812 C 165.128906 201.976562 171.460938 201.976562 175.367188 205.882812 L 201.023438 231.539062 L 260.410156 172.152344 C 264.316406 168.25 270.648438 168.25 274.554688 172.152344 L 308.496094 206.09375 C 312.398438 210 312.398438 216.332031 308.496094 220.234375 L 208.097656 320.636719 C 206.144531 322.585938 203.585938 323.5625 201.023438 323.5625 Z M 148.496094 246.894531 L 201.023438 299.421875 L 287.28125 213.164062 L 267.480469 193.367188 L 208.09375 252.753906 C 204.191406 256.65625 197.859375 256.65625 193.953125 252.753906 L 168.296875 227.09375 Z M 148.496094 246.894531 " style=" stroke:none;fill-rule:nonzero;fill:rgb(0%,0%,0%);fill-opacity:1;" />
<path d="M 107.617188 68.289062 C 104.988281 68.289062 102.410156 67.21875 100.550781 65.359375 C 98.691406 63.5 97.617188 60.917969 97.617188 58.289062 C 97.617188 55.660156 98.6875 53.078125 100.550781 51.21875 C 102.410156 49.359375 104.988281 48.289062 107.617188 48.289062 C 110.25 48.289062 112.828125 49.359375 114.6875 51.21875 C 116.546875 53.082031 117.617188 55.660156 117.617188 58.289062 C 117.617188 60.917969 116.550781 63.5 114.6875 65.359375 C 112.828125 67.21875 110.25 68.289062 107.617188 68.289062 Z M 107.617188 68.289062 " style=" stroke:none;fill-rule:nonzero;fill:rgb(0%,0%,0%);fill-opacity:1;" />
</g>
</svg>