<svg height="677pt" viewBox="-21 -104 677.33196 677" width="677pt" xmlns="http://www.w3.org/2000/svg"><path d="m120.046875 139.648438c-9.179687-2.695313-19.035156 1.09375-24.039063 9.253906l-91.519531 137.242187c-5.984375 8.933594-5.984375 20.597657 0 29.523438l91.5 137.230469c3.90625 6.246093 10.726563 10.078124 18.09375 10.175781 2.042969 0 4.070313-.304688 6.019531-.894531 9.363282-3.039063 15.609376-11.878907 15.34375-21.71875v-78.550782c0-2.945312 2.382813-5.328125 5.320313-5.328125h80.976563c16.980468.054688 33.277343-6.671875 45.269531-18.683593l46.027343-43.882813c1.484376-1.449219 2.792969-3.066406 3.910157-4.816406l50.890625 48.53125c12.027344 12.109375 28.40625 18.902343 45.480468 18.851562h79.085938c2.9375 0 5.320312 2.382813 5.320312 5.328125v78.550782c-.035156 9.964843 6.484376 18.761718 16.023438 21.640624 9.539062 2.875 19.835938-.855468 25.316406-9.175781l91.445313-137.257812c5.984375-8.925781 5.984375-20.589844 0-29.523438l-91.464844-137.167969c-5.484375-8.3125-15.773437-12.039062-25.308594-9.167968-9.535156 2.863281-16.058593 11.652344-16.046875 21.613281v72.726563c0 2.9375-2.382812 5.320312-5.320312 5.320312h-41.992188c-9.964844-.074219-19.5-4.101562-26.496094-11.207031l-23.773437-21.457031c1.332031-.894532 2.585937-1.914063 3.738281-3.039063l90.492188-90.5c1.121094-.800781 2.402344-1.328125 3.757812-1.554687h53.917969c14.699219 0 26.613281-11.914063 26.613281-26.613282v-63.878906c0-14.707031-11.914062-26.621094-26.613281-26.621094h-72.515625c-18.613281-.058594-36.480469 7.324219-49.625 20.507813l-108.277344 106.015625c-1.5 1.507812-2.816406 3.1875-3.917968 5.007812l-112.449219-110.941406c-13.144531-13.226562-31.042969-20.640625-49.6875-20.589844h-72.515625c-14.699219 0-26.613282 11.914063-26.613282 26.621094v63.878906c0 7.054688 2.800782 13.824219 7.792969 18.816406 4.992188 4.996094 11.761719 7.796876 18.820313 7.796876h32.914062c13.089844-.015626 25.644532 5.226562 34.84375 14.542968l55.917969 53.019532 28.679687 28.671874c-1.515624.960938-2.917968 2.085938-4.1875 3.355469l-20.4375 20.417969c-7.269531 6.070312-16.707031 8.871094-26.105468 7.75h-43.886719c-2.9375 0-5.320313-2.382812-5.320313-5.320312v-72.78125c.257813-9.851563-6.015624-18.699219-15.398437-21.71875zm216.445313-3.308594 108.367187-106.097656c9.164063-9.21875 21.636719-14.386719 34.640625-14.351563h72.515625c2.9375 0 5.320313 2.382813 5.320313 5.328125v63.878906c-.039063 2.921875-2.398438 5.28125-5.320313 5.320313h-53.917969c-7.011718.21875-13.703125 2.992187-18.820312 7.792969l-90.496094 90.5c-1 1-2.359375 1.5625-3.773438 1.5625-1.410156 0-2.765624-.5625-3.765624-1.5625l-44.789063-44.8125c-1.007813-1-1.574219-2.359376-1.574219-3.785157 0-1.417969.566406-2.777343 1.574219-3.773437zm-170.855469-25.332032c-13.148438-13.226562-31.046875-20.644531-49.695313-20.589843h-32.914062c-2.9375 0-5.320313-2.382813-5.320313-5.320313v-63.878906c0-2.945312 2.382813-5.328125 5.320313-5.328125h72.515625c13.023437-.03125 25.511719 5.160156 34.6875 14.40625l187.660156 185.125 31.332031 28.308594c10.941406 10.875 25.730469 17.003906 41.15625 17.035156h41.992188c14.699218 0 26.613281-11.917969 26.613281-26.617187v-72.78125c-.042969-.28125.027344-.566407.195313-.796876.167968-.230468.421874-.386718.703124-.425781.261719-.125.570313-.128906.84375-.023437.273438.109375.488282.328125.59375.59375l91.488282 137.238281c1.183594 1.789063 1.183594 4.113281 0 5.898437l-91.5625 137.269532c-.109375.265625-.324219.46875-.59375.570312-.265625.109375-.558594.097656-.824219-.019531-.28125-.039063-.535156-.195313-.699219-.421875-.171875-.230469-.238281-.519531-.191406-.800781v-78.539063c0-14.703125-11.921875-26.621094-26.621094-26.621094h-78.996094c-11.492187.011719-22.507812-4.589843-30.578124-12.773437l-57.660157-54.988281-20.335937-20.339844-83.160156-83.148438zm-24.871094 149.757813h43.886719c15.050781 1.148437 29.921875-3.902344 41.160156-13.980469l20.4375-20.429687c2.082031-2.078125 5.449219-2.078125 7.53125 0l44.652344 44.640625c1.015625 1.015625 1.574218 2.398437 1.558594 3.832031-.019532 1.4375-.617188 2.800781-1.65625 3.792969l-46.195313 44.042968c-8.039063 8.105469-18.984375 12.652344-30.398437 12.625h-80.976563c-14.699219 0-26.613281 11.917969-26.613281 26.621094v78.550782c0 .894531-.242188 1.300781-.429688.644531l-91.5625-137.253907c-1.1875-1.785156-1.1875-4.109374 0-5.898437l91.5625-137.949219c.265625.398438.378906.886719.320313 1.363282v72.78125c0 7.074218 2.816406 13.863281 7.832031 18.859374 5.015625 4.996094 11.8125 7.785157 18.890625 7.757813zm0 0"/></svg>