<?xml version="1.0" encoding="iso-8859-1"?>
<!-- Generator: Adobe Illustrator 19.0.0, SVG Export Plug-In . SVG Version: 6.00 Build 0)  -->
<svg version="1.1" id="Capa_1" xmlns="http://www.w3.org/2000/svg" xmlns:xlink="http://www.w3.org/1999/xlink" x="0px" y="0px"
	 viewBox="0 0 480 480" style="enable-background:new 0 0 480 480;" xml:space="preserve">
<g>
	<g>
		<path d="M440.18,408H416V232c0-97.202-78.798-176-176-176S64,134.798,64,232v176H39.82C22.254,408.019,8.019,422.254,8,439.82V472
			c-0.003,4.416,3.575,7.997,7.991,8c0.003,0,0.006,0,0.009,0h448c4.416,0.003,7.997-3.575,8-7.991c0-0.003,0-0.006,0-0.009v-32.18
			C471.981,422.254,457.746,408.019,440.18,408z M80,232c0-88.366,71.634-160,160-160s160,71.634,160,160v176H80V232z M456,464H24
			v-24.18c0.008-8.734,7.086-15.813,15.82-15.82H440.18c8.734,0.008,15.813,7.086,15.82,15.82V464z"/>
	</g>
</g>
<g>
	<g>
		<path d="M358.914,315.969l-112-192c-2.557-3.819-7.725-4.841-11.544-2.285c-0.903,0.605-1.68,1.381-2.285,2.285l-112,192
			c-2.225,3.819-0.932,8.719,2.888,10.944c1.222,0.712,2.612,1.087,4.026,1.088h224c4.42-0.001,8.003-3.585,8.002-8.005
			C360.001,318.581,359.626,317.191,358.914,315.969z M141.93,312L240,143.875L338.07,312H141.93z"/>
	</g>
</g>
<g>
	<g>
		<rect x="232" y="184" width="16" height="80"/>
	</g>
</g>
<g>
	<g>
		<path d="M240,276c-6.624,0.007-11.993,5.376-12,12c0,6.627,5.373,12,12,12c6.627,0,12-5.373,12-12
			C252,281.373,246.627,276,240,276z"/>
	</g>
</g>
<g>
	<g>
		<rect x="232" width="16" height="40"/>
	</g>
</g>
<g>
	<g>
		<rect x="284.003" y="20.008" transform="matrix(0.1961 -0.9806 0.9806 0.1961 216.9149 320.6101)" width="39.992" height="16"/>
	</g>
</g>
<g>
	<g>
		<rect x="388.638" y="91.098" transform="matrix(0.8321 -0.5547 0.5547 0.8321 13.661 243.3147)" width="40" height="16"/>
	</g>
</g>
<g>
	<g>
		<rect x="346.158" y="46.093" transform="matrix(0.7071 -0.7071 0.7071 0.7071 68.9943 274.7534)" width="39.992" height="16"/>
	</g>
</g>
<g>
	<g>
		<rect x="158.992" y="8.001" transform="matrix(0.9369 -0.3497 0.3497 0.9369 0.7524 60.1689)" width="15.992" height="40"/>
	</g>
</g>
<g>
	<g>
		<rect x="69.819" y="75.687" transform="matrix(0.4154 -0.9096 0.9096 0.4154 -41.5514 126.7159)" width="15.992" height="40"/>
	</g>
</g>
<g>
	<g>
		<rect x="104.001" y="37.881" transform="matrix(0.7071 -0.7071 0.7071 0.7071 -8.1209 96.1486)" width="16" height="39.992"/>
	</g>
</g>
<g>
</g>
<g>
</g>
<g>
</g>
<g>
</g>
<g>
</g>
<g>
</g>
<g>
</g>
<g>
</g>
<g>
</g>
<g>
</g>
<g>
</g>
<g>
</g>
<g>
</g>
<g>
</g>
<g>
</g>
</svg>
