<svg width="640" height="480" xmlns="http://www.w3.org/2000/svg" xmlns:svg="http://www.w3.org/2000/svg" xmlns:xlink="http://www.w3.org/1999/xlink">
 <defs>
  <pattern id="gridpattern" patternUnits="userSpaceOnUse" x="0" y="0" width="100" height="100">
   <image id="svg_46" x="0" y="0" width="100" height="100"/>
  </pattern>
  <symbol viewBox="0 0 426.667 426.667" y="0px" x="0px" id="svg_15" xmlns:xlink="http://www.w3.org/1999/xlink" xmlns="http://www.w3.org/2000/svg">
   <g>
    <g>
     <path d="m213.333,0c-83.2,0 -149.333,66.133 -149.333,149.333s149.333,277.333 149.333,277.333s149.333,-194.133 149.333,-277.333s-66.133,-149.333 -149.333,-149.333zm0,234.667c-46.933,0 -85.333,-38.4 -85.333,-85.333s38.4,-85.334 85.333,-85.334s85.333,38.4 85.333,85.333s-38.399,85.334 -85.333,85.334z" fill="#1ac6ff"/>
    </g>
   </g>
   <g/>
   <g/>
   <g/>
   <g/>
   <g/>
   <g/>
   <g/>
   <g/>
   <g/>
   <g/>
   <g/>
   <g/>
   <g/>
   <g/>
   <g/>
  </symbol>
 </defs>
 <g>
  <title>Layer 1</title>
  <g id="svg_4"/>
  <g id="svg_50"/>
  <ellipse fill="#ff7f00" stroke="#000000" stroke-width="5" cx="187" cy="359" id="svg_29"/>
  <ellipse stroke="#000000" ry="54.5" rx="54.5" id="svg_9" cy="63.5" cx="300.5" stroke-linecap="null" stroke-linejoin="null" stroke-dasharray="null" stroke-width="5" fill="#ffaa56"/>
  <line id="svg_10" y2="190" x2="300" y1="132" x1="300" stroke-linecap="null" stroke-linejoin="null" stroke-dasharray="null" stroke-width="5" stroke="#000000" fill="none"/>
  <line id="svg_11" y2="263" x2="300" y1="205" x1="300" stroke-linecap="null" stroke-linejoin="null" stroke-dasharray="null" stroke-width="5" stroke="#000000" fill="none"/>
  <line id="svg_13" y2="334" x2="300" y1="276" x1="300" stroke-linecap="null" stroke-linejoin="null" stroke-dasharray="null" stroke-width="5" stroke="#000000" fill="none"/>
  <use x="-82.52034" y="-116.27867" transform="matrix(0.2666009259413577,0,0,0.2666009259413577,238.18754959044233,376.3203498714556) " xlink:href="#svg_15" id="svg_16"/>
  <g id="svg_17"/>
 </g>
</svg>