<svg height="512pt" viewBox="0 0 512.00017 512" width="512pt" xmlns="http://www.w3.org/2000/svg">
<path fill="#FFF" d="m502 0h-492c-3.441406 0-6.644531 1.769531-8.472656 4.6875-1.828125 2.917969-2.027344 6.570312-.527344 9.667969l88.027344 181.933593-68.242188 161.828126c-1.238281 2.941406-1 6.296874.640625 9.03125l27.027344 45.007812-47.195313 84.988281c-1.71875 3.097657-1.671874 6.875.125 9.929688 1.796876 3.050781 5.074219 4.925781 8.617188 4.925781h492c5.523438 0 10-4.476562 10-10v-492c0-5.523438-4.476562-10-10-10zm-327 20h162v56.917969l-15.160156-14.214844c-3.9375-3.6875-10.09375-3.59375-13.910156.226563l-22.929688 22.925781-22.929688-22.925781c-3.902343-3.90625-10.234374-3.90625-14.140624 0l-22.929688 22.925781-22.929688-22.925781c-1.875-1.875-4.417968-2.929688-7.070312-2.929688s-5.195312 1.054688-7.070312 2.929688l-12.929688 12.925781zm-95.339844 249.972656 46.636719 24.851563c4.773437 2.546875 10.707031.832031 13.386719-3.867188l40.152344-70.371093 60.96875 48.753906c.582031.464844 1.203124.855468 1.851562 1.171875l-12.238281 13.464843-39.429688-17.144531c-4.6875-2.039062-10.160156-.214843-12.683593 4.230469l-41.558594 73.179688-74.691406-32.519532zm412.339844 222.027344h-465.007812l35.550781-64.019531s44.527343 41.230469 44.664062 41.355469c2.28125 2.113281 6.234375 3.171874 9.394531 2.320312l52-14c5.332032-1.4375 8.492188-6.921875 7.054688-12.257812-1.433594-5.332032-6.921875-8.488282-12.253906-7.054688l-46.664063 12.5625-48.847656-45.230469-26.703125-44.46875 13.097656-31.058593 79.878906 34.78125s23.273438 37.234374 23.355469 37.367187c1.671875 2.671875 5.171875 4.703125 8.5 4.703125 1.71875 0 3.410157-.453125 4.910157-1.300781 0 0 45.925781-26.007813 45.96875-26.03125 4.484374-2.539063 6.421874-8.972657 3.773437-13.628907-2.628906-4.621093-8.996094-6.390624-13.628906-3.78125l-37.640625 21.320313-16.761719-26.824219 38.617187-68 37.753907 16.414063c3.929687 1.707031 8.507812.726562 11.386719-2.441407l50-55c3.3125-3.640624 3.480468-9.148437.402343-12.984374-3.074219-3.835938-8.484375-4.867188-12.757812-2.425782l-30.050781 17.15625-64.796876-51.8125c-2.285156-1.824218-5.253906-2.558594-8.125-2.011718-2.871093.546874-5.359374 2.328124-6.808593 4.867187l-41.132813 72.089844-39.664062-21.136719 21.75-51.578125c1.117187-2.652344 1.039062-5.652344-.214844-8.242187l-31.761719-65.648438h43.335938l23.039062 35.449219c2.695313 4.148437 8.019531 5.699219 12.523438 3.652343l28.078125-12.761718s66.308594 42.027344 66.429687 42.105468c3.230469 2.046876 7.789063 2.042969 11.070313-.242187l19.0625-13.285156s51.539062 51.542969 51.648437 51.652343c3.609375 3.609376 10.371094 3.769532 14.144531 0 3.90625-3.90625 3.90625-10.238281 0-14.144531l-49.125-49.125 30.269532-21.097656c4.53125-3.160156 5.644531-9.390625 2.488281-13.921875-3.160156-4.53125-9.394531-5.644531-13.921875-2.488281l-60.546875 42.199219-65.382813-41.441407c-2.851562-1.804687-6.417968-2.050781-9.492187-.65625l-25.167969 11.441407-21.308594-32.789063c-1.847656-2.835937-5-4.546875-8.386718-4.546875h-58.4375l-41.609375-86h129.050781v80c0 5.132812 4.773438 10 10 10 2.601562 0 5.160156-1.015625 7.070312-2.929688l22.929688-22.925781s22.832031 22.832031 22.929688 22.925781c3.707031 3.707032 10.304687 3.835938 14.140624 0l22.929688-22.929687s22.847656 22.847656 22.929688 22.929687c3.804687 3.808594 10.363281 3.78125 14.140624 0l23.152344-23.152343 24.9375 23.378906c2.90625 2.722656 7.15625 3.464844 10.816406 1.878906 3.65625-1.585937 6.023438-5.1875 6.023438-9.175781v-80h135zm0 0"/>
<path fill="#FFF" d="m282 342v120c0 5.523438 4.476562 10 10 10h170c5.523438 0 10-4.476562 10-10v-120c0-5.523438-4.476562-10-10-10h-170c-5.523438 0-10 4.476562-10 10zm20 10h150v100h-150zm0 0"/>
<path fill="#FFF" d="m332 392c5.511719 0 10-4.488281 10-10s-4.488281-10-10-10-10 4.488281-10 10 4.488281 10 10 10zm0 0"/>
<path fill="#FFF" d="m422 372h-50c-5.511719 0-10 4.488281-10 10s4.488281 10 10 10h50c5.511719 0 10-4.488281 10-10s-4.488281-10-10-10zm0 0"/>
<path fill="#FFF" d="m422 412h-90c-5.523438 0-10 4.476562-10 10s4.476562 10 10 10h90c5.523438 0 10-4.476562 10-10s-4.476562-10-10-10zm0 0"/>
<path fill="#FFF" d="m257 351c0 5.523438-4.476562 10-10 10s-10-4.476562-10-10 4.476562-10 10-10 10 4.476562 10 10zm0 0"/></svg>