<?xml version="1.0" encoding="iso-8859-1"?>
<!-- Generator: Adobe Illustrator 19.0.0, SVG Export Plug-In . SVG Version: 6.00 Build 0)  -->
<svg version="1.1" id="Layer_1" xmlns="http://www.w3.org/2000/svg" xmlns:xlink="http://www.w3.org/1999/xlink" x="0px" y="0px"
	 viewBox="0 0 512 512" style="enable-background:new 0 0 512 512;" xml:space="preserve">
<circle style="fill:#D9DFE6;" cx="256" cy="256" r="256"/>
<path style="fill:#EEBF30;" d="M267.165,352.194c-3.806-0.623-6.712-3.918-6.712-7.899V212.991h-10.91v131.305
	c0,3.981-2.907,7.276-6.713,7.899c-13.368,5.047-22.298,17.873-22.298,32.234c0,19.004,15.461,34.465,34.465,34.465
	s34.465-15.461,34.465-34.465C289.464,370.067,280.534,357.24,267.165,352.194z"/>
<path style="fill:#F7F7F8;" d="M294.992,331.012c-2.103-1.573-3.203-3.979-3.206-6.418h-0.013V97.341
	c0-20.277-16.498-36.775-36.775-36.775s-36.775,16.498-36.775,36.775v227.252h-0.012c-0.002,2.438-1.103,4.845-3.206,6.418
	c-17.067,12.764-26.857,32.292-26.857,53.573c0,36.861,29.988,66.849,66.849,66.849s66.849-29.989,66.849-66.849
	C321.848,363.303,312.06,343.777,294.992,331.012z M254.998,434.921c-27.842,0-50.493-22.65-50.493-50.493
	c0-19.701,11.467-37.452,29.01-45.699V204.977c0-4.425,3.587-8.014,8.014-8.014h26.938c4.425,0,8.014,3.588,8.014,8.014v133.752
	c17.544,8.248,29.01,25.997,29.01,45.699C305.491,412.27,282.841,434.921,254.998,434.921z"/>
<g>
	<path style="fill:#003A75;" d="M331.865,160.941h-5.908c-4.425,0-8.014,3.588-8.014,8.014s3.588,8.014,8.014,8.014h5.908
		c4.425,0,8.014-3.588,8.014-8.014S336.29,160.941,331.865,160.941z"/>
	<path style="fill:#003A75;" d="M331.865,116.685h-5.908c-4.425,0-8.014,3.588-8.014,8.014c0,4.425,3.588,8.014,8.014,8.014h5.908
		c4.425,0,8.014-3.588,8.014-8.014C339.879,120.273,336.29,116.685,331.865,116.685z"/>
	<path style="fill:#003A75;" d="M331.865,205.196h-5.908c-4.425,0-8.014,3.588-8.014,8.014s3.588,8.014,8.014,8.014h5.908
		c4.425,0,8.014-3.588,8.014-8.014C339.879,208.785,336.29,205.196,331.865,205.196z"/>
	<path style="fill:#003A75;" d="M331.865,249.452h-5.908c-4.425,0-8.014,3.588-8.014,8.014c0,4.425,3.588,8.014,8.014,8.014h5.908
		c4.425,0,8.014-3.588,8.014-8.014C339.879,253.039,336.29,249.452,331.865,249.452z"/>
	<path style="fill:#003A75;" d="M331.865,293.707h-5.908c-4.425,0-8.014,3.588-8.014,8.014s3.588,8.014,8.014,8.014h5.908
		c4.425,0,8.014-3.588,8.014-8.014C339.879,297.295,336.29,293.707,331.865,293.707z"/>
	<path style="fill:#003A75;" d="M307.801,320.709V97.341c0-29.115-23.688-52.803-52.803-52.803s-52.803,23.688-52.803,52.803
		v223.367c-19.161,15.807-30.074,38.86-30.074,63.875c0,45.698,37.178,82.877,82.877,82.877s82.877-37.179,82.877-82.877
		C337.875,359.569,326.963,336.516,307.801,320.709z M254.998,451.433c-36.861,0-66.849-29.989-66.849-66.849
		c0-21.281,9.788-40.809,26.857-53.573c2.103-1.572,3.203-3.979,3.206-6.418h0.012V97.341c0-20.277,16.496-36.775,36.775-36.775
		c20.277,0,36.775,16.498,36.775,36.775v227.253h0.013c0.002,2.438,1.103,4.845,3.206,6.418
		c17.066,12.765,26.856,32.29,26.856,53.572C321.848,421.445,291.859,451.433,254.998,451.433z"/>
	<path style="fill:#003A75;" d="M276.481,338.729V204.977c0-4.425-3.588-8.014-8.014-8.014h-26.938
		c-4.427,0-8.014,3.588-8.014,8.014v133.752c-17.544,8.248-29.01,25.998-29.01,45.699c0,27.843,22.652,50.493,50.493,50.493
		c27.843,0,50.493-22.65,50.493-50.493C305.491,364.727,294.025,346.977,276.481,338.729z M254.998,418.893
		c-19.004,0-34.465-15.461-34.465-34.465c0-14.361,8.93-27.187,22.298-32.234c3.805-0.623,6.713-3.918,6.713-7.899V212.991h10.91
		v131.305c0,3.981,2.907,7.275,6.712,7.899c13.369,5.047,22.299,17.873,22.299,32.234
		C289.464,403.432,274.002,418.893,254.998,418.893z"/>
</g>
<path style="fill:#FFFFFF;" d="M257.552,416.829c-15.528-1.274-28.447-13.083-31.068-28.44c-2.84-16.649,6.618-32.412,21.799-38.138
	c3.803-0.624,6.709-3.918,6.709-7.899v-129.36h-5.447v131.306c0,3.981-2.906,7.275-6.709,7.899
	c-15.181,5.728-24.639,21.49-21.799,38.138c2.62,15.358,15.54,27.166,31.068,28.44c6.141,0.504,11.98-0.621,17.145-2.977
	C265.553,416.775,261.62,417.163,257.552,416.829z"/>
<g>
</g>
<g>
</g>
<g>
</g>
<g>
</g>
<g>
</g>
<g>
</g>
<g>
</g>
<g>
</g>
<g>
</g>
<g>
</g>
<g>
</g>
<g>
</g>
<g>
</g>
<g>
</g>
<g>
</g>
</svg>
