<?xml version="1.0" encoding="iso-8859-1"?>
<!-- Generator: Adobe Illustrator 19.0.0, SVG Export Plug-In . SVG Version: 6.00 Build 0)  -->
<svg version="1.1" id="Capa_1" xmlns="http://www.w3.org/2000/svg" xmlns:xlink="http://www.w3.org/1999/xlink" x="0px" y="0px"
	 viewBox="0 0 512 512" style="enable-background:new 0 0 512 512;" xml:space="preserve">
<g>
	<g>
		<g>
			<path fill="#FFF" d="M181.289,336.597V53.333C181.289,23.915,157.353,0,127.956,0C98.558,0,74.622,23.915,74.622,53.333v283.243
				c-33.643,22.549-49.536,63.296-39.744,103.381c8.363,34.176,35.904,61.419,70.187,69.397c7.595,1.749,15.296,2.645,22.891,2.645
				c25.643,0,49.749-9.984,67.883-28.117c18.133-18.133,28.117-42.24,28.117-67.883
				C223.956,384.277,207.764,354.389,181.289,336.597z M180.756,468.8c-14.123,14.101-32.853,21.867-52.8,21.867
				c-5.973,0-12.053-0.704-18.048-2.112c-26.517-6.165-47.829-27.221-54.293-53.696c-8.171-33.365,5.589-66.027,35.051-83.136
				c3.264-1.92,5.291-5.44,5.291-9.216V53.333c0-17.643,14.357-32,32-32c17.643,0,32,14.357,32,32v289.173
				c0,3.797,2.027,7.317,5.312,9.216c23.381,13.632,37.355,37.653,37.355,64.277C202.622,435.947,194.857,454.677,180.756,468.8z"/>
			<path fill="#FFF" d="M127.956,384c-17.643,0-32,14.357-32,32c0,17.643,14.357,32,32,32c17.643,0,32-14.357,32-32
				C159.956,398.357,145.598,384,127.956,384z M127.956,426.667c-5.888,0-10.667-4.8-10.667-10.667
				c0-5.867,4.779-10.667,10.667-10.667c5.888,0,10.667,4.8,10.667,10.667C138.622,421.867,133.844,426.667,127.956,426.667z"/>
			<path fill="#FFF" d="M468.585,186.261c0.235,0.021,0.469,0.021,0.725,0.021c5.568,0,10.261-4.309,10.645-9.963
				c0.384-5.867-4.053-10.965-9.941-11.349l-40.192-2.667l42.155-25.131c5.056-3.029,6.72-9.557,3.712-14.635
				c-3.029-5.056-9.557-6.72-14.635-3.712l-41.237,24.576l17.771-37.099c2.539-5.312,0.299-11.691-5.013-14.229
				c-5.312-2.517-11.691-0.299-14.229,5.013l-31.616,66.069l-34.773,20.736v-42.091l39.595-61.355
				c3.2-4.949,1.771-11.563-3.179-14.741c-4.907-3.243-11.563-1.749-14.741,3.157l-21.675,33.6V53.333
				c0-5.888-4.779-10.667-10.667-10.667s-10.667,4.779-10.667,10.667v49.131l-21.696-33.6c-3.2-4.928-9.835-6.421-14.741-3.157
				c-4.949,3.179-6.379,9.792-3.179,14.741l39.616,61.355v42.091l-34.773-20.736l-31.637-66.048
				c-2.539-5.312-8.939-7.552-14.229-5.013c-5.312,2.539-7.552,8.917-5.013,14.229l17.771,37.099l-41.216-24.597
				c-5.056-3.008-11.627-1.344-14.635,3.712c-3.008,5.056-1.344,11.605,3.712,14.635l42.155,25.131l-40.171,2.667
				c-5.888,0.405-10.325,5.483-9.941,11.371c0.384,5.632,5.056,9.941,10.645,9.941c0.235,0,0.469,0,0.725-0.021l71.019-4.736
				l35.413,21.141l-35.435,21.141l-71.019-4.736c-5.824-0.533-10.965,4.032-11.349,9.941c-0.384,5.867,4.053,10.965,9.941,11.349
				l40.171,2.688l-42.155,25.109c-5.056,3.029-6.72,9.557-3.712,14.635c2.005,3.349,5.547,5.205,9.173,5.205
				c1.856,0,3.733-0.469,5.44-1.493l41.237-24.576l-17.771,37.099c-2.539,5.312-0.299,11.691,5.013,14.229
				c1.472,0.704,3.051,1.045,4.587,1.045c3.989,0,7.808-2.219,9.643-6.059l31.637-66.048l34.773-20.757v42.069l-39.595,61.355
				c-3.2,4.949-1.771,11.563,3.179,14.741c4.907,3.221,11.541,1.749,14.741-3.157l21.675-33.579V352
				c0,5.888,4.779,10.667,10.667,10.667s10.667-4.779,10.667-10.667v-49.131l21.696,33.6c2.027,3.136,5.461,4.864,8.96,4.864
				c1.984,0,3.989-0.533,5.781-1.707c4.949-3.179,6.379-9.792,3.179-14.741l-39.616-61.355V221.44l34.773,20.736l31.637,66.048
				c1.835,3.84,5.653,6.059,9.643,6.059c1.536,0,3.115-0.341,4.587-1.045c5.312-2.539,7.552-8.917,5.013-14.229l-17.771-37.099
				l41.237,24.576c1.707,1.024,3.584,1.493,5.44,1.493c3.627,0,7.168-1.856,9.173-5.205c3.008-5.056,1.344-11.605-3.712-14.635
				l-42.155-25.131l40.171-2.688c5.867-0.405,10.325-5.483,9.941-11.349c-0.384-5.888-5.44-10.56-11.349-9.941l-71.019,4.736
				l-35.435-21.099l35.435-21.141L468.585,186.261z"/>
		</g>
	</g>
</g>
<g>
</g>
<g>
</g>
<g>
</g>
<g>
</g>
<g>
</g>
<g>
</g>
<g>
</g>
<g>
</g>
<g>
</g>
<g>
</g>
<g>
</g>
<g>
</g>
<g>
</g>
<g>
</g>
<g>
</g>
</svg>
