<?xml version="1.0" encoding="iso-8859-1"?>
<!-- Generator: Adobe Illustrator 19.0.0, SVG Export Plug-In . SVG Version: 6.00 Build 0)  -->
<svg version="1.1" id="Capa_1" xmlns="http://www.w3.org/2000/svg" xmlns:xlink="http://www.w3.org/1999/xlink" x="0px" y="0px"
	 viewBox="0 0 491.213 491.213" style="enable-background:new 0 0 491.213 491.213;" xml:space="preserve">
<g>
	<g>
		<path d="M310.046,275.712V64.41C310.075,28.865,281.283,0.028,245.739,0h0c-35.516,0-64.307,28.791-64.307,64.307
			c0,0.034,0,0.068,0,0.102v211.302c-54.27,35.48-69.502,108.238-34.022,162.508c20.478,31.323,54.662,51.006,92.031,52.993
			c2.15,0,4.284,0,6.4,0c64.839-0.16,117.271-52.853,117.111-117.692C362.855,334.104,342.983,297.366,310.046,275.712z
			 M290.869,389.2c-6.546,19.338-24.714,32.333-45.13,32.279v-0.154c-26.241,0.069-47.57-21.147-47.639-47.388
			c-0.054-20.416,12.941-38.584,32.279-45.13V150.374c0-8.483,6.877-15.36,15.36-15.36s15.36,6.877,15.36,15.36V328.96
			C285.955,337.374,299.283,364.344,290.869,389.2z"/>
	</g>
</g>
<g>
</g>
<g>
</g>
<g>
</g>
<g>
</g>
<g>
</g>
<g>
</g>
<g>
</g>
<g>
</g>
<g>
</g>
<g>
</g>
<g>
</g>
<g>
</g>
<g>
</g>
<g>
</g>
<g>
</g>
</svg>
