<svg width="640" height="480" xmlns="http://www.w3.org/2000/svg" xmlns:svg="http://www.w3.org/2000/svg" xmlns:xlink="http://www.w3.org/1999/xlink">
 <defs>
  <pattern id="gridpattern" patternUnits="userSpaceOnUse" x="0" y="0" width="100" height="100">
   <image id="svg_46" x="0" y="0" width="100" height="100"/>
  </pattern>
  <symbol viewBox="0 0 60 60" y="0px" x="0px" id="svg_2" xmlns:xlink="http://www.w3.org/1999/xlink" xmlns="http://www.w3.org/2000/svg">
   <g>
    <path fill="#FFF" d="m47.024,31.5l0,-8.994c0.043,-6.857 -4.568,-11.405 -8.53,-13.216c-1.135,-0.519 -2.305,-0.919 -3.494,-1.216l0,-0.574c0,-2.757 -2.243,-5 -5,-5s-5,2.243 -5,5l0,0.661c-1.071,0.289 -2.124,0.666 -3.146,1.138c-4.378,2.018 -8.814,6.882 -8.854,13.201l0,9c0,6.388 -2.256,11.869 -6.705,16.291c-0.265,0.264 -0.361,0.653 -0.249,1.01s0.415,0.621 0.784,0.685l9.491,1.639c1.768,0.305 3.396,0.555 4.945,0.761c1.745,3.42 5.172,5.615 8.916,5.615c3.745,0 7.173,-2.196 8.917,-5.618c1.543,-0.205 3.163,-0.454 4.921,-0.758l9.49,-1.639c0.369,-0.063 0.671,-0.328 0.784,-0.685c0.113,-0.356 0.017,-0.746 -0.249,-1.01c-4.658,-4.631 -7.021,-10.112 -7.021,-16.291zm-20.024,-24c0,-1.654 1.346,-3 3,-3s3,1.346 3,3l0,0.182c-1.993,-0.286 -4.015,-0.274 -6,0.047l0,-0.229zm3.183,48c-2.532,0 -4.898,-1.258 -6.417,-3.315c2.235,0.23 4.321,0.346 6.406,0.346c2.093,0 4.186,-0.116 6.43,-0.349c-1.52,2.059 -3.887,3.318 -6.419,3.318zm13.498,-6.347c-1.919,0.331 -3.678,0.6 -5.34,0.812c-0.002,0 -0.004,0 -0.007,0c-0.733,0.093 -1.445,0.174 -2.142,0.244c-0.006,0 -0.011,0.001 -0.017,0.001c-0.639,0.064 -1.263,0.116 -1.881,0.16c-0.116,0.008 -0.232,0.016 -0.347,0.023c-0.535,0.035 -1.064,0.063 -1.59,0.083c-0.107,0.004 -0.215,0.01 -0.322,0.013c-1.244,0.042 -2.471,0.042 -3.714,0.001c-0.111,-0.004 -0.223,-0.01 -0.334,-0.014c-0.517,-0.021 -1.038,-0.047 -1.565,-0.082c-0.125,-0.008 -0.25,-0.016 -0.376,-0.025c-0.599,-0.043 -1.205,-0.093 -1.824,-0.155c-0.023,-0.002 -0.045,-0.004 -0.068,-0.006c-0.692,-0.069 -1.398,-0.15 -2.124,-0.242c-0.003,0 -0.006,0 -0.009,0c-1.668,-0.211 -3.434,-0.482 -5.361,-0.814l-7.66,-1.322c3.983,-4.554 6,-10.038 6,-16.33l0,-8.994c0.034,-5.435 3.888,-9.637 7.691,-11.391c1.131,-0.521 2.304,-0.91 3.497,-1.183c0.01,-0.002 0.021,-0.001 0.031,-0.003c2.465,-0.554 5.087,-0.579 7.58,-0.068c0.013,0.003 0.026,-0.003 0.039,-0.001c1.304,0.272 2.588,0.684 3.825,1.249c3.689,1.687 7.396,5.861 7.361,11.392l0,9c0,6.033 2.175,11.643 6.313,16.331l-7.656,1.321z"/>
    <path fill="#FFF" d="m36.417,13.838c-3.875,-1.771 -8.62,-1.773 -12.469,0.002c-2.195,1.012 -5.918,3.973 -5.948,8.654c-0.003,0.552 0.441,1.002 0.994,1.006c0.002,0 0.004,0 0.006,0c0.549,0 0.997,-0.443 1,-0.994c0.023,-3.677 3.019,-6.035 4.785,-6.85c3.33,-1.537 7.446,-1.533 10.799,0c0.503,0.23 1.096,0.009 1.326,-0.493c0.23,-0.503 0.008,-1.096 -0.493,-1.325z"/>
    <path fill="#FFF" d="m4.802,22.793c-0.391,-0.391 -1.023,-0.391 -1.414,0c-2.185,2.185 -3.388,5.093 -3.388,8.19c0,3.097 1.203,6.006 3.388,8.19c0.195,0.195 0.451,0.293 0.707,0.293s0.512,-0.098 0.707,-0.293c0.391,-0.391 0.391,-1.023 0,-1.414c-1.807,-1.807 -2.802,-4.213 -2.802,-6.776c0,-2.563 0.995,-4.97 2.802,-6.776c0.39,-0.391 0.39,-1.023 0,-1.414z"/>
    <path fill="#FFF" d="m8.305,37.19c0.256,0 0.512,-0.098 0.707,-0.293c0.391,-0.391 0.391,-1.023 0,-1.414c-2.558,-2.558 -2.558,-6.719 0,-9.276c0.391,-0.391 0.391,-1.023 0,-1.414s-1.023,-0.391 -1.414,0c-3.337,3.337 -3.337,8.768 0,12.104c0.195,0.196 0.451,0.293 0.707,0.293z"/>
    <path fill="#FFF" d="m56.612,22.793c-0.391,-0.391 -1.023,-0.391 -1.414,0s-0.391,1.023 0,1.414c1.807,1.807 2.802,4.213 2.802,6.776c0,2.563 -0.995,4.969 -2.802,6.776c-0.391,0.391 -0.391,1.023 0,1.414c0.195,0.195 0.451,0.293 0.707,0.293s0.512,-0.098 0.707,-0.293c2.185,-2.184 3.388,-5.093 3.388,-8.19c0,-3.097 -1.203,-6.005 -3.388,-8.19z"/>
    <path fill="#FFF" d="m50.988,24.793c-0.391,0.391 -0.391,1.023 0,1.414c2.558,2.558 2.558,6.719 0,9.276c-0.391,0.391 -0.391,1.023 0,1.414c0.195,0.195 0.451,0.293 0.707,0.293s0.512,-0.098 0.707,-0.293c3.337,-3.337 3.337,-8.768 0,-12.104c-0.391,-0.391 -1.024,-0.391 -1.414,0z"/>
   </g>
   <g/>
   <g/>
   <g/>
   <g/>
   <g/>
   <g/>
   <g/>
   <g/>
   <g/>
   <g/>
   <g/>
   <g/>
   <g/>
   <g/>
   <g/>
  </symbol>
 </defs>
 <g>
  <title>Layer 1</title>
  <g id="svg_4"/>
  <g id="svg_50"/>
  <g id="svg_17"/>
  <use x="-1790.24888" y="-83.01886" transform="rotate(-37.445396423339844 -1418.00830078125,155.23095703125) matrix(0.9722000420294118,0,0,0.9722000420294118,1347.304588066153,1111.5349402984148) " xlink:href="#svg_2" id="svg_3"/>
  <g stroke="null" transform="rotate(-75.66893005371094 0,0) " id="svg_5"/>
 </g>
</svg>