<?xml version="1.0" encoding="iso-8859-1"?>
<!-- Generator: Adobe Illustrator 19.0.0, SVG Export Plug-In . SVG Version: 6.00 Build 0)  -->
<svg version="1.1" id="Capa_1" xmlns="http://www.w3.org/2000/svg" xmlns:xlink="http://www.w3.org/1999/xlink" x="0px" y="0px"
	 viewBox="0 0 480 480" style="enable-background:new 0 0 480 480;" xml:space="preserve">
<g>
	<g>
		<path d="M438.896,435.97H472c4.418,0,8-3.582,8-8V317.202c0-1.509-0.427-2.987-1.232-4.264l-51.176-81.232
			c-1.469-2.332-4.036-3.744-6.792-3.736H352v-40c0-4.418-3.582-8-8-8H104c-4.418,0-8,3.582-8,8v24H64c-4.418,0-8,3.582-8,8
			s3.582,8,8,8h32v72H8c-4.418,0-8,3.582-8,8s3.582,8,8,8h88v80H24c-4.418,0-8,3.582-8,8s3.582,8,8,8h72v16c0,4.418,3.582,8,8,8
			h33.136c1.617,6.212,5.075,11.79,9.92,16H8c-4.418,0-8,3.582-8,8s3.582,8,8,8h464c4.418,0,8-3.582,8-8s-3.582-8-8-8h-43.024
			C433.821,447.76,437.28,442.182,438.896,435.97z M137.168,419.97H112v-224h224v224H198.896
			c-4.338-17.046-21.674-27.347-38.719-23.009C148.872,399.839,140.045,408.666,137.168,419.97z M168,443.97
			c-8.837,0-16-7.163-16-16s7.163-16,16-16s16,7.163,16,16S176.837,443.97,168,443.97z M188.944,451.97
			c4.845-4.21,8.303-9.788,9.92-16h178.304c1.616,6.212,5.075,11.79,9.92,16H188.944z M408,443.97c-8.837,0-16-7.163-16-16
			s7.163-16,16-16s16,7.163,16,16S416.837,443.97,408,443.97z M400.177,396.961c-11.304,2.877-20.131,11.704-23.008,23.009H352v-176
			h64.384L464,319.514V419.97h-25.104C434.558,402.924,417.222,392.623,400.177,396.961z"/>
	</g>
</g>
<g>
	<g>
		<path d="M285.726,270.312c-0.005-0.005-0.01-0.01-0.014-0.014l-32-32c-3.128-3.124-8.196-3.12-11.32,0.008
			c-3.124,3.128-3.12,8.196,0.008,11.32l18.32,18.344H192c-4.418,0-8,3.582-8,8s3.582,8,8,8h68.72l-18.32,18.344
			c-3.178,3.07-3.266,8.134-0.196,11.312c3.07,3.178,8.134,3.266,11.312,0.196c0.066-0.064,0.132-0.13,0.196-0.196l32-32
			C288.84,278.506,288.847,273.44,285.726,270.312z"/>
	</g>
</g>
<g>
	<g>
		<path d="M248,331.97h-68.656l18.344-18.344c2.97-3.271,2.726-8.33-0.545-11.301c-3.046-2.766-7.692-2.77-10.743-0.011l-32,32
			c-3.128,3.12-3.135,8.186-0.014,11.314c0.005,0.005,0.01,0.01,0.014,0.014v-0.008l32,32c3.178,3.069,8.242,2.982,11.312-0.196
			c2.994-3.1,2.994-8.015,0-11.116l-18.368-18.352H248c4.418,0,8-3.582,8-8S252.418,331.97,248,331.97z"/>
	</g>
</g>
<g>
	<g>
		<path d="M32,211.97h-8c-4.418,0-8,3.582-8,8s3.582,8,8,8h8c4.418,0,8-3.582,8-8S36.418,211.97,32,211.97z"/>
	</g>
</g>
<g>
	<g>
		<path d="M392,339.97h-16c-4.418,0-8,3.582-8,8s3.582,8,8,8h16c4.418,0,8-3.582,8-8S396.418,339.97,392,339.97z"/>
	</g>
</g>
<g>
	<g>
		<path d="M438.912,311.97l-28-48c-1.426-2.47-4.06-3.994-6.912-4h-28c-4.418,0-8,3.582-8,8v48c0,4.418,3.582,8,8,8h56
			c4.418-0.009,7.993-3.598,7.984-8.016C439.981,314.555,439.611,313.181,438.912,311.97z M384,307.97v-32h15.44l18.664,32H384z"/>
	</g>
</g>
<g>
	<g>
		<path d="M472.002,23.224c-0.538,0-1.075,0.054-1.602,0.162h0.056c-16.062,3.239-32.754,0.333-46.776-8.144l-3.512-2.12
			c-0.221-0.11-0.448-0.209-0.68-0.296c-0.232-0.112-0.464-0.208-0.704-0.304c-1.776-0.656-3.728-0.656-5.504,0
			c-0.24,0.096-0.472,0.192-0.704,0.304c-0.232,0.087-0.458,0.186-0.68,0.296l-3.512,2.12c-14.021,8.486-30.72,11.393-46.784,8.144
			c-4.329-0.884-8.555,1.909-9.438,6.238c-0.108,0.527-0.162,1.064-0.162,1.602v80.56c0,11.348,3.068,22.485,8.88,32.232
			c6.712,11.308,16.842,20.194,28.928,25.376l23.024,9.92c2.007,0.864,4.281,0.864,6.288,0l23.032-9.92
			c12.086-5.182,22.216-14.068,28.928-25.376c5.826-9.743,8.908-20.88,8.92-32.232v-80.56
			C480.001,26.808,476.42,23.225,472.002,23.224z M408.032,159.802l-11.864-5.112c-8.99-3.854-16.525-10.462-21.52-18.872
			c-4.325-7.259-6.611-15.55-6.616-24v-71.4c13.713,1.091,27.477-1.323,40-7.016V159.802z M457.416,135.818
			c-4.993,8.413-12.529,15.024-21.52,18.88L424,159.81V33.402c12.523,5.692,26.287,8.107,40,7.016l0.032,71.4
			C464.027,120.268,461.741,128.559,457.416,135.818z"/>
	</g>
</g>
<g>
</g>
<g>
</g>
<g>
</g>
<g>
</g>
<g>
</g>
<g>
</g>
<g>
</g>
<g>
</g>
<g>
</g>
<g>
</g>
<g>
</g>
<g>
</g>
<g>
</g>
<g>
</g>
<g>
</g>
</svg>
