<?xml version="1.0" encoding="iso-8859-1"?>
<!-- Generator: Adobe Illustrator 19.0.0, SVG Export Plug-In . SVG Version: 6.00 Build 0)  -->
<svg version="1.1" id="Capa_1" xmlns="http://www.w3.org/2000/svg" xmlns:xlink="http://www.w3.org/1999/xlink" x="0px" y="0px"
	 viewBox="0 0 512 512" style="enable-background:new 0 0 512 512;" xml:space="preserve">
<path style="fill:#E1E6E9;" d="M256,8L256,8C119.2,8,8,119.2,8,256l0,0c0,136.8,111.2,248,248,248l0,0c136.8,0,248-111.2,248-248
	l0,0C504,119.2,392.8,8,256,8z"/>
<path style="fill:#4FBF9F;" d="M452,147.2h-4.8c-12,15.2-30.4,25.6-49.6,25.6c-20,0-37.6-9.6-49.6-25.6h-6.4c-28.8,0-52,23.2-52,52
	v30.4H504v-30.4C504,170.4,480.8,147.2,452,147.2z"/>
<g>
	<path style="fill:#FFFFFF;" d="M440.8,88c0,29.6-19.2,54.4-44,54.4c-24,0-44-24-44-54.4c0-11.2-3.2-32,1.6-40.8
		c8-15.2,27.2-13.6,42.4-13.6c16.8,0,38.4-0.8,45.6,16C446.4,57.6,440.8,79.2,440.8,88z"/>
	<path style="fill:#FFFFFF;" d="M448.8,38.4c-0.8-12-13.6-15.2-13.6-15.2c2.4-10.4-5.6-12.8-5.6-12.8c-20.8-4-53.6-1.6-53.6-1.6
		c-28,0.8-31.2,25.6-32,28c0,0.8,0,2.4,0,5.6l0,0l0,0c0,2.4,0,4.8,0,7.2v20.8l9.6,13.6c0,0,3.2-48.8,55.2-50.4
		c0,0,6.4,26.4,31.2,28.8l2.4,1.6v20c0-7.2,8-15.2,8-15.2C449.6,61.6,448.8,38.4,448.8,38.4z"/>
</g>
<path style="fill:#FDBF5E;" d="M171.2,421.6h-4.8c-12,15.2-30.4,25.6-49.6,25.6s-37.6-9.6-49.6-25.6H60c-28.8,0-52,23.2-52,52V504
	h215.2v-30.4C223.2,444.8,200,421.6,171.2,421.6z"/>
<g>
	<path style="fill:#FFFFFF;" d="M160,363.2c0,29.6-19.2,54.4-44,54.4s-44-24-44-54.4c0-11.2-3.2-32,1.6-40.8
		c8-15.2,27.2-13.6,42.4-13.6c16.8,0,38.4-0.8,45.6,16C165.6,332.8,160,353.6,160,363.2z"/>
	<path style="fill:#FFFFFF;" d="M168,312.8c-0.8-12-13.6-15.2-13.6-15.2c2.4-10.4-5.6-12.8-5.6-12.8c-20.8-4-54.4-0.8-54.4-0.8
		c-28,0.8-31.2,25.6-32,28c0,0.8,0,2.4,0,5.6l0,0l0,0c0,2.4,0,4.8,0,7.2v20.8l9.6,13.6c0,0,3.2-48.8,55.2-50.4
		c0,0,6.4,26.4,31.2,28.8l2.4,1.6v20c0-7.2,8-15.2,8-15.2C168.8,336,168,312.8,168,312.8z"/>
	<path style="fill:#FFFFFF;" d="M170.4,256L108,193.6c-11.2-11.2-11.2-29.6,0-41.6l12-12c11.2-11.2,29.6-11.2,40.8,0l62.4,62.4
		c11.2,11.2,11.2,29.6,0,41.6L212,256C200.8,267.2,182.4,267.2,170.4,256z"/>
	<path style="fill:#FFFFFF;" d="M305.6,390.4L243.2,328c-11.2-11.2-11.2-29.6,0-41.6l12-12c11.2-11.2,29.6-11.2,40.8,0l62.4,62.4
		c11.2,11.2,11.2,29.6,0,41.6l-12,12C335.2,402.4,316.8,402.4,305.6,390.4z"/>
</g>
<g>
	<path style="fill:#193651;" d="M452,139.2h-8.8l-2.4,3.2c-11.2,14.4-27.2,22.4-43.2,22.4c-16.8,0-32-8-43.2-22.4l-2.4-3.2h-10.4
		c-33.6,0-60,27.2-60,60v38.4H512v-38.4C512,165.6,484.8,139.2,452,139.2z M496,220.8H296.8v-22.4c0-24,20-44,44-44h3.2
		c14.4,16,33.6,25.6,53.6,25.6s39.2-8.8,53.6-25.6h1.6c24,0,44,20,44,44v22.4H496z"/>
	<path style="fill:#193651;" d="M345.6,87.2V88c0,34.4,23.2,62.4,52,62.4s52-28,52-62.4c0-1.6,0-4,0.8-6.4l0,0
		c0.8-2.4,3.2-5.6,4.8-7.2l2.4-2.4v-3.2c0.8-8,0-29.6,0-32c0-10.4-6.4-16.8-12.8-20c-0.8-8.8-6.4-13.6-12-15.2H432
		C424,0.8,413.6,0,402.4,0C388,0,376,0.8,376,0.8c-12,0-32.8,4.8-40,33.6c-0.8,1.6-0.8,3.2-0.8,8c0,2.4,0,31.2,0,31.2L345.6,87.2z
		 M396.8,134.4c-20,0-36-20.8-36-46.4c0-0.8,0-1.6,0-3.2l0,0V84c0-1.6,3.2-38.4,41.6-42.4c4,8.8,12,23.2,30.4,28v13.6l0,0l0,0
		c0,1.6,0,2.4,0,4C432.8,113.6,416.8,134.4,396.8,134.4z M351.2,42.4c0-1.6,0-3.2,0-4v-0.8c3.2-13.6,11.2-20.8,24.8-20.8
		c0,0,12-0.8,25.6-0.8c10.4,0,19.2,0.8,25.6,1.6c0.8,0.8,0,1.6,0,3.2l-1.6,7.2l7.2,2.4c0.8,0,7.2,2.4,7.2,8c0,3.2,0,10.4,0,16.8
		h-1.6c-19.2-2.4-24-22.4-24-23.2l-1.6-6.4h-6.4c-31.2,0.8-48,17.6-56,34.4C351.2,60.8,351.2,44.8,351.2,42.4z"/>
	<path style="fill:#193651;" d="M171.2,413.6h-8.8l-2.4,3.2c-11.2,14.4-27.2,22.4-43.2,22.4c-16.8,0-32-8-43.2-22.4l-2.4-3.2H60
		c-33.6,0-60,27.2-60,60V512h231.2v-38.4C231.2,440.8,204,413.6,171.2,413.6z M215.2,496H16v-22.4c0-24,20-44,44-44h2.4
		c14.4,16,33.6,25.6,53.6,25.6s39.2-8.8,53.6-25.6h1.6c24,0,44,20,44,44L215.2,496L215.2,496z"/>
	<path style="fill:#193651;" d="M64.8,362.4v0.8c0,34.4,23.2,62.4,52,62.4s52-28,52-62.4c0-1.6,0-4,0.8-5.6l0,0
		c0.8-2.4,3.2-5.6,4.8-7.2l2.4-2.4v-3.2c0.8-8,0-29.6,0-32c0-10.4-6.4-16.8-12.8-20c-0.8-8.8-6.4-13.6-11.2-15.2H152
		c-8-1.6-17.6-2.4-29.6-2.4C108,275.2,96,276,96,276c-12,0-32.8,4.8-40,33.6c-0.8,1.6-0.8,3.2-0.8,8c0,2.4,0,31.2,0,31.2L64.8,362.4
		z M116,408.8c-20,0-36-20.8-36-46.4c0-1.6,0-3.2,0-4.8l0,0c0.8-6.4,6.4-37.6,40.8-40.8c4,8.8,12,23.2,30.4,28v13.6l0,0l0,0
		c0,1.6,0,2.4,0,4C152,388.8,136,408.8,116,408.8z M70.4,317.6c0-1.6,0-3.2,0-4v-0.8c2.4-8.8,7.2-20,24.8-20.8c0,0,12-0.8,25.6-0.8
		c10.4,0,19.2,0.8,25.6,1.6c0,0,0.8,0.8,0,3.2l-1.6,7.2l7.2,2.4c0.8,0,7.2,2.4,7.2,8c0,3.2,0,10.4,0,16.8h-1.6
		c-19.2-2.4-24-22.4-24-23.2l-1.6-6.4h-6.4c-31.2,0.8-48,17.6-56,34.4C70.4,335.2,70.4,320,70.4,317.6z"/>
	<path style="fill:#193651;" d="M301.6,269.6c-7.2-7.2-16-11.2-26.4-11.2c-9.6,0-19.2,4-26.4,11.2l0,0l-20-20l0,0
		c14.4-14.4,14.4-38.4,0-52.8l-62.4-62.4c-7.2-7.2-16-11.2-26.4-11.2c-9.6,0-19.2,4-26.4,11.2l-12,12c-14.4,14.4-14.4,38.4,0,52.8
		l62.4,62.4c7.2,7.2,16,11.2,26.4,11.2c9.6,0,19.2-4,26.4-11.2l0,0l20,20l0,0c-14.4,14.4-14.4,38.4,0,52.8l62.4,62.4
		c7.2,7.2,16,11.2,26.4,11.2c9.6,0,19.2-4,26.4-11.2l12-12c14.4-14.4,14.4-38.4,0-52.8L301.6,269.6z M206.4,250.4
		c-8,8-21.6,8-29.6,0L114.4,188c-8-8-8-21.6,0-29.6l12-12c4-4,9.6-6.4,15.2-6.4s11.2,2.4,15.2,6.4l62.4,62.4c8,8,8,21.6,0,29.6l0,0
		L172.8,192L160,204L206.4,250.4L206.4,250.4z M352.8,372.8l-12,12c-8,8-21.6,8-29.6,0l-62.4-62.4c-8-8-8-21.6,0-29.6l0,0l46.4,46.4
		l11.2-11.2L260,281.6l0,0c4-4,9.6-6.4,15.2-6.4s11.2,2.4,15.2,6.4l62.4,62.4C360.8,351.2,360.8,364.8,352.8,372.8z"/>
	
		<rect x="62.05" y="218.371" transform="matrix(0.1565 -0.9877 0.9877 0.1565 -164.4947 260.1319)" style="fill:#193651;" width="16" height="16"/>
	
		<rect x="433.904" y="277.66" transform="matrix(0.1565 -0.9877 0.9877 0.1565 90.6075 677.4151)" style="fill:#193651;" width="16" height="16"/>
	
		<rect x="248.688" y="59.197" transform="matrix(-1 -0.0088 0.0088 -1 512.7762 136.6517)" style="fill:#193651;" width="16.001" height="16.001"/>
	
		<rect x="246.7" y="436.022" transform="matrix(-1 -0.0088 0.0088 -1 505.4845 890.2688)" style="fill:#193651;" width="16.001" height="16.001"/>
</g>
<g>
</g>
<g>
</g>
<g>
</g>
<g>
</g>
<g>
</g>
<g>
</g>
<g>
</g>
<g>
</g>
<g>
</g>
<g>
</g>
<g>
</g>
<g>
</g>
<g>
</g>
<g>
</g>
<g>
</g>
</svg>
