<svg height="682pt" viewBox="-21 -149 682.66669 682" width="682pt" xmlns="http://www.w3.org/2000/svg"><path d="m320-8.167969c-155.445312 0-292.886719 81.441407-319.691406 189.429688-.199219.84375-.308594 1.703125-.308594 2.574219v.101562c0 .875.109375 1.738281.320312 2.582031 26.921876 107.925781 164.351563 189.3125 319.679688 189.3125s292.769531-81.429687 319.679688-189.417969c.210937-.84375.320312-1.710937.320312-2.578124v-.109376c0-.867187-.109375-1.738281-.320312-2.582031-27.007813-107.925781-164.4375-189.3125-319.679688-189.3125zm0 362.667969c-144.609375 0-272.117188-73.226562-298.242188-170.664062 26.125-97.503907 153.601563-170.667969 298.242188-170.667969s272 73.234375 298.242188 170.722656c-26.242188 97.445313-153.71875 170.609375-298.242188 170.609375zm0 0"/><path d="m320 45.167969c-76.582031 0-138.667969 62.082031-138.667969 138.667969 0 76.582031 62.085938 138.667968 138.667969 138.667968s138.667969-62.085937 138.667969-138.667968c-.089844-76.546876-62.121094-138.578126-138.667969-138.667969zm0 255.996093c-64.800781 0-117.335938-52.527343-117.335938-117.328124 0-64.804688 52.535157-117.335938 117.335938-117.335938s117.335938 52.53125 117.335938 117.335938c-.078126 64.765624-52.566407 117.253906-117.335938 117.328124zm0 0"/><path d="m320 109.167969c-41.234375 0-74.667969 33.425781-74.667969 74.667969 0 41.234374 33.433594 74.664062 74.667969 74.664062s74.667969-33.429688 74.667969-74.664062c-.050781-41.222657-33.453125-74.625-74.667969-74.667969zm0 127.996093c-29.453125 0-53.335938-23.875-53.335938-53.328124 0-29.457032 23.882813-53.335938 53.335938-53.335938s53.335938 23.878906 53.335938 53.335938c-.039063 29.4375-23.898438 53.296874-53.335938 53.328124zm0 0"/><path d="m144.195312 76.34375c-7.824218 3.878906-15.320312 8.390625-22.402343 13.484375-4.792969 3.4375-5.890625 10.101563-2.453125 14.890625 3.433594 4.789062 10.097656 5.890625 14.886718 2.453125 6.132813-4.441406 12.625-8.359375 19.40625-11.734375 3.4375-1.671875 5.71875-5.054688 5.976563-8.871094s-1.546875-7.476562-4.726563-9.597656c-3.183593-2.117188-7.261718-2.371094-10.679687-.667969zm0 0"/><path d="m80.703125 119.207031c-16.25 17.875-28.96875 38.660157-37.492187 61.265625-1.847657 5.578125 1.164062 11.609375 6.742187 13.476563 1.09375.355469 2.230469.546875 3.382813.550781 4.578124 0 8.652343-2.929688 10.109374-7.277344 7.664063-19.789062 18.894532-38.007812 33.132813-53.75 3.933594-4.378906 3.574219-11.125-.804687-15.0625-4.386719-3.941406-11.128907-3.578125-15.070313.804688zm0 0"/></svg>