<?xml version="1.0" encoding="iso-8859-1"?>
<!-- Generator: Adobe Illustrator 19.0.0, SVG Export Plug-In . SVG Version: 6.00 Build 0)  -->
<svg version="1.1" id="Capa_1" xmlns="http://www.w3.org/2000/svg" xmlns:xlink="http://www.w3.org/1999/xlink" x="0px" y="0px"
	 viewBox="0 0 511.997 511.997" style="enable-background:new 0 0 511.997 511.997;" xml:space="preserve">
<path style="fill:#FFC868;" d="M492.742,371.116l-5.363-8.891l-4.3-7.828L321.935,84.634l-7.973-13.143
	c-19.245-32.021-60.804-42.38-92.825-23.14c-9.49,5.702-17.438,13.65-23.14,23.14l-4.832,8.311l0,0l-4.832,8.214L28.882,354.397
	l-4.832,8.601l0,0l-4.832,8.118c-19.11,32.103-8.572,73.618,23.531,92.724c10.422,6.204,22.318,9.49,34.446,9.514h357.559
	c37.36-0.082,67.579-30.436,67.496-67.796C502.227,393.434,498.941,381.538,492.742,371.116z"/>
<path style="fill:#FF7575;" d="M230.613,281.339c1.367,14.022,13.848,24.28,27.87,22.913c12.128-1.184,21.729-10.785,22.913-22.913
	l12.659-101.035l0,0c0.435-4.832,0.676-5.75,0.676-8.311c-0.097-22.806-17.395-41.699-38.752-41.699
	c-22.004,0.657-39.312,19.028-38.66,41.032c0,0.029,0,0.058,0.005,0.087c0.005,3.102,0.343,6.199,1.015,9.229L230.613,281.339z
	 M255.98,333.234c-21.347,0-38.655,17.308-38.655,38.655s17.308,38.655,38.655,38.655s38.655-17.308,38.655-38.655
	S277.327,333.234,255.98,333.234z"/>
<path style="fill:#171C1F;" d="M255.98,328.402c-24.019,0-43.487,19.468-43.487,43.487s19.468,43.487,43.487,43.487
	s43.487-19.468,43.487-43.487S279.994,328.402,255.98,328.402z M255.98,405.712c-18.68,0-33.823-15.143-33.823-33.823
	s15.143-33.823,33.823-33.823s33.823,15.143,33.823,33.823S274.66,405.712,255.98,405.712z M227.424,284.915
	c2.764,15.771,17.786,26.314,33.557,23.555c12.027-2.107,21.449-11.524,23.555-23.555l14.206-106.591l0,0
	c0.483-4.832,0.725-6.088,0.725-8.794c0.082-24.145-19.342-43.83-43.487-44.067c-24.019,0-43.487,19.468-43.487,43.487
	c0.019,3.257,0.406,6.499,1.16,9.664L227.424,284.915z M255.98,135.127c18.83,0.184,33.958,15.573,33.823,34.403
	c-0.014,1.324-0.111,2.648-0.29,3.962c0,1.015-0.242,2.271-0.387,3.865v0.628l-14.157,105.432
	c-1.986,10.485-12.104,17.375-22.589,15.39c-7.803-1.479-13.911-7.586-15.39-15.39L223.22,177.116v-0.483v-0.483
	c-0.618-2.353-0.976-4.769-1.063-7.2C222.157,150.27,237.3,135.127,255.98,135.127z"/>
<g style="opacity:0.1;">
	<path d="M255.98,434.703c24.019-0.005,43.482-19.477,43.477-43.497c0-6.924-1.657-13.747-4.822-19.898v0.58
		c0,21.347-17.308,38.655-38.655,38.655s-38.655-17.308-38.655-38.655c0,0,0-0.387,0-0.58c-10.993,21.352-2.6,47.575,18.757,58.572
		C242.233,433.046,249.056,434.703,255.98,434.703z M227.424,304.242c2.764,15.771,17.786,26.314,33.557,23.555
		c12.027-2.107,21.449-11.524,23.555-23.555l14.206-106.591l0,0c0.483-4.832,0.725-6.088,0.725-8.794
		c0.043-7.069-1.614-14.046-4.832-20.342c0,1.16,0,2.319,0,3.527c0,2.561-0.242,3.721-0.676,8.311l0,0l-12.611,100.986
		c-1.367,14.022-13.848,24.28-27.87,22.913c-12.128-1.184-21.729-10.785-22.913-22.913L218.34,180.546
		c-0.667-3.015-1.005-6.093-1.015-9.181c0-1.16,0-2.271,0-3.382c-3.247,6.267-4.904,13.234-4.832,20.294
		c0.019,3.257,0.406,6.499,1.16,9.664L227.424,304.242z M492.452,401.653c-2.885,29.706-27.846,52.368-57.693,52.378H77.201
		c-29.861-0.01-54.832-22.7-57.693-52.426c0,1.353-0.29,2.754-0.29,4.107c0,32.021,25.962,57.983,57.983,57.983h357.559
		c32.021,0,57.983-25.962,57.983-57.983c0-1.401,0-2.754-0.29-4.107V401.653z M255.98,396.048
		c-16.762-0.068-30.943-12.403-33.34-28.991c-3.146,18.414,9.229,35.891,27.643,39.037c18.414,3.146,35.891-9.229,39.037-27.643
		c0.643-3.769,0.643-7.625,0-11.394C286.923,383.645,272.737,395.98,255.98,396.048z M223.172,176.826v0.483l13.771,106.301
		c1.986,10.485,12.104,17.375,22.589,15.39c7.803-1.479,13.911-7.586,15.39-15.39l14.061-105.432v-0.628
		c0-1.643,0.29-2.851,0.387-3.866c0.179-1.314,0.275-2.638,0.29-3.962c-0.014-1.619-0.145-3.233-0.387-4.832
		c0,0.87,0,1.836-0.338,3.092v0.628l-13.964,105.142c-1.986,10.485-12.104,17.375-22.589,15.39
		c-7.803-1.479-13.911-7.586-15.39-15.39L223.22,167.452v-0.483v-0.483c0-0.966-0.338-1.884-0.483-2.802
		c-0.333,1.739-0.527,3.498-0.58,5.267c0.014,2.542,0.324,5.069,0.918,7.538L223.172,176.826z"/>
</g>
<path style="fill:#171C1F;" d="M501.101,366.139L501.101,366.139L322.322,66.562l0,0c-21.946-36.626-69.424-48.527-106.05-26.585
	c-10.915,6.538-20.043,15.67-26.585,26.585l0,0L10.907,366.139l0,0c-21.855,36.679-9.838,84.133,26.841,105.987
	c11.935,7.113,25.561,10.877,39.452,10.896h357.559c42.699-0.039,77.276-34.683,77.238-77.382
	C511.982,391.733,508.218,378.083,501.101,366.139z M434.759,463.694H77.201c-32.021-0.053-57.939-26.058-57.886-58.079
	c0.019-10.413,2.836-20.627,8.166-29.571l9.664-16.67l0,0L196.113,92.993l0,0l9.664-16.525
	c16.453-27.474,52.063-36.408,79.533-19.956c8.195,4.904,15.046,11.761,19.956,19.956l7.924,13.094l161.433,269.812l0,0
	l9.954,16.622c16.414,27.498,7.427,63.095-20.072,79.504C455.508,460.868,445.23,463.699,434.759,463.694z"/>
<g>
</g>
<g>
</g>
<g>
</g>
<g>
</g>
<g>
</g>
<g>
</g>
<g>
</g>
<g>
</g>
<g>
</g>
<g>
</g>
<g>
</g>
<g>
</g>
<g>
</g>
<g>
</g>
<g>
</g>
</svg>
