<?xml version="1.0" encoding="iso-8859-1"?>
<!-- Generator: Adobe Illustrator 19.0.0, SVG Export Plug-In . SVG Version: 6.00 Build 0)  -->
<svg version="1.1" id="Capa_1" xmlns="http://www.w3.org/2000/svg" xmlns:xlink="http://www.w3.org/1999/xlink" x="0px" y="0px"
	 viewBox="0 0 512 512" style="enable-background:new 0 0 512 512;" xml:space="preserve">
<polygon style="fill:#E1EFFA;" points="341.798,441.102 221.862,441.102 237.087,366.972 326.556,366.972 "/>
<polygon style="fill:#B6D4ED;" points="341.798,441.102 326.556,366.972 237.087,366.972 311.227,441.102 "/>
<rect x="189.747" y="441.11" style="fill:#E1EFFA;" width="184.146" height="8.986"/>
<path style="fill:#34495E;" d="M62.904,61.905c-6.136,0-11.172,5.048-11.172,11.19V355.77c0,6.167,5.033,11.205,11.172,11.205
	h437.878c6.157,0,11.218-5.038,11.218-11.205V73.094c0-6.141-5.061-11.19-11.218-11.19H62.904z"/>
<rect x="74.982" y="85.142" style="fill:#FFFFFF;" width="413.747" height="258.56"/>
<rect x="92.186" y="99.619" style="fill:#FF8E31;" width="114.468" height="34.307"/>
<g>
	<rect x="224.64" y="99.619" style="fill:#E1EFFA;" width="249.626" height="34.307"/>
	<rect x="89.457" y="293.193" style="fill:#E1EFFA;" width="384.794" height="11.343"/>
	<rect x="89.457" y="317.948" style="fill:#E1EFFA;" width="384.794" height="11.29"/>
</g>
<g>
	<rect x="89.457" y="214.499" style="fill:#D0E070;" width="114.468" height="65.306"/>
	<rect x="224.64" y="214.499" style="fill:#D0E070;" width="114.458" height="65.306"/>
	<rect x="359.782" y="214.499" style="fill:#D0E070;" width="114.481" height="65.306"/>
</g>
<rect x="89.457" y="147.35" style="fill:#B8D1E6;" width="384.794" height="53.727"/>
<path style="fill:#2E445C;" d="M286.208,366.982H62.886c-6.118,0-11.139-5.066-11.139-11.233v-151.67H74.98v139.62h187.95
	L286.208,366.982z"/>
<path style="fill:#E1EFFA;" d="M262.927,343.704H74.98V204.079h39.483c5.688,0,10.898,2.15,14.723,5.88
	c0.381,0.238,0.717,0.622,1.052,1.052l3.489,3.489H89.464v65.3h109.558l13.384,13.384H89.462v11.377H223.78l13.384,13.384H89.462
	v11.282h158.984L262.927,343.704z"/>
<polygon style="fill:#B8D26E;" points="199.02,279.797 89.462,279.797 89.462,214.501 133.724,214.501 "/>
<g>
	<polygon style="fill:#C7E0F4;" points="223.78,304.557 89.462,304.557 89.462,293.18 212.403,293.18 	"/>
	<polygon style="fill:#C7E0F4;" points="248.445,329.22 89.462,329.22 89.462,317.94 237.164,317.94 	"/>
</g>
<path style="fill:#34495E;" d="M16.806,450.083C7.572,450.083,0,442.525,0,433.253V225.714c0-9.244,7.572-16.824,16.806-16.824
	h97.623c9.226,0,16.806,7.575,16.806,16.824v207.542c0,9.267-7.58,16.829-16.806,16.829H16.806V450.083z"/>
<g>
	<path style="fill:#283A4D;" d="M80.161,432.708c0,2.204-1.774,4.014-4.006,4.014H55.076c-2.189,0-4.019-1.812-4.019-4.014v-1.692
		c0-2.189,1.83-4.024,4.019-4.024h21.079c2.237,0,4.006,1.836,4.006,4.024C80.161,431.016,80.161,432.708,80.161,432.708z"/>
	<path style="fill:#283A4D;" d="M70.477,227.107c0,2.678-2.143,4.851-4.833,4.851c-2.716,0-4.867-2.176-4.867-4.851
		c0-2.662,2.15-4.841,4.867-4.841C68.329,222.263,70.477,224.444,70.477,227.107z"/>
</g>
<path style="fill:#5D6D7E;" d="M67.896,227.107c0,1.267-0.986,2.281-2.255,2.281c-1.262,0-2.299-1.014-2.299-2.281
	c0-1.262,1.042-2.276,2.299-2.276C66.916,224.831,67.896,225.844,67.896,227.107z"/>
<rect x="9.531" y="245.372" style="fill:#FFFFFF;" width="112.187" height="168.284"/>
<rect x="18.173" y="253.974" style="fill:#FF8E31;" width="94.95" height="14.513"/>
<g>
	<rect x="18.173" y="389.782" style="fill:#E1EFFA;" width="94.95" height="4.756"/>
	<rect x="18.173" y="400.252" style="fill:#E1EFFA;" width="94.95" height="4.756"/>
</g>
<rect x="18.173" y="309.731" style="fill:#D0E070;" width="94.95" height="74.368"/>
<rect x="18.173" y="274.147" style="fill:#B8D1E6;" width="94.95" height="29.926"/>
<g>
</g>
<g>
</g>
<g>
</g>
<g>
</g>
<g>
</g>
<g>
</g>
<g>
</g>
<g>
</g>
<g>
</g>
<g>
</g>
<g>
</g>
<g>
</g>
<g>
</g>
<g>
</g>
<g>
</g>
</svg>
